<?xml version="1.0" encoding="UTF-8"?><svg id="_레이어_2" xmlns="http://www.w3.org/2000/svg" viewBox="0 0 164.34 202.711"><g id="_레이어_1-2"><g><path d="m46.492,57.18c-18.144,14.975-31.323,35.098-39.822,56.9-7.309,18.75-12.058,43.504,4.741,58.799,9.808,8.93,23.038,11.756,35.823,13.216,2.347.268,4.6-2.261,4.5-4.5-.119-2.667-1.985-4.213-4.5-4.5-.633-.072-1.266-.147-1.899-.226-.002,0-1.253-.164-.547-.069s-.55-.079-.551-.079c-1.284-.185-2.565-.39-3.842-.623-2.566-.467-5.115-1.039-7.62-1.767-1.248-.363-2.485-.763-3.706-1.209-.608-.222-1.21-.459-1.811-.7.16.064.792.351.004,0-.354-.157-.707-.315-1.057-.479-2.407-1.128-4.625-2.502-6.793-4.031-.615-.434.793.665-.161-.129-.199-.166-.401-.329-.599-.496-.497-.422-.981-.858-1.452-1.308-.965-.922-1.82-1.923-2.696-2.927-.478-.547.605.849-.078-.1-.141-.196-.284-.39-.422-.587-.342-.488-.67-.987-.982-1.495-.644-1.049-1.221-2.139-1.729-3.26-.108-.239-.393-.997-.028-.044-.083-.216-.172-.43-.254-.647-.205-.54-.395-1.086-.571-1.637-.369-1.156-.671-2.333-.913-3.522-.104-.511-.198-1.025-.28-1.54-.038-.238-.322-1.334-.034-.186-.053-.211-.057-.485-.079-.695-.129-1.226-.201-2.457-.225-3.69-.046-2.385.09-4.772.363-7.141.034-.299.073-.598.11-.897-.124,1.005-.046.334-.012.12.095-.597.184-1.195.287-1.791.218-1.254.47-2.502.75-3.744,1.06-4.701,2.524-9.305,4.21-13.816.382-1.022.776-2.039,1.18-3.052.253-.635.513-1.266.772-1.898.498-1.217-.211.483.102-.247.188-.439.376-.879.567-1.317,1.092-2.502,2.251-4.975,3.479-7.414,2.45-4.868,5.171-9.601,8.168-14.153,1.647-2.502,3.39-4.931,5.185-7.327.808-1.078-.54.678.292-.382.252-.321.504-.642.758-.961.466-.585.937-1.166,1.413-1.743.996-1.207,2.014-2.395,3.055-3.564,4.089-4.591,8.524-8.863,13.265-12.777,1.823-1.505,1.674-4.827,0-6.364-1.938-1.779-4.419-1.605-6.364,0h0Z" style="fill:#fff;"/><path d="m83.468,74.01s1.324.651.775.318c-.122-.074-.256-.134-.381-.203-.323-.176-.639-.364-.954-.552-.914-.545-1.816-1.11-2.715-1.677-1.928-1.215-3.842-2.453-5.759-3.685-5.169-3.321-10.649-6.128-15.703-9.635-.604-.419-1.202-.846-1.792-1.283-.187-.139-1.184-.908-.404-.294-.336-.264-.671-.529-1.002-.799-1.222-.996-2.404-2.041-3.528-3.146-1.155-1.135-2.238-2.334-3.256-3.592-.543-.671.336.479-.164-.222-.207-.29-.417-.578-.619-.872-.47-.685-.914-1.388-1.327-2.108-.356-.619-.689-1.25-.999-1.893-.104-.215-.201-.433-.302-.649-.038-.08-.27-.638-.058-.122s-.015-.047-.046-.129c-.084-.226-.172-.45-.254-.677-.542-1.508-.95-3.064-1.219-4.643-.042-.25-.083-.501-.117-.752.009.064.065.769.043.241-.018-.443-.084-.885-.105-1.328-.021-.455-.026-.911-.004-1.366.005-.114.133-1.028.036-.528-.08.413.129-.432.151-.508.058-.201.124-.397.193-.595-.038.11-.32.559-.049.17.214-.307.434-.689.61-1.021.308-.581-.432.442.021-.042.137-.146.261-.305.397-.453.318-.347.654-.677.999-.997s.702-.623,1.063-.923c.681-.564.257-.196.103-.085.232-.167.465-.334.703-.493.415-.277.843-.535,1.283-.77.188-.1.377-.197.57-.287-.577.269.025.006.307-.08.203-.062.408-.112.613-.167.419-.114.494-.05.028-.032.473-.018.945.009,1.415-.004.509-.014-.095-.016-.192-.037.333.073.663.136.992.227.244.068,1.377.491.66.175.441.194.868.423,1.283.666.238.14.471.286.701.439.066.044.738.528.379.252-.379-.291.169.148.197.174.212.189.427.375.634.57.414.389.81.797,1.192,1.216.335.368.657.748.972,1.134.135.166.271.331.401.501-.288-.376-.093-.116.072.114.668.928,1.321,1.866,1.965,2.811,1.323,1.942,4.016,2.994,6.157,1.614,1.932-1.246,3.032-4.077,1.614-6.157-2.624-3.85-5.369-7.711-9.386-10.225-4.425-2.769-9.607-3.205-14.352-1.048-4.191,1.904-8.184,5.697-9.881,9.996-1.614,4.09-.816,9.144.417,13.249,2.187,7.287,6.983,13.469,12.76,18.302,6.042,5.055,12.91,8.646,19.563,12.785,2.168,1.349,4.298,2.762,6.453,4.133,2.082,1.323,4.148,2.771,6.456,3.674,2.197.86,5.034-.943,5.536-3.143.589-2.585-.79-4.615-3.143-5.536h0Z" style="fill:#fff;"/><path d="m69.5,32.899c-.094-.696-.2-1.391-.304-2.085-.044-.296-.088-.591-.132-.887-.159-1.079-.013.122.014.122-.219-.001.021-3.853.05-4.218.107-1.357-.161.876.048-.446.064-.404.131-.806.205-1.208.124-.681.264-1.359.403-2.037.342-1.668.602-3.363.996-5.019.083-.347.183-.687.281-1.03.305-1.07-.37.463.204-.487.058-.097.679-.953.373-.6-.244.282.555-.532.672-.642.577-.539,1.196-1.029,1.806-1.529.723-.592-.396.264.435-.339.288-.209.574-.42.865-.624.639-.446,1.293-.87,1.967-1.261.364-.211.734-.412,1.111-.601.092-.046,1.096-.496.601-.293s.528-.183.625-.214c.392-.128.789-.242,1.191-.336.143-.034,1.384-.172.433-.111.419-.027.833-.052,1.254-.056,2.353-.02,4.609-2.055,4.5-4.5C86.99,2.079,85.121-.021,82.598,0c-4.187.036-8.135,1.625-11.549,3.978-3.618,2.494-7.125,5.227-8.598,9.519-.597,1.739-.804,3.612-1.172,5.408-.415,2.026-.806,4.044-1.057,6.098-.43,3.53.126,6.801.599,10.288.318,2.341,3.438,3.822,5.536,3.143,2.575-.833,3.484-3.026,3.143-5.536h0Z" style="fill:#fff;"/><path d="m111.437,63.543c4.181,3.64,8.167,7.5,11.925,11.576,1.905,2.065,3.75,4.185,5.534,6.356.853,1.037,1.692,2.086,2.514,3.148-.592-.764.222.295.278.369.162.214.324.429.486.644.484.646.963,1.296,1.436,1.951,3.312,4.581,6.348,9.364,9.052,14.329,1.348,2.476,2.614,4.997,3.788,7.561.279.609.553,1.221.821,1.835.134.307.265.615.398.922.311.718-.392-.974.091.221.551,1.364,1.095,2.729,1.603,4.11,1.929,5.253,3.459,10.657,4.507,16.155.249,1.308.472,2.62.667,3.937-.003-.018.18,1.279.086.589s.075.609.073.591c.096.794.183,1.59.258,2.386.263,2.78.487,5.623.401,8.418-.017.568-.07,1.138-.129,1.703-.022.21-.03.459-.077.669.269-1.209.006-.123-.036.119-.203,1.172-.478,2.332-.826,3.47-.155.507-.324,1.009-.507,1.506-.073.197-.153.392-.225.59-.373,1.022.429-.899-.033.083-.488,1.035-.992,2.053-1.58,3.036-.531.888-1.116,1.736-1.725,2.572-.477.655.1-.088.136-.174-.103.242-.419.519-.589.72-.401.476-.815.94-1.242,1.392-.716.758-1.466,1.483-2.246,2.176-.393.348-.793.688-1.199,1.02-.14.115-.328.302-.493.395,1.059-.594-.124.086-.354.253-1.996,1.449-4.122,2.717-6.329,3.819-.583.291-1.172.57-1.766.838-.248.112-.502.213-.748.33-.307.132-.2.087.321-.135-.202.084-.404.166-.607.247-1.17.467-2.357.892-3.556,1.278-2.451.787-4.955,1.407-7.489,1.862-.642.115-1.287.214-1.932.314-.824.127.117,0,.231-.028-.406.102-.869.107-1.286.151-1.274.135-2.552.224-3.832.277-2.349.096-4.612,2.001-4.5,4.5.106,2.356,1.981,4.603,4.5,4.5,19.224-.786,42.053-10.927,46.368-31.631,1.197-5.742.735-11.674-.012-17.448-.77-5.958-1.984-11.821-3.759-17.563-3.558-11.51-8.978-22.465-15.684-32.459-7.415-11.051-16.315-21.106-26.35-29.843-1.774-1.545-4.642-1.875-6.364,0-1.555,1.694-1.896,4.713,0,6.364h0Z" style="fill:#fff;"/><path d="m83.217,82.689c2.021-.791,3.825-2.01,5.652-3.165,2.086-1.318,4.154-2.662,6.232-3.991,5.926-3.792,12.22-6.943,17.821-11.243,6.276-4.818,11.583-10.527,14.614-17.931,1.51-3.687,2.518-8.111,2.13-12.1-.515-5.304-3.768-9.053-7.933-12.073-2.332-1.69-4.971-2.771-7.846-3.036-2.774-.256-5.523.536-7.993,1.744-4.687,2.29-7.798,6.746-10.65,10.93-1.329,1.95-.433,5.075,1.614,6.157,2.282,1.205,4.738.467,6.157-1.614.523-.767,1.046-1.535,1.587-2.29.125-.174.252-.347.377-.521.013-.018.432-.586.164-.229s.159-.202.174-.22c.179-.221.359-.442.544-.659.598-.703,1.231-1.377,1.911-2.001.157-.144.318-.284.477-.426.028-.025.576-.464.197-.174-.374.287.173-.116.207-.138.289-.19.575-.379.873-.553.358-.21.731-.384,1.097-.578.454-.241-.044.025-.127.052.195-.063.386-.137.582-.199.455-.144.917-.243,1.383-.343-.097.021-.701.023-.192.037.267.007.54-.028.808-.024.203.003.404.02.607.028-.114-.004-.673-.171-.18-.011.469.153.956.243,1.423.414-.668-.244.256.149.464.264.437.241.86.509,1.272.791.177.121.35.249.526.372-.577-.404.004.002.103.085.309.258.617.515.915.786s.591.55.871.841c.14.145.276.293.41.443.229.257.525.706.172.181.223.331.426.667.631,1.009.03.05.32.641.112.179-.206-.456.043.139.061.204.057.206.094.46.176.656.26.627.007-.535.045.144.03.532.053,1.058.036,1.591-.015.456-.06.909-.095,1.364-.006.08-.067.729-.009.169.061-.597-.032.206-.055.348-.13.801-.296,1.597-.497,2.383-.197.769-.428,1.528-.692,2.276-.12.341-.259.676-.381,1.016-.172.483.089-.2.108-.244-.123.272-.243.545-.371.816-.661,1.396-1.436,2.737-2.303,4.016-.2.295-.405.586-.614.875-.105.144-.213.286-.317.431.091-.125.571-.71.048-.064-.489.604-.988,1.197-1.509,1.773-1.091,1.207-2.255,2.347-3.47,3.429-.545.485-1.1.958-1.664,1.421-.283.232-.569.46-.855.688-.655.522-.087.067.042-.03-.196.147-.39.295-.586.441-5.219,3.884-11.013,6.805-16.485,10.286-2.044,1.3-4.074,2.624-6.119,3.922-1.049.666-2.1,1.33-3.164,1.972-.368.222-.737.444-1.111.655-.478.269-1.646.716.201-.007-2.185.855-3.946,3.055-3.143,5.536.687,2.122,3.189,4.061,5.536,3.143h0Z" style="fill:#fff;"/><path d="m103.471,35.291c.473-3.486,1.029-6.76.599-10.288-.25-2.054-.642-4.072-1.057-6.098-.368-1.795-.575-3.67-1.172-5.408-1.471-4.287-4.979-7.032-8.598-9.519C89.824,1.628,85.885.036,81.694,0c-2.354-.02-4.608,2.084-4.5,4.5.11,2.455,1.977,4.479,4.5,4.5.421.004.834.021,1.254.056-.804-.066.151.045.433.111.673.157,1.321.38,1.97.617-.839-.307.37.188.447.227.376.189.746.391,1.111.601.613.354,1.209.737,1.792,1.139.351.242.696.493,1.04.746,1.119.822-.638-.535.435.339.556.452,1.119.898,1.648,1.382.319.292.608.606.913.911-.512-.512.207.344.29.477l.193.377c-.147-.361-.166-.392-.058-.092.092.413.251.817.35,1.232.377,1.587.623,3.211.953,4.81.154.748.309,1.495.446,2.246.074.402.139.805.205,1.208.141.859,0-.306.026.238.07,1.449.146,2.85.086,4.303-.02.481.154-1.045.025-.17-.052.352-.104.705-.157,1.057-.104.695-.209,1.389-.304,2.085-.315,2.322.557,4.946,3.143,5.536,2.113.481,5.197-.648,5.536-3.143h0Z" style="fill:#fff;"/><path d="m43.167,180.137c-.614,4.557-.451,8.992,1.643,13.179,1.561,3.12,4.367,5.707,7.514,7.174,6.689,3.118,14.724,2.744,21.539.175,4.118-1.552,7.954-3.746,11.082-6.879,1.665-1.668,1.792-4.719,0-6.364s-4.587-1.78-6.364,0c-.496.497-1.017.958-1.548,1.417-.91.786.778-.529-.211.169-.326.23-.65.462-.984.682-1.268.834-2.607,1.469-3.959,2.144-.539.27,1.11-.426.281-.117-.154.057-.306.123-.459.182-.346.134-.694.26-1.044.381-.739.254-1.488.48-2.246.676-.713.184-1.434.343-2.159.473-.2.036-.402.066-.602.101-.881.156.354-.045.354-.04-.007.056-1.058.115-1.201.126-1.492.124-2.976.102-4.467-.023-.095-.008-.392-.079-.455-.05.032-.015,1.219.202.52.068-.331-.064-.665-.111-.996-.18-.682-.141-1.358-.319-2.019-.539-.33-.11-.673-.291-1.01-.373.027.006,1.083.515.489.2-.124-.066-.256-.12-.382-.182-.628-.311-1.211-.679-1.794-1.065-.916-.607.706.645.014.006-.228-.21-.463-.411-.682-.631s-.421-.456-.631-.686c-.416-.456.11-.277.249.339-.036-.161-.274-.383-.363-.518-.197-.297-.379-.605-.547-.919-.069-.128-.13-.259-.198-.387-.456-.857.189.11.094.266.117-.193-.629-2.023-.694-2.347-.041-.201-.07-.405-.11-.606-.162-.823.086,1.101.033.186-.026-.444-.066-.886-.075-1.331-.009-.469,0-.939.023-1.408.017-.333.231-2.306.043-.906.313-2.322-.555-4.946-3.143-5.536-2.111-.481-5.2.648-5.536,3.143h0Z" style="fill:#fff;"/><path d="m56.576,156.036c-6.44,5.892-11.354,13.761-13.112,22.364-.47,2.3.664,4.971,3.143,5.536,2.245.511,5.031-.677,5.536-3.143.385-1.884.918-3.73,1.61-5.524.097-.251.177-.525.304-.763-.142.266-.298.677-.065.169.206-.448.411-.897.63-1.339.438-.885.911-1.752,1.418-2.599.479-.801.986-1.585,1.521-2.35.283-.405.58-.8.872-1.199.371-.507-.5.612-.098.129.176-.211.344-.429.519-.64,1.26-1.521,2.631-2.943,4.088-4.276,1.741-1.593,1.737-4.77,0-6.364-1.862-1.709-4.506-1.7-6.364,0h0Z" style="fill:#fff;"/><path d="m80.396,126.895c-5.632.022-11.382.745-16.764,2.443-5.252,1.657-10.168,4.239-14.806,7.177-1.987,1.258-2.964,4.064-1.614,6.157,1.282,1.989,4.03,2.962,6.157,1.614,2.067-1.309,4.176-2.554,6.358-3.664.594-.302,1.193-.595,1.797-.876.269-.125.539-.246.808-.368.233-.105.595-.256.149-.071,1.161-.483,2.345-.913,3.544-1.292,2.418-.763,4.898-1.304,7.404-1.684.256-.039.671-.082.176-.025.305-.035.609-.072.915-.104.607-.064,1.216-.118,1.825-.162,1.349-.098,2.7-.141,4.052-.147,2.354-.009,4.609-2.063,4.5-4.5s-1.977-4.51-4.5-4.5h0Z" style="fill:#fff;"/><path d="m80.396,135.895c1.276.005,2.551.044,3.825.131.609.042,1.217.093,1.824.155.305.031.609.073.914.1.768.068-.589-.096.176.019,2.584.388,5.139.93,7.632,1.717,1.131.357,2.234.778,3.338,1.208.693.27-.523-.249.151.065.268.125.541.241.81.364.606.278,1.206.568,1.801.868,2.252,1.135,4.426,2.416,6.556,3.765,1.992,1.262,5.049.482,6.157-1.614,1.174-2.221.512-4.81-1.614-6.157-4.638-2.938-9.555-5.52-14.806-7.177-5.381-1.698-11.131-2.421-16.764-2.443-2.354-.009-4.609,2.077-4.5,4.5.11,2.446,1.977,4.49,4.5,4.5h0Z" style="fill:#fff;"/><path d="m80.396,160.263c-.747-.007-1.484-.065-2.228-.12.806.059.098.017-.306-.055-.316-.057-.631-.122-.944-.193-.703-.159-1.399-.352-2.084-.577-.383-.126-.76-.266-1.138-.408-1.227-.462.757.391-.439-.195-1.508-.738-2.929-1.579-4.3-2.549-.243-.182-.246-.178-.007.012l-.365-.291c-.305-.249-.606-.502-.902-.762-.55-.483-1.083-.986-1.601-1.503-1.011-1.008-1.964-2.074-2.876-3.172-.261-.314-.516-.632-.772-.95-.852-1.058.509.696-.317-.407-.514-.686-1.02-1.378-1.513-2.079-2.017-2.867-3.857-5.854-5.621-8.882-1.185-2.034-4.116-2.93-6.157-1.614s-2.883,3.98-1.614,6.157c3.679,6.314,7.728,12.747,13.038,17.833,5.46,5.23,12.501,8.689,20.146,8.757,2.354.021,4.608-2.085,4.5-4.5-.11-2.456-1.977-4.477-4.5-4.5h0Z" style="fill:#fff;"/><path d="m80.396,169.263c7.641-.068,14.694-3.524,20.146-8.757,5.307-5.094,9.357-11.517,13.038-17.833,1.186-2.035.536-5.021-1.614-6.157s-4.891-.559-6.157,1.614c-1.764,3.028-3.604,6.015-5.621,8.882-.493.701-1.002,1.391-1.513,2.079-.481.649.114-.124-.189.245-.26.316-.51.64-.771.956-.951,1.154-1.947,2.272-3.005,3.329-.476.475-.964.938-1.467,1.384-.28.249-.565.493-.855.731-.15.124-.84.642-.369.295-1.418,1.044-2.922,1.882-4.484,2.683-.735.377.207-.05-.25.119-.379.14-.754.289-1.138.419-.685.232-1.38.434-2.084.599-.375.088-.753.167-1.133.235-.197.035-1.376.108-.306.055-.745.037-1.48.113-2.228.12-2.353.021-4.61,2.055-4.5,4.5.108,2.42,1.978,4.523,4.5,4.5h0Z" style="fill:#fff;"/><path d="m40.269,98.37c-9.645,6.068-8.098,22.537,2.685,26.468,3.132,1.142,6.24.34,9.141-.997,2.519-1.162,4.744-2.793,6.402-5.031,3.435-4.638,2.265-11.257-.986-15.661-1.053-1.426-2.186-2.812-3.76-3.696-1.028-.578-2.272-1.01-3.407-1.377-2.921-.944-6.043-.947-8.999-.16-2.274.606-3.887,3.236-3.143,5.536.756,2.337,3.098,3.792,5.536,3.143.279-.074.557-.145.84-.204.175-.036.888-.108.204-.052-.774.064.231-.002.323-.006.194-.009.389-.012.584-.011.224.002,1.608.117.759.023-.735-.081-.157-.014.032.023.238.047.473.101.708.162.592.154,1.169.353,1.74.571.146.056.291.115.437.171.607.23-.254.09-.408-.18.021.038.523.277.493.279l-.454-.366c.147.122.288.251.424.385.137.135.261.281.394.421.593.624-.199-.232-.161-.239.103-.018.676.979.747,1.094.235.382.438.776.648,1.171.361.679-.06-.141-.089-.26.065.274.217.564.304.834.136.421.215.85.327,1.276.162.615-.047-1.167-.023-.196.005.191.025.38.027.571.003.19-.01.378-.012.568-.011.802-.011-.299.064-.354-.077.056-.124.57-.157.689-.037.137-.079.273-.127.407.265-.584.324-.721.178-.411-.064.115-.666,1.025-.647,1.083-.028-.085.733-.824.176-.265-.131.132-.254.27-.388.4s-.28.248-.414.377c-.684.657.652-.432.132-.096-.441.284-.866.579-1.324.837-.331.187-.669.362-1.011.529-.169.083-.343.159-.512.243-.927.459.699-.231.07-.023-.239.079-1.166.224-1.34.403.079-.082,1.102-.045.306-.053-.271-.003-.607-.05-.874-.029.894-.071.718.127.333.008-.182-.056-.377-.117-.563-.166-.925-.241.633.374.127.05-.201-.129-.43-.255-.64-.367-.37-.197-.234-.419.196.183-.093-.13-.315-.271-.439-.39-.14-.134-.267-.288-.409-.419-.676-.625.434.717-.027-.004-.266-.416-.529-.819-.753-1.26-.081-.159-.153-.397-.253-.532.069.093.364.987.123.254-.132-.4-.267-.796-.371-1.205-.056-.221-.301-1.619-.181-.772.118.838.011-.017,0-.163-.018-.255-.028-.51-.03-.766-.004-.427.029-.849.055-1.275.021-.341.217-.694-.064.439.06-.244.089-.5.145-.746.093-.408.209-.812.348-1.207.052-.147.138-.313.177-.467-.3,1.18-.224.534-.034.177.181-.342.521-.69.647-1.044-.276.779-.55.625-.169.242.173-.174.332-.359.512-.527.12-.112.251-.212.369-.325.264-.217.124-.108-.419.328.137-.096.276-.187.419-.273,1.991-1.253,2.961-4.068,1.614-6.157-1.286-1.994-4.025-2.955-6.157-1.614h0Z" style="fill:#fff;"/><path d="m113.911,98.37c-9.645,6.068-8.098,22.537,2.685,26.468,3.132,1.142,6.24.34,9.141-.997,2.519-1.162,4.744-2.793,6.402-5.031,3.435-4.638,2.265-11.257-.986-15.661-1.053-1.426-2.186-2.812-3.76-3.696-1.028-.578-2.272-1.01-3.407-1.377-2.921-.944-6.043-.947-8.999-.16-2.274.606-3.887,3.236-3.143,5.536.756,2.337,3.098,3.792,5.536,3.143.279-.074.557-.145.84-.204.175-.036.888-.108.204-.052-.774.064.231-.002.323-.006.194-.009.389-.012.584-.011.224.002,1.608.117.759.023-.735-.081-.157-.014.032.023.238.047.473.101.708.162.592.154,1.169.353,1.74.571.146.056.291.115.437.171.607.23-.254.09-.408-.18.021.038.523.277.493.279l-.454-.366c.147.122.288.251.424.385.137.135.261.281.394.421.593.624-.199-.232-.161-.239.103-.018.676.979.747,1.094.235.382.438.776.648,1.171.361.679-.06-.141-.089-.26.065.274.217.564.304.834.136.421.215.85.327,1.276.162.615-.047-1.167-.023-.196.005.191.025.38.027.571.003.19-.01.378-.012.568-.011.802-.011-.299.064-.354-.077.056-.124.57-.157.689-.037.137-.079.273-.127.407.265-.584.324-.721.178-.411-.064.115-.666,1.025-.647,1.083-.028-.085.733-.824.176-.265-.131.132-.254.27-.388.4s-.28.248-.414.377c-.684.657.652-.432.132-.096-.441.284-.866.579-1.324.837-.331.187-.669.362-1.011.529-.169.083-.343.159-.512.243-.927.459.699-.231.07-.023-.239.079-1.166.224-1.34.403.079-.082,1.102-.045.306-.053-.271-.003-.607-.05-.874-.029.894-.071.718.127.333.008-.182-.056-.377-.117-.563-.166-.925-.241.633.374.127.05-.201-.129-.43-.255-.64-.367-.37-.197-.234-.419.196.183-.093-.13-.315-.271-.439-.39-.14-.134-.267-.288-.409-.419-.676-.625.434.717-.027-.004-.266-.416-.529-.819-.753-1.26-.081-.159-.153-.397-.253-.532.069.093.364.987.123.254-.132-.4-.267-.796-.371-1.205-.056-.221-.301-1.619-.181-.772.118.838.011-.017,0-.163-.018-.255-.028-.51-.03-.766-.004-.427.029-.849.055-1.275.021-.341.217-.694-.064.439.06-.244.089-.5.145-.746.093-.408.209-.812.348-1.207.052-.147.138-.313.177-.467-.3,1.18-.224.534-.034.177.181-.342.521-.69.647-1.044-.276.779-.55.625-.169.242.173-.174.332-.359.512-.527.12-.112.251-.212.369-.325.264-.217.124-.108-.419.328.137-.096.276-.187.419-.273,1.991-1.253,2.961-4.068,1.614-6.157-1.286-1.994-4.025-2.955-6.157-1.614h0Z" style="fill:#fff;"/><path d="m101.353,161.717c.979.897,1.923,1.829,2.817,2.81.397.436.785.881,1.163,1.333.189.226.375.455.56.685.894,1.111-.45-.654.344.458,1.428,1.999,2.707,4.084,3.753,6.311.149.317.294.635.433.956-.075-.175-.287-.737.028.088.2.522.398,1.044.577,1.574.403,1.189.742,2.399,1.009,3.625.134.614.225,1.232.345,1.848.152.783-.083-1.065.031.254.024.278.056.555.078.833.105,1.307.124,2.618.027,3.926-.069.934-.05.336-.012.142-.057.294-.115.587-.189.876.017-.067-.394,1.336-.181.7.16-.479-.104.222-.163.335-.251.486-.542.949-.867,1.39.115-.156.573-.627.009-.066-.26.259-.505.529-.776.778-.181.166-.369.322-.557.48.136-.115.715-.487.023-.042-.417.267-.829.534-1.266.769-.218.117-.442.22-.661.335-1.019.535.552-.133-.116.05-.706.192-1.382.464-2.098.635-.289.069-.58.131-.872.188-.193.037-1.146.194-.347.083-.591.082-1.19.124-1.785.16-1.35.08-2.691.036-4.041.022-.233-.003-1-.11-.042.019,1.015.136.047-.005-.163-.045-.712-.135-1.416-.313-2.112-.512-.936-.268-1.859-.582-2.766-.933-.188-.073-.431-.139-.599-.239.63.374.325.14-.154-.079-.531-.243-1.057-.5-1.574-.772-1.035-.544-2.04-1.146-3.002-1.812-.261-.18-.518-.366-.773-.555.511.379.145.111-.144-.132-.549-.46-1.07-.946-1.576-1.451-1.668-1.665-4.719-1.792-6.364,0s-1.781,4.587,0,6.364c3.746,3.738,8.5,6.335,13.508,7.965,4.526,1.473,9.216,1.481,13.89.677,6.118-1.053,11.748-4.888,13.913-10.848,1.076-2.961,1.085-6.348.73-9.446-.357-3.119-.99-6.155-2.108-9.095-2.472-6.501-6.431-12.303-11.563-17.003-1.736-1.59-4.671-1.845-6.364,0-1.589,1.731-1.854,4.666,0,6.364h0Z" style="fill:#fff;"/></g></g></svg>