<?xml version="1.0" encoding="UTF-8"?><svg id="_레이어_1" xmlns="http://www.w3.org/2000/svg" viewBox="0 0 200 200"><path d="m68.309,46.244c-5.442.958-10.264,4.636-14.042,8.485-4.588,4.674-8.332,10.257-11.352,16.05-3.142,6.027-5.703,12.492-7.145,19.146-1.656,7.641-2.647,15.538-3.508,23.302-1.745,15.736-1.702,32.135,3.491,47.268,2.285,6.658,5.344,12.897,10.242,18.034,4.015,4.211,9.006,7.441,14.332,9.733,5.45,2.345,11.123,3.904,16.937,5.041s11.727,2.186,17.672,2.275c1.867.028,3.735-.005,5.601-.053,2.351-.061,4.611-2.026,4.5-4.5-.107-2.386-1.979-4.565-4.5-4.5-3.251.084-6.514.128-9.759-.135-.684-.055-1.365-.145-2.048-.209-.524-.049.433.058.422.059-.14.01-.326-.046-.465-.067-.361-.056-.722-.112-1.082-.169-1.295-.206-2.59-.417-3.883-.638-5.283-.906-10.557-1.993-15.644-3.705-1.251-.421-2.474-.904-3.704-1.381-.475-.184.346.147.349.148-.144-.038-.297-.128-.433-.189-.287-.129-.575-.257-.86-.389-.618-.286-1.23-.585-1.834-.898-1.162-.601-2.298-1.253-3.399-1.958-.574-.368-1.139-.75-1.693-1.147-.24-.173-.563-.343-.762-.562.004.005.672.545.285.22-.162-.136-.331-.264-.494-.398-1.033-.847-2.019-1.75-2.95-2.708-.455-.469-.897-.95-1.325-1.444-.217-.25-.43-.503-.639-.759-.105-.129-.205-.263-.313-.389-.409-.476.455.629.089.114-.836-1.176-1.651-2.352-2.373-3.604-.36-.624-.701-1.258-1.025-1.901-.166-.329-.327-.66-.483-.994-.124-.264-.665-1.508-.307-.647-1.414-3.403-2.593-6.9-3.5-10.472-.457-1.8-.847-3.617-1.177-5.445-.158-.876-.302-1.755-.432-2.635-.033-.22-.064-.441-.096-.661.013.091.077.627.013.093-.062-.516-.127-1.031-.184-1.548-.828-7.502-.745-15.079-.165-22.596.295-3.822.715-7.634,1.225-11.433-.095.71.054-.38.083-.588.062-.446.126-.891.19-1.336.139-.963.283-1.926.43-2.887.282-1.841.577-3.68.881-5.518.525-3.173,1.088-6.314,1.979-9.408.425-1.477.902-2.94,1.422-4.386.255-.707.52-1.41.795-2.109.139-.352.281-.702.423-1.052.027-.067.272-.652.065-.162-.21.498.11-.249.147-.335,1.265-2.899,2.699-5.724,4.302-8.451.815-1.387,1.675-2.749,2.581-4.079.409-.6.828-1.193,1.257-1.779.212-.289.429-.573.642-.861.303-.41-.135.174-.162.208.147-.183.29-.369.437-.551,1.729-2.152,3.616-4.192,5.716-5.989.234-.2.474-.393.71-.591.648-.544-.635.453.041-.036.551-.398,1.102-.792,1.677-1.155.471-.298.953-.58,1.446-.841.239-.127.48-.249.724-.366.119-.057.245-.107.362-.169.501-.266-.879.329-.35.144.997-.349,1.967-.677,3.012-.861,2.324-.409,3.842-3.375,3.143-5.536-.809-2.5-3.045-3.582-5.536-3.143h0Z" style="fill:#fff;"/><path d="m43.423,150.437c3.044-3.308,6.34-6.32,9.843-9.133.55-.441-.512.377.054-.041.163-.12.323-.245.485-.366.432-.323.867-.641,1.305-.955.926-.663,1.866-1.306,2.821-1.928,1.832-1.194,3.715-2.311,5.643-3.343,1.847-.988,3.736-1.888,5.657-2.724-.867.378.515-.208.725-.291.421-.168.844-.331,1.268-.49,1.026-.386,2.061-.749,3.104-1.086,1.95-.631,3.928-1.177,5.926-1.631.994-.226,1.992-.429,2.995-.61.5-.09,1.002-.174,1.504-.253.251-.039.502-.076.753-.113.884-.133-.439.043.124-.016,4.62-.483,9.199-.635,13.832-.208,2.351.217,4.602-2.225,4.5-4.5-.118-2.623-1.982-4.268-4.5-4.5-17.826-1.645-35.953,4.218-50.199,14.877-4.394,3.288-8.486,6.909-12.204,10.948-1.594,1.732-1.842,4.673,0,6.364,1.735,1.593,4.661,1.85,6.364,0h0Z" style="fill:#fff;"/><path d="m74.515,136.781c-2.377-.049-4.76,1.084-6.284,2.897-1.678,1.995-2.383,4.295-2.565,6.874-.183,2.595.045,5.347,1.82,7.38,1.346,1.542,3.4,2.525,5.283,3.22,2.092.772,4.321.857,6.501.521,2.007-.309,3.749-1.276,5.284-2.573,2.911-2.46,4.375-7.005,2.968-10.616-.932-2.394-2.586-4.311-4.82-5.6-1.985-1.145-4.206-1.68-6.431-2.108-1.203-.232-2.381-.182-3.468.454-.933.546-1.824,1.617-2.068,2.689-.506,2.223.671,5.06,3.143,5.536,1.498.288,2.991.592,4.404,1.181l-1.075-.454c.628.279,1.215.606,1.769,1.013l-.911-.704c.465.36.881.759,1.249,1.217l-.704-.911c.273.364.499.739.687,1.154l-.454-1.075c.162.399.273.795.336,1.221l-.161-1.196c.044.41.042.807-.004,1.218l.161-1.196c-.069.469-.189.914-.36,1.356l.454-1.075c-.211.498-.475.959-.794,1.396l.704-.911c-.372.48-.791.901-1.271,1.273l.911-.704c-.391.285-.799.523-1.242.719l1.075-.454c-.574.232-1.162.384-1.775.472l1.196-.161c-.694.08-1.378.072-2.071-.011l1.196.161c-.84-.121-1.645-.347-2.432-.665l1.075.454c-.836-.359-1.624-.805-2.346-1.359l.911.704c-.204-.17-.387-.345-.557-.548l.704.911c-.123-.174-.209-.33-.295-.526l.454,1.075c-.068-.213-.114-.41-.149-.631l.161,1.196c-.133-1.235-.141-2.516.014-3.749l-.161,1.196c.095-.629.246-1.229.482-1.82l-.454,1.075c.187-.42.413-.799.692-1.164l-.704.911c.25-.302.519-.569.825-.814l-.911.704c.259-.189.523-.348.813-.485l-1.075.454c.294-.12.584-.204.897-.256l-1.196.161c.192-.02.374-.027.567-.023,2.355.049,4.607-2.105,4.5-4.5-.111-2.48-1.977-4.448-4.5-4.5h0Z" style="fill:#fff;"/><path d="m83.431,173.254c2.796,1.214,5.62,2.357,8.497,3.364,2.814.984,5.724,1.816,8.735,1.774,2.353-.033,4.61-2.046,4.5-4.5-.108-2.41-1.978-4.535-4.5-4.5-.646.009-1.281-.028-1.922-.104l1.196.161c-2.072-.285-4.055-.955-6.02-1.651-2.014-.713-4.004-1.489-5.972-2.319l1.075.454c-.35-.148-.698-.298-1.047-.449-1.153-.5-2.203-.802-3.468-.454-1.044.287-2.175,1.095-2.689,2.068-.552,1.044-.828,2.31-.454,3.468.336,1.038,1.021,2.235,2.068,2.689h0Z" style="fill:#fff;"/><path d="m73.776,25.511c-8.601,1.39-12.352,11.369-14.268,18.687-2.244,8.571-3.617,20.258,5.327,25.557,2.432,1.441,5.936.141,6.61-2.689.413-1.733.927-3.437,1.563-5.101.081-.212.474-1.172.165-.447.188-.441.388-.877.593-1.309.382-.804.789-1.596,1.224-2.372.87-1.554,1.846-3.044,2.911-4.472-.462.619.179-.222.31-.382.26-.318.525-.632.795-.941.63-.723,1.29-1.417,1.968-2.095l-7.682-3.182c.55,4.543,1.549,8.908,3.303,13.144.913,2.206,1.92,4.361,3.134,6.42,1.363,2.312,2.95,5.325,5.699,6.101,3.521.994,6.261-1.579,7.262-4.726.307-.966.571-1.944.903-2.903.18-.521.371-1.039.571-1.553.1-.257.203-.513.308-.768-.159.376-.175.418-.047.125.901-1.865,1.807-3.69,2.966-5.413.267-.397.545-.787.828-1.173-.535.732.467-.567.573-.692.713-.833,1.478-1.615,2.28-2.361,1.728-1.607,1.747-4.761,0-6.364-1.85-1.698-4.521-1.714-6.364,0-2.774,2.58-5.109,5.703-6.883,9.047-.956,1.802-1.767,3.687-2.489,5.593-.293.773-.563,1.556-.812,2.344-.125.394-.241.789-.357,1.185-.062.23-.129.458-.201.685.253-.535.299-.656.138-.364-1.026,1.702.805,1.675,5.492-.082-.125-.174-.248-.348-.369-.524-.284-.41-.562-.824-.831-1.243-.463-.719-.904-1.451-1.324-2.196-.455-.807-.883-1.628-1.286-2.462-.217-.449-.422-.903-.629-1.357-.395-.866.165.472-.208-.502-.663-1.733-1.258-3.481-1.723-5.279-.214-.828-.403-1.662-.568-2.5-.083-.419-.159-.84-.229-1.261-.047-.281-.091-.563-.132-.845.063.491.061.466-.006-.075-.223-1.843-.953-3.347-2.766-4.112-1.65-.696-3.627-.356-4.916.93-5.784,5.777-9.948,13.134-11.845,21.091l6.61-2.689c-.339-.201-.859-.621-.281-.122-.275-.238-.517-.506-.784-.75-.704-.643.254.529-.193-.233-.186-.316-.39-.619-.561-.945-.189-.359-.378-.997-.142-.269-.113-.35-.237-.694-.332-1.05-.112-.42-.208-.849-.272-1.28.115.769-.024-.524-.031-.677-.044-.945-.012-1.893.063-2.836.038-.473.087-.945.146-1.416-.096.758.081-.506.105-.65.306-1.889.71-3.762,1.21-5.61.48-1.773,1.047-3.523,1.703-5.24.049-.129.513-1.229.257-.661-.26.575.235-.491.292-.608.315-.652.657-1.291,1.032-1.91.187-.308.381-.61.586-.907.1-.148.204-.294.31-.437-.31.392-.363.463-.158.213.474-.512.965-.992,1.449-1.492.251-.212.168-.154-.247.173.136-.1.275-.196.417-.286.282-.183.589-.323.873-.5.299-.145.197-.106-.306.117.158-.061.318-.114.481-.161.387-.117.777-.195,1.175-.259,2.331-.377,3.835-3.397,3.143-5.536-.818-2.527-3.038-3.547-5.536-3.143h0Z" style="fill:#fff;"/><path d="m94.658,49.056c.158,1.634.167,3.271-.02,4.904.075-.652-.021.078-.072.353-.068.368-.144.734-.23,1.098-.208.879-.475,1.738-.776,2.589-.694,1.959.493,4.013,2.068,5.082,1.769,1.2,4.021,1.303,6.09,1.357,1.874.049,3.75-.048,5.612-.262,4.062-.467,8.03-1.322,11.924-2.569,7.228-2.315,14.405-5.339,20.246-10.278,1.804-1.526,1.689-4.814,0-6.364-1.92-1.762-4.44-1.628-6.364,0-.027.023-1.073.89-.411.364-.278.221-.571.425-.86.63-.643.455-1.301.886-1.973,1.297-1.362.833-2.777,1.578-4.218,2.263-.662.315-1.333.611-2.004.907.746-.33-.534.219-.553.227-.341.138-.683.274-1.026.408-1.579.617-3.172,1.196-4.784,1.723-3.19,1.043-6.456,1.886-9.78,2.37.626-.091-.197.022-.429.047-.388.043-.776.081-1.165.113-.934.077-1.87.122-2.807.133-.782.01-1.566-.005-2.347-.046-.219-.01-.437-.024-.655-.042-.338-.029-.247-.014.273.045-.892-.343.615.475-.226-.095l2.068,5.082c1.275-3.601,1.785-7.531,1.418-11.336-.225-2.336-1.908-4.616-4.5-4.5-2.245.101-4.742,1.991-4.5,4.5h0Z" style="fill:#fff;"/><path d="m75.794,25.593c-1.125-.329-2.243-.684-3.342-1.092-.324-.12-.644-.249-.967-.374.43.167.254.115-.067-.033-.5-.229-.997-.464-1.485-.718-1.034-.539-2.003-1.16-2.956-1.829-.398-.28.389.366-.207-.183-.2-.184-.409-.359-.607-.546-.435-.41-.812-.868-1.23-1.292-.442-.449.358.565.019.031-.133-.21-.285-.408-.419-.618-.304-.474-.562-.968-.823-1.467-.218-.417-.124-.328.006.048-.081-.235-.174-.465-.251-.701-.173-.529-.26-1.079-.416-1.611-.179-.612.032.741.004.108-.011-.243-.04-.484-.048-.727-.01-.303.009-.604.006-.907-.005-.529.018-.253-.05.118.088-.478.206-.937.33-1.406.269-1.019-.282.389.017-.112.049-.112.105-.219.168-.323.163-.292.12-.208-.128.25l-1.986,1.157c-2.245-.551-2.845-.566-1.802-.046.257.142.516.282.776.419.455.24.915.472,1.378.696,1.21.585,2.448,1.115,3.693,1.619,1.908.773,3.865,1.422,5.86,1.932,4.364,1.117,8.924,1.647,13.427,1.56,2.352-.045,4.61-2.037,4.5-4.5-.107-2.399-1.978-4.549-4.5-4.5-2.142.041-4.252-.098-6.382-.305-.534-.052.013.004.103.017-.291-.043-.582-.087-.872-.135-.435-.072-.869-.15-1.302-.234-1.082-.211-2.157-.461-3.221-.75-.993-.27-1.977-.573-2.95-.909-.486-.168-.97-.344-1.45-.529-.206-.079-.409-.167-.615-.242-.292-.119-.273-.109.057.031l-.404-.176c-2.163-.973-4.437-2.726-6.836-2.875-6.262-.389-7.221,8.18-6.542,12.62.615,4.02,2.942,7.869,5.974,10.535,3.768,3.312,8.376,5.283,13.148,6.679,2.258.661,5.002-.799,5.536-3.143.549-2.41-.724-4.828-3.143-5.536h0Z" style="fill:#fff;"/><path d="m85.828,19.178c3.48-.475,7.46-1.013,11.514-1.428,4.078-.417,8.172-.703,12.272-.729,1.145-.007,2.29-.009,3.432.075,1.208.089-1.129-.216-.15-.024.37.073.742.133,1.111.216.683.153,1.358.342,2.024.559.355.115.706.239,1.056.37.179.067.357.139.536.208,1.027.395-.857-.401-.172-.074,1.583.756,3.117,1.555,4.567,2.551.304.209.598.429.899.643.703.499-.863-.717-.201-.157.172.146.352.284.525.429.767.642,1.498,1.326,2.189,2.049.326.342.643.692.95,1.051.155.181.301.372.458.551.594.676-.628-.893-.113-.15.611.88,1.219,1.746,1.744,2.682.248.442.482.891.701,1.347.112.232.215.467.323.7.4.864-.382-1.015-.053-.114.402,1.1.773,2.198,1.043,3.34.152.642.264,1.289.38,1.938.182,1.018-.101-1.086-.006-.045.036.395.08.788.108,1.184.102,1.466.088,2.938-.024,4.403-.026.333-.056.665-.092.996-.024.225-.05.45-.079.675.086-.628.091-.684.015-.169-.148.827-.288,1.652-.472,2.471-.4,1.783-.927,3.532-1.533,5.256-.781,2.224.886,5.021,3.143,5.536,2.516.573,4.699-.762,5.536-3.143,2.215-6.306,3.124-12.933,2.083-19.557-.805-5.126-3.159-9.812-6.416-13.806-4.908-6.018-12.864-10.572-20.712-10.96-9.649-.476-19.449,1.15-28.977,2.45-2.341.319-3.822,3.437-3.143,5.536.833,2.573,3.026,3.485,5.536,3.143h0Z" style="fill:#fff;"/><path d="m71.341,45.419c-.742-.531-1.47-1.08-2.203-1.623-.58-.429.473.379-.094-.071-.166-.132-.333-.261-.499-.393-.443-.352-.884-.708-1.321-1.068-1.541-1.271-3.042-2.591-4.5-3.956-2.919-2.733-5.667-5.647-8.238-8.709-.617-.735-1.224-1.478-1.821-2.23-.138-.174-.275-.349-.413-.524-.462-.588.341.45-.114-.146-.316-.414-.629-.831-.94-1.249-1.363-1.839-2.689-3.705-4.134-5.481-2.951-3.626-6.738-6.52-11.496-7.061-4.871-.554-8.854,2.337-11.37,6.275-1.132,1.771-1.964,3.724-2.779,5.655-.846,2.005-1.583,4.04-1.956,6.192-.837,4.829-.363,9.692.631,14.464.85,4.081,2.241,8.064,4.124,11.785,1.989,3.93,4.739,7.673,8.175,10.457,3.822,3.097,7.968,4.997,12.849,5.648,2.343.312,4.599-2.293,4.5-4.5-.121-2.705-1.989-4.165-4.5-4.5,1.16.155-.059-.042-.248-.082-.359-.077-.716-.167-1.07-.267-.356-.101-.708-.214-1.056-.337-.157-.056-1.277-.547-.309-.101-.688-.317-1.361-.659-2.014-1.044-.331-.195-.656-.4-.975-.613-.146-.097-1.435-1.06-.661-.444-1.253-.998-2.404-2.123-3.449-3.337-.267-.31-.531-.625-.78-.95.569.74-.224-.339-.27-.404-.548-.784-1.059-1.593-1.535-2.423-.415-.722-.803-1.459-1.166-2.208-.184-.379-.356-.762-.531-1.144-.574-1.249.281.806-.202-.488-.653-1.751-1.25-3.508-1.714-5.32-.435-1.701-.788-3.431-1.029-5.171.117.842-.074-.711-.072-.699-.047-.476-.086-.953-.114-1.431-.065-1.112-.076-2.227-.01-3.339.028-.472.059-.951.128-1.418-.125.842.151-.65.153-.658.194-.891.449-1.768.744-2.631.147-.428.312-.848.469-1.272.505-1.365-.352.739.24-.584.405-.906.814-1.81,1.275-2.689.382-.729.812-1.417,1.256-2.109.644-1.003-.576.479.267-.323.276-.263.527-.543.814-.796-.767.675.182-.062.336-.155-.785.471.168-.027.379-.1.962-.331-.692-.138.317-.022.256-.002.512.01.767.036-.556-.076-.571-.064-.046.038.374.134.764.212,1.136.359-.915-.361.286.188.389.247.358.205.704.43,1.04.671-.75-.537.317.291.38.347.631.568,1.219,1.183,1.78,1.819.286.324.564.656.837.991.183.226.365.453.544.682-.258-.332-.226-.286.095.136,2.319,3.171,4.663,6.323,7.209,9.317,5.372,6.314,11.512,11.894,18.25,16.721,1.92,1.375,5.093.398,6.157-1.614,1.228-2.324.435-4.689-1.614-6.157h0Z" style="fill:#fff;"/><path d="m131.451,56.045c.512.09,1.018.201,1.519.343.47.134,1.029.468,1.506.518-.92-.096-.584-.257-.08-.016.25.119.497.245.741.375.587.313,1.156.657,1.71,1.024.244.162.486.329.724.5.353.253.953.377.045.018.488.192,1.024.845,1.412,1.195,1.046.943,2.029,1.955,2.958,3.013.45.512.878,1.042,1.312,1.567.746.903-.551-.761.151.19.21.285.422.567.629.853.922,1.277,1.788,2.595,2.604,3.942,1.643,2.711,3.091,5.541,4.365,8.444.104.236.206.473.308.71-.411-.957.093.233.142.356.291.718.572,1.441.843,2.168.583,1.565,1.118,3.148,1.601,4.747.907,2.997,1.617,6.042,2.142,9.128.624,3.671,1.22,7.348,1.751,11.034.064.445.128.891.19,1.336.006.045.207,1.512.083.588.12.893.233,1.788.343,2.683.237,1.94.45,3.884.633,5.83.684,7.296.946,14.651.41,21.966-.13,1.777-.304,3.552-.538,5.319.124-.94-.078.512-.087.567-.066.44-.136.88-.209,1.319-.171,1.025-.36,2.046-.57,3.064-.752,3.656-1.76,7.26-3.051,10.763-.306.83-.629,1.653-.958,2.474-.095.238-.19.476-.288.712.405-.977-.089.175-.151.309-.652,1.422-1.386,2.808-2.206,4.14-.362.589-.741,1.167-1.136,1.734-.194.279-.398.55-.595.827-.663.932.61-.722-.116.151-.909,1.093-1.84,2.155-2.859,3.147-.888.865-1.839,1.842-2.883,2.518,1.057-.684-.597.419-.868.607-.603.418-1.218.818-1.843,1.202-1.07.657-2.171,1.264-3.294,1.826-.562.281-1.13.551-1.703.81-.277.125-.573.296-.864.381,1.215-.357-.123.045-.383.148-5.432,2.151-11.161,3.454-16.897,4.489-1.452.262-2.907.506-4.364.742-.721.117-1.442.235-2.165.344-.461.07-.985.421-.043.012-.329.143-.89.106-1.248.141-3.558.357-7.143.313-10.713.221-2.355-.061-4.607,2.113-4.5,4.5.112,2.49,1.977,4.435,4.5,4.5,3.358.087,6.729.131,10.079-.162,2.956-.258,5.892-.768,8.816-1.265,5.44-.926,10.873-2.034,16.106-3.809,5.705-1.935,11.011-4.592,15.748-8.323,4.794-3.775,8.662-8.798,11.202-14.339,6.629-14.459,8.088-30.602,7.048-46.317-.527-7.961-1.631-15.879-2.9-23.752-1.083-6.719-2.429-13.242-4.887-19.611-2.433-6.304-5.463-12.457-9.561-17.857-3.762-4.957-8.159-9.36-13.997-11.761-1.06-.436-2.145-.764-3.274-.964-2.31-.407-4.961.621-5.536,3.143-.499,2.192.664,5.098,3.143,5.536h0Z" style="fill:#fff;"/><path d="m162.941,144.073c-12.608-13.7-29.475-23.119-48.005-25.545-4.777-.625-9.6-.723-14.398-.28-2.337.216-4.616,1.915-4.5,4.5.101,2.253,1.99,4.732,4.5,4.5,4.099-.378,8.224-.372,12.321.038.441.044.882.096,1.323.146.87.099.101.009-.064-.014.251.035.503.071.754.109,1.069.161,2.133.348,3.193.561,2.068.415,4.116.927,6.137,1.532,1.977.592,3.927,1.273,5.844,2.035.259.103,1.563.661.725.291.417.184.836.364,1.251.552,1.013.458,2.016.939,3.007,1.443,3.854,1.959,7.536,4.254,11.005,6.834.163.121.324.243.486.364,1.071.803-.675-.546.375.289.479.381.956.763,1.428,1.153.95.785,1.881,1.592,2.794,2.419,1.904,1.726,3.721,3.545,5.461,5.436,1.598,1.737,4.767,1.74,6.364,0,1.705-1.858,1.705-4.512,0-6.364h0Z" style="fill:#fff;"/><path d="m125.485,145.781c.193-.004.375.003.567.023l-1.196-.161c.314.052.603.136.897.256l-1.075-.454c.29.137.555.296.813.485l-.911-.704c.306.245.575.512.825.814l-.704-.911c.279.365.505.744.692,1.164l-.454-1.075c.236.591.387,1.191.482,1.82l-.161-1.196c.155,1.233.147,2.514.014,3.749l.161-1.196c-.035.22-.08.418-.149.631l.454-1.075c-.086.196-.172.352-.295.526l.704-.911c-.17.204-.353.379-.557.548l.911-.704c-.722.554-1.51,1-2.346,1.359l1.075-.454c-.787.319-1.592.544-2.432.665l1.196-.161c-.693.083-1.377.091-2.071.011l1.196.161c-.612-.088-1.201-.24-1.775-.472l1.075.454c-.442-.196-.851-.434-1.242-.719l.911.704c-.48-.372-.899-.793-1.271-1.273l.704.911c-.319-.437-.583-.897-.794-1.396l.454,1.075c-.171-.441-.292-.887-.36-1.356l.161,1.196c-.046-.41-.048-.807-.004-1.218l-.161,1.196c.063-.426.173-.822.336-1.221l-.454,1.075c.188-.415.414-.79.687-1.154l-.704.911c.368-.458.785-.857,1.249-1.217l-.911.704c.554-.407,1.141-.735,1.769-1.013l-1.075.454c1.413-.589,2.906-.892,4.404-1.181,1.058-.204,2.162-1.167,2.689-2.068.564-.965.804-2.386.454-3.468-.352-1.089-1.027-2.139-2.068-2.689-1.118-.591-2.224-.693-3.468-.454-2.062.397-4.016.903-5.915,1.834-1.8.882-3.31,2.303-4.422,3.957-1.351,2.01-1.618,4.415-1.247,6.749.302,1.901,1.315,3.571,2.536,5.019,2.746,3.257,7.35,4.087,11.337,3.18,1.785-.406,3.562-1.231,5.028-2.329,1.332-.998,2.414-2.13,2.92-3.764.337-1.089.373-2.297.395-3.435.047-2.388-.288-5.054-1.658-7.082-1.639-2.427-4.194-4.184-7.218-4.122-2.352.049-4.61,2.035-4.5,4.5.107,2.396,1.979,4.552,4.5,4.5h0Z" style="fill:#fff;"/><path d="m112.026,165.483c-.348.151-.697.301-1.047.449l1.075-.454c-1.968.83-3.959,1.606-5.972,2.319-1.965.696-3.947,1.366-6.02,1.651l1.196-.161c-.641.076-1.276.113-1.922.104-2.355-.033-4.608,2.093-4.5,4.5.11,2.466,1.977,4.465,4.5,4.5,3.01.042,5.922-.79,8.735-1.774,2.877-1.007,5.701-2.15,8.497-3.364.963-.418,1.803-1.726,2.068-2.689.297-1.077.163-2.512-.454-3.468-.619-.961-1.542-1.807-2.689-2.068-1.257-.286-2.295-.055-3.468.454h0Z" style="fill:#fff;"/><path d="m135.683,55.121c6.04-4.364,10.493-10.16,14.692-16.244,2.01-2.913,3.973-5.859,6.071-8.711.565-.768,1.125-1.538,1.69-2.305.261-.355.524-.708.79-1.06-.397.525.38-.474.512-.635.546-.662,1.113-1.306,1.719-1.915.297-.298.602-.588.918-.866.157-.138.315-.274.476-.406-.358.293-.191.136.086-.039.349-.221.701-.427,1.059-.631.044-.025.651-.324.197-.116-.445.203.151-.052.209-.07.377-.117.766-.193,1.143-.308-.079.024-.748.025-.236.033.236.004.534.017.766-.015.465-.065-.125-.036-.248-.063.188.042.374.079.56.13s.373.105.551.177c-.154-.062-.503-.315-.183-.028.123.111.339.217.484.303-.085-.05-.499-.482-.182-.123.29.329.626.641.928.962-.055-.059-.379-.56-.103-.131.145.225.305.441.449.667.221.345.428.699.627,1.057.437.788.829,1.601,1.204,2.421.186.407.372.814.545,1.227-.252-.597.159.424.223.594.347.921.652,1.858.893,2.813.113.448.203.9.294,1.353.104.519.033.082.018-.026.034.234.053.472.074.708.093,1.028.116,2.062.087,3.094-.027.957-.106,1.91-.207,2.862,0-.006-.095.771-.039.349s-.055.35-.054.345c-.08.504-.164,1.007-.257,1.509-.344,1.851-.791,3.684-1.35,5.482-.255.819-.533,1.631-.836,2.434-.075.199-.153.398-.23.596-.012.031-.274.681-.095.248s-.092.209-.107.24c-.116.256-.231.512-.35.766-.822,1.744-1.777,3.428-2.882,5.009-.116.165-.245.326-.354.495-.372.576.395-.467-.044.07-.302.37-.604.739-.92,1.096-.623.703-1.282,1.374-1.977,2.005-.39.355-.793.694-1.204,1.025.636-.514-.278.184-.501.335-.738.501-1.505.957-2.3,1.36-.285.144-1.282.552-.462.244-.406.152-.809.307-1.222.439-.409.131-.823.247-1.242.347-.277.066-1.708.31-.606.163-2.324.31-4.619,1.848-4.5,4.5.097,2.171,2.001,4.833,4.5,4.5,4.062-.541,7.845-1.888,11.166-4.343,3.463-2.559,6.315-5.721,8.553-9.406,2.169-3.571,3.759-7.567,4.829-11.6,1.145-4.316,1.928-8.978,1.656-13.452-.29-4.776-1.899-9.186-4.048-13.425-2.191-4.323-5.55-7.773-10.569-8.285-4.591-.468-8.974,2.259-11.996,5.472-2.914,3.099-5.358,6.752-7.792,10.235-2.482,3.552-4.851,7.183-7.461,10.644-.526.697-.16.207-.046.063-.168.214-.337.427-.507.64-.339.423-.683.841-1.033,1.255-.694.821-1.411,1.623-2.156,2.398-.694.722-1.412,1.42-2.157,2.089-.397.356-.802.704-1.214,1.042-.155.127-.311.252-.468.377.73-.582-.311.216-.374.261-1.903,1.375-3.019,3.978-1.614,6.157,1.216,1.887,4.116,3.089,6.157,1.614h0Z" style="fill:#fff;"/><path d="m67.201,91.736c.165.104.683.492.045-.01-.615-.483-.192-.157-.066-.038.241.228.454.48.691.711.328.32-.559-.843-.343-.438.077.144.186.276.271.417.172.286.32.585.457.889l-.454-1.075c.319.757.53,1.536.651,2.348l-.161-1.196c.114.894.115,1.784.005,2.678l.161-1.196c-.126.874-.358,1.711-.688,2.53l.454-1.075c-.158.365-.327.724-.527,1.069-.12.207-.251.402-.383.601-.415.625.569-.633.191-.259-.141.139-.266.291-.41.428-.13.124-.702.587-.091.108s.02-.042-.137.051c-.206.121-.421.226-.638.326l1.075-.454c-.445.184-.89.316-1.364.4l1.196-.161c-.477.062-.936.067-1.414.01l1.196.161c-.589-.102-1.134-.284-1.685-.512l1.075.454c-1.017-.445-1.891-1.064-2.86-1.575,1.056.557.517.414.204.128-.151-.137-.579-.446-.628-.648l.425.557c-.089-.121-.172-.246-.251-.374-.162-.264-.294-.539-.415-.823l.454,1.075c-.163-.436-.276-.871-.346-1.331l.161,1.196c-.071-.619-.058-1.224.022-1.841l-.161,1.196c.127-.79.354-1.54.664-2.277l-.454,1.075c.348-.777.781-1.476,1.261-2.176.277-.403-.783.858-.194.271.138-.137.262-.287.403-.421.603-.572-.251.079-.282.198.031-.12.522-.279.611-.318l-1.075.454c1.037-.407,2.065-.78,3.172-.948l-1.196.161c.776-.098,1.54-.098,2.317-.007l-1.196-.161c.452.066.892.159,1.332.276,2.272.605,4.993-.76,5.536-3.143.538-2.362-.709-4.887-3.143-5.536-2.372-.632-4.84-.67-7.215-.027-2.003.542-4.03,1.402-5.471,2.934-1.644,1.748-2.947,4.006-3.559,6.329-.711,2.7-.473,5.369.73,7.883.989,2.067,2.958,3.708,4.918,4.812,2.126,1.198,4.581,2.224,7.066,1.948,3.207-.357,5.743-1.961,7.665-4.517,1.197-1.592,2.018-3.582,2.32-5.553.364-2.377.378-4.863-.49-7.148-.985-2.594-2.515-4.713-4.889-6.206-1.996-1.255-5.047-.486-6.157,1.614-1.171,2.216-.516,4.817,1.614,6.157h0Z" style="fill:#fff;"/><path d="m137.042,91.736c.165.104.683.492.045-.01-.615-.483-.192-.157-.066-.038.241.228.454.48.691.711.328.32-.559-.843-.343-.438.077.144.186.276.271.417.172.286.32.585.457.889l-.454-1.075c.319.757.53,1.536.651,2.348l-.161-1.196c.114.894.115,1.784.005,2.678l.161-1.196c-.126.874-.358,1.711-.688,2.53l.454-1.075c-.158.365-.327.724-.527,1.069-.12.207-.251.402-.383.601-.415.625.569-.633.191-.259-.141.139-.266.291-.41.428-.13.124-.702.587-.091.108s.02-.042-.137.051c-.206.121-.421.226-.638.326l1.075-.454c-.445.184-.89.316-1.364.4l1.196-.161c-.477.062-.936.067-1.414.01l1.196.161c-.589-.102-1.134-.284-1.685-.512l1.075.454c-1.017-.445-1.891-1.064-2.86-1.575,1.056.557.517.414.204.128-.151-.137-.579-.446-.628-.648l.425.557c-.089-.121-.172-.246-.251-.374-.162-.264-.294-.539-.415-.823l.454,1.075c-.163-.436-.276-.871-.346-1.331l.161,1.196c-.071-.619-.058-1.224.022-1.841l-.161,1.196c.127-.79.354-1.54.664-2.277l-.454,1.075c.348-.777.781-1.476,1.261-2.176.277-.403-.783.858-.194.271.138-.137.262-.287.403-.421.603-.572-.251.079-.282.198.031-.12.522-.279.611-.318l-1.075.454c1.037-.407,2.065-.78,3.172-.948l-1.196.161c.776-.098,1.54-.098,2.317-.007l-1.196-.161c.452.066.892.159,1.332.276,2.272.605,4.993-.76,5.536-3.143.538-2.362-.709-4.887-3.143-5.536-2.372-.632-4.84-.67-7.215-.027-2.003.542-4.03,1.402-5.471,2.934-1.644,1.748-2.947,4.006-3.559,6.329-.711,2.7-.473,5.369.73,7.883.989,2.067,2.958,3.708,4.918,4.812,2.126,1.198,4.581,2.224,7.066,1.948,3.207-.357,5.743-1.961,7.665-4.517,1.197-1.592,2.018-3.582,2.32-5.553.364-2.377.378-4.863-.49-7.148-.985-2.594-2.515-4.713-4.889-6.206-1.996-1.255-5.047-.486-6.157,1.614-1.171,2.216-.516,4.817,1.614,6.157h0Z" style="fill:#fff;"/></svg>