<?xml version="1.0" encoding="UTF-8"?><svg id="_레이어_2" xmlns="http://www.w3.org/2000/svg" viewBox="0 0 203.069 200.965"><g id="_레이어_1-2"><g><path d="m101.543,121.351c-2.477.12-5.007.107-7.469.411-1.689.208-3.334.534-4.776,1.508-1.317.889-2.527,2.063-3.262,3.489-1.573,3.05-1.556,6.695.171,9.687,1.362,2.359,3.708,4.155,6.052,5.463,2.809,1.567,5.743,2.376,8.905,2.788,1.057.138,2.466-.602,3.182-1.318.78-.78,1.368-2.061,1.318-3.182-.052-1.164-.434-2.371-1.318-3.182-.941-.864-1.927-1.155-3.182-1.318l-.24-.031,1.196.161c-1.606-.231-3.158-.663-4.655-1.289l1.075.454c-1.408-.611-2.728-1.378-3.95-2.308l.911.704c-.66-.517-1.267-1.076-1.788-1.735l.704.911c-.274-.371-.506-.754-.702-1.171l.454,1.075c-.213-.509-.354-1.016-.434-1.562l.161,1.196c-.049-.467-.049-.921.002-1.389l-.161,1.196c.069-.45.18-.875.347-1.299l-.454,1.075c.172-.389.376-.746.623-1.093l-.704.911c.306-.394.641-.732,1.032-1.04l-.911.704c.345-.249.7-.452,1.091-.621l-1.075.454c.477-.179.956-.297,1.458-.378l-1.196.161c2.498-.335,5.078-.305,7.595-.428,2.348-.114,4.613-1.988,4.5-4.5-.105-2.34-1.982-4.622-4.5-4.5h0Z" style="fill:#fff;"/><path d="m97.082,139.445c-.087.413-.19.818-.328,1.218-.047.137-.285.763-.029.11.253-.644,0-.044-.071.091-.195.372-.422.72-.65,1.072-.328.505.036-.12.197-.24-.137.102-.251.298-.367.426-.284.315-.587.612-.904.894-.141.126-.29.243-.433.368-.429.376.72-.483.23-.188-.742.447-1.447.886-2.228,1.27-.519.255.84-.292.287-.13-.192.057-.38.137-.571.199-.511.166-1.03.306-1.555.419-.233.05-.467.091-.701.137-.66.128-.011.12.135-.009-.251.222-1.275.106-1.608.117-1.021.036-2.044.002-3.062-.085-.24-.02-.48-.047-.72-.07-.538-.05-.241.004.119.027-.591-.038-1.199-.185-1.781-.29-2.308-.417-4.963.627-5.536,3.143-.501,2.2.666,5.088,3.143,5.536,5.58,1.008,11.127,1.141,16.394-1.223,4.188-1.88,7.766-5.856,8.718-10.399.482-2.298-.673-4.973-3.143-5.536-2.255-.514-5.019.679-5.536,3.143h0Z" style="fill:#fff;"/><path d="m47.418,83.372c-.582,1.052-1.207,2.075-1.885,3.068-.356.521-.728,1.029-1.101,1.538-.079.107-.528.665-.064.087-.219.273-.436.546-.658.817-1.555,1.898-3.225,3.698-4.903,5.487-1.687,1.798-3.41,3.574-5,5.46-1.694,2.01-2.63,4.633-2.541,7.279.189,5.644,4.475,10.054,9.929,11.118,4.753.927,9.123-.783,12.641-3.969,3.297-2.986,5.669-7.055,7.43-11.099.937-2.152.707-4.931-1.614-6.157-1.945-1.027-5.154-.69-6.157,1.614-.624,1.433-1.312,2.836-2.093,4.191-.409.71-.843,1.406-1.304,2.083-.216.316-.444.623-.665.935.569-.801-.058.067-.309.359-.516.602-1.064,1.177-1.652,1.709-.152.138-.325.26-.467.407-.361.372.326-.252.312-.228-.156.272-.862.597-1.121.749-.107.063-.902.495-.908.481-.022-.047,1.086-.372.271-.121-.138.043-.273.094-.411.136-.067.02-.955.176-.981.24.093-.23,1.008-.058.331-.051-.246.002-.492.023-.739.018-.15-.003-.3-.016-.45-.019-.902-.022.301.015.279.042-.075.094-.94-.226-1.098-.276-.141-.044-.836-.26-.265-.068.529.178-.013-.006-.113-.058-.205-.105-.443-.259-.661-.345-.699-.276.098.211-.202-.059-.179-.162-.338-.363-.526-.51-.365-.286.091.144.146.231-.114-.18-.236-.398-.365-.572-.241-.325-.429-.277.034.182-.214-.213-.209-.815-.306-1.075-.19-.512.133.441.052.42-.051-.013-.013-.681-.016-.772-.017-.655.124-.178-.009-.16.053-.007-.148.539.025.005.057-.177.116-.388.16-.572.16-.679.08.321-.128.264.01.003.177-.353.2-.379.378-.421-.58.595-.067.068.393-.403.748-.849,1.125-1.268,1.463-1.62,2.973-3.197,4.461-4.795,3.408-3.66,6.722-7.5,9.154-11.895,1.14-2.06.569-5.003-1.614-6.157-2.115-1.117-4.94-.585-6.157,1.614h0Z" style="fill:#fff;"/><path d="m53.178,101.749c-4.332,13.687-4.735,28.753-.952,42.62.95,3.483,2.334,6.777,4.587,9.618,1.925,2.428,4.49,4.375,7.243,5.781,5.518,2.819,11.592,3.951,17.681,4.721,6.503.823,13.135,1.182,19.685.857,2.347-.116,4.613-1.986,4.5-4.5-.105-2.338-1.982-4.625-4.5-4.5-5.509.273-11.06.03-16.547-.507-.66-.065-1.319-.134-1.977-.21-.3-.035-2.207-.286-1.103-.13-1.307-.184-2.611-.389-3.907-.64-2.575-.498-5.133-1.153-7.586-2.089-.138-.053-1.298-.56-.336-.125-.231-.104-.461-.207-.69-.315-.568-.269-1.126-.558-1.671-.87-.594-.34-1.172-.706-1.729-1.102-.2-.142-.819-.685-.12-.082-.28-.242-.564-.478-.834-.731-.5-.468-.937-.979-1.396-1.485-.467-.515.513.865-.087-.135-.182-.303-.39-.592-.57-.897s-.35-.614-.511-.93c-.03-.059-.613-1.327-.251-.472-.333-.785-.6-1.602-.848-2.417-.922-3.02-1.545-6.136-2.016-9.256-.139-.923-.053-.37-.026-.168-.059-.455-.112-.911-.161-1.368-.082-.761-.152-1.523-.21-2.285-.127-1.678-.195-3.361-.204-5.044-.01-1.836.05-3.673.181-5.504.065-.916.147-1.83.248-2.743.033-.304.071-.608.106-.912.07-.551.077-.607.02-.169.043-.303.088-.606.135-.908.565-3.632,1.416-7.208,2.525-10.711.711-2.245-.835-5.01-3.143-5.536-2.453-.559-4.775.739-5.536,3.143h0Z" style="fill:#fff;"/><path d="m52.354,79.248c-2.235-2.254-4.56-4.42-6.737-6.731-.505-.536-1.001-1.079-1.486-1.633-.241-.275-.479-.553-.713-.834-.168-.202-1.029-1.319-.429-.51-.89-1.199-1.727-2.43-2.431-3.748-.195-.365-.373-.736-.554-1.108-.38-.78.199.59-.098-.227-.264-.725-.507-1.452-.691-2.202-.086-.35-.161-.701-.226-1.055-.033-.179-.06-.358-.09-.537.164.974.044.322.032.101-.043-.812-.105-1.624-.142-2.436-.016-.367-.015-.734.003-1.102.009-.181.035-.363.038-.544,0,.049-.157.809-.038.304.096-.407.163-.818.278-1.221.049-.172.102-.342.158-.512.032-.099.273-.847.085-.298-.174.506.211-.437.295-.599.165-.319.343-.63.531-.936.19-.307.407-.595.6-.899.348-.546-.482.528-.04.052.164-.177.313-.37.475-.549.489-.541,1.013-1.05,1.566-1.526.138-.119.283-.232.42-.352-.043.037-.606.429-.187.147.353-.237.694-.491,1.054-.718.655-.413,1.346-.824,2.062-1.124.473-.198-.149.103-.173.105.197-.018.416-.112.611-.156.2-.045.401-.086.603-.119-.428.07-.463.039-.017.043.192.002.384-.006.576-.001.146.004.958.053.343-.004-.537-.05.5.116.682.165.361.096.705.226,1.059.342.485.159-.166-.058-.219-.089.216.124.449.222.667.341.332.181.656.378.972.584.176.115,1.118.825.785.548-.338-.281.452.403.583.52.338.303.648.642.991.939,1.404,1.22,2.913,1.318,4.673,1.318.943,0,1.837-.012,2.728-.388.597-.252,1.074-.603,1.603-.972,1.534-1.071,3.072-2.136,4.636-3.162,1.482-.973,2.987-1.912,4.531-2.784.791-.447,1.591-.876,2.403-1.282.372-.186.746-.367,1.123-.543.188-.088.376-.173.565-.258.074-.033.845-.359.411-.182-.449.183.185-.069.226-.085.321-.121.64-.245.962-.361.45-.162.904-.315,1.361-.457.913-.284,1.84-.527,2.776-.722.471-.098.945-.171,1.418-.256.706-.127-.683.039.036,0,.277-.015.554-.054.831-.075.474-.035,1.008.02,1.472-.068-.028.005-.752-.145-.218-.054.251.042.501.099.751.148,1.932.38,3.865.769,5.766,1.285,1.034.281,2.058.598,3.065.967.208.076,1.374.573.74.28.533.246,1.059.499,1.58.771,2.085,1.088,4.985.604,6.157-1.614,1.094-2.071.614-4.994-1.614-6.157-3.646-1.902-7.551-3.039-11.562-3.863-2.053-.422-4.029-.851-6.137-.694s-4.23.485-6.273,1.033c-7.633,2.044-14.227,6.64-20.614,11.11l2.271-.614h-2.486l3.182,1.318c-4.021-3.965-9.01-6.625-14.783-5.759-4.99.748-9.454,4.571-12.274,8.578-3.057,4.344-3.431,9.467-2.692,14.568.655,4.522,2.86,8.559,5.621,12.132,3.04,3.935,6.71,7.267,10.2,10.787,1.66,1.674,4.725,1.786,6.364,0,1.655-1.803,1.771-4.577,0-6.364h0Z" style="fill:#fff;"/><path d="m126.762,80.635c-2.65-1.445-5.498-2.663-8.559-2.752-2.305-.068-4.571.6-6.603,1.637-1.506.769-2.679,1.936-3.637,3.313-.123.177-.241.356-.356.538.593-.94.028-.051-.178.156.018-.018-.908.836-.422.416.359-.31-.649.434-.785.513-.071.041-1.056.511-.311.197-.264.111-.544.205-.815.295-.749.25-1.517.441-2.293.587-.209.039-1.14.164-.296.064-.43.051-.863.086-1.295.113-.872.053-1.747.064-2.62.046-1.469-.03-2.935-.143-4.398-.275-.33-.03-.738-.136-1.067-.103,1.131-.113.797.113.235.012-.608-.11-1.213-.241-1.813-.389-.532-.13-1.061-.273-1.584-.435-.294-.091-.581-.199-.874-.294-.819-.264.346.113.323.145.088-.119-4.404-2.255-4.564-2.318-5.65-2.226-12.228-.819-18.11-.391-1.504.109-3.012.188-4.521.187-.723,0-1.446-.017-2.167-.059-.298-.017-.596-.039-.894-.064-.254-.022-1.58-.211-.392-.022-1.38-.22-2.711-.544-4.028-1.013-1.067-.379.811.464-.176-.085-.297-.166-.606-.309-.901-.48-.296-.173-.574-.369-.865-.55-.402-.292-.374-.265.085.081-.18-.148-.356-.301-.528-.458-1.755-1.568-4.657-1.86-6.364,0-1.572,1.713-1.875,4.689,0,6.364,9.576,8.553,22.631,3.883,34.032,4.411-.809-.037-.172-.032.032.021.407.105.814.189,1.216.312.073.023,1.371.496.499.135.256.106.51.233.757.356,1.437.72,2.644,1.539,4.173,2.106,2.395.888,4.963,1.3,7.495,1.53,6.711.609,14.501.51,19.6-4.592.672-.673,1.265-1.448,1.764-2.257.55-.891-.674.658.022-.013.631-.608-.789.374-.015-.009.305-.151.606-.324.91-.48,1.033-.531-.736.094.129-.044.406-.064.834-.136,1.23-.247.586-.164-.632.086-.651.082.225.049.567-.044.803-.044.058,0,.66.051.671.031-.055.103-1.303-.239-.191-.01.613.127,1.2.324,1.791.527,1.12.386-.822-.451.341.145.541.277,1.086.542,1.621.833,2.066,1.127,4.999.578,6.157-1.614,1.111-2.103.593-4.954-1.614-6.157h0Z" style="fill:#fff;"/><path d="m100.933,130.351c2.516.122,5.097.093,7.595.428l-1.196-.161c.502.081.981.199,1.458.378l-1.075-.454c.39.169.746.372,1.091.621l-.911-.704c.392.308.727.647,1.032,1.04l-.704-.911c.247.346.451.704.623,1.093l-.454-1.075c.166.424.278.848.347,1.299l-.161-1.196c.051.467.051.921.002,1.389l.161-1.196c-.08.546-.221,1.053-.434,1.562l.454-1.075c-.196.418-.429.8-.702,1.171l.704-.911c-.521.659-1.128,1.218-1.788,1.735l.911-.704c-1.222.93-2.542,1.697-3.95,2.308l1.075-.454c-1.496.626-3.049,1.058-4.655,1.289l1.196-.161-.24.031c-1.241.162-2.259.395-3.182,1.318-.78.78-1.368,2.061-1.318,3.182.052,1.164.434,2.371,1.318,3.182.813.746,2.032,1.468,3.182,1.318,2.905-.378,5.518-1.078,8.155-2.392,2.476-1.234,4.718-2.971,6.363-5.201,1.768-2.397,2.339-5.988,1.28-8.79-1.159-3.067-3.597-5.576-6.89-6.284-1.59-.342-3.23-.383-4.847-.461l-4.44-.216c-2.355-.114-4.605,2.152-4.5,4.5.114,2.536,1.977,4.377,4.5,4.5h0Z" style="fill:#fff;"/><path d="m96.715,141.837c.953,4.543,4.531,8.519,8.718,10.399,5.266,2.364,10.815,2.231,16.394,1.223,2.322-.419,3.845-3.368,3.143-5.536-.806-2.492-3.048-3.592-5.536-3.143-.533.096-1.067.181-1.602.264-.664.103.79-.075.12-.021-.24.019-.48.052-.72.074-1.018.092-2.041.135-3.063.107-.539-.014-1.072-.072-1.61-.105-.656-.04.777.151.133.019-.233-.048-.469-.081-.703-.129-.526-.108-1.047-.24-1.56-.4-.204-.064-.405-.139-.609-.204-.773-.248.653.323.154.08-.736-.358-1.416-.756-2.111-1.187-.498-.309.065.031.224.195-.129-.133-.297-.241-.437-.363-.32-.279-.625-.574-.914-.885-.127-.137-.243-.287-.372-.422-.39-.405.486.722.188.247-.223-.356-.466-.692-.667-1.062-.078-.143-.142-.378-.251-.497.125.136.328.894.133.304-.148-.447-.277-.888-.374-1.35-.484-2.307-3.323-3.859-5.536-3.143-2.438.789-3.661,3.063-3.143,5.536h0Z" style="fill:#fff;"/><path d="m147.474,88.37c2.045,3.711,4.536,7.183,7.354,10.347,1.349,1.514,2.788,2.949,4.305,4.296.673.598,1.333,1.159,1.934,1.827-.499-.555-.194-.245.05.152.18.294.557.792.604,1.143-.112-.838-.184-.499-.107-.182.037.153.095.302.136.454.054.198.073.419.145.609.193.509-.129-.456-.042-.433.097.026.031.913.038,1.06.002.034-.038.444-.028.447-.082-.029.167-1.025-.022-.181-.225,1.006.362-.457-.02.149-.042.066-.27.515-.303.505-.134-.043.704-.595.241-.322-.103.061-.237.241-.32.33-.502.545.02-.019.163-.107.031-.019.778-.256.269-.08-.288.1-.579.193-.874.272-.18.048-1.424.328-.794.201.599-.121-.608.036-.781.04-.341.008-.68-.013-1.021-.021-.882-.021.109-.037.19.052-.076-.083-.542-.095-.662-.12-.383-.08-.763-.181-1.137-.297-.425-.132-1.133-.463-.341-.08-.77-.373-1.512-.761-2.22-1.244-.142-.097-.278-.202-.421-.296.821.545.152.111-.034-.049-.352-.303-.69-.62-1.015-.952-.328-.335-.62-.701-.939-1.043-.34-.365.128.175.158.217-.171-.242-.346-.479-.511-.725-.535-.799-.955-1.638-1.389-2.493-.231-.454.086.202.102.249-.097-.284-.212-.561-.307-.845-.172-.514-.315-1.035-.442-1.561-.556-2.289-3.272-3.876-5.536-3.143-2.378.77-3.739,3.083-3.143,5.536,2.121,8.733,10.368,16.818,19.873,15.723,2.739-.315,5.425-1.012,7.394-3.086,1.808-1.904,2.72-4.325,2.865-6.925.13-2.335-.598-4.735-1.677-6.781-1.14-2.159-2.902-3.589-4.646-5.214-1.9-1.77-3.607-3.692-5.259-5.691-.508-.616.596.829-.192-.252-.206-.283-.415-.563-.619-.848-.367-.513-.725-1.033-1.072-1.559-.776-1.177-1.497-2.387-2.178-3.622-1.137-2.064-4.15-2.908-6.157-1.614-2.091,1.348-2.831,3.949-1.614,6.157h0Z" style="fill:#fff;"/><path d="m140.619,104.141c1.016,3.211,1.82,6.483,2.378,9.805.051.302.1.604.147.906.004.027.217,1.519.098.621.101.758.184,1.519.257,2.281.162,1.675.265,3.356.31,5.039.088,3.288-.051,6.583-.414,9.853-.042.38-.086.76-.136,1.139.116-.898-.091.595-.095.622-.116.756-.244,1.51-.385,2.262-.308,1.643-.671,3.277-1.098,4.894-.363,1.373-.762,2.751-1.313,4.062.359-.855-.22.413-.251.472-.129.252-.263.502-.403.747-.212.37-.459.715-.678,1.08-.521.868.415-.403-.206.279-.459.504-.91,1.004-1.414,1.466-.228.208-.464.405-.698.606.789-.681-.134.094-.272.19-1.136.791-2.347,1.428-3.592,2.025-.767.367-.132.065.028,0-.353.145-.71.283-1.068.415-.6.221-1.206.425-1.816.615-1.338.416-2.698.762-4.067,1.062-1.167.256-2.342.472-3.521.662-.602.097-1.205.182-1.808.272-.75.112,1.112-.133-.117.015-.449.054-.898.111-1.347.162-6.117.701-12.337,1.062-18.492.758-2.355-.116-4.605,2.153-4.5,4.5.114,2.538,1.978,4.375,4.5,4.5,5.83.288,11.714-.032,17.514-.65,5.845-.622,11.82-1.453,17.291-3.705,3.113-1.282,5.989-2.868,8.466-5.186,2.657-2.488,4.388-5.683,5.58-9.088,2.325-6.641,3.224-14.038,3.328-21.044.12-8.108-1.082-16.299-3.529-24.029-.709-2.241-3.162-3.911-5.536-3.143-2.248.728-3.904,3.132-3.143,5.536h0Z" style="fill:#fff;"/><path d="m149.407,89.842c5.438-1.97,10.543-4.839,14.566-9.055,3.334-3.494,5.743-7.631,7.406-12.147,1.676-4.55,2.67-9.567,1.356-14.336-1.616-5.866-6.08-10.474-11.717-12.61-3.396-1.287-7.073-1.549-10.601-.677-1.755.434-3.424,1.178-5.078,1.891-.691.298-1.379.603-2.07.904s.996-.368-.151.056c-.478.176-.951.361-1.434.526l4.378,1.157c-9.536-10.176-24.836-16.785-38.796-13.461-4.162.991-7.849,2.998-11.184,5.631-1.856,1.466-1.648,4.851,0,6.364,1.969,1.808,4.384,1.564,6.364,0-.61.482-.075.06.225-.152.286-.202.578-.398.873-.587.679-.434,1.381-.833,2.102-1.193.305-.153.621-.285.926-.437-.691.345-.231.094.181-.062.738-.278,1.49-.518,2.251-.721.652-.174,1.311-.321,1.975-.441.285-.052.746-.032,1-.161-.112.057-1.042.109-.188.038.225-.019.45-.043.676-.061,1.477-.114,2.964-.108,4.441.002.344.026.689.057,1.032.094.172.018.344.041.516.06.544.059-.337-.041-.336-.043.081-.137,2.012.363,2.234.411,1.497.326,2.973.747,4.419,1.251.73.254,1.449.536,2.166.825-.736-.296-.111-.043.237.116.38.173.758.352,1.133.536,1.393.683,2.749,1.441,4.061,2.27.753.476,1.492.974,2.215,1.495.144.104.287.209.43.314.082.061.702.532.25.183-.437-.338.033.028.101.084.182.148.365.295.546.444,1.338,1.107,2.598,2.3,3.785,3.566,1.037,1.106,2.922,1.656,4.378,1.157,1.388-.475,2.737-1.055,4.082-1.639.518-.225,1.034-.453,1.551-.679.781-.343.109-.046-.044.015.401-.162.802-.324,1.209-.472.519-.189,1.045-.363,1.578-.509.237-.064.475-.124.715-.177.203-.045,1.39-.175.267-.08.506-.043,1.012-.073,1.52-.059-.008,0,1.253.119.59.025-.535-.076.695.169.841.205.53.13,1.06.262,1.579.433.03.01,1.115.403.444.144-.661-.255.371.185.41.205.46.233.907.492,1.339.773.239.156.47.321.702.487-.607-.435-.2-.151.142.157.336.302.657.62.963.951.229.249.446.507.659.768-.097-.119-.534-.77-.101-.099.275.425.549.845.791,1.29.134.247.255.499.38.75.494.989-.279-.884.058.17.155.484.312.961.429,1.456.048.203.226.636.17.83.019-.067-.087-1.089-.027-.184.038.574.071,1.141.051,1.717-.008.232-.028.463-.042.694-.073,1.145.216-.934-.035.199-.359,1.617-.719,3.217-1.243,4.791-.141.425-.291.847-.449,1.266-.084.223-.521,1.44-.285.734.239-.716-.25.53-.348.734-.226.471-.465.935-.715,1.393-.421.771-.877,1.522-1.366,2.251-.252.375-.518.738-.78,1.105-.588.822.501-.536.048-.064-.213.222-.394.482-.596.715-.733.851-1.517,1.657-2.346,2.414-.497.453-1.012.882-1.535,1.304.839-.678-.494.344-.773.535-1.12.766-2.292,1.456-3.5,2.074-.584.299-1.179.576-1.777.847-1.169.531.501-.163-.241.1-.462.164-.915.353-1.376.52-2.207.8-3.932,3.096-3.143,5.536.702,2.17,3.166,4.001,5.536,3.143h0Z" style="fill:#fff;"/><path d="m122.22,88.406c4.177,2.461,8.829,3.921,13.689,4.059,4.61.131,9.224-.969,13.498-2.624,2.188-.847,3.944-3.061,3.143-5.536-.689-2.129-3.185-4.053-5.536-3.143-1.97.763-3.981,1.419-6.05,1.857-.394.083-.789.16-1.186.228-.262.045-.524.086-.787.124.543-.074.55-.08.022-.019-.909.057-1.806.131-2.718.12-.45-.005-.9-.024-1.349-.056-.224-.016-1.614-.192-.529-.027-.9-.137-1.791-.324-2.669-.568-.512-.142-1.018-.303-1.519-.48-.22-.078-1.161-.449-.441-.144-1.047-.443-2.048-.987-3.026-1.563-2.03-1.196-5.024-.529-6.157,1.614-1.143,2.163-.553,4.88,1.614,6.157h0Z" style="fill:#fff;"/><path d="m102.787,13.003c-4.047-4.31-9.681-7.128-15.514-7.989-6.563-.969-12.903.173-18.919,2.908-2.91,1.323-5.547,3.086-8.053,5.059-1.106.87-2.143,1.813-3.198,2.742-.318.28-.637.558-.966.826.149-.121.627-.428-.095.065-.349.238-.699.471-1.068.678-.173.097-1.263.575-.419.246-.63.245-1.287.43-1.949.571.025-.005-1.281.208-.609.121.679-.088-.661.047-.629.045-1.543.104-3.093.039-4.634-.061-2.883-.187-5.762-.513-8.653-.288-11.628.905-22.81,7.816-28.02,18.409-2.687,5.463-3.994,11.642-3.528,17.73.227,2.972.752,5.95,1.742,8.767.545,1.55,1.193,3.082,1.942,4.545.316.619.64,1.239.978,1.846.081.145.302.782.059.076.097.258.179.521.244.789-.03-.455-.038-.514-.024-.178l.006.207c.11-.548.108-.564-.006-.05-.669,1.004.403-.442-.057.171-.189.252-.348.572-.514.841-.653,1.059.553-.572-.284.366-1.032,1.156-2.009,2.353-2.946,3.587-1.441,1.899-2.677,3.94-3.682,6.102-2.248,4.835-3.533,9.92-3.898,15.242-.713,10.41,2.567,20.921,9.183,28.981.723.881,1.497,1.716,2.307,2.518.276.273.546.562.83.827.321.299.149.471.03-.012.237.957.031-.296,0-.428l-.007.41c.07-.511.049-.499-.065.037-.966,2.466-1.699,5.076-2.13,7.688-.943,5.703-.784,11.449.557,17.082,2.596,10.907,9.683,20.618,19.582,25.981,9.813,5.317,21.909,6.718,32.579,3.259.592-.192,1.178-.4,1.758-.624.291-.112.579-.23.867-.348l1.075-.454c.407-.174.459-.195.154-.065-.644.244.541-.187.533-.184l.366-.111c.523-.114.488-.124-.104-.03.156.044.974.195-.159-.04-.631-.159-1.091-.505-1.382-1.037.193.364.22.383.081.057-.375-.493.091.269.144.421.094.27.18.543.28.811.294.79.619,1.575,1.002,2.327.651,1.278,1.546,2.451,2.493,3.521,3.61,4.076,9.026,6.279,14.096,7.883,12.527,3.963,26.227,7.312,39.433,5.709,11.312-1.373,22.129-6.521,29.095-15.742,1.684-2.229,2.954-4.644,3.988-7.235.461-1.154.804-2.337,1.156-3.527.182-.615.359-1.246.61-1.838-.362.852.002.084.121-.12.091-.164.191-.323.3-.476-.324.413-.313.431.032.052-.597.556-.286.165-.058.044.303-.16,1.141-.355.191-.138.207-.047.473-.12.679-.192,1.058-.367-.908.013.234-.057,1.4-.085,2.787-.015,4.186.051,2.955.141,5.941-.113,8.772-1.015,5.759-1.837,10.741-5.601,14.827-9.982,4.056-4.348,7.625-9.356,10.279-14.681,2.805-5.627,4.67-11.662,5.01-17.965.308-5.71-.908-11.413-3.288-16.591-1.172-2.551-2.759-4.882-4.591-7.004-.787-.912-1.647-1.763-2.568-2.539-.663-.558-1.353-1.092-2.054-1.602-.293-.214-.59-.423-.892-.624-.353-.253-.396-.279-.129-.079.259.207.228.169-.092-.114.253.43,1.082,1.558.464,2.048.055-.044.238-.753.241-.76-.331.965.175-.36.218-.458.213-.489.42-.983.625-1.475.614-1.469,1.179-2.956,1.675-4.469.944-2.88,1.656-5.836,2.154-8.825,2.09-12.555.899-25.557-2.957-37.668-3.243-10.184-8.917-20.299-18.02-26.31-2.212-1.461-4.686-2.604-7.22-3.377-1.112-.339-2.247-.584-3.398-.75-.967-.139-1.936-.258-2.909-.341-.304-.026-.608-.047-.912-.073-.165-.014-1.881-.23-1.065-.091-.736-.125-1.491-.279-2.181-.572.22.094.618.34-.055-.08-.354-.22-.707-.439-1.058-.663-.115-.073-.667-.516-.093-.054-.329-.264-.648-.539-.966-.816-.581-.505-1.149-1.024-1.731-1.528-2.39-2.068-4.921-4.005-7.582-5.713-5.003-3.21-10.668-5.71-16.535-6.783-6.315-1.155-12.212.132-17.972,2.815-5.074,2.363-9.765,5.804-13.708,9.763-1.663,1.67-1.794,4.718,0,6.364s4.589,1.782,6.364,0c.872-.876,1.776-1.718,2.718-2.52.493-.42.995-.831,1.507-1.23-.645.503-.095.075.034-.017.38-.272.754-.552,1.138-.819,2.277-1.59,4.69-2.97,7.226-4.103-.164.073-.775.304.036-.012.309-.121.619-.241.931-.355.616-.225,1.239-.431,1.869-.615.557-.163,1.118-.309,1.684-.435.372-.083.747-.143,1.12-.222.965-.204-.774.045.288-.045,1.223-.104,2.41-.098,3.633-.021-.179-.011-1.027-.17-.078-.01.341.057.682.114,1.022.179.747.141,1.488.305,2.225.492,1.337.338,2.656.751,3.95,1.228.259.096.517.194.774.294.081.032,1.337.567.457.18.634.278,1.262.568,1.883.874,2.62,1.289,5.116,2.824,7.479,4.536.226.163.448.331.673.495,1.078.789-.375-.314.249.186.489.391.978.781,1.458,1.183,1.18.987,2.294,2.052,3.49,3.019,1.337,1.082,2.665,2.053,4.254,2.724,1.842.777,3.66,1.09,5.652,1.293.758.077,1.518.12,2.277.192.302.028.604.059.906.095-1.189-.142-.012.016.197.056,1.132.213,2.247.516,3.333.902.322.115.64.24.958.366-.137-.054-.871-.406-.137-.046.511.25,1.021.493,1.52.767,1.054.581,2.033,1.255,3.015,1.947.573.405-.819-.684.041.038.177.148.356.293.532.443.441.377.872.766,1.291,1.167.936.893,1.818,1.844,2.649,2.836.153.182.301.368.453.551.739.892-.359-.504.068.078.32.436.644.868.954,1.312.763,1.094,1.477,2.222,2.143,3.377.61,1.057,1.182,2.136,1.718,3.233.241.494.475.991.701,1.492.126.278.248.557.371.836.494,1.122-.337-.868.11.271.936,2.382,1.75,4.795,2.437,7.261.803,2.882,1.455,5.807,1.945,8.759.06.36.118.721.172,1.082-.012-.076.194,1.345.106.703s.096.782.087.706c.034.29.067.58.098.871.171,1.595.294,3.196.364,4.798.128,2.903.087,5.814-.141,8.711-.057.722-.125,1.443-.206,2.162-.032.288-.067.575-.102.862.119-.973-.066.444-.077.522-.218,1.427-.484,2.847-.8,4.256-.649,2.888-1.509,5.73-2.591,8.486-.132.337-.265.674-.406,1.007.282-.666-.011.015-.061.125-.386.845-.812,1.697-1.086,2.587-.741,2.409-.165,4.968,1.512,6.831.896.995,2.079,1.719,3.169,2.484-.87-.611.099.083.232.195.185.155.367.314.547.476.538.483,1.052.992,1.541,1.524.407.443.797.902,1.17,1.374-.622-.787.295.447.463.699.705,1.059,1.33,2.169,1.877,3.317.005.01.51,1.097.222.462s.183.465.188.479c.219.571.42,1.149.603,1.732.367,1.171.662,2.365.885,3.571.067.363.123.727.182,1.091-.025-.158-.103-.959-.018-.099.061.612.119,1.222.152,1.837.068,1.284.056,2.572-.036,3.855-.044.618-.103,1.235-.184,1.849.134-1.018-.069.349-.088.456-.048.274-.098.547-.152.82-.296,1.5-.685,2.982-1.153,4.437-.192.596-.398,1.188-.616,1.776-.121.327-.252.65-.375.976-.472,1.248.219-.451-.111.278-.608,1.342-1.236,2.668-1.942,3.962-1.347,2.47-2.885,4.832-4.563,7.089-.036.049-.881,1.149-.318.427-.172.221-.346.44-.522.658-.412.514-.833,1.021-1.263,1.52-.87,1.009-1.778,1.986-2.728,2.921s-1.949,1.817-2.982,2.662c-.98.8.442-.281-.19.144-.273.184-.533.388-.804.575-.646.445-1.307.868-1.987,1.259-.505.291-1.019.565-1.542.821-.289.141-.582.275-.875.407.792-.358.18-.075.007-.016-1.344.46-2.664.845-4.067,1.083.92-.156.252-.031.047-.022-.389.017-.775.056-1.165.065-.569.014-1.139-.003-1.707-.026-1.338-.054-2.676-.165-4.016-.12-3.227.109-6.493,1.05-8.665,3.578-2.116,2.462-2.63,5.528-3.701,8.483-.102.282-.217.559-.321.84.324-.878.123-.28.03-.087-.259.536-.51,1.073-.793,1.597-.621,1.151-1.341,2.231-2.104,3.292.591-.822-.313.377-.519.618-.348.407-.708.804-1.077,1.192-.909.953-1.88,1.848-2.9,2.681-.187.152-.375.303-.564.452.853-.667-.116.071-.249.166-.493.354-.994.694-1.504,1.023-1.025.66-2.084,1.269-3.168,1.827-.544.281-1.096.548-1.652.803-.007.003-1.11.494-.473.217s-.476.189-.484.193c-1.142.448-2.304.846-3.482,1.191s-2.361.635-3.56.874c-.596.119-1.195.217-1.795.315-.74.121-.272.039-.11.019-.551.07-1.104.127-1.658.177-3.232.292-6.487.277-9.722.033-.791-.06-1.581-.133-2.369-.219-.316-.034-.631-.073-.947-.109-1.522-.174.432.068-.46-.058-1.659-.234-3.312-.521-4.956-.844-5.987-1.177-11.985-2.722-17.778-4.642-1.082-.359-2.15-.753-3.206-1.181,1.033.419-.672-.321-.884-.424-.634-.31-1.257-.641-1.864-1-.448-.265-.886-.545-1.313-.841-.214-.149-.836-.648-.051-.008-.175-.143-.351-.284-.522-.431-.424-.365-.829-.751-1.21-1.161-.227-.244-.442-.498-.653-.756.468.571.187.238-.074-.171-.303-.475-.558-.971-.805-1.477.461.944-.088-.349-.208-.694-.67-1.922-1.588-3.678-3.365-4.795-1.758-1.105-3.88-1.243-5.864-.789-.624.143-1.217.368-1.808.611-.475.196-.943.406-1.418.6.949-.387-.1.029-.31.108-2.392.909-4.863,1.504-7.386,1.902-.743.117,1.105-.107-.098.004-.248.023-.495.051-.742.073-.619.054-1.24.093-1.861.116-1.368.051-2.739.027-4.104-.07-.559-.04-1.115-.111-1.674-.157-.749-.062,1.093.185-.1-.011-.307-.05-.615-.097-.922-.151-1.288-.226-2.565-.517-3.823-.874-1.201-.341-2.365-.765-3.536-1.193-.176-.064-.8-.329.04.028-.286-.122-.57-.249-.852-.379-.621-.285-1.235-.587-1.839-.906-1.098-.58-2.167-1.217-3.198-1.909-.516-.347-1.019-.71-1.519-1.079.133.099.679.551.028.017-.288-.237-.578-.473-.861-.716-.939-.808-1.832-1.669-2.676-2.576-.42-.451-.827-.914-1.221-1.387-.158-.189-.311-.382-.467-.573.683.834-.296-.405-.409-.563-1.438-2.012-2.628-4.164-3.656-6.41-.352-.77-.043-.098.018.054-.138-.343-.276-.687-.406-1.034-.195-.52-.379-1.044-.551-1.572-.403-1.232-.742-2.485-1.019-3.752-.132-.603-.248-1.21-.35-1.818-.041-.244-.076-.488-.115-.732.183,1.142-.007-.085-.027-.273-.133-1.226-.206-2.459-.217-3.692s.037-2.465.15-3.692c.023-.245.053-.49.075-.735.112-1.236-.169.956.034-.268.111-.668.226-1.335.369-1.998.603-2.808,2.143-5.597,2.206-8.485.082-3.76-2.365-5.862-4.679-8.39-.384-.419-.757-.849-1.117-1.288-.144-.175-.284-.354-.427-.531.713.887,0-.015-.115-.176-.662-.918-1.276-1.871-1.842-2.852s-1.082-1.99-1.549-3.021c-.093-.207-.184-.414-.275-.622.467,1.072.014.006-.06-.185-.204-.529-.396-1.064-.576-1.602-.36-1.078-.669-2.173-.93-3.28-.131-.554-.249-1.111-.354-1.671-.042-.224-.082-.448-.121-.673-.021-.125-.219-1.471-.124-.754.1.756-.038-.364-.044-.42-.03-.283-.057-.567-.082-.851-.044-.511-.078-1.024-.101-1.536-.057-1.253-.054-2.509.009-3.762.029-.569.07-1.137.124-1.705.022-.227.048-.453.071-.68.113-1.121-.121.719-.007.011.189-1.18.397-2.352.681-3.514.269-1.102.588-2.192.959-3.263.167-.482.344-.96.531-1.434.098-.248.435-.973.002-.023.141-.309.276-.62.42-.928.482-1.024,1.016-2.025,1.6-2.994.293-.485.598-.964.915-1.433.127-.188.256-.375.388-.56.07-.099.863-1.152.462-.64-.438.559.266-.319.288-.347.146-.176.294-.35.443-.523.438-.51.887-1.009,1.313-1.529,1.241-1.516,2.392-3.112,2.911-5.037,1.011-3.749-.75-6.749-2.344-9.981-.117-.238-.225-.481-.342-.719-.572-1.162.279.825-.168-.389-.206-.56-.416-1.117-.599-1.685-.425-1.326-.754-2.681-.988-4.053.002.013-.173-1.274-.094-.583s-.054-.604-.052-.588c-.059-.661-.097-1.324-.113-1.987-.032-1.334.056-2.648.162-3.976.105-1.304-.184.905.049-.382.047-.261.087-.523.136-.784.121-.652.265-1.3.429-1.942s.35-1.279.558-1.908c.083-.252.169-.502.259-.752.048-.134.549-1.395.355-.942-.259.605.273-.582.259-.552.114-.239.231-.478.351-.714.301-.591.624-1.172.967-1.739.326-.539.671-1.067,1.033-1.583-.007.011.718-.994.32-.457-.32.432.51-.62.596-.721.776-.91,1.61-1.771,2.491-2.579.418-.384.856-.743,1.285-1.113.943-.812-.732.496.284-.224.309-.219.613-.443.926-.656,1.043-.709,2.129-1.355,3.251-1.931.505-.259,1.025-.487,1.536-.734.67-.324-.989.37.146-.058.354-.134.706-.27,1.063-.396,1.188-.418,2.403-.76,3.635-1.022.616-.131,1.236-.24,1.858-.333-.167.025-.937.094-.072.02.377-.032.752-.071,1.129-.096,5.907-.379,11.912,1.391,17.719-.417,3.256-1.014,5.733-3.008,8.237-5.243.524-.467,1.056-.921,1.594-1.371.668-.56.227-.192.076-.075.331-.257.672-.503,1.013-.746,1.14-.81,2.325-1.556,3.551-2.228.612-.335,1.234-.652,1.865-.95-.059.028,1.189-.534.608-.283s.683-.266.624-.243c1.364-.517,2.763-.94,4.187-1.255.61-.135,1.224-.248,1.842-.345-1.014.159.346-.03.46-.04.267-.024.535-.044.803-.06,1.427-.085,2.843-.022,4.264.112.213.02.844.176-.041-.005.317.065.639.108.956.171.571.113,1.139.245,1.701.398.623.169,1.24.363,1.848.581.128.046,1.32.528.363.116.236.102.471.209.703.32,1.166.553,2.253,1.219,3.319,1.942.697.472.151.102.011-.01.301.24.595.488.882.745.48.429.934.885,1.375,1.354,1.615,1.72,4.755,1.752,6.364,0,1.692-1.843,1.723-4.529,0-6.364h0Z" style="fill:#fff;"/><path d="m79.454,106.054c.954.6-.599-.59-.061-.089.203.189.408.371.595.576.327.358.331.695-.183-.269.128.241.311.46.446.699.211.373.436,1.236,0-.134.064.2.152.394.217.594.177.543.296,1.098.38,1.662l-.161-1.196c.119.933.12,1.86.006,2.794l.161-1.196c-.095.66-.241,1.307-.454,1.94-.04.118-.354.902-.039.161s-.027.033-.083.142c-.169.332-.358.654-.567.962-.088.129-.454.621-.017.041.471-.624-.044.009-.135.103-.116.118-.239.228-.358.342-.547.525.681-.431.221-.172-.144.081-.28.18-.425.261-.733.412.205.051.288-.08-.135.214-.961.281-1.193.322l1.196-.161c-.498.065-.976.07-1.475.01l1.196.161c-.439-.076-.843-.206-1.268-.338-.754-.234.716.337.223.097-.183-.089-.369-.17-.552-.26-.692-.339-1.323-.744-1.972-1.154-.42-.265.874.763.253.191-.116-.107-.236-.209-.35-.318-.141-.137-.267-.287-.405-.426-.368-.367.572.902.201.262-.099-.17-.21-.332-.303-.507-.235-.441-.008-.556.112.299-.054-.386-.216-.77-.276-1.162l.161,1.196c-.074-.646-.061-1.276.023-1.921l-.161,1.196c.078-.489.186-.968.338-1.439.077-.239.177-.468.257-.705-.41,1.218-.193.473-.032.162.23-.445.49-.875.775-1.287.243-.351.709-.66-.113.128.174-.167.319-.371.491-.541l.176-.167c.353-.303.239-.216-.343.26l.204-.125c.446-.226.277-.161-.508.194.302-.103.595-.236.895-.345.743-.27,1.499-.473,2.281-.591l-1.196.161c.809-.102,1.607-.102,2.417-.007l-1.196-.161c.471.069.93.165,1.39.288,2.272.605,4.993-.76,5.536-3.143.538-2.362-.709-4.887-3.143-5.536s-4.979-.689-7.423-.028c-2.057.556-4.141,1.437-5.621,3.011-3.656,3.888-5.291,9.636-2.92,14.59,1.018,2.129,3.042,3.813,5.06,4.949,2.19,1.233,4.713,2.291,7.272,2.005,3.271-.365,5.867-2.01,7.828-4.616,1.24-1.648,2.088-3.706,2.401-5.746.809-5.282-.815-10.75-5.521-13.711-1.996-1.255-5.047-.486-6.157,1.614-1.171,2.216-.516,4.817,1.614,6.157h0Z" style="fill:#fff;"/><path d="m126.164,106.054c.954.6-.599-.59-.061-.089.203.189.408.371.595.576.327.358.331.695-.183-.269.128.241.311.46.446.699.211.373.436,1.236,0-.134.064.2.152.394.217.594.177.543.296,1.098.38,1.662l-.161-1.196c.119.933.12,1.86.006,2.794l.161-1.196c-.095.66-.241,1.307-.454,1.94-.04.118-.354.902-.039.161s-.027.033-.083.142c-.169.332-.358.654-.567.962-.088.129-.454.621-.017.041.471-.624-.044.009-.135.103-.116.118-.239.228-.358.342-.547.525.681-.431.221-.172-.144.081-.28.18-.425.261-.733.412.205.051.288-.08-.135.214-.961.281-1.193.322l1.196-.161c-.498.065-.976.07-1.475.01l1.196.161c-.439-.076-.843-.206-1.268-.338-.754-.234.716.337.223.097-.183-.089-.369-.17-.552-.26-.692-.339-1.323-.744-1.972-1.154-.42-.265.874.763.253.191-.116-.107-.236-.209-.35-.318-.141-.137-.267-.287-.405-.426-.368-.367.572.902.201.262-.099-.17-.21-.332-.303-.507-.235-.441-.008-.556.112.299-.054-.386-.216-.77-.276-1.162l.161,1.196c-.074-.646-.061-1.276.023-1.921l-.161,1.196c.078-.489.186-.968.338-1.439.077-.239.177-.468.257-.705-.41,1.218-.193.473-.032.162.23-.445.49-.875.775-1.287.243-.351.709-.66-.113.128.174-.167.319-.371.491-.541l.176-.167c.353-.303.239-.216-.343.26l.204-.125c.446-.226.277-.161-.508.194.302-.103.595-.236.895-.345.743-.27,1.499-.473,2.281-.591l-1.196.161c.809-.102,1.607-.102,2.417-.007l-1.196-.161c.471.069.93.165,1.39.288,2.272.605,4.993-.76,5.536-3.143.538-2.362-.709-4.887-3.143-5.536s-4.979-.689-7.423-.028c-2.057.556-4.141,1.437-5.621,3.011-3.656,3.888-5.291,9.636-2.92,14.59,1.018,2.129,3.042,3.813,5.06,4.949,2.19,1.233,4.713,2.291,7.272,2.005,3.271-.365,5.867-2.01,7.828-4.616,1.24-1.648,2.088-3.706,2.401-5.746.809-5.282-.815-10.75-5.521-13.711-1.996-1.255-5.047-.486-6.157,1.614-1.171,2.216-.516,4.817,1.614,6.157h0Z" style="fill:#fff;"/></g></g></svg>