<?xml version="1.0" encoding="UTF-8"?><svg id="_레이어_1" xmlns="http://www.w3.org/2000/svg" viewBox="0 0 200 200"><path d="m31.95,96.851c-4.467,11.034-6.966,22.833-7.54,34.719-.278,5.741-.076,11.506.616,17.212.745,6.138,1.612,12.596,4.717,18.058,5.869,10.324,17.806,14.209,28.917,15.404,7.696.827,15.518.84,23.252,1.029,7.68.187,15.367.408,23.05.412,2.354.001,4.609-2.071,4.5-4.5s-1.977-4.499-4.5-4.5c-13.074-.007-26.197-.3-39.256-.932-1.412-.068-2.824-.148-4.234-.254-.626-.047-1.252-.1-1.876-.16-.39-.037-.78-.077-1.17-.12-.234-.025-.467-.052-.7-.08-.51-.065-.621-.078-.333-.039.6.08-.922-.14-.795-.121-.309-.049-.617-.1-.925-.153-.615-.108-1.229-.226-1.84-.356-1.47-.314-2.928-.695-4.355-1.168-.543-.18-1.082-.374-1.615-.581-.124-.048-.873-.354-.348-.133.624.263-.524-.241-.513-.236-1.098-.51-2.166-1.082-3.194-1.72-.485-.301-.961-.616-1.426-.946-.206-.147-.41-.297-.612-.448.692.519.153.117.02,0-.944-.837-1.865-1.671-2.694-2.626-.164-.189-.32-.386-.482-.577.555.653.127.172.02.013-.352-.524-.708-1.037-1.026-1.583-.289-.498-.541-1.013-.8-1.526-.636-1.257.138.408-.164-.364-.136-.348-.265-.698-.386-1.051-.926-2.7-1.445-5.528-1.891-8.341-.095-.598-.184-1.196-.268-1.795.109.778-.023-.19-.046-.378-.046-.375-.091-.751-.133-1.127-.152-1.353-.276-2.709-.373-4.067-.205-2.867-.288-5.742-.25-8.616.041-3.101.223-6.2.543-9.284.078-.753.176-1.502.26-2.254.096-.858-.159,1.06.05-.378.065-.449.131-.898.2-1.347.232-1.495.498-2.984.796-4.467,1.254-6.232,3.096-12.332,5.481-18.224.886-2.188-.962-5.039-3.143-5.536-2.608-.594-4.587.8-5.536,3.143h0Z" style="fill:#fff;"/><path d="m61.835,157.309c5.662,3.819,13.341,4.454,19.887,3.113,3.305-.677,6.24-2.175,9.006-4.062.709-.484,1.417-.969,2.154-1.409.407-.243.828-.454,1.244-.682.804-.439-.504.108.486-.204.855-.269,1.708-.511,2.588-.69.449-.092.901-.17,1.354-.243.156-.025,1.871-.267,1.092-.164,2.324-.308,4.619-1.849,4.5-4.5-.097-2.173-2-4.831-4.5-4.5-4.122.545-8.046,1.186-11.647,3.419-1.405.871-2.717,1.884-4.145,2.719-.33.193-.664.377-1.006.548-.237.118-1.195.493-.155.097-.651.248-1.304.476-1.976.661-.692.19-1.393.33-2.097.464-1.19.227.966-.076-.249.04-.367.035-.732.071-1.1.094-1.482.094-2.951.029-4.428-.105-1.068-.097.706.158-.252-.043-.354-.074-.711-.13-1.064-.208-.692-.152-1.377-.336-2.05-.556-.383-.125-.756-.272-1.134-.411-.311-.124-.211-.083.297.123-.152-.068-.302-.14-.451-.215-.618-.341-1.225-.663-1.812-1.059-1.956-1.32-5.072-.44-6.157,1.614-1.201,2.273-.474,4.749,1.614,6.157h0Z" style="fill:#fff;"/><path d="m91.987,136.429c2.354,0,4.609-2.07,4.5-4.5s-1.977-4.5-4.5-4.5c-2.354,0-4.609,2.07-4.5,4.5s1.977,4.5,4.5,4.5h0Z" style="fill:#fff;"/><path d="m52.993,138.602c-1.851-4.079-5.991-7.172-10.33-8.145-4.833-1.084-10.097.01-14.162,2.837-2.079,1.445-3.871,3.235-5.713,4.96-.421.343-.458.383-.112.12-.224.166-.452.325-.685.478-.349.23-.709.445-1.076.645-.165.09-1.661.71-.825.414-.525.186-1.052.359-1.594.492-.27.066-.541.124-.815.174.511-.051.497-.05-.041.005-.557.032-1.107.06-1.665.035-.392-.018-1.122-.167-.336-.008-.506-.103-1.006-.209-1.5-.361-.246-.076-.489-.159-.73-.25.479.213.484.21.014-.007-.45-.249-.889-.509-1.333-.768-.417-.297-.421-.291-.014.017-.197-.163-.389-.333-.574-.509-.373-.355-.709-.738-1.033-1.137-1.492-1.834-4.835-1.665-6.364,0-1.788,1.948-1.591,4.407,0,6.364,2.936,3.61,7.684,5.614,12.288,5.671,5.18.063,9.877-2.295,13.591-5.763.82-.765,1.605-1.568,2.45-2.306.224-.198.453-.39.686-.577-.359.283-.328.27.095-.037.419-.25.819-.524,1.248-.758.16-.087,1.451-.68.623-.344.513-.208,1.044-.38,1.579-.523.184-.049,1.846-.342.838-.224.479-.056.963-.078,1.445-.076.232,0,1.69.147.61-.021.478.074.951.182,1.416.317.242.071,1.592.691.622.191.378.195.754.383,1.117.605.211.13,1.194.934.412.244.362.319.69.667,1.042.995.325.384.319.358-.02-.078.142.193.277.391.404.594.257.409.471.836.671,1.276.976,2.151,4.259,2.838,6.157,1.614,2.221-1.432,2.658-3.856,1.614-6.157h0Z" style="fill:#fff;"/><path d="m39.342,93.508c-.451-.449-.892-.906-1.316-1.381-.212-.237-.419-.478-.622-.722-.118-.142-.683-.849-.129-.131-.737-.955-1.406-1.965-2.018-3.003s-1.159-2.118-1.657-3.219.165.504-.062-.157c-.103-.3-.23-.593-.338-.892-.216-.598-.414-1.203-.594-1.813-.342-1.159-.619-2.338-.828-3.528-.055-.313-.104-.627-.152-.942.098.638.044.329-.003-.129-.058-.569-.102-1.139-.129-1.711-.06-1.269-.043-2.542.055-3.808.02-.253.047-.506.068-.759.105-1.216-.11.569.006-.127.116-.691.234-1.377.383-2.063.498-2.295-.684-4.975-3.143-5.536-2.269-.517-5.002.683-5.536,3.143-2.569,11.848,1.028,24.56,9.65,33.142,1.671,1.663,4.717,1.794,6.364,0s1.783-4.59,0-6.364h0Z" style="fill:#fff;"/><path d="m30.116,71.477c-.425.191-.229.081.092-.013.332-.098.66-.198.998-.275.087-.02.927-.173.419-.098s.342-.019.433-.024c.629-.037,1.259-.032,1.887.004.283.016.565.043.847.068.364.032.547.084.078.004,2.455.42,4.859,1.061,7.26,1.719,2.293.628,4.548,1.341,6.764,2.202.661.257-.562-.281.071.035.246.123.503.229.751.348.558.268,1.108.553,1.647.858.478.271.948.557,1.406.859.287.19.562.397.847.589.616.414-.772-.638.231.191,1.812,1.497,4.613,1.907,6.364,0,1.52-1.656,1.938-4.763,0-6.364-4.697-3.879-10.275-5.929-16.093-7.507-2.941-.797-5.868-1.537-8.902-1.887-3.368-.388-6.56.136-9.643,1.52-2.155.968-2.834,4.265-1.614,6.157,1.436,2.228,3.852,2.649,6.157,1.614h0Z" style="fill:#fff;"/><path d="m59.311,78.608c.929-.408-.283.098.576-.248.415-.167.831-.333,1.249-.493.835-.319,1.676-.62,2.524-.903,1.552-.519,3.123-.98,4.707-1.389,1.731-.446,3.479-.83,5.236-1.16.807-.152,1.617-.291,2.428-.421.443-.071.887-.138,1.331-.203.222-.033.444-.064.667-.095-.38.05-.407.055-.082.012,6.955-.823,13.929-1.096,20.93-1.143,2.353-.016,4.609-2.058,4.5-4.5-.109-2.424-1.978-4.517-4.5-4.5-15.031.103-30.18,1.163-44.108,7.273-2.164.949-2.826,4.277-1.614,6.157,1.445,2.242,3.842,2.63,6.157,1.614h0Z" style="fill:#fff;"/><path d="m74.03,68.997c-.337-3.987-.818-7.96-1.422-11.915-.296-1.94-.629-3.875-.997-5.803-.412-2.155-.817-4.16-2.66-5.583-2.356-1.82-4.945-.844-7.434.008-.938.321-1.871.658-2.814.963l-.379.125c-.459.107-.519.136-.18.089.493-.078.969.034,1.428.335.899,1.069,1.189,1.344.869.824-.23-.391.143.79.02-.007-.051-.332-.147-.663-.207-.995-.168-.943-.308-1.892-.463-2.837-.308-1.892-.617-3.783-.925-5.675l-4.339,5.696c1.943-.092,3.912-.463,5.824-.808,2.24-.404,4.752-.833,6.593-2.255,2.539-1.962,2.134-5.053,1.91-7.848-.158-1.966-.352-3.929-.534-5.893-.058-.624-.097-1.25-.161-1.873-.014-.139.008-.304-.019-.441l-.862,2.361c-.466.35-.538.418-.216.206.448-.206.866-.524,1.305-.755.318-.168.649-.31.966-.476.69-.362-.939.299.317-.127.683-.232,1.356-.465,2.055-.643.348-.089.698-.167,1.051-.237l.211-.042c.539-.086.566-.098.081-.035l.352-.034c-.857-.134-1.576-.572-2.156-1.314.066.354.429.791.589,1.108.338.669.664,1.349.956,2.041-.331-.786.218.586.222.597.106.281.208.564.308.847.546,1.56.988,3.157,1.324,4.775.162.779.294,1.562.415,2.348.236,1.528-.069-.843.088.695.032.316.07.632.103.949.179,1.747.297,3.5.422,5.252.561,7.889,1.121,15.778,1.681,23.667.166,2.343,1.951,4.614,4.5,4.5,2.295-.103,4.679-1.985,4.5-4.5-.444-6.246-.887-12.491-1.331-18.737-.433-6.1-.572-12.374-2.107-18.323-.771-2.988-1.919-5.901-3.309-8.654-.894-1.772-2.042-3.254-3.988-3.927-1.746-.603-3.706-.219-5.465.149-2.792.584-5.75,1.726-8.077,3.398-2.102,1.51-3.074,3.521-2.859,6.055.155,1.827.343,3.652.505,5.478.086.969.168,1.939.234,2.91.026.381.05.762.066,1.143.007.159.008.319.017.478.023.38-.186.633.033-.052l1.157-1.986.47-.316c-.392.185-.363.177.088-.023.795-.357.113-.059-.055-.012-.373.103-.741.217-1.116.311-.927.232-1.866.415-2.807.582-.854.152-1.716.255-2.57.406,1.532-.271-.223.03-.709.053-3.153.149-4.821,2.742-4.339,5.696.334,2.049.668,4.098,1.002,6.148.329,2.02.53,4.01,1.656,5.781,1.675,2.634,4.755,3.48,7.676,2.679.985-.27,1.951-.653,2.918-.983.469-.161.938-.321,1.407-.482.313-.107.625-.214.938-.321.57-.158.629-.2.175-.126l-2.271-.614c-.505-.342-.869-.778-1.091-1.309-.12-.299-.148-.33-.081-.095-.034.321.163.78.228,1.113.159.802.311,1.606.457,2.41.292,1.609.559,3.223.801,4.841.048.324.096.647.142.971-.004-.026.194,1.428.105.748.095.73.185,1.46.27,2.191.198,1.706.365,3.415.51,5.127.198,2.34,1.928,4.615,4.5,4.5,2.268-.102,4.712-1.988,4.5-4.5h0Z" style="fill:#fff;"/><path d="m159.371,99.244c1.76,4.348,3.23,8.808,4.378,13.356.592,2.347,1.101,4.714,1.526,7.097.186,1.042.355,2.088.509,3.136.044.299.088.599.128.899-.097-.73.002.034.016.154.07.601.144,1.202.208,1.803.503,4.738.678,9.512.518,14.274-.078,2.343-.237,4.684-.478,7.016-.054.527-.113,1.053-.176,1.578-.036.3-.075.6-.111.901-.093.763.096-.607-.022.153-.185,1.196-.362,2.391-.576,3.582-.411,2.285-.909,4.565-1.699,6.752-.101.28-.206.561-.318.837.077-.189.31-.647-.082.156-.225.46-.453.916-.707,1.361-.218.383-.448.76-.692,1.128-.139.21-.285.413-.428.62-.669.968.354-.366-.099.132-.635.699-1.236,1.409-1.925,2.059-.367.345-.749.671-1.131.999-.051.044-.541.444-.136.12.462-.37-.363.264-.455.329-1.621,1.151-3.354,2.049-5.143,2.903-.615.294.657-.243.018-.008-.239.088-.474.187-.712.277-.417.156-.836.305-1.258.445-1.131.374-2.281.691-3.441.963-1.14.268-2.291.489-3.448.676-.309.05-.618.093-.927.142-.775.124.582-.058-.199.026-.701.076-1.401.162-2.103.229-4.027.385-8.077.508-12.117.673-7.768.316-15.549.666-23.325.674-2.354.002-4.609,2.068-4.5,4.5s1.977,4.502,4.5,4.5c7.262-.007,14.529-.324,21.785-.612,9.07-.36,18.626-.292,27.248-3.471,4.371-1.612,8.464-3.893,11.847-7.132,3.614-3.461,5.947-7.897,7.226-12.705,1.317-4.953,1.935-10.173,2.334-15.272.383-4.901.409-9.83.085-14.735-.745-11.278-3.193-22.426-7.436-32.907-.88-2.174-3.037-3.952-5.536-3.143-2.1.68-4.089,3.199-3.143,5.536h0Z" style="fill:#fff;"/><path d="m133.622,149.538c-.536.361-1.087.693-1.664.985-.438.222-.83.379-.144.102-.372.15-.747.29-1.128.418-.67.225-1.351.414-2.04.571-.352.08-.705.152-1.06.216-.179.033-.358.063-.538.091.533-.065.63-.078.29-.037-1.538.15-3.066.224-4.61.126-.367-.023-.733-.063-1.1-.094-.977-.083.79.177-.249-.04-.703-.147-1.404-.272-2.097-.464-.672-.186-1.32-.426-1.976-.661,1.054.377.041.001-.155-.097-.341-.171-.676-.356-1.006-.548-1.371-.801-2.633-1.768-3.976-2.613-3.652-2.299-7.618-2.969-11.816-3.524-2.343-.31-4.599,2.291-4.5,4.5.121,2.703,1.989,4.168,4.5,4.5-.783-.104.702.104.864.129.529.083,1.057.172,1.582.278.88.179,1.735.412,2.588.69,1.231.401-.616-.371.486.204.361.188.72.374,1.072.579.743.433,1.454.916,2.163,1.401,2.821,1.926,5.792,3.487,9.169,4.173,6.552,1.331,14.219.71,19.887-3.113,1.948-1.314,2.99-4.023,1.614-6.157-1.251-1.941-4.07-3.022-6.157-1.614h0Z" style="fill:#fff;"/><path d="m108.013,136.429c2.354,0,4.609-2.07,4.5-4.5s-1.977-4.5-4.5-4.5c-2.354,0-4.609,2.07-4.5,4.5s1.977,4.5,4.5,4.5h0Z" style="fill:#fff;"/><path d="m154.778,143.145c.199-.439.414-.866.671-1.276.127-.203.262-.401.404-.594-.338.436-.345.462-.02.078.352-.328.68-.676,1.042-.995-.757.668.048-.016.258-.149.411-.261.839-.477,1.271-.7-.97.501.38-.12.622-.191.464-.136.938-.243,1.416-.317-1.05.163.164.026.403.021.551-.011,1.105.011,1.652.075-1.007-.118.654.175.838.224.535.143,1.066.315,1.579.523-.821-.333.275.157.44.244.495.262.952.572,1.431.859.423.307.455.319.095.037.233.187.462.379.686.577.845.738,1.63,1.541,2.45,2.306,3.678,3.435,8.263,5.739,13.383,5.762,4.665.021,9.525-2.016,12.496-5.67,1.483-1.823,1.916-4.605,0-6.364-1.644-1.51-4.778-1.95-6.364,0-.324.399-.661.782-1.033,1.137-.185.176-.377.346-.574.509.408-.308.403-.314-.014-.017-.444.259-.883.518-1.333.768-.469.217-.465.22.014.007-.241.091-.484.175-.73.25-.494.152-.994.258-1.5.361.785-.16.056-.01-.336.008-.558.026-1.109-.003-1.665-.035-.538-.055-.552-.056-.041-.005-.273-.05-.545-.108-.815-.174-.542-.133-1.068-.305-1.594-.492.836.297-.66-.324-.825-.414-.367-.2-.726-.416-1.076-.645-.233-.153-.461-.313-.685-.478.346.263.308.223-.112-.12-1.841-1.725-3.634-3.515-5.713-4.96-4.064-2.826-9.329-3.92-14.162-2.837-4.339.973-8.479,4.065-10.33,8.145-.971,2.139-.684,4.942,1.614,6.157,1.972,1.042,5.118.674,6.157-1.614h0Z" style="fill:#fff;"/><path d="m167.022,99.872c8.622-8.581,12.22-21.294,9.65-33.142-.5-2.304-3.312-3.863-5.536-3.143-2.425.785-3.678,3.068-3.143,5.536.135.623.246,1.247.355,1.874.152.876-.022-.432.014.126.02.316.065.633.089.949.093,1.203.113,2.412.063,3.618-.024.571-.062,1.142-.117,1.711-.014.149-.195,1.411-.022.318-.04.251-.076.503-.119.754-.213,1.254-.501,2.496-.861,3.716-.162.549-.339,1.094-.531,1.633-.106.3-.225.595-.331.895-.286.807.165-.326-.056.159-.501,1.101-1.028,2.183-1.637,3.23-.638,1.097-1.34,2.163-2.115,3.167.255-.331.27-.34-.007-.015-.206.242-.409.486-.619.725-.463.526-.946,1.03-1.442,1.524-1.671,1.663-1.788,4.723,0,6.364,1.8,1.652,4.581,1.775,6.364,0h0Z" style="fill:#fff;"/><path d="m174.427,63.706c-3.081-1.384-6.277-1.91-9.643-1.52-3.034.352-5.96,1.09-8.902,1.887-5.818,1.577-11.396,3.628-16.093,7.507-1.822,1.505-1.675,4.827,0,6.364,1.937,1.778,4.42,1.606,6.364,0,.254-.21.435-.346.064-.069.276-.206.557-.403.843-.596.456-.307.923-.597,1.399-.872.536-.309,1.083-.599,1.639-.871.248-.121.499-.236.748-.353.315-.148.494-.222.067-.041,2.248-.949,4.607-1.637,6.957-2.28s4.679-1.176,7.047-1.684c.707-.152-.638.042.079-.015.283-.022.564-.057.848-.077.629-.044,1.261-.059,1.891-.031.277.012.553.036.829.061-.458-.041-.369-.068.029.028.337.081.67.157,1.001.259.157.049,1.011.398.29.075,2.142.962,4.939.69,6.157-1.614,1.038-1.965.678-5.127-1.614-6.157h0Z" style="fill:#fff;"/><path d="m145.232,70.837c-13.927-6.11-29.076-7.17-44.108-7.273-2.354-.016-4.608,2.081-4.5,4.5.11,2.452,1.977,4.483,4.5,4.5,7.001.048,13.974.32,20.93,1.143.325.042.297.038-.082-.012l.445.063c.444.067.888.13,1.332.2.885.14,1.769.291,2.65.456,1.684.316,3.359.682,5.019,1.105s3.301.901,4.924,1.444c.847.284,1.689.584,2.524.903.348.133.695.27,1.041.409.208.083.415.168.622.254-.387-.162-.333-.136.162.078,2.15.943,4.933.703,6.157-1.614,1.03-1.949.687-5.147-1.614-6.157h0Z" style="fill:#fff;"/><path d="m134.97,68.997c.138-1.63.296-3.258.482-4.883.215-1.877.284-2.408.545-4.155.23-1.537.482-3.07.757-4.599.145-.805.296-1.609.453-2.411.072-.369.254-.824.241-1.203l.07-.302c-.239.628-.642,1.147-1.208,1.555l-2.271.614c-.763.003.647.288.879.367.547.187,1.094.375,1.642.562.905.31,1.806.662,2.725.928,2.98.861,6.139.097,7.87-2.624,1.086-1.706,1.3-3.597,1.618-5.545.347-2.128.694-4.256,1.041-6.384.482-2.954-1.186-5.548-4.339-5.696-.207-.01-.414-.031-.62-.053-.217-.022-1.283-.161-.446-.049.845.114-.464-.071-.724-.111-.497-.077-.993-.159-1.488-.247-.895-.159-1.788-.334-2.672-.549-.421-.103-.834-.229-1.252-.344-.076-.021-.347-.168-.416-.142.762.34.957.421.584.244-.303-.154-.192-.071.334.25l1.157,1.986c.192.6.002.552.03.223.012-.148.007-.3.012-.449.01-.287.026-.573.044-.859.053-.889.125-1.777.201-2.664.15-1.759.323-3.516.485-5.273.157-1.709.32-3.215-.619-4.813-1.56-2.654-5.377-4.119-8.153-5.02-3.303-1.073-7.373-1.876-10.045.911-1.035,1.079-1.663,2.594-2.264,3.94-.71,1.589-1.371,3.204-1.906,4.861-1.901,5.885-2.143,12.146-2.578,18.269-.496,6.985-.992,13.97-1.489,20.955-.167,2.353,2.189,4.604,4.5,4.5,2.581-.116,4.321-1.979,4.5-4.5.496-6.985.992-13.97,1.489-20.955.121-1.703.236-3.407.366-5.11.061-.794.125-1.587.201-2.379.031-.317.062-.633.097-.95.034-.316.07-.632.109-.948-.06.408-.049.334.031-.221.237-1.529.533-3.046.939-4.54.197-.725.414-1.445.654-2.157.096-.285.195-.569.298-.851.053-.145.665-1.696.378-1.019.293-.691.617-1.371.956-2.041.118-.233.331-.542.416-.8l.173-.308c-.58.742-1.299,1.18-2.156,1.314l.352.034c-.413-.055-.457-.055-.131-.002.346.089.707.133,1.056.214.844.196,1.654.467,2.474.745,1.256.426-.374-.235.317.127.318.166.649.308.966.476s.63.345.938.53c.298.179.928.769.151.02-1.916-1.847-.729-3.212-.873-2.039-.037.302-.045.612-.071.915-.302,3.505-1.026,7.185-.8,10.706.281,4.381,4.328,5.528,7.908,6.225,2.154.419,4.394.848,6.588.951l-4.339-5.696c-.308,1.892-.617,3.783-.925,5.675-.141.867-.28,1.734-.424,2.601-.06.357-.117.713-.204,1.065-.134.539-.187.551.06.035-.412.651-.15.423.787-.685l1.221-.356c.477.074.551.07.221-.012-.193-.052-.384-.113-.573-.181-.942-.308-1.876-.642-2.814-.963-2.495-.854-5.069-1.836-7.434-.008-1.828,1.413-2.249,3.438-2.66,5.583-.353,1.847-.673,3.701-.96,5.56-.622,4.035-1.115,8.09-1.459,12.158-.199,2.352,2.212,4.602,4.5,4.5,2.608-.117,4.287-1.981,4.5-4.5h0Z" style="fill:#fff;"/><path d="m72.81,112.501c.165.104.683.492.045-.01-.615-.483-.192-.157-.066-.038.241.228.454.48.691.711.328.32-.559-.843-.343-.438.077.144.186.276.271.417.172.286.32.585.457.889l-.454-1.075c.319.757.53,1.536.651,2.348l-.161-1.196c.114.894.115,1.784.005,2.678l.161-1.196c-.126.874-.358,1.711-.688,2.53l.454-1.075c-.158.365-.327.724-.527,1.069-.12.207-.251.402-.383.601-.415.625.569-.633.191-.259-.141.139-.266.291-.41.428-.13.124-.702.587-.091.108s.02-.042-.137.051c-.206.121-.421.226-.638.326l1.075-.454c-.445.184-.89.316-1.364.4l1.196-.161c-.477.062-.936.067-1.414.01l1.196.161c-.589-.102-1.134-.284-1.685-.512l1.075.454c-1.017-.445-1.891-1.064-2.86-1.575,1.056.557.517.414.204.128-.151-.137-.579-.446-.628-.648l.425.557c-.089-.121-.172-.246-.251-.374-.162-.264-.294-.539-.415-.823l.454,1.075c-.163-.436-.276-.871-.346-1.331l.161,1.196c-.071-.619-.058-1.224.022-1.841l-.161,1.196c.127-.79.354-1.54.664-2.277l-.454,1.075c.348-.777.781-1.476,1.261-2.176.277-.403-.783.858-.194.271.138-.137.262-.287.403-.421.603-.572-.251.079-.282.198.031-.12.522-.279.611-.318l-1.075.454c1.037-.407,2.065-.78,3.172-.948l-1.196.161c.776-.098,1.54-.098,2.317-.007l-1.196-.161c.452.066.892.159,1.332.276,2.272.605,4.993-.76,5.536-3.143.538-2.362-.709-4.887-3.143-5.536-2.372-.632-4.84-.67-7.215-.027-2.003.542-4.03,1.402-5.471,2.934-1.644,1.748-2.947,4.006-3.559,6.329-.711,2.7-.473,5.369.73,7.883.989,2.067,2.958,3.708,4.918,4.812,2.126,1.198,4.581,2.224,7.066,1.948,3.207-.357,5.743-1.961,7.665-4.517,1.197-1.592,2.018-3.582,2.32-5.553.364-2.377.378-4.863-.49-7.148-.985-2.594-2.515-4.713-4.889-6.206-1.996-1.255-5.047-.486-6.157,1.614-1.171,2.216-.516,4.817,1.614,6.157h0Z" style="fill:#fff;"/><path d="m132.403,112.501c.165.104.683.492.045-.01-.615-.483-.192-.157-.066-.038.241.228.454.48.691.711.328.32-.559-.843-.343-.438.077.144.186.276.271.417.172.286.32.585.457.889l-.454-1.075c.319.757.53,1.536.651,2.348l-.161-1.196c.114.894.115,1.784.005,2.678l.161-1.196c-.126.874-.358,1.711-.688,2.53l.454-1.075c-.158.365-.327.724-.527,1.069-.12.207-.251.402-.383.601-.415.625.569-.633.191-.259-.141.139-.266.291-.41.428-.13.124-.702.587-.091.108s.02-.042-.137.051c-.206.121-.421.226-.638.326l1.075-.454c-.445.184-.89.316-1.364.4l1.196-.161c-.477.062-.936.067-1.414.01l1.196.161c-.589-.102-1.134-.284-1.685-.512l1.075.454c-1.017-.445-1.891-1.064-2.86-1.575,1.056.557.517.414.204.128-.151-.137-.579-.446-.628-.648l.425.557c-.089-.121-.172-.246-.251-.374-.162-.264-.294-.539-.415-.823l.454,1.075c-.163-.436-.276-.871-.346-1.331l.161,1.196c-.071-.619-.058-1.224.022-1.841l-.161,1.196c.127-.79.354-1.54.664-2.277l-.454,1.075c.348-.777.781-1.476,1.261-2.176.277-.403-.783.858-.194.271.138-.137.262-.287.403-.421.603-.572-.251.079-.282.198.031-.12.522-.279.611-.318l-1.075.454c1.037-.407,2.065-.78,3.172-.948l-1.196.161c.776-.098,1.54-.098,2.317-.007l-1.196-.161c.452.066.892.159,1.332.276,2.272.605,4.993-.76,5.536-3.143.538-2.362-.709-4.887-3.143-5.536-2.372-.632-4.84-.67-7.215-.027-2.003.542-4.03,1.402-5.471,2.934-1.644,1.748-2.947,4.006-3.559,6.329-.711,2.7-.473,5.369.73,7.883.989,2.067,2.958,3.708,4.918,4.812,2.126,1.198,4.581,2.224,7.066,1.948,3.207-.357,5.743-1.961,7.665-4.517,1.197-1.592,2.018-3.582,2.32-5.553.364-2.377.378-4.863-.49-7.148-.985-2.594-2.515-4.713-4.889-6.206-1.996-1.255-5.047-.486-6.157,1.614-1.171,2.216-.516,4.817,1.614,6.157h0Z" style="fill:#fff;"/></svg>