<?xml version="1.0" encoding="UTF-8"?><svg id="_레이어_2" xmlns="http://www.w3.org/2000/svg" viewBox="0 0 203.324 175.011"><g id="_레이어_1-2"><g><path d="m30.519,84.246c-4.643,11.465-7.252,23.713-7.884,36.062-.309,6.048-.108,12.121.609,18.134.764,6.402,1.667,13.12,4.841,18.843,6.031,10.876,18.62,14.967,30.228,16.215,8.032.863,16.194.878,24.265,1.076s16.187.431,24.28.435c2.354.001,4.609-2.071,4.5-4.5s-1.977-4.499-4.5-4.5c-13.818-.007-27.693-.308-41.495-.994-1.413-.07-2.826-.151-4.237-.26-.705-.054-1.409-.115-2.112-.185-.39-.039-.78-.079-1.17-.123,0,0-1.448-.179-.669-.074-2.883-.387-5.757-.997-8.521-1.91-.61-.202-1.209-.428-1.811-.653-.802-.299-.158-.055.003.014-.296-.126-.589-.259-.881-.395-1.166-.542-2.301-1.151-3.392-1.832-.489-.305-.969-.623-1.439-.957.015.01-.984-.745-.465-.335s-.449-.38-.436-.368c-.965-.82-1.871-1.713-2.693-2.677-.164-.192-.325-.388-.483-.586.563.708.041.033-.091-.155-.327-.469-.636-.951-.923-1.445-.892-1.532-.998-1.824-1.52-3.39-.93-2.794-1.458-5.713-1.914-8.616-.106-.673-.207-1.347-.298-2.022.104.778-.02-.192-.043-.38-.046-.376-.09-.752-.131-1.128-.167-1.505-.301-3.013-.403-4.523-.194-2.87-.271-5.747-.233-8.623.044-3.33.242-6.659.594-9.971.08-.753.169-1.505.264-2.256.117-.924.048-.354.02-.154.074-.525.151-1.049.233-1.573.244-1.571.523-3.136.836-4.695,1.314-6.534,3.246-12.93,5.747-19.107.886-2.188-.962-5.039-3.143-5.536-2.609-.594-4.587.8-5.536,3.143h0Z" style="fill:#fff;"/><path d="m61.753,147.387c5.905,3.988,13.933,4.641,20.758,3.226,3.508-.727,6.574-2.353,9.508-4.352.767-.523,1.536-1.045,2.341-1.508.354-.204.716-.39,1.079-.577,1.116-.574-.737.198.484-.201.98-.321,1.962-.583,2.975-.779.443-.086.889-.161,1.334-.232.155-.025,1.877-.265,1.054-.156,2.324-.307,4.619-1.849,4.5-4.5-.097-2.173-2-4.831-4.5-4.5-4.307.569-8.4,1.245-12.156,3.588-1.463.912-2.832,1.968-4.323,2.836-.331.193-.666.378-1.008.549-.185.092-1.217.502-.154.101-.707.267-1.41.519-2.14.72-.752.207-1.51.347-2.274.501-.961.193.82-.061-.25.038-.367.034-.732.071-1.1.095-1.614.106-3.192-.003-4.799-.118,1.12.08-.057-.014-.252-.047-.356-.061-.712-.131-1.065-.208-.806-.177-1.604-.395-2.386-.66-.326-.111-.644-.244-.969-.357,1.053.364.046.009-.157-.09-.68-.332-1.329-.715-1.956-1.138-1.956-1.321-5.072-.439-6.157,1.614-1.201,2.274-.473,4.747,1.614,6.157h0Z" style="fill:#fff;"/><path d="m93.255,125.465c2.354,0,4.609-2.07,4.5-4.5s-1.977-4.5-4.5-4.5c-2.354,0-4.609,2.07-4.5,4.5s1.977,4.5,4.5,4.5h0Z" style="fill:#fff;"/><path d="m52.183,128.072c-3.279-7.238-12.075-10.227-19.426-8.234-4.011,1.088-7.227,3.477-10.177,6.313-.632.607-1.312,1.171-1.937,1.782-.358.351-.02.034.067-.032-.167.127-.341.246-.515.365-.406.277-.824.536-1.253.773-.368.204-.746.391-1.129.566.658-.301-.267.081-.492.154-.399.13-.804.243-1.212.338-.202.047-.417.071-.616.128-.646.188.624-.015-.048.016-.49.023-.974.069-1.465.063-.205-.003-.41-.012-.614-.024-.103-.006-.923-.106-.37-.021.549.084-.096-.027-.171-.044-.253-.059-.508-.11-.759-.177-.441-.117-.865-.275-1.297-.42-.488-.165.118.038.18.073-.226-.126-.465-.229-.692-.354-.399-.22-.765-.483-1.15-.722-.426-.265.085.06.142.114-.189-.176-.39-.338-.577-.518-.374-.36-.713-.748-1.04-1.151-1.49-1.835-4.836-1.665-6.364,0-1.789,1.949-1.59,4.406,0,6.364,3.11,3.83,8.238,5.97,13.131,5.88,5.369-.098,10.076-2.556,13.91-6.181,1.917-1.813,2.659-2.671,4.529-3.691.159-.087,1.655-.747.769-.406.505-.195,1.019-.367,1.542-.509.52-.141,1.05-.259,1.583-.337-1.047.152.618.001.815,0,.219,0,1.899.16.783-.014.486.075.966.183,1.439.318.22.063,1.634.661.654.188.444.214.88.437,1.3.696.209.129.414.264.614.405-.418-.34-.432-.349-.042-.027.358.334.696.682,1.046,1.023.325.387.32.367-.016-.059.143.197.279.399.407.606.259.417.476.851.678,1.297.975,2.151,4.26,2.837,6.157,1.614,2.222-1.433,2.657-3.856,1.614-6.157h0Z" style="fill:#fff;"/><path d="m37.905,80.837c-.913-.909-1.769-1.864-2.574-2.87.617.77-.16-.236-.222-.322-.149-.209-.296-.42-.44-.633-.36-.532-.705-1.075-1.033-1.627-.657-1.107-1.238-2.253-1.771-3.424-.527-1.159.307.842-.142-.349-.091-.241-.185-.48-.273-.722-.243-.665-.464-1.338-.664-2.016-.364-1.234-.658-2.489-.879-3.757-.055-.317-.104-.634-.152-.953.097.644.041.301-.005-.144-.066-.639-.113-1.281-.142-1.923-.057-1.284-.038-2.57.06-3.852.024-.32.061-.64.087-.96.072-.886-.085.407.013-.142.124-.698.24-1.393.39-2.086.498-2.295-.684-4.976-3.143-5.536-2.269-.517-5.001.683-5.536,3.143-2.68,12.342,1.078,25.599,10.062,34.535,1.671,1.662,4.717,1.794,6.364,0s1.783-4.59,0-6.364h0Z" style="fill:#fff;"/><path d="m28.276,57.396c-.577.259.039,0,.312-.087.268-.084.538-.157.812-.221.173-.04,1.122-.199.253-.089.279-.035.561-.054.842-.069.64-.034,1.281-.025,1.92.012.287.017.575.059.861.069.499.018-.514-.104.315.038,2.551.436,5.052,1.118,7.546,1.803,2.363.649,4.679,1.395,6.968,2.271.469.18-.486-.235.262.118.25.118.502.231.75.351.558.27,1.107.556,1.647.862s1.067.627,1.581.97c.229.153.454.312.679.471,1.095.772-.639-.541.397.316,1.812,1.498,4.614,1.906,6.364,0,1.521-1.656,1.937-4.762,0-6.364-4.86-4.017-10.64-6.146-16.661-7.783-3.042-.827-6.068-1.589-9.202-1.978-3.547-.44-6.934.076-10.189,1.54-2.154.969-2.835,4.264-1.614,6.157,1.435,2.226,3.853,2.651,6.157,1.614h0Z" style="fill:#fff;"/><path d="m58.885,64.873c.924-.405-.268.092.586-.254.417-.169.836-.336,1.256-.498.839-.323,1.685-.628,2.537-.916,1.701-.576,3.425-1.085,5.164-1.533s3.499-.838,5.266-1.174c.886-.169,1.774-.324,2.664-.467.446-.072.892-.14,1.339-.206.298-.044.596-.086.895-.128-.375.05-.4.054-.076.012,7.298-.866,14.617-1.151,21.963-1.201,2.353-.016,4.609-2.058,4.5-4.5-.109-2.424-1.978-4.517-4.5-4.5-15.716.107-31.572,1.204-46.134,7.595-2.163.949-2.826,4.277-1.614,6.157,1.445,2.242,3.842,2.63,6.157,1.614h0Z" style="fill:#fff;"/><path d="m74.21,54.984c-.363-4.297-.884-8.58-1.545-12.841-.3-1.932-.634-3.858-1.002-5.778-.459-2.393-.972-4.741-3.285-6.052-2.453-1.39-4.867-.273-7.257.544-.901.308-1.799.632-2.705.926l-.398.132c-.532.126-.542.152-.029.079.848.562,1.459.195,1.985,1.108.503.874.093.255-.007-.125-.083-.315-.137-.636-.194-.956-.166-.937-.306-1.879-.459-2.818-.332-2.035-.664-4.071-.995-6.106l-4.339,5.696c2.011-.093,4.045-.479,6.025-.835,2.324-.418,4.953-.854,6.862-2.33,2.598-2.008,2.144-5.233,1.913-8.095-.164-2.043-.366-4.082-.555-6.123-.058-.632-.125-1.264-.165-1.897-.009-.141.03-.42-.026-.55.096.22-.757,2.629-1.213,2.626.34.002,1.164-.702,1.487-.874.316-.168.654-.306.964-.482.677-.383-.93.317.313-.138.676-.247,1.354-.481,2.049-.669.416-.113.836-.212,1.258-.299l.423-.082c.539-.085.567-.096.083-.033.518-.573.255.358-.097-.151-1.494-1.417-1.969-1.694-1.425-.831.143.267.283.535.42.805.342.674.667,1.358.967,2.052-.334-.774.232.599.234.605.135.353.265.708.39,1.065.575,1.642,1.041,3.321,1.395,5.024.162.779.293,1.563.418,2.349.244,1.529-.075-.844.093.696.043.396.089.791.13,1.187.186,1.829.312,3.664.442,5.498.588,8.278,1.176,16.556,1.764,24.834.166,2.343,1.951,4.614,4.5,4.5,2.295-.103,4.679-1.985,4.5-4.5-.459-6.457-.917-12.914-1.376-19.371-.463-6.515-.596-13.224-2.259-19.573-.806-3.075-1.991-6.074-3.425-8.908-.911-1.8-2.139-3.49-4.204-4.046-1.843-.497-3.74-.148-5.575.249-2.888.624-5.856,1.82-8.286,3.512-2.249,1.566-3.102,3.713-2.875,6.326.163,1.878.354,3.753.52,5.631.089,1.005.174,2.01.241,3.016.028.413.054.825.071,1.239.005.127.007.254.014.381.019.372-.187.739.029.066l1.157-1.986c.505-.306.607-.382.306-.228-.262.124-.189.095.219-.086.788-.344.148-.068-.048-.013-.41.115-.816.241-1.23.344-.973.242-1.959.435-2.946.61-.494.088-.989.17-1.484.247-.26.041-1.57.219-.734.114.819-.103-.336.041-.568.066-.231.025-.461.049-.693.06-3.154.147-4.821,2.744-4.339,5.696.357,2.192.715,4.384,1.072,6.576.362,2.221.582,4.447,2.009,6.294,1.933,2.502,4.937,3.111,7.889,2.17,1.049-.334,2.087-.712,3.129-1.069.526-.18,1.052-.36,1.578-.54.301-.103.601-.206.902-.309.497-.147.413-.138-.25.028l-2.271-.614c-.484-.333-.836-.756-1.055-1.269-.14-.335-.153-.307-.038.085.031.318.131.645.193.958.174.879.341,1.759.5,2.641.305,1.683.583,3.371.836,5.063.258,1.732.326,2.238.545,4.133.206,1.78.381,3.564.532,5.349.197,2.34,1.928,4.615,4.5,4.5,2.268-.102,4.712-1.988,4.5-4.5h0Z" style="fill:#fff;"/><path d="m164.114,86.638c1.876,4.632,3.436,9.386,4.649,14.234.588,2.35,1.095,4.72,1.523,7.104.214,1.193.4,2.389.581,3.587.018.119.126.882.026.153.041.3.078.601.115.901.074.601.143,1.203.207,1.805.527,4.968.71,9.972.544,14.966-.08,2.421-.244,4.839-.49,7.248-.062.602-.128,1.204-.2,1.805-.036.301-.074.601-.112.901.025-.2.111-.768-.021.154-.182,1.274-.384,2.544-.611,3.811-.427,2.374-.944,4.742-1.758,7.017-.101.283-.206.564-.318.843-.28.701.247-.514-.079.167-.255.533-.516,1.06-.808,1.574-.251.443-.519.875-.803,1.298-.106.158-.216.313-.324.47-.696,1.018.577-.645-.22.294-.657.773-1.341,1.516-2.083,2.208-.325.303-.659.597-1,.882-.099.083-.725.59-.289.246.459-.363-.375.271-.465.335-1.737,1.234-3.6,2.223-5.535,3.106-.623.284.651-.235.006-.008-.242.085-.479.187-.72.277-.421.157-.844.306-1.271.447-1.283.424-2.589.776-3.906,1.076-1.143.26-2.296.477-3.454.66-.309.049-.619.093-.928.14-.777.118.582-.056-.201.025-.702.072-1.402.162-2.105.229-4.229.405-8.481.536-12.724.709-8.153.332-16.319.7-24.48.707-2.354.002-4.609,2.068-4.5,4.5s1.977,4.502,4.5,4.5c7.596-.007,15.197-.338,22.786-.639,9.487-.376,19.47-.306,28.495-3.608,4.589-1.679,8.889-4.08,12.432-7.482,3.79-3.64,6.215-8.319,7.531-13.372,1.333-5.12,1.978-10.495,2.39-15.761.402-5.132.43-10.292.092-15.428-.779-11.816-3.344-23.495-7.791-34.475-.88-2.174-3.037-3.952-5.536-3.143-2.1.679-4.089,3.199-3.143,5.536h0Z" style="fill:#fff;"/><path d="m137.017,139.615c-.628.424-1.276.806-1.956,1.138-.241.118-1.199.469-.157.09-.324.118-.643.245-.969.357-.725.247-1.465.451-2.211.62-.411.093-.824.176-1.24.248-.255.044-1.356.145-.252.047-1.603.143-3.19.223-4.799.118-.368-.024-.734-.061-1.1-.095-1.213-.111.938.189-.25-.038-.765-.146-1.523-.293-2.274-.501-.728-.201-1.437-.444-2.14-.72.692.272.281.118-.154-.101-.342-.172-.677-.357-1.008-.549-1.492-.867-2.859-1.926-4.323-2.836-3.763-2.34-7.844-3.018-12.156-3.588-2.343-.31-4.599,2.291-4.5,4.5.121,2.703,1.989,4.168,4.5,4.5-.824-.109.898.132,1.054.156.446.071.891.146,1.334.232,1.014.198,1.987.479,2.975.779.878.267-.383-.252.484.201.363.19.724.373,1.079.577.805.463,1.574.985,2.341,1.508,2.933,2,6.001,3.625,9.508,4.352,6.825,1.415,14.852.762,20.758-3.226,1.947-1.315,2.99-4.022,1.614-6.157-1.251-1.94-4.07-3.023-6.157-1.614h0Z" style="fill:#fff;"/><path d="m110.057,125.465c2.354,0,4.609-2.07,4.5-4.5s-1.977-4.5-4.5-4.5c-2.354,0-4.609,2.07-4.5,4.5s1.977,4.5,4.5,4.5h0Z" style="fill:#fff;"/><path d="m158.9,132.615c.202-.446.419-.881.678-1.297.128-.207.264-.409.407-.606-.336.426-.341.446-.016.059.35-.341.688-.689,1.046-1.023.39-.322.376-.313-.042.027.201-.141.405-.277.614-.405.42-.259.856-.482,1.3-.696-.98.473.434-.125.654-.188.472-.135.953-.243,1.439-.318-1.116.173.565.013.783.014.197,0,1.862.152.815,0,.533.078,1.063.196,1.583.337.523.142,1.036.314,1.542.509-.886-.342.61.319.769.406,1.87,1.021,2.612,1.879,4.529,3.691,3.834,3.625,8.541,6.083,13.91,6.181,4.894.089,10.021-2.05,13.131-5.88,1.481-1.824,1.917-4.604,0-6.364-1.643-1.509-4.779-1.951-6.364,0-.496.611-1.043,1.133-1.617,1.668.542-.505-.075.043-.34.212-.382.244-.807.422-1.186.665-.412.264.1-.021.187-.056-.18.073-.364.139-.548.203-.368.128-.742.24-1.12.334-.189.047-.38.085-.57.13-.075.018-.719.129-.171.044.544-.084-.093.005-.175.009-.27.014-.538.032-.808.036-.42.006-.838-.017-1.257-.043-.858-.053.375.121-.462-.075-.409-.096-.818-.185-1.221-.304-.201-.059-.401-.124-.6-.192-.075-.026-.858-.322-.443-.15.435.18-.197-.097-.232-.114-.188-.095-.376-.189-.562-.288-.371-.199-.734-.412-1.088-.64-.177-.114-.351-.232-.525-.351-.022-.015-.566-.434-.224-.159.35.28-.203-.183-.218-.196-.218-.195-.439-.386-.654-.584-1.434-1.314-2.785-2.678-4.328-3.87-1.725-1.333-3.571-2.297-5.614-3.063-3.514-1.316-7.713-1.507-11.285-.303-4.023,1.356-7.71,4.166-9.492,8.099-.969,2.139-.685,4.942,1.614,6.157,1.971,1.041,5.12.675,6.157-1.614h0Z" style="fill:#fff;"/><path d="m171.772,87.201c8.984-8.937,12.741-22.193,10.062-34.535-.5-2.303-3.311-3.863-5.536-3.143-2.425.785-3.679,3.068-3.143,5.536.137.629.253,1.26.361,1.895.207,1.212-.035-.566.02.141.025.32.068.639.094.959.105,1.281.132,2.567.083,3.851-.025.642-.068,1.284-.131,1.923-.014.141-.192,1.417-.025.336-.039.254-.077.509-.119.762-.224,1.332-.53,2.651-.912,3.947-.182.617-.382,1.229-.599,1.835-.109.303-.226.602-.338.904-.299.802.158-.31-.064.172-.54,1.17-1.099,2.321-1.751,3.435-.325.554-.666,1.099-1.023,1.633-.179.267-.361.532-.547.793-.063.088-.691.933-.339.472s-.299.365-.369.449c-.205.247-.415.491-.628.731-.469.53-.959,1.04-1.461,1.54-1.671,1.663-1.788,4.723,0,6.364,1.8,1.653,4.581,1.774,6.364,0h0Z" style="fill:#fff;"/><path d="m179.579,49.625c-3.185-1.433-6.495-1.964-9.973-1.566-3.209.367-6.308,1.159-9.418,2.004-6.02,1.636-11.802,3.767-16.661,7.783-1.822,1.506-1.675,4.826,0,6.364,1.936,1.777,4.421,1.606,6.364,0,.624-.516-.169.082.231-.193.227-.156.447-.322.675-.477.512-.348,1.036-.676,1.573-.985s1.085-.598,1.641-.872c.248-.122.497-.24.748-.356.282-.13.853-.373.257-.126,2.323-.961,4.739-1.684,7.161-2.35s4.852-1.351,7.329-1.767c.305-.051.978-.117.316-.052.287-.028.574-.058.862-.078.64-.045,1.282-.059,1.923-.033.351.014.705.033,1.054.078-.47-.06-.324-.053.048.041.272.069.546.127.815.206.07.02,1.284.496.513.15,2.142.963,4.94.689,6.157-1.614,1.039-1.966.678-5.126-1.614-6.157h0Z" style="fill:#fff;"/><path d="m148.969,57.101c-14.562-6.391-30.419-7.488-46.134-7.595-2.354-.016-4.608,2.081-4.5,4.5.11,2.452,1.977,4.483,4.5,4.5,7.346.05,14.664.335,21.963,1.201.324.042.299.038-.076-.012.224.031.448.063.671.095.447.065.893.133,1.339.203.891.141,1.779.295,2.666.461,1.768.332,3.526.716,5.269,1.16s3.465.947,5.168,1.518c.852.286,1.699.588,2.539.908.421.16.84.325,1.257.494.209.084.418.17.626.257-.383-.159-.327-.132.169.082,2.15.943,4.933.703,6.157-1.614,1.03-1.95.687-5.147-1.614-6.157h0Z" style="fill:#fff;"/><path d="m138.102,54.984c.144-1.705.309-3.407.504-5.107.093-.809.192-1.618.296-2.426.042-.318.042-.323,0-.015l.067-.484c.069-.484.138-.968.21-1.451.24-1.611.504-3.219.792-4.822.158-.882.324-1.762.497-2.642.075-.384.216-.812.24-1.198l.074-.316c-.236.603-.624,1.103-1.166,1.5l-2.271.614c-.664-.166-.747-.175-.25-.028.301.103.601.206.902.309.451.154.902.309,1.352.463,1.051.36,2.098.737,3.156,1.08,3.007.975,6.085.488,8.088-2.104,1.381-1.788,1.619-3.906,1.97-6.059.37-2.27.74-4.541,1.11-6.811.481-2.953-1.186-5.55-4.339-5.696-.542-.025-1.075-.124-1.614-.172.332.03,1.075.155.312.037-.231-.036-.462-.069-.693-.105-.496-.077-.991-.159-1.484-.247-.941-.167-1.88-.35-2.809-.577-.421-.103-.841-.211-1.254-.342-.154-.049-.36-.172-.522-.177l.723.31c-.44-.229-.386-.176.163.159l1.157,1.986c.237.74.022.112.035-.251.012-.357.033-.714.055-1.071.055-.886.127-1.771.202-2.656.15-1.76.322-3.518.485-5.276.162-1.747.429-3.435-.512-5.064-1.623-2.809-5.542-4.333-8.472-5.289-3.386-1.105-7.606-1.984-10.348.889-1.092,1.143-1.754,2.766-2.385,4.191-.709,1.6-1.372,3.222-1.913,4.887-2.014,6.206-2.262,12.808-2.721,19.266-.518,7.285-1.035,14.569-1.553,21.854-.167,2.353,2.189,4.604,4.5,4.5,2.581-.116,4.321-1.979,4.5-4.5.523-7.367,1.047-14.735,1.57-22.102.122-1.712.238-3.424.368-5.135.066-.874.137-1.747.221-2.619.038-.396.078-.792.122-1.188.035-.316.072-.632.112-.948-.057.408-.045.334.035-.222.247-1.534.541-3.055.943-4.556.215-.804.457-1.6.723-2.388.121-.358.246-.715.377-1.07.054-.146.678-1.686.393-1.029.301-.694.625-1.378.967-2.052.052-.103.644-1.055.601-1.128.1.166-1.848,1.188-2.072,1.27l.369.036c-.484-.063-.457-.052.083.033.421.096.845.169,1.264.273.839.209,1.655.48,2.466.777,1.243.455-.364-.245.313.138.311.176.649.313.964.482.381.203.743.438,1.122.644.987.537-.019.062-.009-.072l-.84-2.324c0,.041,0,.083-.001.124-.016.097-.005.201-.016.298-.037.314-.048.632-.076.947-.167,1.926-.364,3.85-.533,5.777-.155,1.767-.417,3.602-.301,5.378.295,4.499,4.531,5.62,8.195,6.328,2.221.429,4.523.872,6.785.977l-4.339-5.696c-.319,1.957-.638,3.914-.957,5.871-.166,1.017-.318,2.038-.498,3.053-.057.32-.111.641-.194.956-.091.345-.55,1.068-.007.125.436-.756,1.206-.858,1.985-1.108.443.067.501.06.174-.021-.203-.055-.403-.118-.601-.19-.905-.297-1.803-.617-2.705-.926-2.386-.816-4.806-1.934-7.257-.544-2.294,1.3-2.827,3.668-3.285,6.052-.368,1.92-.702,3.846-1.002,5.778-.661,4.261-1.183,8.544-1.545,12.841-.199,2.352,2.212,4.603,4.5,4.5,2.608-.117,4.287-1.981,4.5-4.5h0Z" style="fill:#fff;"/><path d="m73.259,100.408c.956.601-.595-.588-.057-.086.204.19.41.373.598.579.328.359.328.694-.181-.266.128.242.313.462.448.703.211.373.436,1.238.003-.129.064.201.153.396.219.597.178.545.297,1.104.382,1.67l-.161-1.196c.12.938.121,1.87.006,2.808l.161-1.196c-.095.664-.242,1.314-.457,1.949-.039.117-.355.904-.04.164s-.03.037-.085.145c-.17.334-.359.657-.57.966-.088.129-.455.622-.019.043.47-.623-.047.013-.138.106-.116.119-.24.229-.36.344-.548.526.678-.428.218-.169-.145.082-.281.181-.427.263-.725.408.188.063.284-.078-.149.219-.955.281-1.199.324l1.196-.161c-.5.065-.981.07-1.483.01l1.196.161c-.441-.076-.848-.207-1.274-.34-.755-.235.712.335.219.095-.184-.089-.371-.171-.555-.261-.695-.341-1.33-.748-1.982-1.16-.421-.266.872.762.25.188-.117-.107-.238-.21-.352-.32-.142-.137-.268-.289-.408-.428-.368-.367.57.9.198.258-.099-.171-.211-.334-.304-.509-.236-.443-.006-.554.11.295-.053-.388-.217-.774-.278-1.168l.161,1.196c-.074-.649-.061-1.283.023-1.93l-.161,1.196c.079-.491.187-.973.34-1.447.078-.24.178-.47.258-.708-.408,1.215-.191.468-.03.157.231-.447.492-.879.779-1.294.244-.352.709-.659-.11.124.175-.167.32-.373.493-.544l.176-.168c.354-.303.24-.217-.34.257l.205-.125c.447-.226.278-.162-.505.193.303-.103.598-.237.899-.347.747-.271,1.506-.475,2.292-.594l-1.196.161c.813-.103,1.615-.103,2.429-.008l-1.196-.161c.473.069.935.166,1.397.289,2.272.605,4.993-.76,5.536-3.143.538-2.362-.709-4.887-3.143-5.536-2.449-.652-4.996-.692-7.448-.029-2.064.558-4.155,1.441-5.64,3.02-3.667,3.9-5.309,9.667-2.932,14.637,1.022,2.136,3.052,3.826,5.078,4.966,2.198,1.238,4.73,2.299,7.298,2.012,3.279-.366,5.882-2.016,7.848-4.628,1.245-1.655,2.097-3.721,2.41-5.77.812-5.299-.818-10.785-5.539-13.755-1.996-1.255-5.047-.486-6.157,1.614-1.171,2.216-.516,4.817,1.614,6.157h0Z" style="fill:#fff;"/><path d="m135.739,100.408c.956.601-.595-.588-.057-.086.204.19.41.373.598.579.328.359.328.694-.181-.266.128.242.313.462.448.703.211.373.436,1.238.003-.129.064.201.153.396.219.597.178.545.297,1.104.382,1.67l-.161-1.196c.12.938.121,1.87.006,2.808l.161-1.196c-.095.664-.242,1.314-.457,1.949-.039.117-.355.904-.04.164s-.03.037-.085.145c-.17.334-.359.657-.57.966-.088.129-.455.622-.019.043.47-.623-.047.013-.138.106-.116.119-.24.229-.36.344-.548.526.678-.428.218-.169-.145.082-.281.181-.427.263-.725.408.188.063.284-.078-.149.219-.955.281-1.199.324l1.196-.161c-.5.065-.981.07-1.483.01l1.196.161c-.441-.076-.848-.207-1.274-.34-.755-.235.712.335.219.095-.184-.089-.371-.171-.555-.261-.695-.341-1.33-.748-1.982-1.16-.421-.266.872.762.25.188-.117-.107-.238-.21-.352-.32-.142-.137-.268-.289-.408-.428-.368-.367.57.9.198.258-.099-.171-.211-.334-.304-.509-.236-.443-.006-.554.11.295-.053-.388-.217-.774-.278-1.168l.161,1.196c-.074-.649-.061-1.283.023-1.93l-.161,1.196c.079-.491.187-.973.34-1.447.078-.24.178-.47.258-.708-.408,1.215-.191.468-.03.157.231-.447.492-.879.779-1.294.244-.352.709-.659-.11.124.175-.167.32-.373.493-.544l.176-.168c.354-.303.24-.217-.34.257l.205-.125c.447-.226.278-.162-.505.193.303-.103.598-.237.899-.347.747-.271,1.506-.475,2.292-.594l-1.196.161c.813-.103,1.615-.103,2.429-.008l-1.196-.161c.473.069.935.166,1.397.289,2.272.605,4.993-.76,5.536-3.143.538-2.362-.709-4.887-3.143-5.536-2.449-.652-4.996-.692-7.448-.029-2.064.558-4.155,1.441-5.64,3.02-3.667,3.9-5.309,9.667-2.932,14.637,1.022,2.136,3.052,3.826,5.078,4.966,2.198,1.238,4.73,2.299,7.298,2.012,3.279-.366,5.882-2.016,7.848-4.628,1.245-1.655,2.097-3.721,2.41-5.77.812-5.299-.818-10.785-5.539-13.755-1.996-1.255-5.047-.486-6.157,1.614-1.171,2.216-.516,4.817,1.614,6.157h0Z" style="fill:#fff;"/></g></g></svg>