<?xml version="1.0" encoding="UTF-8"?><svg id="_레이어_1" xmlns="http://www.w3.org/2000/svg" viewBox="0 0 200 200"><path d="m99.396,182.382c10.878-.793,21.494-4.024,29.263-11.994,4.693-4.815,7.436-10.849,9.739-17.086,2.146-5.812,3.703-11.834,5.069-17.871,2.919-12.906,4.72-26.097,5.405-39.31.635-12.251,1.493-26.858-7.302-36.658-5.116-5.7-12.66-6.686-19.832-7.614-7.408-.959-14.876-1.309-22.341-1.317-2.354-.002-4.609,2.072-4.5,4.5s1.977,4.497,4.5,4.5c6.167.006,12.336.242,18.473.869.807.082,1.613.171,2.418.267.322.038.644.08.967.119,1.559.189-.416-.062.495.063,1.602.22,3.203.465,4.794.755,1.248.228,2.484.517,3.688.918.336.112.667.233.998.36-.696-.267-.03-.011.096.054.703.366,1.39.726,2.047,1.173.21.143.918.759.209.14.189.165.38.326.564.496.466.431.877.906,1.312,1.367.117.125.525.666.016-.011.155.206.306.417.452.629.408.593.783,1.208,1.129,1.839.288.525.547,1.063.802,1.604.54,1.148-.148-.504.093.224.106.319.24.631.351.949.441,1.265.788,2.56,1.062,3.871.144.69.264,1.385.374,2.081.232,1.472-.011-.436.055.438.03.392.085.783.12,1.174.142,1.573.212,3.153.242,4.732.056,3.032-.019,6.069-.131,9.099-.225,6.108-.697,12.208-1.415,18.278-.085.718-.173,1.435-.265,2.152-.051.398-.102.797-.156,1.194.028-.207.098-.704-.035.235-.225,1.589-.461,3.176-.717,4.76-.486,3.005-1.032,6-1.639,8.983-1.188,5.835-2.562,11.652-4.318,17.344-.855,2.771-1.811,5.513-2.921,8.192.252-.609-.041.094-.079.181-.184.415-.366.831-.556,1.244-.251.547-.508,1.092-.774,1.632-.653,1.325-1.356,2.629-2.163,3.867-.199.304-.424.594-.618.901-.185.251-.169.237.049-.045-.134.169-.272.336-.414.499-.546.641-1.121,1.259-1.707,1.861-.542.557-1.1,1.099-1.674,1.624-.284.26-.572.514-.865.764-.173.149-.348.296-.525.44-.386.31-.47.377-.25.203.38-.287-.378.266-.445.313-.199.139-.4.275-.603.409-.359.236-.725.462-1.094.681-.906.535-1.842,1.021-2.796,1.465-.188.087-.378.169-.566.257-.896.418.76-.289-.109.048-.579.224-1.156.451-1.742.657-1.212.427-2.444.798-3.689,1.119-1.443.372-2.904.676-4.375.919-.283.047-.567.089-.851.134-1.047.163.425-.028-.557.072-.919.094-1.836.188-2.758.255-2.342.171-4.614,1.947-4.5,4.5.103,2.291,1.986,4.683,4.5,4.5h0Z" style="fill:#fff;"/><path d="m99.396,173.382c-.771-.056-1.541-.121-2.309-.205-.298-.032-.596-.068-.894-.104.81.099-.127-.02-.326-.051-1.299-.199-2.591-.444-3.871-.741-2.246-.521-4.423-1.225-6.572-2.055-1.046-.404.884.416-.109-.048-.188-.088-.378-.17-.566-.257-.406-.189-.809-.386-1.208-.591-.808-.415-1.599-.863-2.366-1.35-.311-.198-.619-.402-.921-.613-.184-.129-.366-.26-.547-.394.573.425-.193-.159-.323-.268-1.191-.988-2.31-2.061-3.371-3.187-.467-.496-.923-1.002-1.365-1.521-.572-.672-.212-.269-.097-.113-.259-.352-.506-.713-.745-1.078-.768-1.175-1.439-2.411-2.064-3.667-.301-.606-.592-1.217-.874-1.832-.158-.344-.312-.689-.464-1.036-.067-.154-.443-1.045-.171-.389-.555-1.335-1.068-2.688-1.552-4.051-1.998-5.63-3.481-11.438-4.785-17.263-1.33-5.944-2.39-11.938-3.258-17.966-.012-.081-.122-.877-.035-.235-.054-.398-.105-.796-.156-1.194-.092-.717-.18-1.435-.265-2.152-.189-1.596-.36-3.194-.515-4.794-.294-3.042-.527-6.091-.698-9.142-.338-6.023-.635-12.154-.091-18.172.028-.314.065-.626.093-.94.136-1.496-.083.433.048-.439.105-.697.221-1.393.36-2.084.281-1.389.643-2.762,1.109-4.101.089-.255.189-.506.278-.761.427-1.234-.394.761.166-.412.229-.48.455-.961.706-1.431.31-.578.645-1.143,1.006-1.69.143-.216.292-.428.441-.64.706-1.01-.576.605.245-.3.469-.517.932-1.025,1.452-1.493.173-.156.833-.691.101-.131.344-.263.707-.505,1.075-.733.606-.375,1.24-.707,1.89-.998-.728.326.118-.031.306-.097.4-.142.803-.272,1.21-.39,1.486-.433,3.008-.699,4.534-.948.884-.144,1.769-.279,2.656-.405.154-.022,1.172-.158.495-.069.483-.063.966-.123,1.45-.18,6.932-.826,13.913-1.129,20.891-1.137,2.354-.002,4.609-2.068,4.5-4.5s-1.977-4.503-4.5-4.5c-6.654.007-13.309.282-19.924,1.025-6.252.702-13.45,1.173-18.773,4.906-11.062,7.758-11.347,22.662-10.977,34.834.403,13.237,1.954,26.467,4.596,39.444,1.264,6.209,2.733,12.403,4.662,18.442,1.024,3.205,2.22,6.342,3.563,9.426,1.181,2.714,2.486,5.424,4.238,7.821,3.528,4.828,8.246,8.911,13.706,11.394,5.997,2.727,12.351,4.082,18.908,4.56,2.353.172,4.603-2.192,4.5-4.5-.116-2.585-1.979-4.316-4.5-4.5h0Z" style="fill:#fff;"/><path d="m81.854,52.76c-2.923-5.479-6.235-10.721-10.152-15.549-3.77-4.646-8.409-9.072-13.925-11.552-12.463-5.603-27.489-4.815-38.317,3.92-5.189,4.186-8.796,9.956-11.333,16.048-2.655,6.377-4.108,13.356-4.271,20.261-.316,13.407,5.432,27.354,17.471,34.201,6.053,3.442,12.743,4.157,19.527,2.972,6.067-1.06,12.596-3.99,16.452-8.955,1.441-1.855,1.943-4.58,0-6.364-1.612-1.479-4.822-1.985-6.364,0-.693.892-1.466,1.705-2.326,2.439-.141.12-.331.324-.487.402.983-.49.131-.112-.116.059-.536.373-1.091.72-1.658,1.043-.482.275-.975.532-1.475.774-.304.147-.612.284-.92.421.132-.059.902-.348.132-.065-1.186.437-2.375.837-3.604,1.14-.615.152-1.234.283-1.858.396-.266.048-.581.15-.85.141,1.154.035.117-.016-.165.013-1.229.128-2.468.178-3.704.139-.546-.017-1.092-.051-1.636-.105l-.322-.034c-.508-.061-.426-.051.244.033-.082.035-.583-.1-.623-.107-1.184-.223-2.298-.59-3.434-.983-1.156-.4.804.413-.294-.12-.278-.135-.559-.262-.835-.401-.607-.305-1.2-.633-1.78-.986-.527-.32-1.043-.66-1.546-1.017-.202-.143-.4-.29-.599-.437.861.64-.388-.335-.534-.461-.94-.812-1.826-1.684-2.655-2.609-.416-.464-.816-.942-1.204-1.43.652.818-.112-.167-.197-.286-.218-.305-.431-.614-.638-.926-.76-1.146-1.445-2.342-2.051-3.577-.11-.224-.218-.45-.322-.677-.067-.144-.536-1.297-.143-.298-.293-.743-.573-1.489-.819-2.249-1.042-3.219-1.451-5.722-1.609-8.487-.094-1.649-.092-3.304-.006-4.953.039-.752.096-1.503.17-2.252.03-.3.065-.599.096-.899.068-.549.073-.598.013-.149.043-.298.088-.597.135-.894.469-2.926,1.167-5.819,2.098-8.632,1.521-4.598,4.206-9.652,7.55-13.149.446-.466.907-.918,1.382-1.354.285-.262.576-.518.872-.769.093-.079,1.103-.876.302-.267,1.146-.871,2.367-1.647,3.639-2.32.578-.306,1.167-.586,1.763-.855-.817.369-.021.012.192-.07.304-.117.611-.23.919-.337,1.359-.472,2.752-.843,4.164-1.118.386-.075.774-.139,1.163-.203.873-.145.149-.019-.025,0,.72-.078,1.44-.146,2.164-.184,1.517-.079,3.04-.057,4.554.065.264.021.528.045.791.073.146.015,1.45.206.381.038.655.103,1.308.213,1.957.347,1.427.295,2.835.677,4.215,1.144.376.127.749.261,1.12.401.09.034,1.298.531.393.139.645.279,1.276.586,1.895.919,1.27.684,2.465,1.483,3.625,2.339-.858-.633.126.108.248.207.288.236.572.477.852.721.568.495,1.121,1.007,1.661,1.533,1.102,1.072,2.148,2.201,3.147,3.37.507.592.995,1.199,1.484,1.805.813,1.007-.518-.715.252.327.232.315.468.626.699.942.955,1.31,1.866,2.651,2.742,4.014,1.635,2.544,3.141,5.167,4.564,7.835,1.11,2.08,4.169,2.896,6.157,1.614,2.114-1.363,2.801-3.932,1.614-6.157h0Z" style="fill:#fff;"/><path d="m125.918,57.302c1.272-2.385,2.61-4.734,4.048-7.023.686-1.093,1.395-2.172,2.128-3.233.37-.536.746-1.066,1.13-1.592.23-.316.466-.628.699-.942.624-.845-.35.419.252-.327,1.773-2.197,3.636-4.312,5.732-6.209.461-.417.932-.825,1.412-1.22.121-.1,1.106-.841.248-.207.196-.145.391-.29.589-.432,1.067-.766,2.183-1.465,3.348-2.072.312-.162.627-.318.945-.467-.005.002,1.045-.446.465-.212-.613.248.595-.225.566-.214.371-.14.744-.274,1.12-.401,1.379-.468,2.788-.85,4.215-1.144.649-.134,1.302-.245,1.957-.347-.939.147-.056.01.184-.016.329-.036.659-.068.989-.094,1.449-.116,2.905-.143,4.357-.076.725.034,1.442.12,2.165.172.769.055-1.07-.193.171.022.388.067.776.128,1.163.203,1.412.274,2.806.645,4.164,1.118.246.086.492.175.736.267.123.046,1.307.562.374.14.596.269,1.185.549,1.763.855,1.272.674,2.492,1.449,3.639,2.32-.801-.608.209.189.302.267.247.209.489.422.728.639.526.476,1.035.971,1.526,1.484.446.466.878.946,1.295,1.439.167.197.328.399.494.598.318.402.322.404.012.008.156.207.309.416.46.626,1.603,2.236,2.905,4.643,4.045,7.142.541,1.185-.311-.839.16.376.119.306.242.611.359.918.257.675.498,1.356.726,2.042.459,1.385.859,2.789,1.204,4.206.356,1.463.656,2.939.894,4.426.007.042.211,1.513.094.595.038.299.072.599.104.898.097.898.168,1.8.216,2.702.087,1.649.088,3.304-.006,4.953-.043.748-.111,1.493-.187,2.237-.094.919-.038.339-.01.138-.084.592-.185,1.181-.298,1.768-.284,1.468-.652,2.92-1.114,4.343-.208.642-.443,1.271-.68,1.902-.438,1.165.398-.826-.127.305-.158.34-.313.681-.478,1.018-.578,1.179-1.23,2.321-1.949,3.42-.377.576-.779,1.131-1.184,1.687.514-.706.132-.167.012-.026-.322.381-.637.766-.97,1.138-.829.924-1.715,1.798-2.655,2.609-.281.243-.568.478-.858.711.13-.105.71-.513.026-.029-.605.428-1.214.848-1.847,1.233s-1.282.741-1.946,1.069c-.333.164-.67.316-1.008.469.965-.436-.169.05-.304.099-.614.225-1.237.423-1.871.584-.382.097-1.47.533-1.838.375l.564-.071c-.213.027-.427.051-.641.072-.325.032-.65.057-.976.076-.664.038-1.329.05-1.994.037-.677-.013-1.354-.052-2.029-.114-.337-.031-.687-.051-1.021-.112,1.164.213.103.002-.165-.045-1.36-.238-2.704-.568-4.017-.992-.652-.211-1.292-.452-1.93-.701,1.083.421.025.003-.167-.087-.354-.165-.705-.339-1.051-.52-.584-.306-1.156-.636-1.711-.991-.228-.146-.453-.295-.675-.449-.176-.122-.35-.247-.522-.375.445.35.54.422.283.216-.929-.916-1.881-1.7-2.69-2.741-1.451-1.868-4.86-1.638-6.364,0-1.819,1.981-1.548,4.371,0,6.364,3.451,4.443,9.061,7.204,14.425,8.528,5.535,1.366,11.741,1.558,17.132-.507,6.233-2.387,11.295-6.605,15.132-12.035,3.994-5.652,5.997-12.42,6.605-19.26.629-7.06-.435-14.414-2.607-21.143-2.04-6.319-5.166-12.336-9.721-17.213-9.27-9.925-23.977-12.647-36.7-8.652-13.695,4.301-22.357,16.83-28.814,28.934-1.107,2.076-.591,4.992,1.614,6.157,2.087,1.103,4.974.603,6.157-1.614h0Z" style="fill:#fff;"/><path d="m80.464,101.212c.165.104.683.492.045-.01-.615-.483-.192-.157-.066-.038.241.228.454.48.691.711.328.32-.559-.843-.343-.438.077.144.186.276.271.417.172.286.32.585.457.889l-.454-1.075c.319.757.53,1.536.651,2.348l-.161-1.196c.114.894.115,1.784.005,2.678l.161-1.196c-.126.874-.358,1.711-.688,2.53l.454-1.075c-.158.365-.327.724-.527,1.069-.12.207-.251.402-.383.601-.415.625.569-.633.191-.259-.141.139-.266.291-.41.428-.13.124-.702.587-.091.108s.02-.042-.137.051c-.206.121-.421.226-.638.326l1.075-.454c-.445.184-.89.316-1.364.4l1.196-.161c-.477.062-.936.067-1.414.01l1.196.161c-.589-.102-1.134-.284-1.685-.512l1.075.454c-1.017-.445-1.891-1.064-2.86-1.575,1.056.557.517.414.204.128-.151-.137-.579-.446-.628-.648l.425.557c-.089-.121-.172-.246-.251-.374-.162-.264-.294-.539-.415-.823l.454,1.075c-.163-.436-.276-.871-.346-1.331l.161,1.196c-.071-.619-.058-1.224.022-1.841l-.161,1.196c.127-.79.354-1.54.664-2.277l-.454,1.075c.348-.777.781-1.476,1.261-2.176.277-.403-.783.858-.194.271.138-.137.262-.287.403-.421.603-.572-.251.079-.282.198.031-.12.522-.279.611-.318l-1.075.454c1.037-.407,2.065-.78,3.172-.948l-1.196.161c.776-.098,1.54-.098,2.317-.007l-1.196-.161c.452.066.892.159,1.332.276,2.272.605,4.993-.76,5.536-3.143.538-2.362-.709-4.887-3.143-5.536-2.372-.632-4.84-.67-7.215-.027-2.003.542-4.03,1.402-5.471,2.934-1.644,1.748-2.947,4.006-3.559,6.329-.711,2.7-.473,5.369.73,7.883.989,2.067,2.958,3.708,4.918,4.812,2.126,1.198,4.581,2.224,7.066,1.948,3.207-.357,5.743-1.961,7.665-4.517,1.197-1.592,2.018-3.582,2.32-5.553.364-2.377.378-4.863-.49-7.148-.985-2.594-2.515-4.713-4.889-6.206-1.996-1.255-5.047-.486-6.157,1.614-1.171,2.216-.516,4.817,1.614,6.157h0Z" style="fill:#fff;"/><path d="m121.115,101.212c.165.104.683.492.045-.01-.615-.483-.192-.157-.066-.038.241.228.454.48.691.711.328.32-.559-.843-.343-.438.077.144.186.276.271.417.172.286.32.585.457.889l-.454-1.075c.319.757.53,1.536.651,2.348l-.161-1.196c.114.894.115,1.784.005,2.678l.161-1.196c-.126.874-.358,1.711-.688,2.53l.454-1.075c-.158.365-.327.724-.527,1.069-.12.207-.251.402-.383.601-.415.625.569-.633.191-.259-.141.139-.266.291-.41.428-.13.124-.702.587-.091.108s.02-.042-.137.051c-.206.121-.421.226-.638.326l1.075-.454c-.445.184-.89.316-1.364.4l1.196-.161c-.477.062-.936.067-1.414.01l1.196.161c-.589-.102-1.134-.284-1.685-.512l1.075.454c-1.017-.445-1.891-1.064-2.86-1.575,1.056.557.517.414.204.128-.151-.137-.579-.446-.628-.648l.425.557c-.089-.121-.172-.246-.251-.374-.162-.264-.294-.539-.415-.823l.454,1.075c-.163-.436-.276-.871-.346-1.331l.161,1.196c-.071-.619-.058-1.224.022-1.841l-.161,1.196c.127-.79.354-1.54.664-2.277l-.454,1.075c.348-.777.781-1.476,1.261-2.176.277-.403-.783.858-.194.271.138-.137.262-.287.403-.421.603-.572-.251.079-.282.198.031-.12.522-.279.611-.318l-1.075.454c1.037-.407,2.065-.78,3.172-.948l-1.196.161c.776-.098,1.54-.098,2.317-.007l-1.196-.161c.452.066.892.159,1.332.276,2.272.605,4.993-.76,5.536-3.143.538-2.362-.709-4.887-3.143-5.536-2.372-.632-4.84-.67-7.215-.027-2.003.542-4.03,1.402-5.471,2.934-1.644,1.748-2.947,4.006-3.559,6.329-.711,2.7-.473,5.369.73,7.883.989,2.067,2.958,3.708,4.918,4.812,2.126,1.198,4.581,2.224,7.066,1.948,3.207-.357,5.743-1.961,7.665-4.517,1.197-1.592,2.018-3.582,2.32-5.553.364-2.377.378-4.863-.49-7.148-.985-2.594-2.515-4.713-4.889-6.206-1.996-1.255-5.047-.486-6.157,1.614-1.171,2.216-.516,4.817,1.614,6.157h0Z" style="fill:#fff;"/><path d="m105.327,151.162c.805.295.087.021-.062-.049.208.099.417.195.622.302.124.065,1.012.702,1.114.674-.072.02-.793-.71-.188-.143.143.134.29.259.429.397.134.133.255.278.387.414.541.558-.328-.603-.13-.152.068.155.305.68.448.795-.444-.357-.298-.872-.172-.371.037.149.084.33.136.478.227.649-.052-.352-.034-.471-.02.133.029.343.033.487.004.163-.011.325-.008.487.015.788.21-.736.048-.347-.072.171-.479,1.225-.102.535.398-.729-.267.457-.353.596-.081.131-.456.709-.104.195s-.062.056-.174.176c-.116.125-.234.248-.356.366-.168.163-.996.713-.192.211-.442.276-.864.567-1.328.807-.208.108-.421.208-.636.303.171-.076.842-.292.048-.055-.43.129-.853.267-1.291.371-.255.061-.52.093-.772.163-.498.14.67-.026-.195.03-.542.036-1.082.068-1.626.054-.273-.007-.542-.03-.815-.044-.182-.01-.85-.166-.075-.004-1.145-.24-2.276-.497-3.4-.823-.947-.275-1.873-.595-2.795-.945.902.343-.338-.178-.594-.315-.203-.109-.405-.223-.601-.344-.126-.077-.879-.646-.352-.21.591.489-.654-.894-.299-.294.398.673-.421-.556.084.158l.102.254c-.097-.39-.115-.383-.054.02l.031.307c-.014-.147-.017-.294-.009-.44.075-.491-.098.453-.072.459.072.016.074-.563.166-.59-.242.533-.288.647-.136.342.073-.149.153-.294.24-.435.118-.197.251-.382.38-.572-.109.16-.593.645-.022.077.313-.311.612-.631.943-.924.106-.094.745-.608.276-.248-.45.346.141-.09.253-.165.195-.131.393-.256.597-.374.37-.214.659-.339.089-.113.798-.315,1.657-.475,2.493-.658.434-.095.869-.185,1.306-.265.249-.046.925-.291,1.166-.192-.328-.135-.857.097-.25.042.336-.031.671-.066,1.008-.089.543-.038,1.087-.056,1.631-.059.591-.002,1.182.015,1.772.054.279.018.556.047.835.068.976.074-.547-.103.559.068,2.316.359,4.953-.587,5.536-3.143.49-2.15-.655-5.15-3.143-5.536-2.961-.458-5.858-.659-8.836-.286-2.264.284-4.693.601-6.821,1.465-5.769,2.343-11.846,9.521-7.558,15.776,1.88,2.742,4.924,4.185,7.975,5.246,2.911,1.013,6.105,1.835,9.205,1.728,6.244-.217,12.811-3.449,14.79-9.757.855-2.724.415-5.8-.994-8.256-1.704-2.969-4.628-4.767-7.759-5.916-2.214-.812-5.027.908-5.536,3.143-.579,2.543.773,4.666,3.143,5.536h0Z" style="fill:#fff;"/></svg>