<?xml version="1.0" encoding="UTF-8"?><svg id="_레이어_1" xmlns="http://www.w3.org/2000/svg" viewBox="0 0 200 200"><path d="m33.508,78.143c-3.592-2.801-6.85-6.005-9.701-9.558.019.024-.767-.983-.37-.465.332.433-.163-.221-.238-.321-.35-.469-.693-.943-1.029-1.422-.672-.958-1.316-1.937-1.931-2.932-1.198-1.936-2.285-3.94-3.259-5.998-.223-.47-.439-.944-.65-1.419-.091-.207-.433-1.014-.085-.18-.1-.24-.198-.481-.295-.723-.436-1.086-.84-2.185-1.213-3.295-.725-2.157-1.327-4.355-1.801-6.58-.23-1.08-.431-2.167-.6-3.259-.04-.257-.076-.514-.114-.771.138.919.03.228.009.037-.073-.646-.145-1.292-.201-1.939-.207-2.399-.27-4.815-.156-7.22.032-.678.079-1.354.143-2.03.028-.3.061-.599.096-.899-.023.2-.126.772.023-.145.216-1.332.493-2.652.874-3.948.169-.574.355-1.142.562-1.703-.038.104.516-1.246.276-.712-.19.423.17-.342.223-.451.494-1.012,1.066-1.985,1.713-2.906.135-.192.663-.85.086-.141.158-.194.317-.387.481-.577.327-.378.668-.743,1.024-1.094s.733-.672,1.103-1.007c.868-.787-.481.286.116-.096.26-.166.506-.356.766-.523.468-.299.951-.575,1.448-.824.124-.062.837-.4.304-.16s.192-.067.325-.115c.534-.19,1.079-.349,1.631-.476.249-.057.501-.095.749-.15-.776.17-.103.009.312-.02.504-.034,1.009-.043,1.514-.028.353.01,1.669.147.692.006,1.136.164,2.255.446,3.339.82-.017-.006,1.171.425.544.187-.526-.2.23.104.35.16.529.247,1.047.515,1.554.805.452.258.895.532,1.328.821.217.144.428.296.642.445,1.036.721-.634-.569.325.25.789.674,1.548,1.372,2.251,2.137.422.46.818.939,1.215,1.42.449.544-.335-.514.051.076.226.345.482.673.712,1.017.654.975,1.252,1.986,1.804,3.022.26.489.509.985.749,1.485.12.25.238.502.353.755.024.053.562,1.295.212.457,2.238,5.36,3.657,11.108,4.84,16.781,1.361,6.529,2.041,11.724,2.443,18.412.141,2.345,1.969,4.613,4.5,4.5,2.317-.104,4.651-1.983,4.5-4.5-.72-11.976-2.665-24.342-6.843-35.635-1.99-5.379-4.645-10.585-8.705-14.713-3.761-3.824-8.81-6.67-14.15-7.429-6.015-.855-11.598.851-16.237,4.75-4.271,3.59-7.007,8.925-8.234,14.301-2.384,10.45-.801,22.067,2.967,32.006,4.149,10.944,11.035,20.858,20.299,28.081,1.852,1.444,4.582,1.941,6.364,0,1.482-1.614,1.983-4.818,0-6.364h0Z" style="fill:#fff;"/><path d="m26.357,78.938c-7.63,11.921-14.731,24.4-18.864,38.014s-5.26,28.72-.727,42.352c2.118,6.371,5.435,12.462,10.279,17.176,4.315,4.199,9.526,7.104,15.063,9.357,5.123,2.085,10.505,3.455,15.893,4.654,5.268,1.173,10.57,2.471,15.924,3.177,5.761.76,11.6.945,17.404,1.084,6.397.154,12.796.16,19.194.16,2.354,0,4.609-2.07,4.5-4.5s-1.977-4.5-4.5-4.5c-10.819,0-21.702.118-32.491-.803-1.004-.086-2.006-.184-3.007-.302-.276-.033-.554-.08-.831-.104,1.384.119.455.06.145.013-.483-.073-.966-.153-1.446-.244-2.47-.467-4.924-1.047-7.384-1.563-5.336-1.12-10.682-2.261-15.884-3.912-1.272-.404-2.534-.838-3.782-1.312-.561-.213-1.119-.437-1.674-.664.919.377.151.061-.078-.04-.381-.168-.76-.34-1.136-.517-2.337-1.1-4.593-2.383-6.688-3.897-.147-.106-1.082-.829-.209-.139-.229-.181-.457-.364-.682-.55-.497-.411-.982-.836-1.454-1.275-.955-.891-1.856-1.838-2.695-2.839-.104-.125-.852-1.078-.201-.223-.204-.267-.402-.539-.598-.813-.456-.639-.892-1.293-1.306-1.96-.828-1.335-1.57-2.722-2.234-4.145-.181-.388-.359-.779-.525-1.174.358.847-.173-.462-.193-.515-.257-.668-.498-1.342-.724-2.022-.497-1.494-.92-3.013-1.275-4.547-.207-.895-.392-1.795-.554-2.7-.054-.301-.105-.602-.154-.904-.005-.028-.227-1.518-.104-.618-.238-1.738-.372-3.495-.444-5.248-.138-3.366-.003-6.74.365-10.088.042-.382.087-.763.134-1.144-.112.893.089-.607.092-.63.115-.76.241-1.519.378-2.275.33-1.817.724-3.622,1.176-5.413.898-3.557,2.029-7.052,3.341-10.478.352-.918.717-1.831,1.093-2.74.328-.794-.417.948.164-.388.241-.555.483-1.11.731-1.662.744-1.657,1.524-3.297,2.336-4.922,3.39-6.788,7.318-13.289,11.405-19.675,1.271-1.986.475-5.053-1.614-6.157-2.23-1.178-4.8-.506-6.157,1.614h0Z" style="fill:#fff;"/><path d="m102.792,144.211c-2.83-1.216-5.789-2.075-8.627-3.27l1.075.454c-1.302-.557-2.585-1.18-3.724-2.03l.911.704c-.472-.365-.905-.764-1.272-1.236l.704.911c-.351-.479-.605-1.015-.839-1.559l.454,1.075c-.404-.998-.684-2.032-.93-3.079-.538-2.294-3.284-3.871-5.536-3.143-2.393.774-3.719,3.078-3.143,5.536.59,2.513,1.451,4.994,3.194,6.948,1.17,1.312,2.787,2.303,4.359,3.066,3.164,1.537,6.552,2.437,9.783,3.796l-1.075-.454.123.053c1.157.497,2.198.803,3.468.454,1.044-.287,2.175-1.095,2.689-2.068.552-1.044.828-2.31.454-3.468-.335-1.035-1.021-2.239-2.068-2.689h0Z" style="fill:#fff;"/><path d="m96.182,147.014l-2.122,6.264c-.193.568-.378,1.14-.579,1.705-.085.241-.599,1.17-.121.349-.113.228-.24.449-.382.66.273-.344.298-.4.077-.168-.233.214-.183.189.15-.077-.219.151-.445.292-.677.422-.349.199-.715.36-1.074.539-.467.207-.445.199.067-.022-.226.091-.453.178-.682.261-.8.292-1.615.542-2.441.749-.769.193-1.546.326-2.326.466-.338.051-.241.038.291-.038-.242.028-.484.053-.727.075-.425.038-.851.064-1.277.081-.793.032-1.586.029-2.379-.009-.489-.024-.974-.071-1.461-.11-1.218-.097.947.177-.257-.027-1.688-.286-3.345-.684-4.959-1.26-.344-.123-.684-.256-1.024-.39,1.049.413-.403-.197-.59-.288-.763-.372-1.509-.782-2.23-1.229-.309-.191-.614-.389-.914-.594-.167-.114-1.404-1.067-.55-.374-.66-.535-1.291-1.097-1.898-1.691-1.684-1.649-4.708-1.804-6.364,0-1.635,1.781-1.797,4.604,0,6.364,6.094,5.966,14.847,9.145,23.357,8.569,4.269-.289,9.05-1.296,12.658-3.722,2.569-1.728,3.723-4.109,4.688-6.953.81-2.386,1.617-4.772,2.425-7.158.756-2.232-.868-5.017-3.143-5.536-2.493-.568-4.726.754-5.536,3.143h0Z" style="fill:#fff;"/><path d="m21.777,124.868c8.391,4.18,17.123,7.689,26.087,10.433,2.251.689,5.006-.82,5.536-3.143.555-2.435-.733-4.798-3.143-5.536-4.222-1.292-8.393-2.746-12.496-4.377-2.201-.874-3.195-1.293-5.459-2.311-2.013-.905-4.006-1.854-5.982-2.838-2.104-1.048-4.97-.632-6.157,1.614-1.076,2.037-.635,5.036,1.614,6.157h0Z" style="fill:#fff;"/><path d="m24.582,150.05c8.804,0,17.609,0,26.413,0,2.354,0,4.609-2.07,4.5-4.5s-1.977-4.5-4.5-4.5c-8.804,0-17.609,0-26.413,0-2.354,0-4.609,2.07-4.5,4.5s1.977,4.5,4.5,4.5h0Z" style="fill:#fff;"/><path d="m88.493,141.15c1.093-.817,2.317-1.429,3.569-1.962l-1.075.454c3.412-1.421,7.077-2.318,10.73-2.847,1.036-.15,2.187-1.209,2.689-2.068.564-.965.804-2.386.454-3.468-.352-1.089-1.027-2.139-2.068-2.689-1.143-.604-2.2-.637-3.468-.454-2.556.37-5.091.94-7.558,1.705-2.692.834-5.539,1.855-7.816,3.558-.974.728-1.732,1.471-2.068,2.689-.297,1.077-.163,2.512.454,3.468.619.961,1.542,1.807,2.689,2.068,1.103.251,2.519.256,3.468-.454h0Z" style="fill:#fff;"/><path d="m56.253,68.095c1.583-1.201,3.253-2.269,5.013-3.192.878-.46,1.775-.89,2.688-1.277-.805.341.757-.283.903-.337.4-.148.803-.291,1.207-.427,1.891-.64,3.825-1.154,5.779-1.561.977-.203,1.96-.38,2.946-.532.281-.043.563-.084.845-.124-.54.072-.639.086-.296.043.435-.045.868-.102,1.303-.147,7.917-.818,15.935-.619,23.881-.463,2.355.046,4.607-2.103,4.5-4.5-.111-2.478-1.977-4.45-4.5-4.5-16.371-.321-35.036-1.208-48.81,9.244-1.869,1.418-3.04,3.945-1.614,6.157,1.191,1.847,4.151,3.136,6.157,1.614h0Z" style="fill:#fff;"/><path d="m49.026,156.205c-1.898,1.854-3.897,3.597-5.992,5.225l.911-.704c-2.561,1.975-5.251,3.769-8.06,5.372-2.046,1.167-2.922,4.129-1.614,6.157,1.332,2.066,3.968,2.863,6.157,1.614,5.433-3.1,10.489-6.929,14.963-11.3,1.687-1.648,1.777-4.733,0-6.364-1.814-1.665-4.564-1.758-6.364,0h0Z" style="fill:#fff;"/><path d="m172.856,84.507c7.964-6.209,14.393-14.543,18.507-23.759,4.305-9.645,6.708-20.544,5.577-31.131-.659-6.164-2.494-11.959-6.444-16.82-3.56-4.38-8.635-7.119-14.244-7.645-11.514-1.08-21.122,8.049-25.572,17.804-2.747,6.023-4.488,12.455-5.86,18.915-1.487,7.002-2.435,14.133-2.864,21.277-.142,2.354,2.171,4.604,4.5,4.5,2.559-.115,4.348-1.978,4.5-4.5.174-2.892.431-5.779.787-8.655.04-.319.08-.639.122-.958-.028.208-.1.7.035-.239.092-.637.186-1.274.285-1.91.224-1.431.472-2.859.742-4.282,1.014-5.338,2.29-10.673,4.057-15.816.386-1.123.799-2.237,1.255-3.333-.334.802.314-.679.387-.835.294-.628.602-1.249.927-1.861.518-.976,1.079-1.929,1.688-2.85.19-.288.385-.572.585-.853.065-.091.571-.789.264-.376-.371.497.464-.567.422-.518.222-.266.45-.527.682-.784.744-.823,1.55-1.569,2.391-2.291.13-.112.678-.499.01-.02.212-.152.42-.308.634-.456.535-.37,1.086-.718,1.651-1.04.451-.257.91-.499,1.379-.723.233-.111.468-.221.706-.322-.84.356-.033.035.183-.042,1.089-.388,2.197-.647,3.333-.856.719-.132-1.073.026.123.005.252-.004.505-.033.757-.04.504-.015,1.01-.006,1.514.028.252.017.505.04.755.071-.951-.116-.264-.029-.068.019.616.149,1.229.287,1.83.493.235.08.465.17.697.258-.845-.32-.235-.101-.059-.004.488.27.982.513,1.456.809.187.117,1.543,1.127.752.48.434.354.854.723,1.256,1.113s.789.8,1.158,1.224c.164.189.32.385.481.577-.554-.659-.129-.168-.022-.012.638.932,1.236,1.879,1.74,2.892.122.246.239.495.354.744-.302-.658.085.212.148.377.212.56.403,1.126.577,1.698.414,1.367.701,2.756.939,4.163.021.126.102.88.023.145.032.3.067.598.096.899.057.6.101,1.202.132,1.804.069,1.312.081,2.627.049,3.941-.028,1.17-.093,2.339-.194,3.505-.045.518-.097,1.035-.156,1.552-.029.258-.063.516-.094.774.129-1.077-.037.218-.057.348-.696,4.497-1.921,8.91-3.615,13.134-.097.241-.196.482-.295.723.385-.93-.122.264-.164.359-.265.594-.54,1.184-.824,1.769-.539,1.112-1.113,2.208-1.718,3.285-1.243,2.211-2.622,4.345-4.132,6.383-.155.209-.311.417-.468.624.57-.754-.13.161-.257.319-.407.507-.822,1.007-1.245,1.5-.846.986-1.725,1.945-2.634,2.873-1.821,1.859-3.77,3.585-5.821,5.184-1.866,1.454-1.64,4.858,0,6.364,1.979,1.816,4.374,1.552,6.364,0h0Z" style="fill:#fff;"/><path d="m165.872,83.481c3.639,5.685,7.15,11.46,10.269,17.449,3.25,6.24,5.487,11.287,7.553,17.975.999,3.234,1.82,6.524,2.423,9.854.137.757.264,1.515.378,2.275.004.023.203,1.523.092.63.038.305.075.61.109.915.207,1.828.345,3.663.406,5.502.113,3.353-.004,6.737-.46,10.063.123-.9-.1.59-.104.618-.049.302-.101.603-.154.904-.148.829-.316,1.654-.503,2.476-.366,1.61-.805,3.204-1.326,4.771-.226.679-.467,1.353-.724,2.022-.02.053-.551,1.362-.193.515-.167.395-.344.786-.525,1.174-.663,1.424-1.406,2.81-2.234,4.145-.376.607-.77,1.203-1.181,1.786-.235.333-.475.663-.722.987.651-.855-.097.098-.201.223-.838,1.001-1.739,1.95-2.695,2.839-.472.44-.957.864-1.454,1.275-.225.186-.453.369-.682.55.873-.69-.062.033-.209.139-1.043.753-2.126,1.45-3.239,2.096-1.122.651-2.275,1.249-3.449,1.801-.539.253-1.082.495-1.628.732,1.028-.447-.087.03-.252.096-.335.134-.671.265-1.008.393-5.127,1.95-10.479,3.243-15.829,4.408-2.668.581-5.343,1.126-8.014,1.696-1.069.228-2.133.481-3.207.684-.397.075-.795.142-1.194.205-.255.04-.517.063-.769.114,1.453-.295.167-.024-.168.015-11.732,1.391-23.704,1.105-35.498,1.105-2.354,0-4.609,2.07-4.5,4.5s1.977,4.5,4.5,4.5c11.127,0,22.34.156,33.429-.887,5.111-.481,10.059-1.61,15.073-2.668,5.445-1.149,10.9-2.352,16.178-4.137,5.708-1.93,11.111-4.497,15.872-8.214,4.899-3.825,8.705-8.946,11.209-14.624,5.905-13.392,5.99-28.464,2.602-42.535-3.73-15.489-11.678-29.6-20.198-42.911-1.268-1.981-4.057-2.968-6.157-1.614-1.981,1.277-2.972,4.036-1.614,6.157h0Z" style="fill:#fff;"/><path d="m101.75,151.983l.123-.053-1.075.454c3.23-1.359,6.619-2.259,9.783-3.796,1.572-.764,3.19-1.754,4.359-3.066,1.744-1.956,2.604-4.433,3.194-6.948.537-2.287-.711-4.982-3.143-5.536-2.302-.524-4.96.692-5.536,3.143-.246,1.047-.526,2.08-.93,3.079l.454-1.075c-.234.544-.488,1.08-.839,1.559l.704-.911c-.367.472-.8.871-1.272,1.236l.911-.704c-1.139.85-2.422,1.473-3.724,2.03l1.075-.454c-2.837,1.194-5.797,2.053-8.627,3.27-.963.414-1.804,1.73-2.068,2.689-.297,1.077-.163,2.512.454,3.468.619.961,1.542,1.807,2.689,2.068,1.26.287,2.292.051,3.468-.454h0Z" style="fill:#fff;"/><path d="m95.14,149.407c.808,2.386,1.615,4.773,2.425,7.158.965,2.845,2.119,5.226,4.688,6.953,3.607,2.426,8.388,3.433,12.658,3.722,8.511.576,17.263-2.602,23.357-8.569,1.685-1.65,1.778-4.732,0-6.364-1.812-1.663-4.566-1.76-6.364,0-.608.595-1.242,1.152-1.898,1.691.849-.697-.382.259-.55.374-.3.205-.605.402-.914.594-.722.447-1.467.856-2.23,1.229-.113.055-1.351.605-.792.373s-.705.262-.823.304c-1.617.578-3.271.964-4.959,1.26-.968.17.812-.047-.257.027-.426.03-.851.076-1.278.1-.853.047-1.708.054-2.562.02-.426-.017-.852-.044-1.277-.081-.445-.039-1.045-.128-.255-.009-.843-.128-1.679-.287-2.506-.494s-1.641-.456-2.441-.749c-.229-.084-.456-.171-.682-.261.456.197.534.229.234.096-.415-.204-.838-.384-1.241-.613-.232-.13-.458-.27-.677-.422l.291.215c-.354-.377-.375-.367-.064.03-.142-.212-.269-.432-.382-.66.478.821-.036-.108-.121-.349-.2-.566-.386-1.137-.579-1.705l-2.122-6.264c-.754-2.225-3.13-3.922-5.536-3.143-2.21.715-3.952,3.148-3.143,5.536h0Z" style="fill:#fff;"/><path d="m173.681,117.097c-1.976.984-3.969,1.934-5.982,2.838-2.256,1.014-3.241,1.429-5.459,2.311-4.104,1.63-8.274,3.084-12.496,4.377-2.248.688-3.906,3.177-3.143,5.536.733,2.266,3.125,3.881,5.536,3.143,8.964-2.744,17.697-6.253,26.087-10.433,2.112-1.052,2.871-4.208,1.614-6.157-1.393-2.16-3.898-2.74-6.157-1.614h0Z" style="fill:#fff;"/><path d="m175.418,141.05c-8.804,0-17.609,0-26.413,0-2.354,0-4.609,2.07-4.5,4.5s1.977,4.5,4.5,4.5c8.804,0,17.609,0,26.413,0,2.354,0,4.609-2.07,4.5-4.5s-1.977-4.5-4.5-4.5h0Z" style="fill:#fff;"/><path d="m116.05,133.378c-2.277-1.703-5.124-2.724-7.816-3.558-2.467-.765-5.002-1.335-7.558-1.705-1.248-.181-2.334-.21-3.468.454-.933.546-1.824,1.617-2.068,2.689-.262,1.152-.206,2.445.454,3.468.589.914,1.562,1.905,2.689,2.068,3.653.529,7.318,1.426,10.73,2.847l-1.075-.454c1.252.533,2.476,1.145,3.569,1.962.874.654,2.466.729,3.468.454,1.044-.287,2.175-1.095,2.689-2.068.552-1.044.828-2.31.454-3.468-.383-1.184-1.078-1.949-2.068-2.689h0Z" style="fill:#fff;"/><path d="m148.289,60.324c-13.774-10.452-32.439-9.566-48.81-9.244-2.352.046-4.61,2.037-4.5,4.5.107,2.399,1.978,4.55,4.5,4.5,7.945-.156,15.963-.355,23.881.463.374.039.747.085,1.12.125.525.066.487.059-.114-.021.282.039.563.08.845.124.986.152,1.969.328,2.946.532,1.954.408,3.888.92,5.779,1.561.404.137.807.279,1.207.427.146.054,1.709.676.903.337.914.385,1.81.817,2.688,1.277,1.761.922,3.431,1.991,5.013,3.192,1.883,1.429,5.115.358,6.157-1.614,1.254-2.373.396-4.632-1.614-6.157h0Z" style="fill:#fff;"/><path d="m144.61,162.569c4.474,4.37,9.53,8.2,14.963,11.3,2.045,1.167,5.014.549,6.157-1.614,1.13-2.138.57-4.911-1.614-6.157-2.809-1.603-5.5-3.397-8.06-5.372l.911.704c-2.095-1.628-4.094-3.371-5.992-5.225-1.686-1.647-4.707-1.805-6.364,0-1.633,1.779-1.799,4.606,0,6.364h0Z" style="fill:#fff;"/><path d="m71.936,107.184c.165.104.683.492.045-.01-.615-.483-.192-.157-.066-.038.241.228.454.48.691.711.328.32-.559-.843-.343-.438.077.144.186.276.271.417.172.286.32.585.457.889l-.454-1.075c.319.757.53,1.536.651,2.348l-.161-1.196c.114.894.115,1.784.005,2.678l.161-1.196c-.126.874-.358,1.711-.688,2.53l.454-1.075c-.158.365-.327.724-.527,1.069-.12.207-.251.402-.383.601-.415.625.569-.633.191-.259-.141.139-.266.291-.41.428-.13.124-.702.587-.091.108s.02-.042-.137.051c-.206.121-.421.226-.638.326l1.075-.454c-.445.184-.89.316-1.364.4l1.196-.161c-.477.062-.936.067-1.414.01l1.196.161c-.589-.102-1.134-.284-1.685-.512l1.075.454c-1.017-.445-1.891-1.064-2.86-1.575,1.056.557.517.414.204.128-.151-.137-.579-.446-.628-.648l.425.557c-.089-.121-.172-.246-.251-.374-.162-.264-.294-.539-.415-.823l.454,1.075c-.163-.436-.276-.871-.346-1.331l.161,1.196c-.071-.619-.058-1.224.022-1.841l-.161,1.196c.127-.79.354-1.54.664-2.277l-.454,1.075c.348-.777.781-1.476,1.261-2.176.277-.403-.783.858-.194.271.138-.137.262-.287.403-.421.603-.572-.251.079-.282.198.031-.12.522-.279.611-.318l-1.075.454c1.037-.407,2.065-.78,3.172-.948l-1.196.161c.776-.098,1.54-.098,2.317-.007l-1.196-.161c.452.066.892.159,1.332.276,2.272.605,4.993-.76,5.536-3.143.538-2.362-.709-4.887-3.143-5.536-2.372-.632-4.84-.67-7.215-.027-2.003.542-4.03,1.402-5.471,2.934-1.644,1.748-2.947,4.006-3.559,6.329-.711,2.7-.473,5.369.73,7.883.989,2.067,2.958,3.708,4.918,4.812,2.126,1.198,4.581,2.224,7.066,1.948,3.207-.357,5.743-1.961,7.665-4.517,1.197-1.592,2.018-3.582,2.32-5.553.364-2.377.378-4.863-.49-7.148-.985-2.594-2.515-4.713-4.889-6.206-1.996-1.255-5.047-.486-6.157,1.614-1.171,2.216-.516,4.817,1.614,6.157h0Z" style="fill:#fff;"/><path d="m131.452,107.184c.165.104.683.492.045-.01-.615-.483-.192-.157-.066-.038.241.228.454.48.691.711.328.32-.559-.843-.343-.438.077.144.186.276.271.417.172.286.32.585.457.889l-.454-1.075c.319.757.53,1.536.651,2.348l-.161-1.196c.114.894.115,1.784.005,2.678l.161-1.196c-.126.874-.358,1.711-.688,2.53l.454-1.075c-.158.365-.327.724-.527,1.069-.12.207-.251.402-.383.601-.415.625.569-.633.191-.259-.141.139-.266.291-.41.428-.13.124-.702.587-.091.108s.02-.042-.137.051c-.206.121-.421.226-.638.326l1.075-.454c-.445.184-.89.316-1.364.4l1.196-.161c-.477.062-.936.067-1.414.01l1.196.161c-.589-.102-1.134-.284-1.685-.512l1.075.454c-1.017-.445-1.891-1.064-2.86-1.575,1.056.557.517.414.204.128-.151-.137-.579-.446-.628-.648l.425.557c-.089-.121-.172-.246-.251-.374-.162-.264-.294-.539-.415-.823l.454,1.075c-.163-.436-.276-.871-.346-1.331l.161,1.196c-.071-.619-.058-1.224.022-1.841l-.161,1.196c.127-.79.354-1.54.664-2.277l-.454,1.075c.348-.777.781-1.476,1.261-2.176.277-.403-.783.858-.194.271.138-.137.262-.287.403-.421.603-.572-.251.079-.282.198.031-.12.522-.279.611-.318l-1.075.454c1.037-.407,2.065-.78,3.172-.948l-1.196.161c.776-.098,1.54-.098,2.317-.007l-1.196-.161c.452.066.892.159,1.332.276,2.272.605,4.993-.76,5.536-3.143.538-2.362-.709-4.887-3.143-5.536-2.372-.632-4.84-.67-7.215-.027-2.003.542-4.03,1.402-5.471,2.934-1.644,1.748-2.947,4.006-3.559,6.329-.711,2.7-.473,5.369.73,7.883.989,2.067,2.958,3.708,4.918,4.812,2.126,1.198,4.581,2.224,7.066,1.948,3.207-.357,5.743-1.961,7.665-4.517,1.197-1.592,2.018-3.582,2.32-5.553.364-2.377.378-4.863-.49-7.148-.985-2.594-2.515-4.713-4.889-6.206-1.996-1.255-5.047-.486-6.157,1.614-1.171,2.216-.516,4.817,1.614,6.157h0Z" style="fill:#fff;"/></svg>