<?xml version="1.0" encoding="UTF-8"?><svg id="_레이어_1" xmlns="http://www.w3.org/2000/svg" viewBox="0 0 200 200"><path d="m37.754,53.488c-5.664,4.763-10.916,9.999-15.7,15.645-4.599,5.429-8.96,11.179-12.249,17.509-3.599,6.927-5.619,14.249-6.494,21.986-.845,7.467-.692,15.091-.043,22.568.683,7.855,1.988,15.688,4.175,23.269,2.034,7.05,4.688,14.154,9.552,19.77,4.585,5.295,11.237,8.281,17.633,10.768,5.78,2.247,11.781,3.907,17.835,5.228,15.192,3.316,30.902,4.722,46.441,4.519,2.353-.031,4.61-2.048,4.5-4.5-.108-2.412-1.978-4.533-4.5-4.5-6.567.086-13.136-.14-19.683-.663-3.276-.262-6.547-.598-9.808-1.012-.089-.011-1.491-.196-.499-.062-.423-.057-.845-.116-1.267-.176-.702-.1-1.403-.204-2.104-.311-1.668-.256-3.333-.535-4.993-.837-6.183-1.125-12.322-2.566-18.302-4.508-1.299-.422-2.589-.868-3.87-1.342-.678-.251-1.354-.51-2.026-.778-.221-.088-.441-.177-.661-.267-.218-.089-.436-.179-.654-.27.535.226.571.24.108.041-2.886-1.296-5.746-2.639-8.336-4.476-.056-.039-1.134-.882-.428-.308-.328-.267-.651-.538-.966-.82-.627-.561-1.224-1.156-1.785-1.783-.182-.203-.356-.414-.536-.619-.874-.994.46.698-.31-.386-.564-.792-1.105-1.595-1.601-2.432-.795-1.341-1.471-2.738-2.125-4.151-.589-1.271.3.799-.218-.507-.106-.267-.214-.533-.318-.801-.365-.939-.706-1.887-1.031-2.841-1.141-3.356-2.092-6.777-2.879-10.233-.381-1.672-.722-3.352-1.026-5.039-.166-.922-.321-1.847-.466-2.773-.072-.464-.14-.928-.208-1.392-.224-1.52.102.86-.092-.665-.929-7.305-1.284-14.723-.947-22.082.079-1.724.203-3.446.386-5.162.05-.467.103-.933.163-1.398-.111.868.098-.652.099-.659.143-.923.304-1.843.488-2.759.335-1.671.743-3.329,1.236-4.961.255-.843.532-1.68.832-2.508.147-.408.3-.814.458-1.218.012-.032.532-1.314.201-.525,1.43-3.416,3.276-6.673,5.297-9.771,1.004-1.539,2.061-3.043,3.157-4.517.252-.339.507-.674.761-1.011.319-.416.341-.446.067-.089.172-.221.345-.441.519-.661.561-.71,1.13-1.415,1.706-2.113,5.095-6.183,10.743-11.896,16.876-17.053,1.809-1.521,1.685-4.817,0-6.364-1.924-1.766-4.435-1.622-6.364,0h0Z" style="fill:#fff;"/><path d="m44.822,54.398c-.768-1.016-1.456-2.083-2.051-3.21-.274-.519-.517-1.05-.764-1.581.476,1.021-.014-.055-.082-.236-.147-.389-.284-.781-.414-1.177-.392-1.199-.702-2.424-.937-3.663-.068-.357-.125-.716-.183-1.075-.139-.85,0-.043.015.112-.078-.79-.155-1.577-.189-2.37-.055-1.282-.035-2.567.06-3.846.027-.365.07-.728.1-1.093.098-1.181-.121.657.003-.071.133-.777.26-1.552.435-2.321.265-1.167.599-2.319,1.003-3.446.12-.334.251-.664.38-.995-.363.936-.072.176.035-.059.316-.688.66-1.362,1.037-2.018.297-.516.612-1.021.946-1.514.052-.076.841-1.152.254-.397.166-.213.341-.421.517-.625.531-.615,1.11-1.166,1.709-1.713.141-.128.674-.442.038-.037.453-.288.908-.561,1.367-.838.995-.601-.39.058.286-.142.345-.102.68-.232,1.028-.327.418-.114.84-.199,1.265-.283.889-.176.294-.044.095-.023,1.744-.189,3.505-.163,5.256-.122,1.548.037,3.082.155,4.625.271.819.061-1.027-.209.327.048.43.081.861.153,1.288.249.851.192,1.687.438,2.506.739-.804-.295.401.188.485.23.233.118.462.242.689.372.339.194.67.401.993.62-.019-.013.987.75.487.342-.505-.413.467.419.444.399.291.262.574.533.848.813.229.234.451.474.669.719.126.142.987,1.225.416.463.957,1.276,1.769,2.659,2.455,4.099.01.021.593,1.36.263.558.226.549.431,1.108.625,1.67.292.844.553,1.699.79,2.559.476,1.727.856,3.478,1.198,5.236.081.417.155.836.236,1.253.229,1.187.01-.879.039.334.009.383.031.757,0,1.14.088-.58.073-.616-.045-.109.235-.504.226-.531-.028-.082-1.235,2.008-.501,5.039,1.614,6.157,2.198,1.161,4.839.529,6.157-1.614,2.267-3.686,1.045-8.178.158-12.102-.872-3.857-2.121-7.707-4.076-11.162-1.872-3.308-4.424-6.165-7.546-8.332-3.434-2.383-7.554-3.286-11.648-3.666-3.863-.358-7.883-.429-11.71.262-3.96.715-7.536,3.012-10.053,6.122-4.422,5.464-6.639,12.183-7.003,19.167-.376,7.212,1.419,15.03,5.821,20.856,1.414,1.872,3.948,3.039,6.157,1.614,1.851-1.193,3.132-4.148,1.614-6.157h0Z" style="fill:#fff;"/><path d="m11.679,97.222c2.365.724,4.705,1.522,7.015,2.406,2.584.989,3.723,1.478,6.27,2.672,4.666,2.188,9.171,4.702,13.517,7.47,1.989,1.267,5.051.478,6.157-1.614,1.176-2.226.509-4.805-1.614-6.157-9.001-5.732-18.742-10.331-28.952-13.455-2.251-.689-5.006.819-5.536,3.143-.554,2.434.733,4.798,3.143,5.536h0Z" style="fill:#fff;"/><path d="m11.134,133.884c.59-.256,1.18-.513,1.773-.763-.334.141-.247.105.259-.107.297-.123.594-.245.892-.366,1.187-.483,2.381-.949,3.584-1.392,2.372-.872,4.78-1.652,7.231-2.267,1.203-.302,2.417-.565,3.639-.778.158-.027,1.874-.268,1.084-.175.607-.072,1.216-.131,1.826-.175,1.217-.087,2.437-.116,3.657-.075.611.02,1.221.057,1.829.112.305.027.61.06.915.096-.434-.06-.376-.048.175.036,2.315.367,4.955-.593,5.536-3.143.491-2.157-.657-5.141-3.143-5.536-11.901-1.888-23.032,2.083-33.799,6.762-2.167.942-2.823,4.282-1.614,6.157,1.449,2.248,3.838,2.622,6.157,1.614h0Z" style="fill:#fff;"/><path d="m16.227,161.197c9.648-5.7,19.104-11.719,28.365-18.028,1.942-1.323,2.994-4.017,1.614-6.157-1.246-1.933-4.076-3.032-6.157-1.614-9.262,6.309-18.717,12.328-28.365,18.028-2.027,1.197-2.936,4.108-1.614,6.157s3.988,2.896,6.157,1.614h0Z" style="fill:#fff;"/><path d="m100.016,112.213c-3.6.128-7.208.326-10.793.688-3.751.379-7.549,1.34-9.674,4.774-2.512,4.06-.636,8.815,2.067,12.189,1.956,2.442,4.537,4.501,7.327,5.913,3.444,1.744,7.202,2.719,11.073,2.726,2.354.004,4.609-2.073,4.5-4.5-.109-2.442-1.977-4.495-4.5-4.5-.583-.001-1.164-.022-1.745-.074-.134-.012-.267-.027-.401-.04-.764-.074.331.036.398.054-.296-.083-.622-.105-.925-.167-.57-.117-1.135-.26-1.692-.428-.3-.09-.598-.188-.894-.293-.192-.068-1.294-.506-.589-.213.687.285-.162-.084-.32-.16-.283-.136-.562-.278-.838-.427-.551-.299-1.09-.623-1.61-.972-.223-.15-.441-.307-.66-.463-.637-.451.722.595-.042-.041-.482-.401-.944-.825-1.383-1.272-.4-.406-.738-.93-1.165-1.3-.011-.009.556.775.286.371-.104-.155-.217-.303-.319-.458-.181-.275-.351-.557-.506-.848-.081-.152-.151-.374-.249-.506.012.016.3.874.194.428-.061-.258-.145-.536-.225-.789-.176-.556.034.98.048.404.003-.128-.005-.266-.011-.394-.007-.148.052-.648-.03.08-.099.884.102-.102.102-.164,0-.084-.273.938-.176.485.01-.047.141-.271.184-.292.035-.017-.609.827-.345.477.114-.151.553-.47-.041-.022-.633.476.028.004.195-.092.099-.057.204-.104.303-.161.701-.401-.775.255-.321.141.506-.128.994-.298,1.51-.396.064-.012.706-.149.719-.119.007.015-1.238.142-.479.072.157-.015.314-.032.471-.047,3.511-.332,7.035-.541,10.558-.666,2.35-.083,4.612-2.01,4.5-4.5-.106-2.367-1.98-4.589-4.5-4.5h0Z" style="fill:#fff;"/><path d="m95.547,134.004c.009,4.709.018,9.419.027,14.128.004,2.241.073,4.495-.033,6.734-.022.471-.049.943-.103,1.411.083-.716-.202.949-.247,1.119-.094.358-.214.704-.331,1.055.334-1.006-.206.373-.336.592-.125.21-.259.415-.401.615.299-.377.343-.444.131-.201-.19.161-1.173.924-.314.376-.216.148-.441.283-.673.404-.426.206-.502.244-.227.114.278-.124.195-.103-.249.065-.268.086-.537.166-.808.242-2.254.647-3.482,1-5.311.939,1.04.035-.484-.115-.738-.185-.382-.105-.75-.237-1.124-.367.926.321-.56-.284-.738-.38-.358-.192-.708-.397-1.053-.61-.466-.288-.92-.595-1.365-.913-.158-.113-1.015-.77-.411-.294-.861-.678-1.692-1.395-2.518-2.115-1.773-1.546-4.643-1.875-6.364,0-1.556,1.695-1.895,4.712,0,6.364,3.024,2.636,6.109,5.083,9.873,6.554,4.104,1.604,8.255.821,12.344-.372,4.389-1.281,7.4-4.152,8.961-8.433,1.425-3.908,1.044-8.38,1.036-12.468l-.028-14.372c-.005-2.354-2.067-4.609-4.5-4.5s-4.505,1.977-4.5,4.5h0Z" style="fill:#fff;"/><path d="m81.434,125.22c-4,1.781-7.221,4.932-10.23,8.035-3.149,3.248-6.218,6.574-9.203,9.973-6.067,6.908-11.903,14.105-17.192,21.63-3.052,4.343-5.317,8.944-5.933,14.262-.272,2.347,2.264,4.6,4.5,4.5,2.67-.12,4.209-1.986,4.5-4.5-.094.809.094-.449.148-.692.092-.413.2-.822.321-1.228.142-.474.306-.939.477-1.403.012-.031.28-.675.095-.249-.193.446.316-.655.302-.627.851-1.745,1.89-3.393,2.991-4.99,1.15-1.668,2.364-3.292,3.58-4.912,1.451-1.932,2.113-2.792,3.583-4.648,5.326-6.727,10.966-13.205,16.896-19.406,1.521-1.591,3.041-3.193,4.676-4.669.422-.381.853-.75,1.292-1.11.022-.018.577-.438.213-.17-.375.276.599-.41.573-.393.936-.634,1.921-1.175,2.953-1.634,2.158-.961,2.831-4.269,1.614-6.157-1.44-2.233-3.848-2.642-6.157-1.614h0Z" style="fill:#fff;"/><path d="m79.716,49.891l9.699-1.175c1.541-.187,3.084-.409,4.635-.489.7-.036,1.393-.016,2.093.004,1.031.029-.74-.203.19.008.464.105.919.206,1.375.345,2.251.689,5.006-.82,5.536-3.143.555-2.435-.733-4.798-3.143-5.536-3.408-1.043-6.848-.656-10.312-.236l-10.072,1.221c-1.236.15-2.267.403-3.182,1.318-.78.78-1.368,2.061-1.318,3.182.098,2.195,1.997,4.803,4.5,4.5h0Z" style="fill:#fff;"/><path d="m154.802,59.852c5.489,4.615,10.591,9.675,15.255,15.123,1.135,1.326,2.245,2.674,3.327,4.043.038.048.888,1.14.33.415.171.223.341.446.511.67.595.787,1.179,1.582,1.75,2.386,1.974,2.779,3.798,5.669,5.369,8.695.33.635.648,1.275.955,1.921.184.389.365.779.54,1.172.022.048.569,1.354.225.511.663,1.628,1.25,3.286,1.743,4.974.478,1.637.872,3.299,1.194,4.974.177.918.326,1.84.467,2.764.231,1.508-.08-.857.086.662.068.623.14,1.244.199,1.868.693,7.328.502,14.782-.187,22.103-.074.78-.154,1.56-.242,2.339-.053.467-.108.934-.166,1.4,0,.004-.206,1.531-.085.666-.26,1.857-.562,3.708-.91,5.551-.691,3.666-1.561,7.3-2.628,10.875-.471,1.579-.977,3.148-1.534,4.699-.292.813-.604,1.617-.922,2.419-.518,1.308.366-.768-.218.507-.178.389-.352.779-.537,1.165-.726,1.519-1.542,2.999-2.477,4.4-.192.287-.389.571-.591.851-.119.165-.685.863-.171.236-.615.749-1.26,1.468-1.959,2.141-.306.295-.62.58-.941.858-.047.041-1.126.913-.399.354-.552.425-1.13.819-1.714,1.197-1.396.905-2.861,1.697-4.356,2.425-.743.362-1.493.707-2.248,1.043-.33.147-.662.29-.993.435,1.076-.471.006-.004-.183.072-1.304.532-2.623,1.029-3.952,1.496-5.714,2.011-11.606,3.502-17.541,4.693-3.527.708-7.076,1.305-10.638,1.81-.417.059-.834.117-1.251.173.987-.132-.727.091-.895.112-.978.123-1.958.238-2.938.347-1.821.203-3.644.383-5.468.54-7.217.624-14.464.906-21.707.811-2.355-.031-4.608,2.092-4.5,4.5.11,2.465,1.977,4.467,4.5,4.5,13.799.181,27.66-.952,41.25-3.354,6.351-1.123,12.662-2.56,18.808-4.525,6.078-1.944,12.456-4.298,17.691-8.011,6.447-4.572,10.206-11.089,12.88-18.398,2.54-6.943,4.19-14.219,5.218-21.532,1.104-7.856,1.621-15.8,1.333-23.733-.282-7.756-1.402-15.58-4.342-22.802-3.172-7.79-7.835-14.642-13.12-21.145-5.246-6.455-11.09-12.41-17.457-17.763-1.8-1.513-4.623-1.896-6.364,0-1.532,1.669-1.924,4.746,0,6.364h0Z" style="fill:#fff;"/><path d="m161.869,58.941c3.948-5.226,5.724-11.995,5.858-18.474.134-6.491-1.446-13.364-5.028-18.837-2.304-3.52-5.238-6.384-9.168-7.988-3.672-1.498-7.843-1.417-11.742-1.28-4.198.147-8.275.714-12.12,2.471-3.52,1.608-6.328,4.436-8.56,7.537-2.462,3.419-3.994,7.528-5.037,11.582-1.108,4.309-2.778,9.752-.261,13.844,1.233,2.004,4.082,2.952,6.157,1.614,2.011-1.296,2.934-4.012,1.614-6.157l-.196-.318c.196.519.22.534.071.046l.051.463c-.02-.252-.026-.504-.018-.757.006-.258.033-.511.052-.768-.084,1.089.04-.145.073-.324.307-1.688.66-3.37,1.08-5.033.383-1.515.829-3.016,1.376-4.48.008-.023.562-1.372.216-.577.119-.272.243-.543.371-.812.375-.787.787-1.555,1.241-2.299.377-.618.78-1.22,1.214-1.799-.517.689.016,0,.157-.166.213-.249.43-.494.655-.732.495-.525,1.052-.975,1.563-1.479s-.835.537.168-.134c.434-.29.861-.583,1.314-.842.226-.13.456-.254.689-.372.084-.043,1.288-.526.485-.23.682-.251,1.375-.465,2.081-.639.424-.105.852-.194,1.281-.274-.074.014,1.34-.206.702-.121s.793-.077.714-.07c.586-.054,1.174-.094,1.762-.125,1.463-.076,2.931-.112,4.396-.106.88.004,1.752.062,2.63.107.146.007.885.111.101-.006.57.085,1.137.202,1.693.354.348.095.683.225,1.028.327.676.2-.709-.459.286.142.343.207.693.404,1.036.612.704.428.221.134.059.007.633.495,1.213,1.07,1.75,1.666.181.201.353.409.53.613.326.404.34.421.043.05.159.218.315.439.466.662.694,1.022,1.304,2.099,1.835,3.214.126.265.246.532.365.8-.458-1.036.011.062.077.238.25.67.475,1.348.675,2.035.354,1.216.629,2.455.83,3.706.042.263.128,1.103.017.068.039.364.081.727.112,1.091.063.73.101,1.463.114,2.195.027,1.469-.068,2.925-.214,4.386.117-1.161-.01.049-.042.247-.079.477-.168.953-.269,1.426-.151.705-.326,1.405-.529,2.097-.201.686-.426,1.364-.678,2.032-.068.179-.552,1.262-.082.236-.146.32-.29.641-.446.957-.666,1.353-1.46,2.631-2.369,3.834-1.425,1.886-.361,5.113,1.614,6.157,2.369,1.252,4.636.399,6.157-1.614h0Z" style="fill:#fff;"/><path d="m184.569,88.544c-10.825,3.096-21.22,7.697-30.889,13.455-2.022,1.204-2.939,4.102-1.614,6.157,1.312,2.035,3.993,2.903,6.157,1.614,4.668-2.78,9.492-5.294,14.469-7.475.28-.123.561-.244.842-.365.193-.083.635-.267.19-.081.632-.264,1.267-.521,1.903-.774,1.197-.475,2.402-.931,3.613-1.368,2.545-.917,5.121-1.741,7.721-2.485,2.262-.647,3.897-3.207,3.143-5.536-.745-2.302-3.111-3.836-5.536-3.143h0Z" style="fill:#fff;"/><path d="m191.253,125.659c-11.141-4.528-22.693-8.114-34.831-6.308-2.336.348-3.828,3.417-3.143,5.536.825,2.55,3.032,3.515,5.536,3.143.244-.036.684-.076.188-.026.385-.038.768-.081,1.154-.112.614-.05,1.23-.084,1.846-.104,1.307-.041,2.616-.013,3.921.074.693.046,1.384.11,2.074.189.079.009.934.123.553.067s.474.078.552.091c1.387.225,2.765.506,4.132.832,5.36,1.278,10.531,3.226,15.627,5.298,2.187.889,5.039-.964,5.536-3.143.595-2.611-.801-4.584-3.143-5.536h0Z" style="fill:#fff;"/><path d="m187.876,153.426c-10.628-5.684-21.073-11.702-31.331-18.028-2.006-1.237-5.04-.499-6.157,1.614-1.162,2.2-.527,4.836,1.614,6.157,10.258,6.327,20.703,12.345,31.331,18.028,2.075,1.11,4.992.589,6.157-1.614,1.104-2.089.602-4.971-1.614-6.157h0Z" style="fill:#fff;"/><path d="m98.904,121.213c3.127.111,6.251.295,9.368.561.596.051,1.324.01,1.899.179.078.023-1.094-.168-.597-.081.12.021.24.037.36.057.318.055.636.12.949.199.232.059.459.134.689.201.718.212-.915-.513-.108-.049.195.112.387.243.584.348.474.254-.784-.645-.388-.283.132.121.466.543.024-.04-.437-.577-.158-.222-.085-.088.226.415-.072.145-.118-.384.008.096.073.289.113.377.175.383-.066-.499-.054-.554-.034.153-.062,1.302.036.453.089-.767-.107.244-.165.457-.101.366-.351.434.148-.297-.075.111-.123.26-.185.38-.129.252-.269.497-.418.737-.171.274-.394.528-.553.807-.008.014.604-.729.282-.38-.151.164-.289.344-.437.51-.387.435-.795.851-1.22,1.248-.196.183-.397.362-.601.537-.102.087-.206.172-.308.259-.708.604.619-.438.169-.125-.999.694-2,1.348-3.095,1.884-.324.158-1.406.517-.151.096-.296.099-.584.23-.879.334-.633.224-1.278.417-1.931.575-.348.084-.699.159-1.051.224-.132.024-.265.043-.397.068-.564.11,1.079-.112.265-.033-.715.07-1.427.113-2.145.114-2.354.004-4.609,2.067-4.5,4.5s1.977,4.505,4.5,4.5c6.605-.012,13.294-2.86,17.708-7.816,2.654-2.98,4.93-7.155,3.547-11.247-1.281-3.79-4.769-5.774-8.553-6.298-4.199-.582-8.469-.78-12.703-.93-2.355-.084-4.606,2.13-4.5,4.5.112,2.51,1.977,4.41,4.5,4.5h0Z" style="fill:#fff;"/><path d="m94.439,134.004c-.008,4.141-.016,8.282-.024,12.423-.008,4.327-.384,8.893.646,13.133,1.043,4.292,3.85,7.632,7.951,9.25,3.808,1.502,8.221,2.352,12.242,1.328,4.402-1.121,8.023-4.125,11.371-7.042,1.781-1.552,1.707-4.797,0-6.364-1.898-1.742-4.465-1.655-6.364,0-.775.675-1.57,1.324-2.356,1.986-.247.195-.215.173.093-.067-.22.166-.442.33-.666.49-.39.279-.787.548-1.192.804-.401.253-.808.496-1.226.72-.175.094-1.665.71-.738.38-.372.133-.742.263-1.124.367-.245.067-1.787.235-.738.185-.4.019-.798.018-1.198.025-.553-.049-.61-.044-.17.015-.302-.051-.602-.11-.901-.177-1.022-.227-2.035-.513-3.041-.801-.405-.116-.809-.237-1.206-.377.8.282-.563-.327-.752-.447.831.529.001-.075-.192-.241-.33-.381-.327-.359.009.066-.142-.199-.276-.404-.401-.615-.077-.129-.617-1.321-.423-.787.2.553-.211-.737-.244-.86-.079-.304-.148-.61-.206-.919-.084-.508-.104-.618-.061-.332.04.287.032.175-.024-.337-.026-.314-.045-.628-.059-.942-.106-2.24-.037-4.493-.033-6.734l.027-14.128c.005-2.354-2.073-4.609-4.5-4.5-2.442.109-4.495,1.977-4.5,4.5h0Z" style="fill:#fff;"/><path d="m112.943,132.991c.839.373,1.647.797,2.423,1.288.418.264.816.552,1.221.834-.072-.05-.469-.383-.071-.058.275.224.549.448.818.679,1.473,1.266,2.83,2.659,4.179,4.053,2.983,3.083,5.895,6.235,8.731,9.454s5.597,6.504,8.28,9.851c.634.791,1.264,1.586,1.889,2.384.806,1.029.793,1.012,1.585,2.052,1.3,1.707,2.588,3.424,3.839,5.168,1.258,1.754,2.467,3.551,3.474,5.463.266.505.509,1.019.749,1.536-.327-.704.258.712.321.9.157.468.295.942.414,1.421.068.274.13.549.184.827.033.169.159,1.124.061.277.27,2.33,1.876,4.618,4.5,4.5,2.206-.099,4.79-1.996,4.5-4.5-1.089-9.401-7.636-16.822-13.264-24.008-5.58-7.123-11.512-13.97-17.765-20.509-3.403-3.559-6.955-7.347-11.528-9.384-2.145-.955-4.937-.695-6.157,1.614-1.035,1.959-.682,5.135,1.614,6.157h0Z" style="fill:#fff;"/><path d="m94.404,48.14c0,8.045,0,16.09,0,24.135,0,2.354,2.07,4.609,4.5,4.5s4.5-1.977,4.5-4.5c0-8.045,0-16.09,0-24.135,0-2.354-2.07-4.609-4.5-4.5s-4.5,1.977-4.5,4.5h0Z" style="fill:#fff;"/><path d="m119.203,40.891l-10.656-1.221c-3.644-.417-7.248-.803-10.84.236-2.26.654-3.898,3.202-3.143,5.536.743,2.296,3.113,3.844,5.536,3.143.42-.121.853-.192,1.272-.311.336-.059.242-.051-.282.022.244-.028.489-.049.735-.065.737-.048,1.477-.04,2.214-.004,1.64.079,3.273.302,4.903.489l10.261,1.175c2.347.269,4.6-2.262,4.5-4.5-.119-2.668-1.985-4.212-4.5-4.5h0Z" style="fill:#fff;"/><path d="m39.91,43.75c2.608-1.407,5.217-2.815,7.859-4.159,1.356-.69,2.721-1.363,4.098-2.01.652-.306,1.307-.607,1.965-.901.348-.155.696-.309,1.046-.46-.563.244.172-.072.383-.158,2.573-1.046,5.224-1.938,7.961-2.437.302-.055.605-.105.909-.152-.688.105.314-.03.437-.042.702-.071,1.406-.122,2.111-.16,1.569-.083,3.14-.097,4.711-.112,2.353-.022,4.61-2.054,4.5-4.5-.108-2.419-1.978-4.524-4.5-4.5-3.395.032-6.76.148-10.117.71-2.894.484-5.693,1.412-8.405,2.515-6.033,2.454-11.776,5.506-17.501,8.595-2.074,1.119-2.9,4.162-1.614,6.157,1.358,2.106,3.938,2.811,6.157,1.614h0Z" style="fill:#fff;"/><path d="m125.554,35.137c1.641.024,3.28.104,4.915.259.389.037.778.08,1.166.121,1.516.162-.844-.141.664.082.774.115,1.546.242,2.315.386,3.221.603,6.386,1.477,9.468,2.593.723.262,1.441.537,2.155.822-.02-.008,1.073.437.744.3-.378-.157.644.279.737.32,1.484.652,2.95,1.344,4.403,2.061,2.985,1.474,5.914,3.056,8.842,4.639,2.07,1.119,4.996.583,6.157-1.614,1.108-2.097.597-4.962-1.614-6.157-6.184-3.342-12.409-6.646-19.031-9.049-6.684-2.425-13.814-3.659-20.92-3.763-2.355-.035-4.608,2.095-4.5,4.5.111,2.468,1.977,4.463,4.5,4.5h0Z" style="fill:#fff;"/><path d="m90.147,64.736c.44-.309.889-.57,1.364-.822-.682.361.123-.045.408-.138.895-.291,1.819-.484,2.746-.64.171-.029,1.373-.186.561-.089.455-.054.91-.101,1.366-.141,1.064-.092,2.133-.143,3.201-.151.992-.008,1.984.019,2.975.081.533.033,1.066.076,1.597.13.02.002,1.449.184.621.064,2.117.307,4.2.79,6.247,1.41,2.253.683,5.005-.815,5.536-3.143.553-2.429-.731-4.804-3.143-5.536-4.601-1.395-9.481-2.095-14.291-2-4.541.089-9.896.511-13.73,3.203-1.922,1.349-3.007,3.997-1.614,6.157,1.231,1.909,4.096,3.061,6.157,1.614h0Z" style="fill:#fff;"/><path d="m85.776,81.939c2.572-.876,5.172-1.671,7.824-2.27,1.282-.29,2.577-.547,3.88-.722-.495.067-.074.013.179-.013.382-.038.764-.077,1.147-.107.688-.054,1.377-.091,2.066-.105,1.307-.027,2.592.085,3.894.159.752.043-.572-.113.172.018.379.067.759.125,1.137.201.581.116,1.158.252,1.733.399,2.798.712,5.562,1.576,8.335,2.377,2.261.652,5-.793,5.536-3.143.547-2.402-.722-4.837-3.143-5.536-5.809-1.676-11.539-3.6-17.664-3.474-5.981.123-11.856,1.621-17.489,3.539-2.224.757-3.922,3.127-3.143,5.536.714,2.207,3.15,3.955,5.536,3.143h0Z" style="fill:#fff;"/><path d="m68.401,20.349c-2.795-.878-5.732-.842-8.62-.631-3.043.222-6.106.469-9.101,1.073-3.016.608-5.904,1.665-8.332,3.584-2.095,1.656-3.578,3.997-4.794,6.343-1.082,2.088-.608,4.982,1.614,6.157,2.066,1.091,5,.617,6.157-1.614.501-.966,1.05-1.886,1.637-2.802.305-.421.313-.439.026-.054.17-.206.348-.406.532-.6.274-.287.563-.572.877-.818-.736.577.673-.328.835-.418.481-.224.513-.242.098-.054.266-.1.534-.195.805-.283,1.11-.365,2.249-.637,3.397-.851.536-.1,1.075-.191,1.616-.264-.74.099.974-.097,1.133-.113,1.165-.114,2.333-.201,3.501-.287,1.138-.083,2.278-.162,3.42-.143.168.003,1.887.146,1.056.024.597.088,1.177.249,1.751.429,2.246.706,5.009-.832,5.536-3.143.558-2.449-.738-4.78-3.143-5.536h0Z" style="fill:#fff;"/><path d="m130.969,29.961c.239-.134.478-.268.722-.393-.019.01,1.066-.49.58-.287-.438.183.34-.118.417-.145.258-.09.518-.175.78-.253.592-.177,1.19-.306,1.793-.435.405-.087.477-.083.022-.026.34-.042.682-.071,1.025-.093,1.168-.076,2.337-.036,3.5.091-.456-.05-.375-.06.028.021.338.068.674.132,1.009.211.595.14,1.183.307,1.762.502.247.083.49.174.734.262.401.144.394.17.006-.01.531.245,1.057.496,1.571.775.973.528,1.896,1.133,2.789,1.785-.514-.376-.114-.086.162.144.2.167.398.337.592.511.439.39.864.795,1.275,1.215.365.373.719.757,1.061,1.151.214.246.415.504.627.751.467.544-.608-.824.128.176,1.391,1.891,3.966,3.027,6.157,1.614,1.961-1.264,2.997-4.053,1.614-6.157-2.646-4.028-5.35-8.017-8.111-11.966-1.346-1.925-4-3.005-6.157-1.614-1.913,1.233-3.057,4.093-1.614,6.157,2.761,3.95,5.464,7.939,8.111,11.966l7.771-4.542c-3.665-4.984-8.405-8.903-14.324-10.897-6.076-2.046-12.99-1.419-18.573,1.715-2.054,1.153-2.916,4.139-1.614,6.157,1.34,2.078,3.959,2.848,6.157,1.614h0Z" style="fill:#fff;"/><path d="m65.169,88.481c.165.104.683.492.045-.01-.615-.483-.192-.157-.066-.038.241.228.454.48.691.711.328.32-.559-.843-.343-.438.077.144.186.276.271.417.172.286.32.585.457.889l-.454-1.075c.319.757.53,1.536.651,2.348l-.161-1.196c.114.894.115,1.784.005,2.678l.161-1.196c-.126.874-.358,1.711-.688,2.53l.454-1.075c-.158.365-.327.724-.527,1.069-.12.207-.251.402-.383.601-.415.625.569-.633.191-.259-.141.139-.266.291-.41.428-.13.124-.702.587-.091.108s.02-.042-.137.051c-.206.121-.421.226-.638.326l1.075-.454c-.445.184-.89.316-1.364.4l1.196-.161c-.477.062-.936.067-1.414.01l1.196.161c-.589-.102-1.134-.284-1.685-.512l1.075.454c-1.017-.445-1.891-1.064-2.86-1.575,1.056.557.517.414.204.128-.151-.137-.579-.446-.628-.648l.425.557c-.089-.121-.172-.246-.251-.374-.162-.264-.294-.539-.415-.823l.454,1.075c-.163-.436-.276-.871-.346-1.331l.161,1.196c-.071-.619-.058-1.224.022-1.841l-.161,1.196c.127-.79.354-1.54.664-2.277l-.454,1.075c.348-.777.781-1.476,1.261-2.176.277-.403-.783.858-.194.271.138-.137.262-.287.403-.421.603-.572-.251.079-.282.198.031-.12.522-.279.611-.318l-1.075.454c1.037-.407,2.065-.78,3.172-.948l-1.196.161c.776-.098,1.54-.098,2.317-.007l-1.196-.161c.452.066.892.159,1.332.276,2.272.605,4.993-.76,5.536-3.143.538-2.362-.709-4.887-3.143-5.536-2.372-.632-4.84-.67-7.215-.027-2.003.542-4.03,1.402-5.471,2.934-1.644,1.748-2.947,4.006-3.559,6.329-.711,2.7-.473,5.369.73,7.883.989,2.067,2.958,3.708,4.918,4.812,2.126,1.198,4.581,2.224,7.066,1.948,3.207-.357,5.743-1.961,7.665-4.517,1.197-1.592,2.018-3.582,2.32-5.553.364-2.377.378-4.863-.49-7.148-.985-2.594-2.515-4.713-4.889-6.206-1.996-1.255-5.047-.486-6.157,1.614-1.171,2.216-.516,4.817,1.614,6.157h0Z" style="fill:#fff;"/><path d="m137.597,88.481c.165.104.683.492.045-.01-.615-.483-.192-.157-.066-.038.241.228.454.48.691.711.328.32-.559-.843-.343-.438.077.144.186.276.271.417.172.286.32.585.457.889l-.454-1.075c.319.757.53,1.536.651,2.348l-.161-1.196c.114.894.115,1.784.005,2.678l.161-1.196c-.126.874-.358,1.711-.688,2.53l.454-1.075c-.158.365-.327.724-.527,1.069-.12.207-.251.402-.383.601-.415.625.569-.633.191-.259-.141.139-.266.291-.41.428-.13.124-.702.587-.091.108s.02-.042-.137.051c-.206.121-.421.226-.638.326l1.075-.454c-.445.184-.89.316-1.364.4l1.196-.161c-.477.062-.936.067-1.414.01l1.196.161c-.589-.102-1.134-.284-1.685-.512l1.075.454c-1.017-.445-1.891-1.064-2.86-1.575,1.056.557.517.414.204.128-.151-.137-.579-.446-.628-.648l.425.557c-.089-.121-.172-.246-.251-.374-.162-.264-.294-.539-.415-.823l.454,1.075c-.163-.436-.276-.871-.346-1.331l.161,1.196c-.071-.619-.058-1.224.022-1.841l-.161,1.196c.127-.79.354-1.54.664-2.277l-.454,1.075c.348-.777.781-1.476,1.261-2.176.277-.403-.783.858-.194.271.138-.137.262-.287.403-.421.603-.572-.251.079-.282.198.031-.12.522-.279.611-.318l-1.075.454c1.037-.407,2.065-.78,3.172-.948l-1.196.161c.776-.098,1.54-.098,2.317-.007l-1.196-.161c.452.066.892.159,1.332.276,2.272.605,4.993-.76,5.536-3.143.538-2.362-.709-4.887-3.143-5.536-2.372-.632-4.84-.67-7.215-.027-2.003.542-4.03,1.402-5.471,2.934-1.644,1.748-2.947,4.006-3.559,6.329-.711,2.7-.473,5.369.73,7.883.989,2.067,2.958,3.708,4.918,4.812,2.126,1.198,4.581,2.224,7.066,1.948,3.207-.357,5.743-1.961,7.665-4.517,1.197-1.592,2.018-3.582,2.32-5.553.364-2.377.378-4.863-.49-7.148-.985-2.594-2.515-4.713-4.889-6.206-1.996-1.255-5.047-.486-6.157,1.614-1.171,2.216-.516,4.817,1.614,6.157h0Z" style="fill:#fff;"/></svg>