<?xml version="1.0" encoding="UTF-8"?><svg id="_레이어_2" xmlns="http://www.w3.org/2000/svg" viewBox="0 0 203.454 191.935"><g id="_레이어_1-2"><g><path d="m36.857,43.396c-5.851,4.919-11.285,10.318-16.245,16.134-4.918,5.766-9.582,11.887-13.104,18.62-3.788,7.243-5.93,14.894-6.868,22.992-.918,7.917-.761,16.004-.077,23.934.701,8.117,2.037,16.211,4.26,24.054,2.1,7.411,4.838,14.845,9.815,20.834,4.775,5.746,11.847,8.959,18.653,11.62,6.169,2.412,12.582,4.186,19.049,5.593,14.304,3.112,29.04,4.596,43.67,4.747,1.715.018,3.43.014,5.146-.009,2.353-.031,4.61-2.048,4.5-4.5-.108-2.412-1.978-4.533-4.5-4.5-6.886.09-13.774-.145-20.638-.689-3.582-.284-7.158-.653-10.722-1.11-.085-.011-1.493-.2-.508-.065-.425-.058-.85-.118-1.274-.178-.847-.121-1.692-.247-2.537-.379-1.676-.261-3.349-.544-5.017-.849-6.478-1.186-12.91-2.702-19.176-4.741-1.423-.463-2.836-.954-4.238-1.477-.681-.254-1.358-.516-2.033-.786-.332-.133-.662-.27-.993-.405,1.083.441-.35-.153-.545-.238-3.112-1.368-6.165-2.894-8.916-4.907.714.522-.405-.329-.441-.36-.332-.279-.657-.566-.974-.861-.614-.572-1.198-1.176-1.75-1.808-.265-.304-.523-.614-.773-.93.595.755-.213-.313-.266-.389-.55-.782-1.062-1.591-1.541-2.418-.769-1.327-1.426-2.702-2.069-4.093-.579-1.253.306.807-.206-.479-.157-.393-.315-.786-.467-1.182-.355-.924-.688-1.856-1.006-2.794-1.241-3.658-2.269-7.389-3.112-11.158-.376-1.679-.714-3.367-1.017-5.061-.165-.926-.32-1.854-.465-2.783-.072-.465-.142-.931-.209-1.397-.045-.311-.088-.622-.131-.933.057.418.05.349-.023-.206-.907-7.638-1.31-15.35-.951-23.04.087-1.868.225-3.734.43-5.593.051-.463.104-.926.165-1.388-.115.878.098-.633.1-.646.142-.917.302-1.831.483-2.741.36-1.812.8-3.609,1.335-5.378.256-.845.533-1.684.832-2.515.147-.41.299-.818.457-1.224.055-.143.698-1.699.368-.933,1.53-3.553,3.426-6.942,5.539-10.179,1.086-1.664,2.231-3.288,3.419-4.88,1.067-1.431,1.858-2.43,3.36-4.244,5.315-6.418,11.197-12.354,17.575-17.716,1.809-1.521,1.685-4.817,0-6.364-1.924-1.766-4.435-1.622-6.364,0h0Z" style="fill:#fff;"/><path d="m43.925,44.307c-.832-1.1-1.575-2.259-2.214-3.482-.27-.516-.513-1.043-.755-1.572.474,1.031-.011-.043-.08-.226-.168-.441-.325-.886-.471-1.334-.407-1.247-.73-2.521-.975-3.81-.067-.355-.124-.711-.184-1.067-.144-.845-.006-.033.011.121-.094-.843-.174-1.685-.214-2.532-.063-1.333-.048-2.67.044-4.001.025-.363.056-.725.092-1.086.02-.199.197-1.408.016-.244.111-.714.229-1.426.379-2.133.271-1.281.62-2.546,1.049-3.784.116-.334.247-.662.365-.995.394-1.113-.412.844.086-.221.295-.63.59-1.258.922-1.87.328-.604.68-1.195,1.056-1.77.223-.341.459-.672.693-1.005.745-1.059-.577.576.305-.373.463-.498.903-1.008,1.402-1.473.071-.066,1.092-.918.329-.334.426-.326.884-.618,1.351-.881-.063.036,1.111-.558.583-.319-.539.244.763-.258.687-.233.415-.13.837-.239,1.263-.332.073-.016,1.485-.25.53-.124,1.748-.232,3.538-.198,5.296-.163,1.644.033,3.29.087,4.927.251.058.006,1.505.216.578.064.439.072.878.147,1.313.24.872.185,1.708.454,2.561.707,1.273.377-.627-.37.568.22.35.173.697.346,1.036.539.564.32,1.098.681,1.628,1.054-.815-.574.199.177.301.266.293.256.578.521.856.793.558.549,1.073,1.134,1.574,1.735-.634-.76.171.238.242.34.302.428.589.866.862,1.312.41.668.787,1.355,1.136,2.057.202.407.396.819.578,1.236-.284-.652.337.886.39,1.033.311.855.589,1.721.843,2.595.574,1.972,1.019,3.978,1.413,5.993.073.373.146.746.214,1.119.05.264.096.529.139.794-.065-.523-.071-.517-.017.018.001.403.04.798,0,1.202.08-.547.062-.564-.056-.05.221-.475.202-.484-.055-.028-1.235,2.008-.501,5.039,1.614,6.157,2.198,1.161,4.839.529,6.157-1.614,2.434-3.957,1-8.919.016-13.116-.941-4.015-2.29-8.04-4.399-11.603-2.017-3.407-4.734-6.402-8.065-8.56-3.614-2.342-7.869-3.213-12.098-3.563-4.102-.34-8.434-.463-12.476.417-4.265.928-7.822,3.567-10.454,6.974-4.352,5.633-6.479,12.594-6.781,19.665-.318,7.464,1.561,15.512,6.118,21.538,1.415,1.871,3.947,3.039,6.157,1.614,1.85-1.193,3.133-4.149,1.614-6.157h0Z" style="fill:#fff;"/><path d="m9.258,89.098c2.495.763,4.965,1.606,7.402,2.54.632.242,1.262.489,1.889.743.28.113.559.227.838.342.207.085.623.262.179.073,1.258.535,2.506,1.096,3.744,1.676,4.924,2.308,9.678,4.96,14.264,7.881,1.989,1.267,5.051.478,6.157-1.614,1.176-2.226.508-4.805-1.614-6.157-9.471-6.033-19.722-10.875-30.467-14.162-2.251-.688-5.006.819-5.536,3.143-.554,2.434.733,4.798,3.143,5.536h0Z" style="fill:#fff;"/><path d="m8.495,127.776c.587-.255,1.174-.51,1.764-.76-.52.221.385-.16.474-.197.295-.122.591-.244.887-.364,1.255-.511,2.517-1.004,3.788-1.472,2.507-.922,5.053-1.746,7.644-2.396,1.198-.3,2.405-.563,3.621-.781.377-.067.758-.116,1.134-.188.753-.143-.594.058.165-.027.605-.068,1.21-.135,1.817-.182,1.285-.099,2.576-.137,3.865-.103.683.018,1.366.057,2.047.117.304.027.606.063.91.092.828.079-1.043-.166.396.063,2.315.368,4.955-.594,5.536-3.143.492-2.158-.657-5.14-3.143-5.536-12.47-1.984-24.167,2.202-35.447,7.105-2.167.942-2.823,4.282-1.614,6.157,1.449,2.248,3.838,2.622,6.157,1.614h0Z" style="fill:#fff;"/><path d="m13.865,156.573c10.173-6.009,20.142-12.356,29.906-19.008,1.942-1.323,2.994-4.017,1.614-6.157-1.246-1.933-4.076-3.032-6.157-1.614-9.764,6.652-19.734,12.998-29.906,19.008-2.027,1.197-2.936,4.108-1.614,6.157s3.988,2.896,6.157,1.614h0Z" style="fill:#fff;"/><path d="m102.328,105.383c-3.796.135-7.599.344-11.379.725-3.864.39-7.799,1.373-9.988,4.912-2.586,4.18-.639,9.082,2.141,12.555,2.049,2.56,4.751,4.716,7.675,6.196,3.592,1.819,7.515,2.834,11.551,2.841,2.354.004,4.609-2.073,4.5-4.5-.109-2.442-1.977-4.495-4.5-4.5-.614-.001-1.227-.023-1.839-.078-.141-.013-.282-.028-.423-.042-.781-.075.274.024.354.049-.307-.094-.659-.111-.975-.176-.601-.124-1.197-.274-1.784-.451-.317-.095-.631-.199-.942-.309-.134-.047-.267-.096-.399-.145-.151-.057-.939-.375-.251-.091.663.274-.212-.106-.367-.181-.298-.143-.593-.293-.884-.451-.581-.315-1.149-.656-1.698-1.025-.235-.158-.465-.324-.696-.488-.259-.183-.459-.513.236.188-.097-.098-.223-.18-.329-.269-.508-.423-.995-.87-1.458-1.341-.411-.417-.771-1.017-1.229-1.37,0,0,.536.749.263.342-.109-.163-.228-.319-.337-.483-.191-.29-.371-.588-.533-.894-.079-.149-.162-.415-.263-.533.024.028.286.843.18.393-.064-.272-.151-.566-.237-.832-.182-.563.026.946.042.361.004-.135-.005-.281-.011-.415-.007-.142.05-.658-.027.051-.095.884.113-.177.112-.205-.003-.068-.193.898-.161.453.008-.114.178-.199.194-.308.011-.069-.597.84-.326.453.114-.162.57-.457-.019-.043-.64.45.072-.026.23-.116.105-.06.215-.11.319-.17.723-.412-.746.239-.28.124.534-.132,1.048-.314,1.592-.418.251-.048.508-.075.758-.125-.05.01-1.185.136-.44.067.166-.015.331-.034.497-.049,3.701-.351,7.417-.57,11.132-.702,2.35-.083,4.612-2.01,4.5-4.5-.106-2.367-1.98-4.589-4.5-4.5h0Z" style="fill:#fff;"/><path d="m97.861,128.113c.009,4.873.019,9.746.028,14.619.005,2.389.073,4.79-.025,7.177-.025.617-.055,1.239-.135,1.852.101-.775-.156.69-.197.855-.111.455-.252.895-.404,1.338.321-.938-.263.487-.379.683-.132.222-.273.438-.423.648.314-.4.305-.407-.029-.02-.242.211-.888.712-.252.293-.177.117-1.545.749-.851.496-.557.203-1.13.358-1.7.516-.991.275-1.985.563-2.993.773-.287.061-.575.115-.865.161.47-.068.432-.077-.115-.028-.533-.017-1.056.007-1.589-.058,1.028.125-.119-.068-.345-.126-.508-.131-1.005-.298-1.495-.486.931.356-.565-.299-.73-.388-.476-.256-.941-.534-1.395-.826-.345-.222-.684-.452-1.019-.689-.224-.159-.446-.321-.666-.486.363.287.339.268-.07-.055-.85-.688-1.683-1.394-2.507-2.113-1.773-1.546-4.643-1.875-6.364,0-1.556,1.695-1.895,4.712,0,6.364,3.163,2.757,6.407,5.352,10.359,6.871,4.211,1.619,8.419.843,12.614-.355,2.256-.644,4.356-1.6,6.075-3.229,1.645-1.559,2.739-3.621,3.48-5.737,1.45-4.14,1.027-8.873,1.018-13.186l-.029-14.863c-.005-2.354-2.067-4.609-4.5-4.5s-4.505,1.977-4.5,4.5h0Z" style="fill:#fff;"/><path d="m82.861,119.064c-4.192,1.862-7.565,5.163-10.716,8.413-3.292,3.394-6.5,6.869-9.621,10.421-6.395,7.274-12.539,14.852-18.119,22.772-3.218,4.568-5.646,9.409-6.291,15.012-.27,2.347,2.263,4.6,4.5,4.5,2.669-.12,4.211-1.986,4.5-4.5-.097.846.089-.444.142-.691.104-.482.228-.959.37-1.432s.303-.939.478-1.4c.04-.105.386-.912.175-.444-.181.401.179-.362.213-.432.902-1.877,2.011-3.647,3.19-5.361,1.272-1.849,2.62-3.648,3.969-5.441.652-.867,1.309-1.731,1.972-2.59-.063.082-.306.395.008-.009.19-.245.381-.489.572-.734.382-.489.765-.976,1.15-1.462,5.631-7.109,11.595-13.954,17.866-20.505,1.597-1.668,3.192-3.349,4.912-4.893.415-.372.839-.733,1.27-1.088.677-.558.226-.174.075-.063.279-.204.56-.405.847-.599.978-.66,2.004-1.224,3.081-1.702,2.159-.959,2.83-4.271,1.614-6.157-1.441-2.234-3.847-2.64-6.157-1.614h0Z" style="fill:#fff;"/><path d="m80.926,39.187l10.226-1.239c1.624-.197,3.251-.431,4.886-.515.739-.038,1.469-.015,2.207.005,1.046.028-.677-.194.265.018.489.11.969.217,1.449.364,2.251.689,5.006-.82,5.536-3.143.555-2.435-.733-4.798-3.143-5.536-3.571-1.093-7.178-.68-10.807-.24l-10.619,1.287c-1.236.15-2.267.403-3.182,1.318-.78.78-1.368,2.061-1.318,3.182.098,2.195,1.997,4.803,4.5,4.5h0Z" style="fill:#fff;"/><path d="m160.263,49.76c5.792,4.87,11.176,10.21,16.096,15.959,1.188,1.388,2.349,2.798,3.482,4.231.036.045.891,1.139.335.42.259.335.514.672.769,1.01.596.792,1.181,1.592,1.754,2.4,2.061,2.909,3.964,5.935,5.606,9.102.397.765.779,1.538,1.143,2.319.183.392.357.787.536,1.18.585,1.287-.298-.797.221.521.703,1.785,1.345,3.586,1.868,5.432.462,1.631.847,3.283,1.165,4.948.174.912.32,1.829.464,2.746.235,1.499-.086-.861.088.649.071.618.143,1.235.204,1.854.764,7.782.569,15.705-.157,23.483-.376,4.032-.746,6.739-1.545,10.927-.73,3.831-1.646,7.627-2.766,11.362-.47,1.569-.974,3.13-1.524,4.673-.285.799-.582,1.593-.897,2.381-.026.066-.572,1.347-.195.486-.224.514-.454,1.025-.695,1.531-1.602,3.373-3.063,5.703-5.245,7.887-.615.615-1.266,1.187-1.935,1.742-1.056.876.68-.424-.455.337-.355.238-.701.49-1.058.725-1.542,1.012-3.167,1.89-4.825,2.695-.76.369-1.529.722-2.301,1.065-.333.148-.669.292-1.003.439,1.074-.471.004-.003-.184.074-1.414.579-2.845,1.118-4.286,1.625-5.966,2.098-12.117,3.659-18.313,4.909-3.804.767-7.633,1.412-11.476,1.954-.099.014-1.482.204-.475.069-.558.075-1.117.147-1.677.217-.98.123-1.961.24-2.943.35-1.964.221-3.931.416-5.9.587-7.64.664-15.313.965-22.982.864-2.355-.031-4.608,2.092-4.5,4.5.11,2.465,1.977,4.467,4.5,4.5,14.517.191,29.098-.997,43.395-3.522,6.689-1.181,13.337-2.694,19.811-4.761,6.388-2.039,13.074-4.509,18.585-8.396,6.709-4.732,10.643-11.489,13.444-19.068,2.748-7.437,4.522-15.254,5.608-23.099,1.143-8.257,1.682-16.6,1.367-24.935-.306-8.098-1.479-16.286-4.564-23.823-2.999-7.325-7.219-13.84-12.076-20.061-4.751-6.085-10.002-11.785-15.697-16.997-1.439-1.317-2.909-2.601-4.402-3.856-1.8-1.513-4.623-1.896-6.364,0-1.532,1.669-1.924,4.746,0,6.364h0Z" style="fill:#fff;"/><path d="m167.33,48.85c4.106-5.428,5.964-12.44,6.139-19.172s-1.409-13.764-4.988-19.487c-2.114-3.381-4.993-6.637-8.703-8.28-4.102-1.817-8.482-1.948-12.902-1.819-4.467.131-8.858.656-12.967,2.498-3.663,1.643-6.561,4.484-8.925,7.665-2.655,3.573-4.304,7.899-5.426,12.177-.551,2.103-1.015,4.243-1.369,6.389-.472,2.855-.578,5.709,1.002,8.277,1.233,2.004,4.082,2.952,6.157,1.614,2.011-1.296,2.934-4.012,1.614-6.157l-.206-.335c.185.488.202.484.051-.01l.045.423c-.021-.266-.027-.532-.019-.798.003-.14.156-1.454.002-.422.062-.416.145-.829.223-1.242.34-1.793.716-3.581,1.179-5.347.424-1.617.938-3.199,1.528-4.762.511-1.357-.369.711.256-.598.131-.274.257-.55.392-.822.406-.819.853-1.618,1.343-2.39.21-.331.429-.658.655-.979-.017.023.761-.988.352-.487s.415-.476.394-.452c.257-.294.522-.581.795-.86.544-.556,1.12-1.08,1.727-1.568-.651.523-.123.097.021.007.438-.277.86-.572,1.312-.828.339-.192.686-.366,1.036-.539,1.196-.59-.705.158.568-.22.71-.21,1.405-.444,2.128-.612.434-.101.872-.172,1.307-.263,1.396-.291-.85.059.572-.089.893-.093,1.787-.165,2.684-.211,1.776-.09,3.563-.138,5.341-.097.738.017,1.471.067,2.206.125,1.361.107-.781-.23.54.084.567.135,1.133.244,1.69.418-.077-.024,1.226.477.687.233-.528-.239.646.355.583.319.353.199.685.424,1.024.645,1.025.669-.512-.569.357.297.48.479.982.929,1.434,1.437.058.065.912,1.103.329.353.332.428.64.88.936,1.333.693,1.06,1.303,2.172,1.834,3.322.083.179.504,1.268.101.212.126.33.257.656.376.988.241.669.458,1.346.651,2.029.36,1.271.622,2.561.84,3.863.202,1.205-.079-.978.031.241.033.362.075.723.104,1.085.058.726.093,1.453.104,2.181.026,1.578-.071,3.148-.248,4.716.132-1.171-.013.038-.046.236-.079.474-.169.946-.269,1.416-.15.7-.323,1.396-.52,2.084-.228.795-.489,1.582-.784,2.355-.07.182-.554,1.257-.08.226-.17.37-.337.741-.519,1.107-.692,1.392-1.513,2.708-2.451,3.948-1.426,1.885-.361,5.113,1.614,6.157,2.37,1.252,4.635.398,6.157-1.614h0Z" style="fill:#fff;"/><path d="m191.54,80.42c-11.394,3.257-22.333,8.1-32.508,14.162-2.022,1.205-2.939,4.102-1.614,6.157,1.312,2.035,3.993,2.904,6.157,1.614,4.925-2.934,10.015-5.585,15.267-7.886.28-.123.56-.243.84-.365l.42-.18c-.303.128-.311.132-.022.011.632-.261,1.264-.52,1.9-.772,1.265-.502,2.538-.984,3.819-1.445,2.681-.966,5.395-1.835,8.135-2.618,2.262-.647,3.896-3.207,3.143-5.536-.745-2.302-3.111-3.836-5.536-3.143h0Z" style="fill:#fff;"/><path d="m198.457,119.551c-11.696-4.754-23.846-8.552-36.593-6.651-2.336.348-3.829,3.417-3.143,5.536.825,2.55,3.032,3.516,5.536,3.143l.46-.069c-.352.049-.367.055-.045.016.307-.021.614-.064.921-.09.69-.059,1.381-.099,2.073-.121,1.381-.044,2.765-.015,4.144.078.691.046,1.381.109,2.07.186.242.027,1.044.134.412.044.307.044.613.091.918.14,1.461.236,2.913.533,4.353.876,5.66,1.348,11.121,3.404,16.502,5.592,2.187.889,5.039-.964,5.536-3.143.595-2.611-.801-4.584-3.143-5.536h0Z" style="fill:#fff;"/><path d="m194.838,148.802c-11.205-5.992-22.218-12.337-33.033-19.008-2.006-1.237-5.04-.499-6.157,1.614-1.162,2.2-.527,4.836,1.614,6.157,10.815,6.671,21.828,13.015,33.033,19.008,2.075,1.11,4.992.589,6.157-1.614,1.104-2.089.602-4.971-1.614-6.157h0Z" style="fill:#fff;"/><path d="m101.156,114.383c3.297.117,6.59.311,9.877.591.652.056,1.35.201,2.002.189.055-.001-1.057-.163-.565-.076.126.022.253.039.379.061.336.058.67.126,1.001.21.245.062.484.141.726.212.728.213-.878-.5-.056-.027.205.118.408.257.616.367.483.255-.767-.624-.36-.26.133.119.466.556.045-.018-.424-.578-.137-.195-.07-.068.233.445-.088.084-.1-.346.002.092.08.313.119.398.18.389-.067-.45-.048-.519-.037.137-.058,1.345.034.51.082-.738-.121.302-.179.514-.111.403-.337.342.132-.255-.083.105-.133.281-.195.401-.136.265-.283.524-.441.777-.177.284-.428.556-.584.851,0,0,.583-.702.259-.351-.16.173-.304.362-.461.538-.408.458-.838.897-1.287,1.315-.207.193-.418.382-.633.566-.108.092-.217.181-.325.273-.733.625.593-.416.129-.094-1.053.732-2.108,1.421-3.263,1.986-.325.159-1.426.506-.218.126-.313.099-.617.243-.927.353-.668.236-1.347.439-2.036.606-.367.089-.737.168-1.108.236-.139.026-.28.044-.419.072-.567.112,1.045-.107.215-.026-.754.073-1.504.119-2.262.12-2.354.004-4.609,2.067-4.5,4.5s1.977,4.505,4.5,4.5c6.903-.013,13.884-2.99,18.497-8.169,2.741-3.077,5.107-7.393,3.677-11.62-1.325-3.916-4.945-5.929-8.847-6.469-4.405-.61-8.886-.814-13.328-.972-2.355-.084-4.606,2.13-4.5,4.5.112,2.51,1.977,4.41,4.5,4.5h0Z" style="fill:#fff;"/><path d="m96.693,128.113l-.025,13.157c-.009,4.462-.374,9.128.621,13.513,1.046,4.608,4.057,8.201,8.471,9.869,4.007,1.514,8.584,2.418,12.787,1.265,4.511-1.238,8.209-4.293,11.665-7.305,1.78-1.552,1.707-4.797,0-6.364-1.898-1.742-4.465-1.655-6.364,0-.824.718-1.657,1.425-2.507,2.113-.409.323-.432.342-.07.055-.22.165-.442.327-.666.486-.335.237-.674.468-1.019.689-.455.292-.919.57-1.395.826-.166.089-1.661.745-.73.388-.429.164-.863.312-1.306.434-.216.059-1.594.307-.534.178-.532.065-1.056.041-1.589.058-.547-.05-.585-.04-.115.028-.29-.046-.578-.099-.865-.161-1.008-.213-2.001-.498-2.993-.773-.57-.158-1.144-.313-1.7-.516.735.268-.547-.331-.689-.391-.266-.178-.22-.135.141.131-.194-.167-.379-.343-.554-.528-.333-.386-.343-.38-.029.02-.15-.21-.291-.426-.423-.648-.117-.195-.7-1.62-.379-.683-.126-.368-.25-.736-.349-1.112-.043-.162-.352-1.846-.252-1.08-.08-.612-.11-1.235-.135-1.852-.098-2.388-.03-4.788-.025-7.177.009-4.873.019-9.746.028-14.619.005-2.354-2.073-4.609-4.5-4.5-2.442.109-4.495,1.977-4.5,4.5h0Z" style="fill:#fff;"/><path d="m116.081,126.835c.887.394,1.741.842,2.562,1.361.409.259.794.554,1.199.818.591.384-.463-.398.08.055.214.178.432.351.644.531,1.558,1.319,2.99,2.777,4.41,4.241,3.184,3.283,6.289,6.642,9.314,10.072,2.974,3.372,5.869,6.812,8.683,10.319.679.846,1.354,1.696,2.023,2.55.335.427.669.855,1.001,1.284-.366-.473.106.139.149.194.188.246.377.492.565.739,1.388,1.82,2.763,3.653,4.098,5.512s2.633,3.781,3.705,5.818c.266.505.502,1.021.751,1.534-.324-.665-.01-.038.041.099.124.33.248.66.36.995.179.534.336,1.075.469,1.623.05.206.097.412.139.619.017.083.206,1.426.097.484.268,2.33,1.877,4.617,4.5,4.5,2.207-.099,4.788-1.995,4.5-4.5-1.137-9.876-8.096-17.723-14.011-25.264-5.884-7.502-12.137-14.714-18.73-21.601-3.545-3.703-7.244-7.637-12.007-9.753-2.146-.953-4.936-.696-6.157,1.614-1.034,1.958-.682,5.137,1.614,6.157h0Z" style="fill:#fff;"/><path d="m96.656,37.586v25.446c0,2.354,2.07,4.609,4.5,4.5s4.5-1.977,4.5-4.5v-25.446c0-2.354-2.07-4.609-4.5-4.5s-4.5,1.977-4.5,4.5h0Z" style="fill:#fff;"/><path d="m122.558,30.187l-11.234-1.287c-3.819-.437-7.6-.849-11.364.24-2.26.654-3.898,3.202-3.143,5.536.743,2.296,3.113,3.844,5.536,3.143.442-.128.901-.201,1.341-.328.333-.058.256-.053-.232.015.258-.029.516-.052.775-.068.777-.05,1.557-.042,2.335-.005,1.729.083,3.45.318,5.169.515l10.818,1.239c2.347.269,4.6-2.262,4.5-4.5-.119-2.668-1.985-4.212-4.5-4.5h0Z" style="fill:#fff;"/><path d="m38.833,32.746c2.803-1.512,5.607-3.025,8.447-4.467,1.349-.684,2.706-1.353,4.074-1.997.72-.339,1.444-.671,2.17-.996.351-.157.703-.311,1.056-.465l.421-.181c-.301.128-.307.132-.018.013,2.756-1.112,5.576-2.074,8.505-2.611.101-.018,1.231-.2.785-.137-.39.056.831-.089.805-.087.782-.077,1.566-.129,2.351-.168,1.572-.077,3.146-.091,4.719-.106,2.353-.022,4.61-2.054,4.5-4.5-.108-2.419-1.978-4.524-4.5-4.5-3.557.034-7.085.151-10.602.739-3.084.516-6.067,1.51-8.955,2.689-6.306,2.575-12.312,5.768-18.3,8.999-2.074,1.119-2.9,4.162-1.614,6.157,1.358,2.106,3.938,2.811,6.157,1.614h0Z" style="fill:#fff;"/><path d="m129.254,23.632c1.722.025,3.442.108,5.157.27.468.044.934.098,1.401.148l.466.056c-.342-.049-.353-.05-.032-.004.852.128,1.703.262,2.551.42,3.389.63,6.721,1.545,9.963,2.715.732.264,1.46.541,2.183.828.434.172.868.347,1.299.528-.642-.27.661.292.644.284,1.573.693,3.126,1.43,4.667,2.193,3.09,1.53,6.123,3.169,9.156,4.808,2.07,1.119,4.996.583,6.157-1.614,1.108-2.097.597-4.962-1.614-6.157-6.529-3.528-13.102-7.022-20.098-9.549s-14.462-3.818-21.9-3.926c-2.355-.034-4.608,2.094-4.5,4.5.111,2.467,1.977,4.463,4.5,4.5h0Z" style="fill:#fff;"/><path d="m91.799,54.872c.465-.327.947-.585,1.438-.866-.705.403.343-.123.488-.17.943-.308,1.918-.511,2.895-.675.291-.048.582-.093.874-.135-.436.059-.378.055.174-.013.458-.043.916-.094,1.375-.13,1.071-.084,2.145-.129,3.219-.134,4.502-.022,7.495.433,11.958,1.787,2.252.683,5.005-.816,5.536-3.143.553-2.43-.731-4.804-3.143-5.536-4.769-1.447-9.825-2.18-14.811-2.104-4.804.073-10.493.503-14.544,3.346-1.922,1.349-3.007,3.997-1.614,6.157,1.231,1.909,4.096,3.061,6.157,1.614h0Z" style="fill:#fff;"/><path d="m87.249,72.984c2.682-.913,5.393-1.744,8.156-2.373,1.376-.313,2.766-.588,4.164-.779-.698.095.307-.028.431-.041.387-.041.775-.077,1.163-.106.697-.053,1.396-.087,2.095-.101,1.403-.028,2.783.08,4.18.178.759.053-.559-.116.191.024.383.071.77.128,1.152.204.69.138,1.373.302,2.054.479,2.87.748,5.711,1.624,8.561,2.446,2.261.652,5-.793,5.536-3.143.547-2.402-.722-4.837-3.143-5.536-6.093-1.758-12.106-3.781-18.53-3.653-6.294.125-12.475,1.703-18.401,3.722-2.224.757-3.922,3.127-3.143,5.536.714,2.207,3.15,3.956,5.536,3.143h0Z" style="fill:#fff;"/><path d="m68.931,8.521c-2.93-.925-6.008-.878-9.036-.656-3.148.23-6.316.485-9.417,1.101-3.161.628-6.211,1.718-8.76,3.723-2.205,1.735-3.757,4.186-5.034,6.651-1.082,2.089-.609,4.982,1.614,6.157,2.065,1.091,5.001.617,6.157-1.614.5-.966,1.067-1.875,1.624-2.806.305-.42.309-.442.012-.065.167-.209.34-.413.519-.611.356-.391.736-.778,1.155-1.102-.747.577.732-.362.896-.451.488-.228.541-.255.162-.082.281-.106.563-.205.848-.298,1.196-.393,2.425-.685,3.662-.913.159-.029,1.851-.292,1.141-.197.626-.084,1.256-.146,1.885-.207,1.251-.12,2.506-.215,3.76-.304,1.208-.086,2.42-.164,3.632-.13.176.005,1.876.186,1.043.046.594.1,1.169.254,1.742.435,2.245.708,5.01-.834,5.536-3.143.558-2.452-.739-4.777-3.143-5.536h0Z" style="fill:#fff;"/><path d="m134.839,18.208c.299-.168.599-.333.905-.486.073-.036.829-.394.395-.201-.5.222.508-.187.607-.222.258-.09.518-.174.78-.252.658-.196,1.323-.34,1.994-.477.407-.083.477-.076.023-.022.341-.04.683-.07,1.025-.093.617-.041,1.236-.053,1.854-.038.344.009.687.027,1.03.053.087.007.942.08.428.026-.585-.061.514.086.626.107.27.051.54.107.808.168.663.152,1.318.337,1.963.553.247.083.491.177.737.262.801.277-.28-.159.189.067.528.255,1.059.497,1.575.778,1.035.562,2.004,1.211,2.961,1.896-.703-.503.027.03.166.146.251.209.499.422.743.64.439.393.863.801,1.275,1.222s.811.854,1.195,1.301c.171.198.337.401.504.602.824.995-.513-.707.251.333,1.39,1.891,3.967,3.027,6.157,1.614,1.961-1.264,2.997-4.053,1.614-6.157-2.79-4.246-5.64-8.452-8.551-12.616-1.346-1.925-4-3.005-6.157-1.614-1.913,1.233-3.057,4.093-1.614,6.157,2.911,4.164,5.761,8.37,8.551,12.616l7.771-4.542c-3.826-5.205-8.793-9.307-14.975-11.383-6.339-2.128-13.551-1.484-19.375,1.79-2.053,1.154-2.916,4.138-1.614,6.157,1.339,2.077,3.96,2.849,6.157,1.614h0Z" style="fill:#fff;"/><path d="m65.712,79.907c.958.603-.591-.585-.052-.082.205.191.412.375.602.582.33.361.326.693-.178-.262.128.243.314.465.451.707.211.373.436,1.241.005-.124.064.203.154.398.22.601.179.548.299,1.11.384,1.68l-.161-1.196c.12.943.121,1.88.006,2.824l.161-1.196c-.096.667-.244,1.321-.459,1.96-.039.116-.356.906-.042.168s-.032.042-.086.149c-.171.335-.361.661-.573.972-.087.128-.456.624-.021.046.469-.622-.05.017-.141.109-.117.12-.242.23-.362.346-.549.528.674-.424.214-.166-.146.082-.283.182-.429.264-.717.403.169.074.28-.076-.165.223-.95.28-1.206.326l1.196-.161c-.503.065-.987.071-1.491.01l1.196.161c-.444-.077-.852-.208-1.282-.342-.757-.235.707.334.214.093-.185-.09-.373-.172-.558-.263-.699-.342-1.337-.752-1.993-1.166-.422-.266.871.761.246.185-.117-.108-.239-.211-.354-.322-.143-.138-.269-.291-.41-.43-.368-.367.568.897.196.255-.1-.172-.212-.336-.306-.512-.237-.445-.004-.551.108.291-.052-.39-.219-.779-.279-1.175l.161,1.196c-.074-.653-.061-1.29.023-1.941l-.161,1.196c.079-.494.188-.978.342-1.455.078-.241.179-.473.26-.712-.406,1.211-.188.463-.028.152.233-.45.495-.884.783-1.301.245-.354.709-.657-.107.12.176-.167.322-.375.496-.547l.177-.169c.354-.303.242-.218-.337.255l.206-.126c.447-.226.28-.162-.502.192.305-.103.601-.239.904-.349.751-.273,1.515-.478,2.305-.597l-1.196.161c.818-.104,1.624-.104,2.443-.008l-1.196-.161c.476.07.94.167,1.405.291,2.272.605,4.993-.76,5.536-3.143.538-2.362-.709-4.887-3.143-5.536-2.458-.655-5.015-.695-7.477-.029-2.071.56-4.17,1.446-5.66,3.031-3.68,3.913-5.33,9.701-2.944,14.688,1.026,2.145,3.064,3.84,5.097,4.985,2.207,1.243,4.748,2.308,7.326,2.02,3.287-.367,5.899-2.022,7.87-4.642,1.251-1.663,2.106-3.738,2.421-5.796.814-5.317-.821-10.823-5.558-13.804-1.996-1.255-5.047-.486-6.157,1.614-1.171,2.216-.516,4.817,1.614,6.157h0Z" style="fill:#fff;"/><path d="m142.074,79.907c.958.603-.591-.585-.052-.082.205.191.412.375.602.582.33.361.326.693-.178-.262.128.243.314.465.451.707.211.373.436,1.241.005-.124.064.203.154.398.22.601.179.548.299,1.11.384,1.68l-.161-1.196c.12.943.121,1.88.006,2.824l.161-1.196c-.096.667-.244,1.321-.459,1.96-.039.116-.356.906-.042.168s-.032.042-.086.149c-.171.335-.361.661-.573.972-.087.128-.456.624-.021.046.469-.622-.05.017-.141.109-.117.12-.242.23-.362.346-.549.528.674-.424.214-.166-.146.082-.283.182-.429.264-.717.403.169.074.28-.076-.165.223-.95.28-1.206.326l1.196-.161c-.503.065-.987.071-1.491.01l1.196.161c-.444-.077-.852-.208-1.282-.342-.757-.235.707.334.214.093-.185-.09-.373-.172-.558-.263-.699-.342-1.337-.752-1.993-1.166-.422-.266.871.761.246.185-.117-.108-.239-.211-.354-.322-.143-.138-.269-.291-.41-.43-.368-.367.568.897.196.255-.1-.172-.212-.336-.306-.512-.237-.445-.004-.551.108.291-.052-.39-.219-.779-.279-1.175l.161,1.196c-.074-.653-.061-1.29.023-1.941l-.161,1.196c.079-.494.188-.978.342-1.455.078-.241.179-.473.26-.712-.406,1.211-.188.463-.028.152.233-.45.495-.884.783-1.301.245-.354.709-.657-.107.12.176-.167.322-.375.496-.547l.177-.169c.354-.303.242-.218-.337.255l.206-.126c.447-.226.28-.162-.502.192.305-.103.601-.239.904-.349.751-.273,1.515-.478,2.305-.597l-1.196.161c.818-.104,1.624-.104,2.443-.008l-1.196-.161c.476.07.94.167,1.405.291,2.272.605,4.993-.76,5.536-3.143.538-2.362-.709-4.887-3.143-5.536-2.458-.655-5.015-.695-7.477-.029-2.071.56-4.17,1.446-5.66,3.031-3.68,3.913-5.33,9.701-2.944,14.688,1.026,2.145,3.064,3.84,5.097,4.985,2.207,1.243,4.748,2.308,7.326,2.02,3.287-.367,5.899-2.022,7.87-4.642,1.251-1.663,2.106-3.738,2.421-5.796.814-5.317-.821-10.823-5.558-13.804-1.996-1.255-5.047-.486-6.157,1.614-1.171,2.216-.516,4.817,1.614,6.157h0Z" style="fill:#fff;"/></g></g></svg>