<svg xmlns="http://www.w3.org/2000/svg" viewBox="0 0 1080 1080"><defs><style>.cls-1{fill:#fff;}</style></defs><g id="레이어_2" data-name="레이어 2"><path class="cls-1" d="M540,1026a90.1,90.1,0,0,1-90-90V738H144a90.1,90.1,0,0,1-90-90V144a90.1,90.1,0,0,1,90-90H936a90.1,90.1,0,0,1,90,90V648a90.1,90.1,0,0,1-90,90H630V936A90.1,90.1,0,0,1,540,1026ZM846,558V486H630v72Zm-396,0V486H234v72ZM846,306V234H630v72Zm-396,0V234H234v72Z"/><path d="M936,72a72.212,72.212,0,0,1,72,72V648a72.212,72.212,0,0,1-72,72H612V936a72,72,0,0,1-144,0V720H144a72.212,72.212,0,0,1-72-72V144a72.212,72.212,0,0,1,72-72H936M612,324H864V216H612V324m-396,0H468V216H216V324M612,576H864V468H612V576m-396,0H468V468H216V576M936,36H144A108.123,108.123,0,0,0,36,144V648A108.123,108.123,0,0,0,144,756H432V936a108,108,0,0,0,216,0V756H936a108.123,108.123,0,0,0,108-108V144A108.123,108.123,0,0,0,936,36ZM648,252H828v36H648V252Zm-396,0H432v36H252V252ZM648,504H828v36H648V504Zm-396,0H432v36H252V504Z"/></g></svg>