<?xml version="1.0" encoding="UTF-8"?><svg id="_레이어_1" xmlns="http://www.w3.org/2000/svg" viewBox="0 0 200 200"><path d="m39.474,43.978c-11.519,1.424-21.619,7.737-29.047,16.538-4.123,4.885-8.726,11.657-4.468,17.976,1.597,2.37,3.922,4.086,6.509,5.247,3.326,1.492,6.898,2.729,10.581,2.05,1.774-.327,3.45-1.136,5.091-1.852,1.621-.707,3.21-1.487,4.761-2.334,3.195-1.746,6.153-3.81,9.029-6.037,1.871-1.448,1.636-4.862,0-6.364-1.983-1.821-4.368-1.545-6.364,0,.532-.412-.06.04-.144.1-.298.216-.593.437-.892.652-.479.343-.963.679-1.452,1.008-1.161.781-2.35,1.522-3.563,2.221-1.022.588-2.06,1.146-3.115,1.673-.527.263-1.058.519-1.593.767-.334.155-.67.306-1.007.455-.227.1-.928.386-.348.152-.585.236-1.171.468-1.778.644-.121.035-.967.268-.421.145.556-.125-.359-.009-.463.013-.592.128.681.223-.415-.029-.304-.07-.605-.146-.906-.23-.634-.177-1.262-.385-1.882-.606-.282-.1-1.522-.649-.576-.199-.429-.204-.862-.396-1.281-.621-.413-.222-.798-.486-1.203-.72-.935-.541.422.433-.046-.015-.201-.193-.42-.367-.616-.566-.155-.158-.297-.322-.443-.488.672.759.191.249.05-.02-.078-.148-.346-.782-.129-.193.241.656-.078-.148-.042-.241l-.042-.162c.047.587.052.6.013.038.015-.276-.001-.54.031-.817-.134,1.149.624-1.393.208-.499.481-1.033,1.118-1.993,1.788-2.912.16-.218.323-.434.486-.65-.53.698,0,.006.138-.165.367-.458.741-.91,1.123-1.356,1.532-1.788,3.181-3.477,4.941-5.041.391-.347.787-.688,1.189-1.022.16-.133,1.349-1.074.62-.516.93-.71,1.888-1.384,2.871-2.018,1.087-.7,2.206-1.352,3.354-1.945.572-.295,1.151-.577,1.738-.844.234-.106.469-.211.706-.312-.941.399.25-.085.354-.124,1.2-.456,2.426-.846,3.67-1.163.561-.143,1.126-.271,1.694-.384.316-.063.633-.122.951-.175.229-.038,1.386-.187.341-.058,2.328-.288,4.618-1.863,4.5-4.5-.098-2.19-1.998-4.809-4.5-4.5h0Z"/><path d="m35.304,71.194c-2.444,11.354-4.17,22.871-5.159,34.443-.476,5.567-.772,11.15-.888,16.736-.118,5.647-.412,11.548.88,17.089,2.192,9.406,10.278,15.984,18.793,19.646,3.939,1.694,7.988,2.972,12.225,3.65,4.086.655,8.211,1.04,12.339,1.293,8.821.541,17.671.556,26.505.45,2.353-.028,4.61-2.05,4.5-4.5-.108-2.414-1.978-4.53-4.5-4.5-7.434.089-14.873.081-22.302-.234-3.937-.167-7.876-.412-11.792-.865-.426-.049-.851-.107-1.276-.156-.633-.074.887.133.266.035-.202-.032-.404-.058-.606-.088-.816-.122-1.63-.256-2.441-.411-1.818-.348-3.609-.818-5.372-1.384-1.007-.323-2.003-.679-2.986-1.067-.244-.097-.488-.195-.731-.296.163.068.777.348-.007-.012-.532-.244-1.064-.487-1.588-.747-1.872-.928-3.681-1.993-5.372-3.222-.199-.145-.398-.291-.593-.441.747.572.091.058-.092-.094-.371-.308-.734-.624-1.088-.95-.737-.678-1.438-1.395-2.089-2.157-.15-.175-.291-.361-.444-.534.616.698.206.276.074.091-.263-.372-.525-.743-.768-1.128-.241-.381-.47-.77-.683-1.167-.164-.304-.784-1.84-.402-.747-.408-1.167-.792-2.312-1.038-3.528-.06-.298-.111-.598-.163-.898-.021-.122-.098-.878-.026-.16-.069-.682-.132-1.363-.172-2.048-.15-2.582-.121-5.179-.098-7.764.047-5.424.264-10.847.65-16.258.219-3.072.493-6.14.82-9.202.164-1.533.341-3.064.532-4.593.04-.322.081-.644.122-.966.014-.108.162-1.236.11-.85-.062.465.072-.524.084-.609.056-.402.113-.804.17-1.206.88-6.123,1.981-12.211,3.282-18.258.494-2.295-.681-4.975-3.143-5.536-2.266-.516-5.006.682-5.536,3.143h0Z"/><path d="m61.976,75.073c-3.941,2.479-6.07,7.074-5.84,11.69.266,5.341,3.128,10.339,8.3,12.224,2.857,1.041,5.704.298,8.347-.921,2.27-1.047,4.243-2.537,5.731-4.553,3.071-4.158,2.072-10.149-.848-14.104-.971-1.316-2.007-2.588-3.46-3.405-.928-.522-2.053-.916-3.08-1.247-2.617-.845-5.427-.842-8.074-.138-2.274.606-3.887,3.236-3.143,5.536.756,2.337,3.098,3.792,5.536,3.143.468-.125.936-.223,1.415-.293l-1.196.161c.825-.097,1.637-.097,2.461.008l-1.196-.161c.796.12,1.566.327,2.322.602.305.111.603.249.911.351-.743-.337-.945-.419-.606-.246.109.054.215.115.316.183-.544-.446-.686-.556-.425-.332.094.079.185.163.272.251.159.156.407.353.5.551l-.398-.522c.101.134.2.27.295.408.29.419.555.857.789,1.31l.115.229c.2.43.153.306-.14-.374.045.201.155.402.221.597.175.519.298,1.046.385,1.586l-.161-1.196c.085.656.098,1.298.023,1.956l.161-1.196c-.04.263-.08,1.005-.281,1.183.16-.142.481-.99.106-.285-.095.178-.203.344-.308.516-.352.573.271-.34.271-.339.015.047-.351.383-.407.439-.142.142-.296.271-.441.409-.547.52.69-.474.241-.181-.654.427-1.305.83-2.008,1.175-.186.091-.377.172-.562.265-.483.241,1.085-.381.208-.091-.428.142-.846.267-1.291.344l1.196-.161c-.508.061-.995.055-1.502-.011l1.196.161c-.378-.067-.73-.176-1.096-.285-.508-.15.924.49.266.092-.144-.087-.291-.175-.438-.258-.738-.417.536.511.2.174-.148-.149-.314-.28-.461-.431-.056-.057-.341-.296-.339-.372-.005.156.647.909.171.209-.213-.314-.405-.641-.577-.979-.059-.116-.212-.328-.218-.458.011.259.383.979.127.249-.239-.682-.402-1.38-.505-2.095l.161,1.196c-.116-.95-.115-1.895.006-2.845l-.161,1.196c.086-.574.206-1.14.387-1.692.067-.205.149-.402.221-.605-.497,1.397-.185.46.009.117.084-.148.295-.647.454-.712l-.448.576c.088-.109.18-.215.274-.319.191-.209.399-.394.606-.587.54-.503-1.007.683-.046.078,1.991-1.253,2.961-4.068,1.614-6.157-1.286-1.994-4.025-2.955-6.157-1.614h0Z"/><path d="m41.745,52.363c1.628-1.048,3.279-2.062,4.978-2.993.849-.466,1.709-.912,2.581-1.332.468-.226.94-.443,1.414-.655.012-.005.684-.288.279-.122-.36.147.42-.161.49-.188,3.841-1.482,7.906-2.166,11.953-2.819.858-.138,1.717-.269,2.577-.391.203-.029.406-.057.608-.085-.075.01-.706.089-.171.024.486-.059.971-.124,1.457-.182,1.942-.234,3.888-.432,5.837-.604,4.042-.356,8.094-.599,12.149-.763,4.698-.191,9.4-.273,14.102-.275,2.354-.001,4.609-2.069,4.5-4.5s-1.977-4.502-4.5-4.5c-8.46.005-16.928.254-25.361.962-4.152.349-8.295.822-12.414,1.451-4.064.62-8.202,1.248-12.092,2.621-4.587,1.618-8.851,3.956-12.93,6.582-1.977,1.273-2.97,4.053-1.614,6.157,1.274,1.977,4.04,2.977,6.157,1.614h0Z"/><path d="m160.526,52.978c-1.035-.128.644.11.913.16.507.094,1.01.201,1.512.32,1.187.281,2.359.628,3.509,1.036.484.172.962.361,1.441.547-.855-.332.41.184.693.316,1.052.491,2.081,1.03,3.085,1.613.953.553,1.883,1.145,2.79,1.771.482.333.955.678,1.426,1.026.134.099.658.534.019.012.303.248.611.489.912.74,1.71,1.422,3.321,2.963,4.828,4.598.752.816,1.479,1.656,2.18,2.517.206.253.409.507.61.763-.108-.137-.498-.672.008.017.422.573.839,1.149,1.215,1.754.302.485.572.985.825,1.497-.326-.66-.028-.067.016.092.069.247.129.551.22.796-.233-.626.01-.315,0,.018-.002.078-.191,1.239-.004.596.162-.554-.09.11-.115.257-.084.472.447-.68.003-.026-.031.045-.583.962-.186.356.335-.512-.052.052-.175.172-.203.198-1.41,1.114-.492.505-.89.591-1.798,1.089-2.768,1.538.9-.416-.284.095-.576.199-.474.169-.952.327-1.434.472-.298.09-.598.181-.9.256.065-.016-1.338.191-.774.165.485-.022-.42-.043-.536-.042-.333-.023-.278-.019.165.013l-.406-.1c-.647-.258-1.329-.445-1.98-.702.65.257-.042-.017-.146-.063-.404-.179-.808-.358-1.209-.544-1.337-.62-2.651-1.288-3.939-2.004s-2.549-1.48-3.78-2.288c-.554-.364-1.102-.738-1.644-1.12-.301-.212-.6-.427-.897-.645-.12-.088-1.109-.835-.499-.363-1.857-1.438-4.578-1.945-6.364,0-1.477,1.609-1.988,4.825,0,6.364,5.161,3.996,10.732,7.362,16.868,9.651,3.433,1.281,6.85.75,10.199-.492,2.673-.991,5.334-2.253,7.362-4.316,2.468-2.508,3.53-5.783,3.064-9.25-.474-3.526-2.618-6.411-4.757-9.127-3.472-4.409-7.615-8.265-12.279-11.392-5.431-3.641-11.529-5.862-18.002-6.662-2.345-.29-4.6,2.277-4.5,4.5.12,2.686,1.987,4.189,4.5,4.5h0Z"/><path d="m156.018,73.586c2.343,10.883,3.856,20.784,4.795,31.566.471,5.405.775,10.825.908,16.249.066,2.67.091,5.341.073,8.012-.008,1.217-.024,2.436-.089,3.651-.033.609-.084,1.215-.137,1.822-.079.918-.033.369-.005.163-.062.451-.143.903-.233,1.349-.243,1.209-.6,2.376-1.038,3.528.358-.943-.077.124-.245.45-.232.45-.483.89-.751,1.321-.24.386-.493.763-.758,1.133-.644.897.361-.402-.357.45-.644.764-1.338,1.487-2.069,2.168-.396.369-.804.726-1.22,1.072-.105.087-.704.581-.258.22s-.168.124-.278.205c-.857.629-1.744,1.217-2.655,1.765-.878.528-1.777,1.021-2.693,1.48-.464.233-.933.457-1.406.673-.238.108-.478.211-.716.319.902-.412-.282.112-.379.15-3.435,1.359-6.999,2.288-10.648,2.84-.201.03-.402.058-.603.089-.804.121.169-.009.27-.034-.404.101-.858.109-1.271.158-.997.117-1.995.219-2.994.31-1.945.177-3.894.313-5.844.422-8.462.473-16.946.488-25.418.387-2.355-.028-4.608,2.09-4.5,4.5.11,2.462,1.977,4.47,4.5,4.5,7.802.093,15.611.081,23.407-.283,7.989-.374,16.228-.905,23.826-3.585,8.496-2.997,17.396-8.337,21.157-16.929,2.388-5.457,2.435-11.346,2.407-17.204-.027-5.586-.236-11.171-.623-16.744-.9-12.959-2.744-25.864-5.477-38.562-.496-2.304-3.314-3.862-5.536-3.143-2.428.786-3.674,3.067-3.143,5.536h0Z"/><path d="m133.481,82.844c.962.605-.585-.581-.046-.078.207.193.415.378.606.587.332.363.323.691-.174-.257.128.245.317.469.454.712.211.373.436,1.244.009-.117.064.204.155.401.221.605.18.552.301,1.118.387,1.692l-.161-1.196c.121.95.122,1.894.006,2.845l.161-1.196c-.097.672-.245,1.331-.463,1.975-.039.114-.357.91-.044.174s-.035.049-.089.154c-.172.338-.364.665-.577.979-.087.128-.457.626-.024.05.468-.621-.055.022-.144.113-.118.121-.243.232-.365.349-.551.529.67-.42.209-.162-.147.082-.285.183-.433.266-.706.397.144.088.274-.073-.184.227-.943.28-1.215.328l1.196-.161c-.507.066-.994.071-1.502.011l1.196.161c-.447-.077-.859-.21-1.291-.344-.759-.236.701.331.208.091-.186-.091-.376-.173-.562-.265-.704-.345-1.347-.758-2.008-1.175-.424-.267.869.76.241.181-.118-.109-.241-.212-.356-.324-.144-.139-.271-.293-.413-.434-.369-.366.565.894.192.25-.101-.174-.214-.338-.308-.516-.239-.448-.001-.547.106.285-.05-.392-.22-.785-.281-1.183l.161,1.196c-.075-.657-.062-1.3.023-1.956l-.161,1.196c.08-.497.189-.986.345-1.466.079-.243.181-.476.262-.718-.403,1.207-.185.455-.024.145.234-.453.499-.891.789-1.31.246-.356.71-.654-.102.114.177-.168.325-.378.5-.551l.179-.17c.354-.303.244-.22-.332.252l.208-.127c.448-.227.282-.163-.498.19.307-.103.606-.24.911-.351.756-.275,1.526-.482,2.322-.602l-1.196.161c.824-.104,1.636-.104,2.461-.008l-1.196-.161c.48.07.947.168,1.415.293,2.272.605,4.993-.76,5.536-3.143.538-2.362-.709-4.887-3.143-5.536-2.471-.658-5.041-.698-7.515-.029-2.081.563-4.19,1.452-5.688,3.045-3.696,3.93-5.358,9.747-2.961,14.757,1.031,2.156,3.079,3.859,5.123,5.01,2.218,1.249,4.772,2.32,7.364,2.031,3.299-.369,5.922-2.031,7.9-4.66,1.259-1.673,2.119-3.76,2.436-5.831.818-5.341-.826-10.875-5.584-13.869-1.996-1.255-5.047-.486-6.157,1.614-1.171,2.216-.516,4.817,1.614,6.157h0Z"/><path d="m162.797,44.592c-3.657-2.354-7.436-4.423-11.48-6.036-3.894-1.553-8.01-2.273-12.13-2.942-8.143-1.324-16.378-1.995-24.617-2.342-4.854-.204-9.712-.292-14.57-.295-2.354-.001-4.609,2.071-4.5,4.5s1.977,4.498,4.5,4.5c8.236.005,16.479.242,24.69.907,1.903.154,3.804.332,5.701.541.914.1,1.827.208,2.739.324.207.026.414.053.62.08-.073-.009-.703-.099-.174-.023.536.078,1.072.152,1.607.232,3.984.602,8.047,1.209,11.874,2.506.488.166.973.343,1.454.528.207.08.413.161.618.244-.578-.232.132.057.354.157.95.426,1.885.884,2.807,1.367,2.046,1.073,4.021,2.272,5.963,3.522,1.983,1.276,5.055.471,6.157-1.614,1.18-2.234.502-4.795-1.614-6.157h0Z"/><path d="m100,96.899c-2.887-.014-5.779.27-8.619.783-3.503.633-6.131,3.244-6.608,6.791-.444,3.307.949,6.243,3.072,8.703,1.256,1.455,3.063,2.542,4.737,3.46,1.992,1.092,4.095,2.019,6.221,2.813,1.037.387,2.545.086,3.468-.454.933-.546,1.824-1.617,2.068-2.689.262-1.152.206-2.445-.454-3.468-.667-1.034-1.537-1.638-2.689-2.068-.47-.175-.935-.363-1.398-.557l1.075.454c-2.23-.947-4.474-2.026-6.413-3.493l.911.704c-.559-.435-1.044-.905-1.482-1.462l.704.911c-.449-.594-.838-1.214-1.138-1.897l.454,1.075c-.193-.484-.327-.963-.4-1.479l.161,1.196c-.037-.389-.029-.764.023-1.151l-.161,1.196c.058-.319.141-.621.257-.923l-.454,1.075c.13-.293.281-.559.47-.817l-.704.911c.162-.196.331-.368.527-.531l-.911.704c.235-.172.475-.303.741-.421l-1.075.454c.946-.349,1.975-.465,2.969-.604l-1.196.161c1.939-.259,3.888-.384,5.844-.375,2.354.011,4.608-2.078,4.5-4.5-.11-2.448-1.977-4.488-4.5-4.5h0Z"/><path d="m100,105.899c1.956-.009,3.905.116,5.844.375l-1.196-.161c.994.139,2.023.255,2.969.604l-1.075-.454c.266.118.506.25.741.421l-.911-.704c.195.163.365.335.527.531l-.704-.911c.189.259.34.525.47.817l-.454-1.075c.116.303.199.604.257.923l-.161-1.196c.052.387.06.762.023,1.151l.161-1.196c-.073.516-.207.996-.4,1.479l.454-1.075c-.3.683-.689,1.303-1.138,1.897l.704-.911c-.438.557-.923,1.027-1.482,1.462l.911-.704c-1.939,1.467-4.183,2.546-6.413,3.493l1.075-.454c-.463.194-.928.381-1.398.557-1.122.419-2.066,1.003-2.689,2.068-.564.965-.804,2.386-.454,3.468.696,2.152,3.175,4.025,5.536,3.143,3.678-1.373,7.706-3.107,10.575-5.869,2.062-1.985,3.579-4.943,3.586-7.836.009-3.638-2.289-6.845-5.8-7.858-1.653-.477-3.465-.613-5.168-.784-1.459-.146-2.923-.209-4.389-.202-2.353.011-4.609,2.062-4.5,4.5s1.977,4.512,4.5,4.5h0Z"/><path d="m95.42,116.364v22.971c0,2.354,2.07,4.609,4.5,4.5s4.5-1.977,4.5-4.5v-22.971c0-2.354-2.07-4.609-4.5-4.5s-4.5,1.977-4.5,4.5h0Z"/><path d="m95.581,138.139c-.017.102-.136.933-.232.942-.006,0,.5-.997.164-.393-.081.145-.155.294-.242.436-.054.089-.183.375-.278.417.067-.029.689-.778.228-.33-.119.115-.236.234-.352.352-.529.539.685-.43.238-.169-.305.179-.618.346-.924.523-.48.277.836-.279.302-.129-.178.05-.353.124-.531.178-.764.234-1.549.378-2.339.486l1.196-.161c-1.342.165-2.681.233-4.028.077l1.196.161c-.462-.067-.92-.151-1.37-.281-.196-.057-.386-.134-.58-.193-.468-.143,1.027.533.291.109-.141-.081-.287-.153-.427-.238-.113-.068-.77-.548-.145-.063.609.472.032.004-.096-.122-.239-.236-.711-.895.076.171-.719-.975-1.478-1.734-2.689-2.068-1.077-.297-2.512-.163-3.468.454-1.87,1.206-3.109,4.131-1.614,6.157,1.607,2.178,3.63,3.711,6.26,4.472,2.346.679,4.801.606,7.192.285,2.285-.307,4.648-.859,6.536-2.261,2.097-1.557,3.865-3.774,4.313-6.419.207-1.225.196-2.358-.454-3.468-.546-.933-1.617-1.824-2.689-2.068-2.178-.496-5.116.661-5.536,3.143h0Z"/><path d="m95.581,140.532c.446,2.635,2.212,4.877,4.313,6.419,1.899,1.393,4.245,1.953,6.536,2.261,2.393.322,4.842.392,7.192-.285,2.629-.757,4.654-2.296,6.26-4.472.651-.882.731-2.459.454-3.468-.287-1.044-1.095-2.175-2.068-2.689-1.044-.552-2.31-.828-3.468-.454-1.181.382-1.956,1.074-2.689,2.068.903-1.224.034.032-.283.154.241-.093.855-.604.222-.205-.173.109-.352.202-.53.303-.57.325.376-.108.405-.152-.057.083-.465.166-.578.201-.487.149-.983.244-1.487.317l1.196-.161c-1.346.157-2.686.088-4.028-.077l1.196.161c-.744-.102-1.484-.234-2.205-.445-.179-.053-.355-.116-.533-.171-.583-.181.141.016.297.141-.278-.222-.737-.41-1.05-.583-.432-.239.667.621.331.251-.11-.121-.244-.226-.358-.344-.111-.116-.488-.586-.055-.018.436.572.071.08-.013-.052-.121-.19-.592-1.167-.281-.457.291.664.073.123.028-.042-.053-.196-.091-.392-.125-.592-.177-1.047-1.188-2.174-2.068-2.689-.965-.564-2.386-.804-3.468-.454-2.512.813-3.565,3.042-3.143,5.536h0Z"/></svg>