<?xml version="1.0" encoding="UTF-8"?><svg id="_레이어_2" xmlns="http://www.w3.org/2000/svg" viewBox="0 0 203.58 139.76"><g id="_레이어_1-2"><g><path d="m37.241,11.735c-12.147,1.497-22.804,8.168-30.661,17.42-4.382,5.16-9.232,12.167-4.868,18.89,1.616,2.49,4.1,4.295,6.777,5.503,3.059,1.38,6.548,2.744,9.953,2.359,3.96-.448,7.843-2.552,11.316-4.423,3.504-1.888,6.747-4.132,9.89-6.566,1.87-1.449,1.637-4.862,0-6.364-1.983-1.821-4.368-1.546-6.364,0,.557-.432-.202.144-.336.244-.299.222-.601.442-.904.658-.485.347-.976.687-1.47,1.02-1.237.832-2.503,1.622-3.796,2.366-1.163.67-2.347,1.303-3.55,1.898-.601.298-1.208.585-1.818.864-.339.155-.68.305-1.021.456-.846.372.372-.116-.577.237-.56.208-1.141.368-1.696.581-1.096.421.309.091-.337.104-.37.007-.731.025-1.102-.015.805.087-.689-.211-.964-.29-.666-.191-1.326-.409-1.978-.643-.279-.1-1.69-.75-.704-.256-.468-.234-.946-.443-1.406-.695-.453-.248-.883-.524-1.314-.807-.674-.442-.002-.004.11.097-.244-.221-.495-.43-.726-.665-.047-.048-.723-.853-.279-.275.441.574-.152-.271-.188-.333-.079-.136-.281-.429-.292-.566.068.866.166.472.121.167-.005-.036-.106-1.029-.107-.467,0,.656.066-.696.062-.652-.116,1.161.525-1.457.172-.551.466-1.195,1.269-2.31,2.019-3.338-.042.058.787-1.042.376-.507-.399.518.389-.486.37-.463.408-.507.824-1.008,1.249-1.501,1.618-1.88,3.358-3.656,5.215-5.301.39-.346.786-.686,1.187-1.02.25-.209.503-.414.757-.618.171-.137.867-.661.167-.136.986-.739,1.993-1.449,3.032-2.114,1.141-.73,2.315-1.409,3.52-2.029.571-.294,1.15-.575,1.734-.841-.014.006,1.143-.495.521-.235-.515.215.59-.229.711-.275,1.258-.478,2.541-.889,3.843-1.226.622-.16,1.248-.304,1.877-.429.316-.063.632-.121.949-.175.216-.037,1.615-.222.529-.088,2.328-.287,4.618-1.864,4.5-4.5-.098-2.191-1.998-4.808-4.5-4.5h0Z"/><path d="m33.081,40.547c-2.579,11.978-4.407,24.127-5.464,36.334-.516,5.964-.84,11.945-.97,17.931s-.444,12.276.872,18.18c2.234,10.021,10.808,17.054,19.853,20.953,4.171,1.798,8.46,3.161,12.947,3.889,4.367.708,8.78,1.118,13.193,1.389,9.417.579,18.864.594,28.295.482,2.353-.028,4.61-2.05,4.5-4.5-.108-2.414-1.978-4.53-4.5-4.5-7.965.095-15.935.086-23.895-.254-4.184-.179-8.37-.441-12.531-.925-.48-.056-.958-.119-1.437-.177-.687-.084,1.147.171.112.012-.201-.031-.403-.059-.605-.089-.862-.131-1.722-.275-2.577-.442-1.951-.379-3.873-.893-5.763-1.507-1.071-.348-2.131-.732-3.177-1.15-.118-.047-.886-.368-.376-.15.608.26-.571-.257-.545-.245-.593-.269-1.181-.549-1.763-.843-1.998-1.009-3.828-2.213-5.674-3.468-.604-.411.798.667-.113-.084-.188-.155-.379-.307-.565-.464-.37-.31-.732-.629-1.086-.957-.823-.762-1.602-1.571-2.323-2.43-.093-.111-.573-.688-.193-.221.442.543-.248-.344-.268-.373-.264-.372-.516-.751-.756-1.139-.238-.384-.463-.776-.675-1.175-.132-.248-.257-.5-.378-.753-.235-.493-.223-.53-.02-.003-.493-1.281-.878-2.586-1.141-3.934-.052-.268-.261-1.798-.179-1.038-.081-.75-.145-1.501-.188-2.254-.159-2.806-.124-5.627-.098-8.435.054-5.742.288-11.483.698-17.211.231-3.23.519-6.457.863-9.677.172-1.612.358-3.222.558-4.83.23-1.85.288-2.282.551-4.109.938-6.519,2.11-13.002,3.496-19.441.494-2.295-.681-4.975-3.143-5.536-2.266-.516-5.006.682-5.536,3.143h0Z"/><path d="m61.397,44.865c-9.134,5.746-7.643,21.245,2.552,24.962,2.969,1.083,5.924.315,8.672-.952,2.372-1.094,4.448-2.642,6.006-4.749,3.22-4.355,2.151-10.603-.905-14.743-1.005-1.361-2.08-2.68-3.583-3.524-.969-.545-2.143-.954-3.214-1.3-2.742-.886-5.68-.885-8.453-.147-2.274.606-3.887,3.236-3.143,5.536.756,2.337,3.098,3.792,5.536,3.143.256-.068.511-.133.771-.187.176-.036.847-.184.138-.041-.764.154.105.007.247,0,.178-.008.357-.011.535-.01.228.002,1.533.131.647.015-.761-.1-.211-.023-.02.015.218.043.434.093.649.149.543.141,1.073.324,1.596.524.134.051.267.106.401.157.54.205-.137.17-.463-.203.037.043.45.256.453.256l-.492-.394c.135.112.264.23.389.354.126.124.24.258.361.386.5.527-.169-.202-.206-.294.134.333.492.691.685,1.003.216.35.402.712.594,1.074.349.658-.092-.235-.119-.328.073.257.197.51.279.766.124.386.2.779.3,1.17.153.598-.058-1.2-.034-.279.004.175.023.348.025.524.003.174-.009.347-.011.521-.01.773.076-.39.072-.423.02.185-.094.453-.144.633-.269.958.293-.471.084-.092-.141.255-.534.729-.594.993.021-.095.724-.824.22-.319-.12.121-.233.248-.356.367s-.256.227-.38.346c-.648.621.699-.474.197-.147-.403.263-.795.531-1.215.768-.304.171-.614.332-.927.485-.156.076-.314.146-.469.223-.873.431.759-.261.153-.059-.307.102-.966.185-1.23.37.089-.063,1.123-.053.38-.062-.26-.003-.544-.035-.802-.027,1.021-.032.767.132.405.021-.167-.051-.346-.107-.516-.152-.88-.229.703.395.205.083-.187-.117-.393-.232-.588-.336-.321-.172-.359-.471.255.226-.112-.127-.278-.238-.403-.358-.129-.123-.245-.263-.375-.385-.65-.605.479.769.034.072-.243-.381-.485-.752-.691-1.156-.078-.154-.141-.346-.233-.488.05.078.383,1.029.15.322-.121-.367-.245-.73-.341-1.106-.038-.15-.073-.301-.104-.452-.038-.182-.172-1.069-.055-.206.116.857.018.061.007-.1-.016-.234-.026-.468-.028-.703-.003-.392.026-.779.051-1.17.021-.339.209-.721-.072.502.052-.226.081-.458.133-.684.085-.375.192-.745.32-1.108.049-.14.12-.285.162-.428-.372,1.252-.252.595-.069.251.174-.328.439-.627.593-.958-.424.908-.544.63-.213.298.159-.159.305-.329.47-.483.11-.103.23-.195.339-.298.267-.219.113-.1-.46.359.125-.088.254-.171.385-.251,1.991-1.253,2.961-4.068,1.614-6.157-1.286-1.994-4.025-2.955-6.157-1.614h0Z"/><path d="m39.512,20.121c1.775-1.143,3.575-2.246,5.428-3.258.926-.506,1.864-.99,2.816-1.444.474-.226.953-.444,1.434-.657.476-.21.049-.023-.041.014.276-.114.554-.224.833-.332,4.155-1.603,8.56-2.333,12.939-3.036.855-.137,1.711-.267,2.569-.388.27-.038.539-.076.809-.112-.074.01-.709.089-.173.025.554-.066,1.107-.14,1.662-.206,2.007-.239,4.019-.443,6.032-.621,4.329-.381,8.669-.641,13.011-.816,4.99-.201,9.983-.288,14.977-.291,2.354-.001,4.609-2.069,4.5-4.5S104.33-.001,101.807,0c-8.967.005-17.942.268-26.879,1.012-4.357.362-8.704.855-13.027,1.504-4.382.658-8.851,1.328-13.051,2.787-4.929,1.712-9.507,4.231-13.881,7.047-1.977,1.273-2.971,4.053-1.614,6.157,1.274,1.976,4.04,2.977,6.157,1.614h0Z"/><path d="m166.374,20.735c-.971-.12-.096-.014.148.025.318.05.636.105.952.164.505.095,1.008.201,1.509.319,1.248.293,2.479.655,3.689,1.079.545.191,1.078.41,1.618.611.707.262-.954-.447.165.071.233.108.468.211.701.319,1.166.545,2.306,1.147,3.417,1.797,1.005.588,1.986,1.217,2.942,1.881.427.296.843.607,1.265.91,1.015.729-.418-.351.173.127.304.246.611.487.912.736,1.861,1.539,3.613,3.21,5.25,4.985.795.862,1.564,1.749,2.305,2.659.205.252.404.509.609.761.479.59-.603-.841.127.168.424.586.852,1.167,1.238,1.778.381.603.766,1.242,1.037,1.904-.295-.721.15.662.21.926-.199-.881-.065.049-.014.248.142.552.243-.664.011.177-.028.102-.115.605-.177.629.243-.524.293-.636.148-.335-.067.144-.141.285-.222.422-.023.039-.256.497-.344.535l.312-.405c-.103.124-.211.244-.324.36-.235.214-1.372,1.108-.453.49-.966.65-1.943,1.199-2.995,1.697.881-.418-.188.069-.542.198-.566.207-1.139.398-1.715.574-.565.172-1.134.337-1.714.449.792-.153-.109-.002-.334-.002-.222.005-.444-.004-.665-.03.39.041.424.03.102-.035-.705-.34-1.59-.504-2.328-.803.183.074.67.295-.161-.069-.41-.179-.818-.361-1.225-.548-1.422-.655-2.82-1.362-4.19-2.12s-2.713-1.565-4.024-2.421c-.624-.408-1.242-.826-1.851-1.255-.305-.215-.608-.432-.909-.652-.125-.092-1.264-.949-.696-.509-1.856-1.438-4.578-1.945-6.364,0-1.478,1.61-1.988,4.824,0,6.364,5.525,4.279,11.632,8.096,18.284,10.372,3.508,1.2,6.964.563,10.346-.697,2.792-1.04,5.571-2.363,7.687-4.522,2.665-2.719,3.771-6.353,3.108-10.097-.622-3.515-2.848-6.427-4.999-9.158-3.665-4.653-8.056-8.726-12.979-12.024-5.743-3.848-12.195-6.215-19.041-7.058-2.345-.289-4.6,2.276-4.5,4.5.12,2.685,1.987,4.19,4.5,4.5h0Z"/><path d="m161.855,42.94c1.232,5.724,2.297,11.484,3.176,17.273.207,1.364.404,2.729.591,4.096.11.802-.072-.552.033.251.053.402.105.804.156,1.206.102.804.201,1.609.296,2.414.333,2.816.623,5.636.87,8.46.5,5.722.824,11.46.969,17.203.073,2.91.102,5.821.083,8.732-.008,1.281-.026,2.563-.093,3.843-.035.679-.097,1.354-.151,2.031-.01.122-.097.887-.002.15-.057.447-.139.895-.224,1.338-.248,1.283-.649,2.483-1.058,3.719-.251.759.334-.67.038-.088-.127.25-.238.509-.365.759-.256.503-.534.995-.831,1.475-.24.387-.492.767-.756,1.139-.133.187-.271.37-.407.555.568-.772.197-.252.058-.095-.744.841-1.482,1.671-2.304,2.44-.396.371-.802.731-1.217,1.08-.249.209-1.279.979-.529.437-.966.698-1.941,1.374-2.961,1.993-.933.566-1.889,1.094-2.863,1.586-.465.235-.934.461-1.406.68-.297.137-.599.264-.896.403-.474.221.595-.227-.198.083-3.797,1.482-7.672,2.561-11.701,3.172-.201.031-.403.059-.605.089-.801.122.164-.012.269-.033-.468.091-.959.123-1.433.179-1.055.124-2.111.233-3.168.329-2.069.189-4.141.334-6.215.451-9.056.51-18.137.526-27.204.417-2.355-.028-4.608,2.09-4.5,4.5.11,2.462,1.977,4.47,4.5,4.5,8.273.099,16.552.087,24.818-.295,8.582-.397,17.433-.96,25.59-3.857,9.232-3.278,18.568-9.071,22.523-18.442,2.359-5.589,2.321-11.723,2.291-17.689s-.255-11.969-.672-17.94c-.961-13.756-2.921-27.454-5.824-40.934-.496-2.304-3.314-3.862-5.536-3.143-2.428.786-3.675,3.067-3.143,5.536h0Z"/><path d="m137.675,52.637c.132.083.751.54.111.035-.582-.458-.146-.125-.014.003.243.237.476.475.711.719.496.517-.292-.384-.287-.382.123.081.233.34.312.468s.155.258.227.39c.088.16.439.949.121.177-.331-.801.107.329.169.537.089.295.164.595.226.897.033.159.148.947.035.091s-.016-.061-.004.099c.029.389.038.781.026,1.171-.009.31-.069.626-.066.934-.014-1.181.119-.812.04-.388-.028.152-.06.304-.095.455-.084.363-.187.722-.306,1.076-.019.057-.194.417-.184.509.269-.614.331-.765.189-.452-.056.123-.114.245-.176.365-.183.361-.388.71-.616,1.044-.455.67-.146-.132.136-.162-.043.005-.363.398-.362.397-.125.129-.259.247-.389.372-.56.538.204-.222.275-.201-.067-.019-.484.309-.574.359-.117.068-.237.131-.359.19.624-.247.775-.31.453-.191-.172.051-.34.116-.513.163-.626.169-.395-.168.275.014-.183-.05-.907-.067-1.07.009.514-.239.903.204.369.018-.224-.078-.458-.129-.683-.208l-.135-.048c-.451-.177-.357-.135.28.126-.104-.146-.577-.266-.73-.342-.666-.326-1.316-.686-1.929-1.104-.475-.324-.208-.454.181.163-.066-.104-.312-.264-.391-.336-.126-.115-.25-.234-.368-.356-.314-.324-.467-.798.045.133-.162-.295-.364-.583-.536-.873-.461-.776.23.786.102.222-.047-.207-.111-.424-.171-.627-.107-.368.091-.607.043.428.008-.166-.026-.35-.03-.519-.004-.174,0-.349.007-.523.008-.175.023-.35.043-.524l-.085.672c.177-.232.231-1.007.325-1.301.056-.172.119-.341.18-.512.127-.359.361-.419-.137.321.477-.708.823-1.507,1.317-2.217.347-.498-.773.83-.126.186.186-.185.37-.378.552-.568.426-.444.001.3-.294.221l.222-.135c.455-.23.302-.172-.459.172.58-.184,1.134-.447,1.718-.626.344-.105.692-.198,1.044-.271.139-.029.315-.041.453-.084-1.209.383-.675.079-.229.051.494-.031.973.004,1.466.02.597.02-.934-.186-.33-.046.357.083.715.149,1.07.244,2.272.605,4.993-.76,5.536-3.143.538-2.362-.709-4.887-3.143-5.536-2.584-.688-5.269-.731-7.857-.031-2.171.587-4.373,1.509-5.935,3.171-3.843,4.087-5.607,10.162-3.111,15.378,1.08,2.257,3.218,4.032,5.357,5.237,2.323,1.308,4.99,2.43,7.704,2.125,5.692-.639,9.887-5.421,10.736-10.971s-.867-11.34-5.819-14.455c-1.996-1.255-5.047-.486-6.157,1.614-1.171,2.216-.516,4.817,1.614,6.157h0Z"/><path d="m168.645,12.349c-3.887-2.503-7.903-4.707-12.203-6.421-4.222-1.682-8.697-2.447-13.163-3.168-8.61-1.39-17.32-2.086-26.029-2.451C112.106.095,106.956.003,101.807,0c-2.354-.001-4.609,2.071-4.5,4.5s1.977,4.499,4.5,4.5c8.743.005,17.494.257,26.211.957,2.042.164,4.082.354,6.118.577.981.107,1.961.222,2.94.346.206.026.412.053.618.079-.181-.023-.862-.121.026.004.468.065.935.132,1.402.202,4.3.64,8.693,1.286,12.826,2.672.565.19,1.127.392,1.683.607.209.081.417.164.625.248.761.307-.933-.429.373.161,1.029.464,2.045.954,3.046,1.477,2.206,1.153,4.334,2.444,6.426,3.791,1.983,1.277,5.055.471,6.157-1.614,1.181-2.235.502-4.794-1.614-6.157h0Z"/><path d="m101.807,68.189c-3.053-.015-6.111.282-9.115.825-3.619.654-6.34,3.321-6.833,6.994-.461,3.429.993,6.482,3.195,9.032,1.324,1.534,3.229,2.677,4.993,3.644,2.102,1.152,4.321,2.132,6.565,2.97,1.037.387,2.545.086,3.468-.454.933-.546,1.824-1.617,2.068-2.689.262-1.152.206-2.445-.454-3.468-.667-1.034-1.537-1.638-2.689-2.068-.501-.187-.998-.387-1.491-.594l1.075.454c-2.379-1.01-4.772-2.161-6.841-3.726l.911.704c-.596-.464-1.114-.965-1.581-1.56l.704.911c-.479-.634-.894-1.295-1.214-2.024l.454,1.075c-.206-.516-.349-1.027-.427-1.578l.161,1.196c-.039-.414-.031-.815.025-1.227l-.161,1.196c.061-.341.15-.662.274-.985l-.454,1.075c.138-.313.3-.596.501-.872l-.704.911c.172-.209.354-.393.562-.567l-.911.704c.251-.183.506-.324.791-.449l-1.075.454c1.009-.372,2.107-.496,3.167-.644l-1.196.161c2.068-.276,4.147-.41,6.234-.4,2.354.011,4.608-2.078,4.5-4.5-.11-2.448-1.977-4.488-4.5-4.5h0Z"/><path d="m101.807,77.189c2.087-.01,4.166.123,6.234.4l-1.196-.161c1.06.149,2.158.272,3.167.644l-1.075-.454c.284.126.54.266.791.449l-.911-.704c.208.174.389.357.562.567l-.704-.911c.202.276.363.56.501.872l-.454-1.075c.124.323.213.645.274.985l-.161-1.196c.055.413.064.813.025,1.227l.161-1.196c-.078.55-.221,1.062-.427,1.578l.454-1.075c-.32.728-.734,1.39-1.214,2.024l.704-.911c-.467.594-.985,1.096-1.581,1.56l.911-.704c-2.069,1.565-4.462,2.716-6.841,3.726l1.075-.454c-.493.207-.99.407-1.491.594-1.122.419-2.066,1.003-2.689,2.068-.564.965-.804,2.386-.454,3.468.696,2.152,3.175,4.025,5.536,3.143,3.875-1.447,8.126-3.274,11.149-6.184,2.143-2.063,3.73-5.138,3.738-8.147.009-3.747-2.35-7.049-5.967-8.093-1.738-.501-3.643-.646-5.434-.826-1.556-.156-3.118-.223-4.682-.216-2.353.011-4.609,2.062-4.5,4.5s1.977,4.512,4.5,4.5h0Z"/><path d="m97.222,88.654v24.505c0,2.354,2.07,4.609,4.5,4.5s4.5-1.977,4.5-4.5v-24.505c0-2.354-2.07-4.609-4.5-4.5s-4.5,1.977-4.5,4.5h0Z"/><path d="m97.383,111.963c-.05.297-.259.718-.247,1.005-.007-.158.45-.898.145-.347-.086.155-.166.313-.258.465-.088.144-.231.291-.296.444.077-.182.622-.705.196-.291-.126.123-.253.249-.375.376-.418.43.124-.137.301-.206-.32.125-.653.399-.958.567-.546.299.044-.097.256-.095-.159-.001-.408.148-.563.198-.38.122-.767.223-1.157.309-.196.043-.392.081-.59.117-.161.029-1.047.168-.294.054.7-.106-.008-.008-.152.006-.205.02-.411.038-.617.052-.412.029-.824.046-1.237.047s-.822-.045-1.233-.052c-.597-.01.86.181.28.041-.199-.048-.404-.077-.604-.125-.348-.084-.679-.207-1.02-.311-.513-.155.812.425.355.143-.147-.09-.31-.159-.46-.246s-.289-.194-.44-.277c-.451-.248.648.603.295.23-.256-.27-1.046-1.217-.251-.14-.719-.975-1.478-1.734-2.689-2.068-1.077-.297-2.512-.163-3.468.454-1.87,1.206-3.109,4.131-1.614,6.157,1.666,2.258,3.774,3.844,6.498,4.633,2.462.713,5.043.635,7.552.298,2.399-.322,4.88-.904,6.861-2.376,2.176-1.618,3.999-3.925,4.463-6.668.207-1.225.196-2.358-.454-3.468-.546-.933-1.617-1.824-2.689-2.068-2.178-.496-5.116.661-5.536,3.143h0Z"/><path d="m97.383,114.355c.462,2.732,2.282,5.066,4.463,6.668,1.992,1.463,4.456,2.053,6.861,2.376,2.512.337,5.087.412,7.552-.298,2.723-.784,4.834-2.377,6.498-4.633.651-.882.731-2.459.454-3.468-.287-1.044-1.095-2.175-2.068-2.689-1.044-.552-2.31-.828-3.468-.454-1.181.382-1.956,1.074-2.689,2.068.108-.146.638-.715.214-.308-.124.119-.247.241-.368.363-.423.425.14-.155.305-.218-.148.056-.298.202-.435.285-.149.09-.305.167-.455.254-.522.3.185-.094.361-.132-.333.072-.659.235-.993.321-.199.051-.401.089-.602.134-.627.141.07-.082.282-.028-.335-.085-.878.063-1.232.066-.413.004-.826-.01-1.238-.036-.206-.013-.412-.029-.617-.048-.163-.015-1.059-.135-.305-.021.701.106-.004-.005-.145-.029-.198-.034-.395-.071-.591-.112-.391-.082-.779-.179-1.161-.296-.19-.058-.376-.137-.566-.19-.548-.154.745.391.251.108-.325-.187-.658-.378-.986-.558-.442-.243.635.601.292.22-.117-.13-.261-.241-.382-.367-.108-.113-.493-.604-.083-.05.417.563.042.038-.038-.086-.118-.185-.633-1.199-.315-.523.296.628.06.086.015-.081-.057-.209-.097-.418-.133-.631-.177-1.047-1.188-2.174-2.068-2.689-.965-.564-2.386-.804-3.468-.454-2.512.813-3.565,3.042-3.143,5.536h0Z"/></g></g></svg>