<?xml version="1.0" encoding="UTF-8"?><svg id="_레이어_1" xmlns="http://www.w3.org/2000/svg" viewBox="0 0 200 200"><path d="m66.19,58.133c-17.157,14.163-29.61,33.194-37.646,53.81-6.95,17.829-11.38,41.304,4.614,55.806,9.297,8.429,21.814,11.096,33.912,12.479,2.347.268,4.6-2.261,4.5-4.5-.119-2.667-1.985-4.213-4.5-4.5-.631-.072-1.261-.146-1.891-.226-.253-.032-.507-.065-.76-.098.94.125.247.033.053.004-1.277-.193-2.553-.386-3.824-.617-2.427-.442-4.837-.985-7.206-1.676-1.118-.326-2.227-.684-3.322-1.081-.546-.198-1.081-.421-1.625-.622-.711-.262.958.439-.17-.07-.351-.158-.703-.314-1.052-.478-2.21-1.041-4.289-2.29-6.269-3.72-.143-.104-.644-.54-.006-.003-.197-.166-.401-.325-.598-.49-.496-.417-.98-.849-1.449-1.296-.871-.83-1.693-1.71-2.455-2.641-.154-.187-.643-.864-.086-.098-.142-.195-.286-.389-.426-.586-.31-.439-.607-.888-.891-1.344-.62-.997-1.176-2.033-1.666-3.101-.108-.236-.41-.993-.032-.044-.086-.215-.173-.43-.255-.647-.185-.486-.357-.978-.517-1.473-.337-1.046-.617-2.109-.844-3.184-.12-.568-.211-1.14-.316-1.711-.062-.339-.282-.609.011.16-.067-.175-.061-.495-.083-.695-.129-1.167-.204-2.34-.231-3.513-.053-2.266.07-4.535.325-6.787.027-.24.058-.479.086-.718-.122,1.046-.028.203.011-.06.079-.539.165-1.077.257-1.614.206-1.195.445-2.385.711-3.569.98-4.36,2.329-8.633,3.885-12.82.401-1.079.815-2.153,1.242-3.221.204-.51.41-1.018.619-1.525-.021.051.5-1.192.249-.602-.184.434.284-.657.34-.787,1.01-2.326,2.082-4.626,3.216-6.894,2.325-4.651,4.912-9.172,7.764-13.519,1.575-2.401,3.245-4.73,4.963-7.029.786-1.052-.317.397.17-.226.252-.323.505-.645.76-.966.467-.588.94-1.172,1.418-1.751.87-1.054,1.758-2.092,2.664-3.115,3.912-4.416,8.163-8.52,12.713-12.276,1.823-1.505,1.674-4.827,0-6.364-1.937-1.778-4.42-1.605-6.364,0h0Z"/><path d="m101.332,73.952c2.028.797.099-.05-.433-.366-.878-.522-1.744-1.066-2.609-1.611-1.848-1.165-3.682-2.352-5.52-3.532-4.966-3.189-10.236-5.876-15.073-9.275-.605-.425-1.198-.865-1.793-1.304-.993-.732.7.579-.256-.198-.286-.232-.574-.46-.858-.695-1.22-1.009-2.397-2.072-3.509-3.199-.931-.944-1.801-1.939-2.639-2.967.686.841-.065-.093-.166-.232-.211-.29-.417-.583-.617-.88-.468-.692-.908-1.404-1.314-2.134-.351-.629-.656-1.277-.976-1.922-.533-1.076.304.875-.113-.256-.126-.342-.26-.68-.379-1.025-.529-1.531-.913-3.113-1.143-4.716.163,1.131-.008-.249-.019-.386-.034-.429-.058-.859-.059-1.289-.001-.425.002-.863.061-1.284-.138.984.158-.38.181-.475.247-1.034-.421.492.179-.378.226-.327.406-.68.643-1.001-.576.779.25-.234.326-.315.37-.39.762-.759,1.166-1.113.301-.265.61-.525.927-.771-.737.571.594-.385.735-.473.343-.215.701-.396,1.049-.6.473-.223.481-.235.022-.035.249-.094.502-.178.759-.25.187-.052,1.4-.186.38-.123.532-.033,1.062-.036,1.592.023-1.058-.117.221.096.374.138.199.054,1.652.668.816.255.366.181.726.367,1.076.577.151.09,1.468,1.041.749.463.763.615,1.463,1.312,2.117,2.04.282.313.547.639.82.96.326.41.352.439.077.087.17.225.337.452.503.68.58.798,1.136,1.615,1.692,2.43,1.323,1.942,4.016,2.994,6.157,1.614,1.932-1.246,3.032-4.077,1.614-6.157-2.479-3.637-5.068-7.27-8.841-9.674-3.955-2.52-8.835-3.202-13.188-1.365-3.79,1.599-7.813,4.822-9.607,8.599-1.964,4.134-1.529,8.857-.377,13.174,1.892,7.091,6.475,13.173,12.003,17.874,5.784,4.919,12.402,8.385,18.817,12.365,2.03,1.259,4.02,2.584,6.036,3.865s3.998,2.663,6.223,3.538c2.196.863,5.035-.945,5.536-3.143.589-2.588-.791-4.612-3.143-5.536h0Z"/><path d="m88.327,35.33c-.088-.644-.185-1.288-.281-1.931-.045-.3-.088-.599-.134-.899-.173-1.137.044.931.003.007-.061-1.382.01-2.721.104-4.1.038-.553-.12.664.029-.203.067-.394.133-.789.206-1.182.125-.669.264-1.336.401-2.003.317-1.542.543-3.115.926-4.641.081-.324.213-.641.284-.966.095-.438-.319.456.102-.209.124-.196.797-.933.235-.399.245-.232.466-.49.713-.721.547-.512,1.135-.977,1.715-1.451.627-.513-.164.1.235-.186.281-.202.556-.413.84-.612.621-.436,1.257-.851,1.914-1.232.296-.172.595-.338.899-.495.075-.039,1.28-.585.403-.226.619-.254,1.264-.462,1.915-.617.155-.037,1.38-.186.389-.112.408-.03.811-.053,1.221-.056,2.353-.021,4.61-2.054,4.5-4.5-.108-2.42-1.978-4.523-4.5-4.5-3.964.036-7.697,1.517-10.942,3.73-3.432,2.341-6.819,4.964-8.251,9.004-.567,1.598-.767,3.308-1.103,4.963-.406,1.999-.803,3.984-1.056,6.009-.424,3.407.098,6.552.556,9.92.318,2.341,3.437,3.822,5.536,3.143,2.574-.833,3.484-3.026,3.143-5.536h0Z"/><path d="m127.481,64.497c3.976,3.462,7.767,7.134,11.337,11.015,1.809,1.966,3.563,3.984,5.257,6.051.765.934,1.518,1.877,2.258,2.831-.514-.663.029.042.155.208.203.267.405.535.606.804.442.592.88,1.188,1.313,1.787,3.108,4.304,5.958,8.796,8.498,13.459,1.283,2.354,2.486,4.752,3.601,7.191.25.548.496,1.097.738,1.649.134.306.266.614.398.921-.328-.76-.048-.115.013.034.529,1.299,1.046,2.601,1.531,3.917,1.815,4.933,3.255,10.005,4.25,15.167.252,1.305.474,2.616.667,3.931.039.263.076.527.112.79-.124-.895-.026-.19-.006-.009.09.794.185,1.587.261,2.382.252,2.644.462,5.347.385,8.005-.015.511-.063,1.022-.114,1.53-.031.305,0,1.069.019-.032-.004.205-.067.448-.102.655-.188,1.119-.446,2.226-.774,3.313-.137.456-.287.908-.448,1.356-.083.229-.175.701-.337.883.055-.062.435-.964.088-.209-.433.943-.894,1.868-1.421,2.763-.524.89-1.108,1.736-1.712,2.573-.219.304-.166.527.137-.176-.09.208-.343.423-.49.599-.365.436-.743.862-1.131,1.277-.675.721-1.384,1.411-2.121,2.069-.351.314-.709.621-1.073.921-.239.197-.48.421-.738.592.586-.389.339-.261-.1.059-1.903,1.387-3.931,2.598-6.038,3.649-.534.266-1.072.522-1.616.767-.242.11-.492.251-.746.33,1.108-.344.083-.037-.132.049-1.116.448-2.248.855-3.393,1.224-2.289.738-4.628,1.32-6.995,1.75-.641.117-1.284.216-1.928.316-.825.128.122.001.233-.029-.35.095-.762.093-1.123.131-1.219.13-2.441.216-3.665.266-2.349.096-4.612,2.001-4.5,4.5.105,2.355,1.981,4.603,4.5,4.5,18.272-.75,39.973-10.414,44.019-30.113,1.103-5.371.689-10.896.003-16.296-.723-5.687-1.874-11.285-3.566-16.765-3.351-10.855-8.452-21.192-14.766-30.623-7.024-10.49-15.462-20.036-24.98-28.324-1.774-1.545-4.643-1.875-6.364,0-1.555,1.694-1.896,4.713,0,6.364h0Z"/><path d="m101.095,82.63c1.938-.761,3.665-1.919,5.418-3.027,1.973-1.247,3.93-2.519,5.897-3.777,5.94-3.799,12.171-7,17.76-11.343,5.795-4.503,10.605-10.127,13.218-17.049,1.387-3.674,2.12-7.873,1.595-11.776-.642-4.781-4.151-8.327-7.974-10.941-4.537-3.102-9.903-3.247-14.767-.838-4.431,2.195-7.376,6.405-10.082,10.375-1.329,1.95-.433,5.075,1.614,6.157,2.282,1.206,4.738.467,6.157-1.614.476-.699.952-1.398,1.444-2.086.246-.344.494-.687.75-1.024-.55.722.307-.366.346-.411.541-.643,1.111-1.263,1.722-1.841.305-.289.62-.571.947-.834-.718.578.598-.373.749-.463.351-.209.711-.396,1.076-.577-.858.425.302-.1.43-.141.385-.121.773-.208,1.167-.296-.998.222.186-.002.388-.005.18-.003,1.413.158.397-.032.398.074.773.198,1.163.298,1.117.284-.598-.418.399.168.465.273.938.521,1.389.821.078.052,1.155.841.396.253.317.246.625.506.927.771.606.532,1.176,1.099,1.702,1.712-.617-.719.164.263.234.376.075.122.606,1.268.249.343.152.392.249.795.344,1.204-.207-.886.028.699.028.932-.001.43-.025.861-.059,1.289-.011.137-.181,1.517-.019.386-.108.75-.249,1.496-.423,2.234-.17.72-.371,1.433-.603,2.136-.114.347-.236.691-.365,1.032-.085.226-.174.452-.266.675.22-.519.228-.546.022-.081-.64,1.291-1.297,2.552-2.091,3.758-.394.599-.81,1.183-1.244,1.754.659-.868-.084.085-.191.214-.307.37-.622.734-.943,1.091-.891.99-1.834,1.933-2.816,2.833-.54.495-1.092.978-1.653,1.448-.282.236-.566.469-.853.7-.191.154-.384.306-.577.458.425-.327.436-.337.033-.03-5.055,3.725-10.598,6.587-15.881,9.948-1.945,1.237-3.875,2.496-5.821,3.731-.977.62-1.955,1.237-2.945,1.835-.363.219-.726.438-1.096.644-.453.252-1.514.65.316-.069-2.183.858-3.946,3.053-3.143,5.536.686,2.12,3.19,4.065,5.536,3.143h0Z"/><path d="m120.386,37.723c.458-3.366.982-6.515.556-9.92-.244-1.954-.618-3.872-1.012-5.8-.352-1.721-.549-3.514-1.146-5.173-1.455-4.043-4.809-6.652-8.251-9.004-3.242-2.214-6.98-3.694-10.942-3.73-2.354-.021-4.608,2.085-4.5,4.5.11,2.456,1.977,4.477,4.5,4.5.411.004.812.021,1.221.056-.657-.057-.198-.02.193.068.72.161,1.427.385,2.111.662-.602-.244-.08-.017.22.134.305.153.607.314.904.483.659.375,1.298.785,1.921,1.217.285.197.564.401.844.605,1.096.799-.647-.542.401.311.528.43,1.063.853,1.566,1.312.302.276.58.564.862.86-.424-.445-.047-.077.133.227.186.315.35.793.139.192.133.381.249.764.348,1.155.369,1.458.58,2.962.883,4.435.152.736.306,1.471.444,2.21.061.328.12.656.174.985.064.39.109.854.039.197.155,1.447.109,2.856.127,4.303.01.771.124-.804.027-.175-.045.294-.086.588-.13.882-.105.705-.213,1.409-.309,2.115-.316,2.321.557,4.947,3.143,5.536,2.114.481,5.196-.648,5.536-3.143h0Z"/><path d="m62.827,175.481c-.989,7.366,1.924,15.076,8.967,18.319,6.416,2.955,14.079,2.614,20.601.121,3.881-1.484,7.489-3.551,10.444-6.509,1.666-1.668,1.792-4.719,0-6.364s-4.586-1.78-6.364,0c-.495.496-1.014.959-1.55,1.411-.062.052-.321.297-.368.295-.014,0,.967-.692.344-.274-.331.222-.649.462-.982.681-1.197.786-2.462,1.386-3.74,2.021-.54.269,1.11-.429.282-.119-.154.057-.305.121-.458.18-.307.117-.616.229-.927.336-.699.24-1.408.452-2.124.636-.712.183-1.431.338-2.156.464-.16.028-.322.049-.481.079-.756.144.475-.088.475-.059,0,.029-1.095.117-1.199.125-1.41.114-2.813.091-4.221-.033-.108-.009-.369-.079-.454-.052.04-.013,1.211.209.523.065-.292-.061-.589-.102-.881-.163-.679-.143-1.351-.325-2.007-.552-.427-.147-1.248-.703-.022.027-.238-.141-.516-.235-.764-.361-.562-.288-1.066-.641-1.6-.972-.556-.345.397.305.417.33-.104-.124-.271-.223-.394-.331-.207-.181-.406-.37-.599-.566-.218-.222-.411-.465-.623-.692-.359-.383.282-.066.32.416-.007-.094-.304-.438-.358-.521-.194-.3-.372-.61-.536-.927-.066-.129-.122-.266-.192-.392-.374-.672.356,1.048.109.254-.236-.756-.462-1.489-.618-2.267-.232-1.156.03.8-.02-.185-.023-.448-.057-.891-.061-1.34-.008-1.031.079-2.058.216-3.079.315-2.343-2.294-4.599-4.5-4.5-2.707.121-4.163,1.989-4.5,4.5h0Z"/><path d="m75.706,151.428c-6.107,5.587-10.772,13.06-12.44,21.218-.47,2.3.664,4.971,3.143,5.536,2.245.511,5.031-.677,5.536-3.143.363-1.778.866-3.52,1.519-5.213.087-.226.152-.517.287-.72-.138.208-.334.758-.087.22.194-.423.388-.846.594-1.264.413-.835.86-1.653,1.338-2.453.452-.756.931-1.496,1.435-2.218.267-.383.548-.755.823-1.132.361-.494-.524.643-.132.173.166-.199.324-.404.49-.604,1.189-1.436,2.483-2.777,3.858-4.035,1.741-1.593,1.737-4.77,0-6.364-1.862-1.709-4.506-1.7-6.364,0h0Z"/><path d="m98.366,123.852c-5.341.023-10.797.706-15.9,2.319-4.972,1.571-9.629,4.014-14.022,6.795-1.987,1.258-2.964,4.064-1.614,6.157,1.282,1.989,4.029,2.962,6.157,1.614,2.007-1.271,4.054-2.478,6.176-3.547.53-.267,1.063-.526,1.601-.775.14-.065,1.678-.724.962-.433,1.029-.418,2.073-.799,3.133-1.133,2.279-.72,4.612-1.224,6.972-1.589.551-.08.611-.088.179-.025.305-.037.611-.071.917-.103.609-.063,1.219-.115,1.829-.157,1.202-.082,2.405-.118,3.609-.123,2.354-.01,4.609-2.063,4.5-4.5s-1.977-4.511-4.5-4.5h0Z"/><path d="m98.366,132.852c1.204.005,2.408.041,3.609.123.611.042,1.22.094,1.829.157.306.032.612.066.917.103-.432-.063-.372-.055.179.025,2.36.365,4.694.869,6.972,1.589,1.059.335,2.103.715,3.133,1.133-.716-.291.822.368.962.433.538.249,1.072.508,1.601.775,2.122,1.069,4.169,2.276,6.176,3.547,1.992,1.261,5.049.482,6.157-1.614,1.173-2.221.512-4.811-1.614-6.157-4.392-2.781-9.049-5.224-14.022-6.795-5.103-1.612-10.559-2.296-15.9-2.319-2.354-.01-4.609,2.077-4.5,4.5.11,2.447,1.977,4.489,4.5,4.5h0Z"/><path d="m98.366,155.343c-.679-.006-1.349-.071-2.026-.106-.552-.029.765.15-.107-.017-.376-.072-.75-.139-1.123-.224-.699-.159-1.389-.356-2.068-.585-.316-.107-.629-.222-.941-.34-1.213-.459.752.397-.427-.193-1.358-.679-2.661-1.422-3.895-2.309-.161-.115-.808-.63-.362-.267-.304-.248-.604-.5-.898-.759-.503-.443-.99-.904-1.465-1.377-.963-.961-1.873-1.974-2.741-3.021-.26-.314-.515-.632-.77-.95-.506-.629.104.16-.187-.242-.46-.634-.933-1.259-1.385-1.899-1.929-2.733-3.685-5.584-5.369-8.473-1.185-2.034-4.116-2.93-6.157-1.614s-2.883,3.98-1.614,6.157c6.928,11.889,16.289,25.077,31.536,25.22,2.354.022,4.608-2.086,4.5-4.5-.11-2.457-1.977-4.476-4.5-4.5h0Z"/><path d="m98.366,164.343c15.247-.144,24.607-13.331,31.536-25.22,1.186-2.035.536-5.021-1.614-6.157s-4.891-.558-6.157,1.614c-1.684,2.89-3.441,5.739-5.369,8.473-.411.583-.834,1.158-1.259,1.731-.821,1.107.534-.65-.314.41-.212.266-.425.531-.641.793-.907,1.102-1.858,2.169-2.869,3.178-.475.473-.962.934-1.465,1.377-.236.208-.478.408-.718.611-.242.194-.24.198.005.013l-.365.271c-1.297.936-2.654,1.718-4.078,2.441-.742.376.222-.055-.239.118-.313.118-.624.242-.94.352-.739.257-1.493.474-2.256.648-.311.071-.623.134-.936.19-.473.085-.746.088-.109.031-.738.066-1.469.118-2.211.125-2.353.022-4.61,2.054-4.5,4.5.108,2.419,1.978,4.524,4.5,4.5h0Z"/><path d="m60.368,96.967c-9.297,5.849-7.788,21.657,2.594,25.442,3.021,1.101,6.025.323,8.822-.967,2.419-1.115,4.543-2.69,6.132-4.839,3.289-4.445,2.187-10.811-.931-15.035-1.02-1.381-2.114-2.722-3.639-3.579-.988-.555-2.184-.972-3.276-1.325-2.799-.904-5.795-.905-8.627-.151-2.274.606-3.887,3.236-3.143,5.536.756,2.337,3.098,3.792,5.536,3.143.263-.07.526-.137.793-.192.237-.049.739-.307.159-.044l-.301.041c.19-.02.381-.034.572-.043.183-.008.367-.012.551-.01.228.002,1.555.132.683.018-.753-.099-.193-.02-.004.017.224.044.447.096.668.153.558.145,1.103.333,1.642.539.138.053.275.109.413.161.559.213-.173.148-.445-.196.032.041.473.263.466.263l-.48-.385c.139.115.272.236.4.364.129.128.247.266.372.397.51.537-.164-.176-.191-.276.081.304.532.751.705,1.032.222.36.413.732.611,1.105.353.665-.081-.205-.109-.306.072.263.203.526.287.788.128.397.205.801.309,1.204.156.603-.054-1.189-.03-.252.005.18.023.358.026.539.003.179-.009.357-.011.536-.01.757.011-.326.07-.401-.094.119-.104.492-.149.651-.271.964.279-.436.074-.064-.125.227-.581.793-.611,1.022.013-.1.72-.818.206-.302-.124.124-.24.255-.366.377s-.264.234-.391.356c-.659.632.684-.46.176-.131-.415.27-.818.546-1.25.79-.313.176-.632.341-.954.499-.16.078-.323.15-.483.229-.89.44.74-.251.126-.048-.295.098-1.02.192-1.265.381.089-.069,1.114-.05.356-.059-.265-.003-.563-.039-.825-.027.985-.043.75.13.382.017-.172-.053-.356-.111-.531-.156-.894-.233.681.388.181.073-.192-.121-.405-.239-.604-.346-.332-.177-.329-.46.236.212-.109-.13-.288-.247-.415-.368-.132-.127-.252-.271-.386-.396-.659-.611.465.753.015.048-.25-.392-.499-.773-.711-1.189-.08-.157-.145-.36-.239-.502.056.084.377,1.015.142.3-.124-.378-.252-.751-.35-1.138-.056-.221-.285-1.573-.166-.695.115.852.016.036.005-.12-.017-.241-.026-.482-.028-.723-.003-.403.027-.801.052-1.203.021-.339.211-.713-.07.482.054-.232.084-.471.136-.704.088-.385.197-.766.329-1.139.05-.143.125-.293.167-.44-.353,1.232-.242.574-.058.227.177-.334.461-.645.61-.985-.383.873-.542.625-.199.28.163-.164.314-.339.483-.497.113-.106.237-.2.348-.307.266-.219.117-.102-.447.349.129-.09.261-.176.396-.258,1.991-1.253,2.961-4.068,1.614-6.157-1.286-1.994-4.025-2.955-6.157-1.614h0Z"/><path d="m129.867,96.967c-9.297,5.849-7.788,21.657,2.594,25.442,3.021,1.101,6.025.323,8.822-.967,2.419-1.115,4.543-2.69,6.132-4.839,3.289-4.445,2.187-10.811-.931-15.035-1.02-1.381-2.114-2.722-3.639-3.579-.988-.555-2.184-.972-3.276-1.325-2.799-.904-5.795-.905-8.627-.151-2.274.606-3.887,3.236-3.143,5.536.756,2.337,3.098,3.792,5.536,3.143.263-.07.526-.137.793-.192.237-.049.739-.307.159-.044l-.301.041c.19-.02.381-.034.572-.043.183-.008.367-.012.551-.01.228.002,1.555.132.683.018-.753-.099-.193-.02-.004.017.224.044.447.096.668.153.558.145,1.103.333,1.642.539.138.053.275.109.413.161.559.213-.173.148-.445-.196.032.041.473.263.466.263l-.48-.385c.139.115.272.236.4.364.129.128.247.266.372.397.51.537-.164-.176-.191-.276.081.304.532.751.705,1.032.222.36.413.732.611,1.105.353.665-.081-.205-.109-.306.072.263.203.526.287.788.128.397.205.801.309,1.204.156.603-.054-1.189-.03-.252.005.18.023.358.026.539.003.179-.009.357-.011.536-.01.757.011-.326.07-.401-.094.119-.104.492-.149.651-.271.964.279-.436.074-.064-.125.227-.581.793-.611,1.022.013-.1.72-.818.206-.302-.124.124-.24.255-.366.377s-.264.234-.391.356c-.659.632.684-.46.176-.131-.415.27-.818.546-1.25.79-.313.176-.632.341-.954.499-.16.078-.323.15-.483.229-.89.44.74-.251.126-.048-.295.098-1.02.192-1.265.381.089-.069,1.114-.05.356-.059-.265-.003-.563-.039-.825-.027.985-.043.75.13.382.017-.172-.053-.356-.111-.531-.156-.894-.233.681.388.181.073-.192-.121-.405-.239-.604-.346-.332-.177-.329-.46.236.212-.109-.13-.288-.247-.415-.368-.132-.127-.252-.271-.386-.396-.659-.611.465.753.015.048-.25-.392-.499-.773-.711-1.189-.08-.157-.145-.36-.239-.502.056.084.377,1.015.142.3-.124-.378-.252-.751-.35-1.138-.056-.221-.285-1.573-.166-.695.115.852.016.036.005-.12-.017-.241-.026-.482-.028-.723-.003-.403.027-.801.052-1.203.021-.339.211-.713-.07.482.054-.232.084-.471.136-.704.088-.385.197-.766.329-1.139.05-.143.125-.293.167-.44-.353,1.232-.242.574-.058.227.177-.334.461-.645.61-.985-.383.873-.542.625-.199.28.163-.164.314-.339.483-.497.113-.106.237-.2.348-.307.266-.219.117-.102-.447.349.129-.09.261-.176.396-.258,1.991-1.253,2.961-4.068,1.614-6.157-1.286-1.994-4.025-2.955-6.157-1.614h0Z"/><path d="m117.964,157.147c.872.799,1.716,1.627,2.517,2.498.4.435.791.879,1.171,1.332.19.227.377.456.563.686.896,1.11-.446-.652.346.461,1.304,1.833,2.48,3.739,3.446,5.773.074.156.704,1.648.39.85.205.521.405,1.044.587,1.573.408,1.189.749,2.401,1.014,3.63.118.546.214,1.095.306,1.646.029.173.072.874.007.048.022.278.058.555.082.834.098,1.174.107,2.343.055,3.519-.04.898-.028.396.006.176-.047.3-.109.604-.183.899-.073.291-.194.585-.258.879.133-.613.106-.189-.012.035-.233.441-.499.847-.764,1.267.443-.7.169-.208.01-.043-.26.27-.508.54-.784.795-.183.169-.374.33-.566.488.147-.12.699-.464.004-.036-.429.264-.849.533-1.296.766-.223.116-.45.221-.677.329.162-.077.825-.289.032-.031-.661.215-1.314.424-1.993.579-.3.069-.601.13-.903.184-.101.018-1.041.146-.543.09s-.451.033-.552.041c-.231.018-.462.035-.694.048-1.274.071-2.546.047-3.82.009-.463-.014-.939-.29.51.082-.231-.059-.479-.081-.713-.128-.647-.131-1.286-.295-1.92-.48-.889-.259-1.765-.56-2.626-.898-.198-.078-.407-.15-.598-.241.511.243.511.218.004-.016-.475-.218-.944-.449-1.406-.691-.973-.51-1.92-1.076-2.824-1.701-.206-.143-.406-.297-.614-.438.812.549-.182-.152-.288-.241-.494-.416-.962-.858-1.42-1.313-1.669-1.664-4.718-1.793-6.364,0s-1.781,4.588,0,6.364c3.56,3.549,8.069,6.017,12.824,7.57,4.306,1.407,8.759,1.416,13.21.663,5.891-.996,11.315-4.704,13.382-10.444,1.009-2.802,1.02-5.983.699-8.913-.319-2.911-.906-5.759-1.931-8.506-2.333-6.256-6.128-11.842-11.051-16.355-1.735-1.591-4.671-1.844-6.364,0-1.59,1.732-1.853,4.665,0,6.364h0Z"/></svg>