<?xml version="1.0" encoding="UTF-8"?><svg id="_레이어_1" xmlns="http://www.w3.org/2000/svg" viewBox="0 0 200 200"><g><path d="m100,86.925c-2.329.032-4.468.9-6.572,1.797-2.317.988-4.54,2.185-6.71,3.461-5.481,3.223-10.701,6.957-15.571,11.042-3.907,3.276-8.16,7.054-10.083,11.896-.591,1.489-.654,3.171-.818,4.747-.278,2.677-.19,5.343.37,7.983.979,4.621,3.647,9.102,7.262,12.143,8.697,7.318,21.137,8.991,32.121,9.016,2.354.005,4.609-2.074,4.5-4.5-.109-2.443-1.977-4.494-4.5-4.5-2.292-.005-4.583-.074-6.868-.264-.524-.044-1.048-.093-1.57-.15-.206-.022-1.549-.191-.808-.087-1.181-.166-2.358-.371-3.525-.615-2.209-.463-4.387-1.073-6.509-1.843-.505-.183-1.001-.39-1.505-.577-.545-.202.055.026.139.063-.24-.106-.48-.211-.718-.321-.965-.446-1.909-.94-2.814-1.498-.403-.248-.798-.51-1.184-.784-.167-.118-.336-.236-.496-.362.602.475.043.016-.057-.076-.751-.693-1.429-1.419-2.13-2.159-.45-.475.387.582.018.031-.105-.156-.221-.306-.328-.462-.289-.422-.56-.857-.813-1.302-.226-.397-.436-.803-.631-1.216-.085-.179-.17-.358-.247-.54.339.81.002-.066-.055-.231-.338-.973-.563-1.962-.755-2.972.016.086.05.691.025.16-.014-.306-.053-.611-.068-.917-.032-.631-.031-1.261-.008-1.892.02-.553.058-1.104.109-1.655.029-.315.065-.629.099-.943,0,.002.094-.769.039-.341-.058.451.056-.413.089-.565.04-.182.103-.357.148-.537.174-.699-.073.272-.23.506.093-.138.148-.315.225-.463.201-.387.429-.759.671-1.121.116-.174.239-.343.358-.515.509-.736-.371.443-.187.228.333-.391.648-.797.988-1.183,1.62-1.838,3.425-3.513,5.28-5.11,1.053-.907,2.13-1.787,3.223-2.645.088-.069.423-.277.449-.351.002-.005-.733.559-.344.266.269-.202.534-.407.803-.609.617-.464,1.239-.922,1.865-1.373,2.268-1.635,4.592-3.195,6.974-4.659,2.331-1.433,4.719-2.795,7.206-3.939.249-.114.501-.221.749-.335.613-.281-.545.228-.533.224.149-.046.291-.121.437-.176.457-.174.914-.346,1.381-.492.376-.117.755-.206,1.136-.302.856-.215-.405.023-.517.051.153-.038.333-.027.49-.029,2.353-.032,4.61-2.047,4.5-4.5-.108-2.41-1.978-4.535-4.5-4.5h0Z"/><path d="m82.255,117.968v1.933c-.023.62.106,1.197.388,1.734.181.558.492,1.041.93,1.448.408.439.89.749,1.448.93.536.282,1.114.411,1.734.388l1.196-.161c.762-.214,1.424-.6,1.986-1.157l.704-.911c.407-.702.612-1.459.614-2.271v-1.933c.023-.62-.106-1.197-.388-1.734-.181-.558-.492-1.041-.93-1.448-.408-.439-.89-.749-1.448-.93-.536-.282-1.114-.411-1.734-.388l-1.196.161c-.762.214-1.424.6-1.986,1.157l-.704.911c-.407.702-.612,1.459-.614,2.271h0Z"/><path d="m100,95.925c.125.002.251.016.376.018.701.009-1.189-.253-.66-.089.354.11.735.157,1.093.261.368.106.731.229,1.091.359.226.082.45.171.675.257.93.354-.816-.368-.183-.082,2.139.965,4.209,2.053,6.233,3.24,2.365,1.386,4.671,2.876,6.923,4.439,1.19.826,2.365,1.673,3.524,2.542.269.202.536.406.804.609.633.478-.686-.542.108.084.59.466,1.178.933,1.759,1.41,1.962,1.61,3.873,3.295,5.638,5.12.752.777,1.45,1.592,2.145,2.42.392.467-.703-.984-.127-.151.102.148.209.293.31.443.246.364.479.738.684,1.126.081.152.144.317.231.466.162.279-.427-1.262-.221-.502.118.437.214.841.276,1.293-.097-.705.078.734.097.919.054.55.098,1.102.123,1.655s.033,1.104.018,1.656c-.008.315-.023.63-.047.945-.014.186-.18,1.154-.014.285-.181.943-.384,1.869-.689,2.782-.085.254-.188.503-.272.757.022-.068.291-.623.07-.155-.252.534-.505,1.062-.797,1.575-.221.39-.458.771-.707,1.144-.171.255-.863,1.12-.298.448-.647.771-1.334,1.497-2.09,2.162-.084.074-.744.64-.345.311.378-.312-.547.395-.532.384-.443.308-.898.599-1.362.874-.973.577-1.987,1.051-3.008,1.532-.469.221.11-.045.174-.071-.358.142-.714.286-1.074.423-.641.244-1.288.473-1.939.688-1.143.377-2.301.708-3.469.997-1.231.305-2.474.56-3.725.772-.221.037-.441.074-.662.109.033-.005-1.204.174-.732.111.517-.068-.406.046-.515.059-.372.043-.745.082-1.118.118-2.581.25-5.174.339-7.766.345-2.354.005-4.609,2.066-4.5,4.5s1.977,4.506,4.5,4.5c9.752-.022,20.457-1.325,28.892-6.628,4.2-2.64,7.382-6.334,9.307-10.896,2.02-4.786,2.168-10.341,1.052-15.388-.512-2.313-2.034-4.308-3.485-6.107-1.574-1.952-3.403-3.699-5.278-5.358-4.759-4.212-9.962-7.997-15.365-11.339-2.492-1.541-5.05-3.007-7.723-4.212-2.332-1.05-4.793-2.122-7.4-2.158-2.355-.032-4.608,2.093-4.5,4.5.11,2.466,1.977,4.465,4.5,4.5h0Z"/><path d="m108.745,117.968v1.933c-.023.62.106,1.197.388,1.734.181.558.492,1.041.93,1.448.408.439.89.749,1.448.93.536.282,1.114.411,1.734.388l1.196-.161c.762-.214,1.424-.6,1.986-1.157l.704-.911c.407-.702.612-1.459.614-2.271v-1.933c.023-.62-.106-1.197-.388-1.734-.181-.558-.492-1.041-.93-1.448-.408-.439-.89-.749-1.448-.93-.536-.282-1.114-.411-1.734-.388l-1.196.161c-.762.214-1.424.6-1.986,1.157l-.704.911c-.407.702-.612,1.459-.614,2.271h0Z"/></g><g><path d="m18.194,69.614c-3.105,14.414-5.303,29.032-6.563,43.723-.611,7.121-.994,14.262-1.148,21.408-.153,7.126-.551,14.59,1.028,21.593,2.669,11.834,12.825,20.051,23.51,24.639,4.966,2.132,10.083,3.725,15.422,4.583,5.16.829,10.372,1.305,15.586,1.624,11.306.692,22.648.71,33.97.575,2.353-.028,4.61-2.05,4.5-4.5-.108-2.414-1.978-4.53-4.5-4.5-9.607.115-19.222.103-28.823-.309-5.075-.218-10.152-.538-15.198-1.132-.322-.038-.643-.077-.965-.117-.084-.011-1.135-.148-.347-.043.78.104-.242-.035-.33-.048-.303-.043-.605-.088-.907-.135-1.05-.161-2.097-.34-3.138-.546-2.296-.454-4.559-1.066-6.784-1.793-1.388-.453-2.75-.966-4.107-1.503-.157-.062-.791-.345-.018-.004-.36-.159-.721-.315-1.079-.478-.711-.324-1.416-.663-2.113-1.017-2.38-1.21-4.64-2.609-6.799-4.178-.998-.726.686.585-.257-.199-.234-.195-.473-.385-.706-.581-.507-.427-1.003-.868-1.486-1.323-.944-.889-1.839-1.831-2.667-2.829-.148-.179-.293-.359-.438-.54.701.874-.015-.038-.126-.193-.331-.464-.647-.939-.947-1.423-.297-.481-.578-.971-.842-1.471-.157-.298-.308-.6-.452-.905-.095-.201-.454-1.227-.086-.158-.545-1.58-1.061-3.116-1.379-4.764-.057-.293-.104-.588-.157-.882-.26-1.428.068.865-.084-.578-.094-.892-.173-1.784-.224-2.68-.186-3.259-.15-6.535-.123-9.798.058-6.983.336-13.964.832-20.93,1.13-15.897,3.237-30.477,6.623-46.191.495-2.295-.682-4.975-3.143-5.536-2.266-.516-5.005.682-5.536,3.143h0Z"/><path d="m51.842,75.355c-10.288,6.472-8.67,24.161,2.852,28.362,3.335,1.216,6.637.372,9.73-1.054,2.704-1.247,5.116-2.983,6.899-5.386,3.704-4.994,2.408-12.079-1.089-16.815-1.113-1.507-2.319-2.977-3.983-3.912-1.102-.619-2.434-1.08-3.649-1.472-3.147-1.017-6.499-1.025-9.684-.177-2.274.606-3.887,3.236-3.143,5.536.756,2.337,3.098,3.792,5.536,3.143.308-.082.615-.161.927-.225.157-.032.936-.141.288-.066-.734.085.36-.013.418-.015.214-.01.43-.014.644-.012.206.002.413.009.619.022.109.007,1.106.058.281.012-.696-.039-.096-.004.097.034.262.052.522.112.781.179.653.17,1.291.39,1.921.63.161.062.321.127.483.188.696.263-.348-.058-.339-.152-.004.045.617.265.545.308l-.407-.331c.162.135.318.277.468.425.151.149.289.31.435.465.549.58-.02-.083-.104-.169.322.329.583.816.824,1.207.26.421.484.856.715,1.293.404.763-.081-.076-.051-.176-.03.1.3.809.336.921.15.464.233.94.361,1.408.174.634-.035-1.127-.008-.092.005.211.027.419.03.63.003.21-.01.417-.013.627-.013.925.023-.293.054-.266.06.05-.146.663-.174.761-.04.152-.087.302-.14.449.244-.534.294-.648.149-.342-.138.248-.445,1.086-.714,1.195.012-.005.735-.814.122-.199-.145.146-.281.299-.429.441s-.309.273-.457.416c-.731.702.594-.379.051-.033-.488.311-.956.639-1.462.924-.366.206-.739.399-1.116.584-.187.092-.378.176-.565.268-.997.494.626-.194-.034.021-.06.02-1.479.436-1.479.445.007-.08,1.128-.035.214-.042-.219-.002-.762-.087-.965-.032.598-.163.723.143.244-.008-.2-.063-.417-.129-.621-.183-.98-.258.543.348.029.008-.218-.144-.476-.283-.707-.405-.601-.317.187-.091.121.129.003-.009-.424-.373-.485-.431-.155-.148-.294-.318-.452-.463-.702-.646.375.644-.102-.099-.294-.458-.584-.904-.831-1.391-.047-.093-.233-.569-.28-.587.081.032.363.999.089.169-.146-.442-.295-.879-.41-1.331-.046-.181-.088-.362-.126-.544-.033-.159-.204-1.174-.082-.37.123.811.001-.116-.008-.242-.02-.281-.031-.563-.033-.845-.004-.472.033-.937.061-1.407.021-.356.232-.632-.054.361.075-.261.099-.558.16-.824.103-.451.231-.896.384-1.333.039-.11.186-.381.195-.515-.28.652-.319.76-.116.326l.125-.243c.142-.268.721-.895.714-1.152.013.443-.639.702-.113.173.191-.192.367-.396.565-.582.132-.124.278-.234.407-.359.261-.214.138-.118-.368.289.151-.106.305-.206.463-.302,1.991-1.253,2.961-4.068,1.614-6.157-1.286-1.994-4.025-2.955-6.157-1.614h0Z"/><path d="m25.716,67.628c-.741-.606-1.428-1.263-2.06-1.982-.161-.184-.319-.371-.473-.56.321.428.33.438.025.029-.288-.412-.578-.82-.85-1.243-1.04-1.622-1.91-3.352-2.666-5.123.414.968-.203-.536-.268-.706-.181-.471-.355-.944-.523-1.419-.284-.804-.552-1.614-.807-2.427-.721-2.301-1.388-4.621-2.009-6.952-1.244-4.668-2.237-9.384-2.968-14.159-.077-.555-.088-.625-.034-.211-.041-.313-.08-.626-.118-.939-.076-.626-.145-1.253-.209-1.881-.11-1.098-.201-2.197-.271-3.298-.159-2.519-.197-5.043-.123-7.566.07-2.355-2.12-4.607-4.5-4.5-2.498.112-4.425,1.977-4.5,4.5-.24,8.131.793,16.281,2.527,24.215,1.591,7.277,3.525,14.728,6.749,21.473,1.616,3.382,3.787,6.723,6.712,9.113,1.82,1.487,4.608,1.913,6.364,0,1.513-1.648,1.946-4.773,0-6.364h0Z"/><path d="m9.048,22.744c1.207-.191,2.414-.381,3.623-.561.564-.084,1.128-.167,1.693-.245-.619.085.186-.024.257-.033.404-.05.808-.1,1.213-.147,2.326-.268,4.663-.444,7.003-.524,4.566-.158,9.144.044,13.68.593.108.013,1.031.131.516.063-.463-.062.269.039.292.042.593.087,1.185.177,1.777.274,1.183.195,2.361.414,3.535.656,2.274.47,4.53,1.028,6.76,1.674s4.435,1.379,6.607,2.199c2.268.856,3.217,1.257,5.58,2.38,4.974,2.364,9.723,5.163,14.464,7.956,2.03,1.196,5.024.529,6.157-1.614,1.143-2.163.553-4.88-1.614-6.157-8.734-5.145-17.564-9.983-27.294-12.992-9.37-2.898-19.306-4.297-29.111-4.111-5.895.112-11.714.949-17.528,1.868-2.332.368-3.833,3.403-3.143,5.536.82,2.533,3.036,3.538,5.536,3.143h0Z"/><path d="m100,31.498c-2.17-.005-4.336-.173-6.492-.416-.549-.062-1.096-.132-1.644-.199-.582-.071.921.131.052.007-.27-.039-.54-.077-.81-.116-1.098-.161-2.194-.335-3.288-.518-3.141-.526-6.318-1.339-9.5-1.57-2.353-.171-4.603,2.192-4.5,4.5.116,2.584,1.979,4.317,4.5,4.5.893.065-.588-.097-.59-.093.009-.026.641.098.715.11.682.112,1.361.236,2.041.358,1.848.334,3.696.67,5.549.974,4.607.756,9.288,1.452,13.967,1.463,2.354.006,4.609-2.074,4.5-4.5-.109-2.443-1.977-4.494-4.5-4.5h0Z"/><path d="m143.616,83.126c.229.144.592.614.226.114-.362-.496-.089-.082.075.076.295.282.574.569.855.865.526.554-.21-.191-.203-.274-.01.104.309.456.375.563.095.154.186.311.273.469.112.204.338,1.012.192.322-.156-.736.027.085.078.229.061.174.118.35.172.526.107.355.197.716.272,1.079.028.135.123,1.036.059.231-.066-.823.003.12.012.24.035.469.045.939.032,1.409-.009.319-.172.831-.079,1.124-.192-.603.138-.881.015-.224-.034.183-.072.366-.114.548-.101.437-.225.869-.368,1.294-.032.096-.131.512-.222.612.229-.522.274-.63.135-.326-.067.148-.137.295-.212.44-.221.434-.467.854-.741,1.257l-.091.134c-.289.398-.252.35.111-.144-.01.087-.411.453-.435.478-.151.155-.311.298-.468.447-.641.61.129-.063.145-.099-.072.159-.533.344-.691.432-.141.082-.285.158-.432.228.531-.208.64-.254.326-.138-.207.059-.409.14-.618.196l-.156.042c-.5.1-.419.103.244.008-.159.112-1.134.128-1.287.01.266.204.759.188.201-.012-.268-.096-.551-.156-.821-.251-.282-.099-.998-.214-.044.002-.293-.066-.612-.28-.878-.411-.801-.392-1.583-.826-2.32-1.329l-.13-.088c-.395-.287-.341-.24.162.141-.11-.028-.415-.354-.47-.404-.152-.138-.3-.281-.443-.428-.108-.11-.212-.223-.312-.339-.217-.252-.142-.148.223.314-.081-.313-.476-.764-.645-1.051-.511-.866.147.642.031.049-.048-.246-.134-.514-.205-.755-.144-.486.187-.328.019.272.037-.134-.033-.463-.036-.625-.004-.209-.001-.42.009-.629.01-.211.027-.421.051-.631l-.069.565c-.125-.167.33-1.375.392-1.566.067-.207.143-.411.216-.616.234-.659.039.17-.072.168.063.001.644-1.235.687-1.309.276-.47.587-.91.898-1.358.373-.538-.743.765-.009.039.225-.222.446-.456.664-.683.485-.504-.168.118-.169.124l.267-.163c.478-.24.366-.202-.334.115.622-.03,1.461-.568,2.066-.754.414-.127.833-.238,1.256-.326.052-.011.477-.047.545-.101-.725.089-.836.106-.333.052l.3-.023c.594-.037,1.171.012,1.764.024.639.013-.802-.18-.154-.023.428.104.861.18,1.287.294,2.272.605,4.993-.76,5.536-3.143.538-2.362-.709-4.887-3.143-5.536-2.951-.786-6.012-.836-8.967-.037-2.462.666-4.965,1.695-6.737,3.58-4.322,4.596-6.417,11.508-3.601,17.394,1.237,2.585,3.667,4.593,6.118,5.973,2.662,1.499,5.697,2.786,8.807,2.432,6.454-.735,11.084-6.286,12.036-12.528s-.999-12.848-6.581-16.359c-1.996-1.255-5.047-.486-6.157,1.614-1.171,2.216-.516,4.817,1.614,6.157h0Z"/><path d="m173.127,72.006c3.003,13.938,4.986,26.943,6.199,40.845.607,6.959.997,13.937,1.167,20.92.087,3.557.12,7.116.089,10.675-.013,1.494-.039,2.989-.125,4.481-.043.746-.1,1.491-.176,2.235-.005.053-.205,1.508-.063.581-.068.443-.142.885-.227,1.325-.316,1.635-.785,3.21-1.379,4.764.399-1.045-.221.447-.383.764-.308.604-.64,1.195-.997,1.771-.3.485-.616.959-.947,1.423-.018.026-.693.934-.266.375s-.278.336-.297.359c-.828.998-1.723,1.939-2.667,2.829-.483.455-.979.895-1.486,1.323-.233.196-.471.386-.706.581-.942.783.744-.52-.257.199-1.122.806-2.252,1.589-3.433,2.307-1.097.667-2.221,1.29-3.366,1.871-.58.295-1.166.579-1.757.853-.357.166-.716.324-1.075.485-1.191.534.835-.325-.379.161-4.532,1.814-9.206,3.101-14.029,3.842-.496.076-1.021.208-1.524.221,1.261-.033.226-.032-.062.004-.268.034-.535.066-.803.098-1.277.152-2.556.285-3.837.403-2.486.229-4.976.405-7.469.547-10.944.623-21.919.641-32.877.51-2.355-.028-4.608,2.09-4.5,4.5.11,2.462,1.977,4.47,4.5,4.5,9.978.119,19.964.105,29.934-.359,10.22-.475,20.746-1.149,30.461-4.6,10.878-3.865,21.883-10.684,26.543-21.727,2.789-6.61,2.689-13.92,2.651-20.97-.039-7.145-.307-14.29-.804-21.418-1.149-16.491-3.497-32.911-6.979-49.07-.496-2.304-3.314-3.862-5.536-3.143-2.428.786-3.675,3.067-3.143,5.536h0Z"/><path d="m180.648,73.992c5.219-4.266,7.978-11.148,9.936-17.404,2.451-7.83,4.316-15.809,5.362-23.949.573-4.46.823-8.953.69-13.449-.069-2.351-2.02-4.611-4.5-4.5-2.379.107-4.575,1.979-4.5,4.5s.036,5.046-.123,7.566c-.069,1.101-.16,2.201-.271,3.298-.063.628-.133,1.254-.209,1.881-.038.313-.077.626-.118.939.055-.415.044-.344-.034.211-.731,4.775-1.724,9.491-2.968,14.159-.621,2.33-1.288,4.65-2.009,6.952-.255.814-.522,1.624-.807,2.427-.168.475-.342.949-.523,1.419-.065.17-.682,1.674-.268.706-.756,1.771-1.626,3.501-2.666,5.123-.271.423-.562.832-.85,1.243-.305.409-.296.399.025-.029-.154.19-.312.376-.473.56-.631.719-1.319,1.377-2.06,1.982-1.83,1.496-1.668,4.832,0,6.364,1.945,1.785,4.411,1.596,6.364,0h0Z"/><path d="m193.344,14.065c-5.218-.824-10.447-1.607-15.732-1.815-4.79-.188-9.594.016-14.352.604-10.074,1.244-19.763,3.974-28.959,8.289-5.128,2.406-10.014,5.285-14.891,8.158-2.028,1.195-2.935,4.109-1.614,6.157s3.986,2.893,6.157,1.614c4.2-2.474,8.405-4.951,12.768-7.13.978-.488,1.964-.961,2.958-1.415.545-.249,1.093-.491,1.643-.729.094-.041.793-.329.167-.071.277-.114.554-.227.832-.339,2.155-.865,4.344-1.643,6.561-2.334,4.434-1.382,8.975-2.415,13.57-3.089.222-.033.445-.065.667-.096-.743.103.015,0,.141-.015.595-.069,1.19-.141,1.786-.203,1.192-.123,2.387-.222,3.583-.297,2.242-.14,4.49-.195,6.737-.164,2.546.035,5.091.181,7.624.44.716.073,1.431.156,2.146.245.084.011,1.076.141.613.078-.319-.043.865.124.854.123,1.451.21,2.899.44,4.348.668,2.316.366,4.954-.592,5.536-3.143.491-2.156-.657-5.143-3.143-5.536h0Z"/><path d="m100,40.498c4.679-.011,9.36-.707,13.967-1.463,1.816-.298,3.626-.626,5.436-.954.69-.125,1.38-.251,2.071-.365.244-.04.489-.073.733-.115-.008.001-1.417.149-.526.084,2.342-.17,4.614-1.948,4.5-4.5-.103-2.292-1.986-4.683-4.5-4.5-3.182.231-6.36,1.044-9.5,1.57-1.041.174-2.083.34-3.127.494-.27.04-.539.079-.809.117-.619.087-.474.013.053-.005-.542.018-1.104.14-1.643.202-2.21.252-4.43.429-6.656.434-2.354.006-4.609,2.066-4.5,4.5s1.977,4.506,4.5,4.5h0Z"/></g></svg>