<?xml version="1.0" encoding="UTF-8"?><svg id="_레이어_2" xmlns="http://www.w3.org/2000/svg" viewBox="0 0 172.35 203.527"><g id="_레이어_1-2"><g><path d="m52.389,44.655c-5.767,1.012-10.869,4.914-14.871,8.993-4.922,5.018-8.93,11.018-12.155,17.244-3.295,6.362-5.982,13.171-7.504,20.184-1.776,8.189-2.839,16.657-3.756,24.979-1.843,16.736-1.783,34.17,3.75,50.261,2.442,7.102,5.719,13.764,10.976,19.219,4.291,4.453,9.593,7.849,15.259,10.271,5.789,2.475,11.82,4.112,17.991,5.314s12.395,2.301,18.682,2.394c1.987.03,3.974-.005,5.961-.057,2.351-.061,4.611-2.026,4.5-4.5-.107-2.386-1.979-4.565-4.5-4.5-3.469.09-6.949.137-10.412-.143-.676-.055-1.351-.127-2.025-.203-1.085-.123.63.105-.181-.023-.358-.056-.717-.11-1.075-.167-1.396-.221-2.791-.448-4.185-.686-5.641-.964-11.273-2.117-16.709-3.932-1.351-.451-2.667-.978-3.998-1.481-.582-.22.771.344.204.088-.143-.065-.289-.125-.433-.188-.288-.127-.574-.256-.86-.387-.665-.307-1.323-.627-1.974-.962-1.254-.646-2.48-1.346-3.669-2.106-.574-.366-1.139-.746-1.694-1.14-.299-.212-.586-.447-.89-.651-.417-.28.278.219.284.223-.175-.106-.336-.266-.495-.394-1.118-.906-2.185-1.875-3.192-2.903-.494-.504-.974-1.022-1.439-1.554-.253-.29-.502-.584-.746-.882-.247-.301-.745-.997-.225-.269-1.875-2.625-3.462-5.326-4.783-8.274.398.888-.114-.3-.2-.517-.163-.411-.328-.821-.487-1.233-.407-1.05-.791-2.109-1.151-3.177-.619-1.836-1.168-3.696-1.65-5.573-.516-2.01-.955-4.041-1.323-6.084-.157-.874-.301-1.751-.433-2.63-.044-.293-.085-.586-.127-.879.013.091.078.63.013.096-.071-.588-.145-1.176-.21-1.765-.879-8.005-.787-16.091-.167-24.111.156-2.019.346-4.036.564-6.05.105-.97.216-1.939.333-2.907.054-.447.109-.893.165-1.34.028-.223.056-.446.085-.669-.004.034.157-1.208.095-.739-.061.463.037-.27.04-.293.031-.223.061-.445.092-.668.072-.519.146-1.037.22-1.556.149-1.035.303-2.069.461-3.103.303-1.984.622-3.966.949-5.947.556-3.358,1.149-6.683,2.087-9.958.457-1.595.969-3.173,1.53-4.734.275-.766.562-1.527.86-2.284.138-.351.279-.702.422-1.051.072-.175.144-.35.217-.525-.36.871-.01.032.068-.146,1.365-3.129,2.915-6.179,4.648-9.12.848-1.439,1.74-2.852,2.68-4.233.443-.65.896-1.292,1.36-1.927.211-.289.43-.573.641-.862.386-.529-.461.576-.054.068.147-.183.29-.368.437-.551,1.865-2.323,3.901-4.524,6.171-6.458.273-.232.552-.457.828-.685.652-.538-.638.455.041-.03.552-.395,1.103-.79,1.676-1.154.51-.324,1.032-.63,1.565-.914.278-.148.56-.292.845-.427.118-.056.248-.103.362-.168.489-.277-.873.33-.351.144,1.075-.384,2.122-.735,3.251-.933,2.324-.408,3.842-3.375,3.143-5.536-.809-2.501-3.045-3.58-5.536-3.143h0Z"/><path d="m25.519,155.4c1.641-1.783,3.351-3.5,5.142-5.132.851-.776,1.72-1.533,2.605-2.27.413-.344.829-.684,1.249-1.019.209-.167.419-.332.63-.498-.501.394-.065.051.2-.148,3.606-2.716,7.452-5.114,11.477-7.158.92-.467,1.848-.917,2.786-1.347.526-.242,1.054-.477,1.585-.708.121-.052.873-.366.349-.15-.553.228.427-.171.531-.213,2.08-.837,4.194-1.588,6.335-2.253,4.222-1.312,8.545-2.29,12.915-2.963.254-.039.508-.077.763-.114.135-.02,1.424-.179.333-.049.575-.068,1.15-.143,1.726-.207,1.218-.135,2.439-.248,3.661-.338,2.586-.19,5.177-.278,7.77-.283,2.354-.004,4.609-2.067,4.5-4.5s-1.977-4.504-4.5-4.5c-18.905.034-38.019,4.908-53.489,16.067-4.68,3.376-9.02,7.173-12.928,11.42-1.594,1.732-1.842,4.673,0,6.364,1.735,1.593,4.661,1.85,6.364,0h0Z"/><path d="m58.934,141.34c-2.462-.051-4.918,1.126-6.495,3.004-1.734,2.065-2.462,4.457-2.649,7.124-.189,2.684.018,5.557,1.854,7.665,1.4,1.607,3.545,2.635,5.506,3.359,2.18.805,4.506.906,6.78.556,2.09-.321,3.908-1.317,5.508-2.669,3.032-2.562,4.559-7.277,3.091-11.039-.967-2.479-2.694-4.463-5.006-5.797-2.096-1.209-4.445-1.768-6.795-2.221-1.203-.232-2.381-.182-3.468.454-.933.546-1.824,1.617-2.068,2.689-.506,2.223.671,5.06,3.143,5.536,1.599.308,3.193.632,4.702,1.261l-1.075-.454c.67.297,1.297.648,1.889,1.082l-.911-.704c.496.385.94.81,1.334,1.3l-.704-.911c.292.389.533.789.733,1.232l-.454-1.075c.173.427.291.849.358,1.304l-.161-1.196c.047.438.045.862-.004,1.3l.161-1.196c-.073.5-.202.976-.385,1.448l.454-1.075c-.225.532-.507,1.024-.847,1.49l.704-.911c-.397.513-.845.962-1.357,1.359l.911-.704c-.417.304-.854.558-1.326.767l1.075-.454c-.613.248-1.241.41-1.895.504l1.196-.161c-.741.085-1.471.077-2.211-.011l1.196.161c-.897-.129-1.757-.37-2.597-.71l1.075.454c-.892-.383-1.734-.859-2.505-1.451l.911.704c-.218-.181-.413-.368-.595-.585l.704.911c-.131-.186-.224-.353-.315-.562l.454,1.075c-.073-.227-.121-.438-.159-.674l.161,1.196c-.142-1.319-.15-2.687.015-4.003l-.161,1.196c.102-.671.263-1.312.515-1.943l-.454,1.075c.2-.448.441-.853.739-1.243l-.704.911c.267-.322.554-.608.881-.87l-.911.704c.277-.202.559-.372.868-.518l-1.075.454c.314-.129.624-.218.958-.273l-1.196.161c.205-.021.399-.029.605-.025,2.355.049,4.607-2.105,4.5-4.5-.111-2.48-1.977-4.448-4.5-4.5h0Z"/><path d="m68.609,179.716c2.961,1.285,5.953,2.495,9,3.561,2.979,1.042,6.057,1.928,9.246,1.883,2.353-.033,4.61-2.046,4.5-4.5-.108-2.41-1.978-4.535-4.5-4.5-.689.01-1.367-.03-2.052-.111l1.196.161c-2.362-.325-4.622-1.114-6.857-1.916-1.145-.411-2.283-.84-3.415-1.287-.518-.205-1.035-.414-1.551-.626-.133-.055-1.116-.485-.445-.184.691.31-.462-.201-.58-.253-1.153-.5-2.203-.802-3.468-.454-1.044.287-2.175,1.095-2.689,2.068-.552,1.044-.828,2.31-.454,3.468.336,1.038,1.021,2.235,2.068,2.689h0Z"/><path d="m58.227,22.516c-8.995,1.439-12.929,11.874-14.961,19.512-2.405,9.039-4.007,21.562,5.488,27.174,2.432,1.437,5.936.143,6.61-2.689.442-1.855.992-3.68,1.675-5.461.097-.254.197-.507.3-.76-.194.446-.186.428.023-.053.167-.372.334-.745.509-1.114.408-.861.846-1.708,1.311-2.54.933-1.668,1.993-3.243,3.117-4.787-.532.731.259-.321.303-.376.344-.422.696-.838,1.056-1.246.63-.715,1.287-1.405,1.962-2.078l-7.682-3.182c.589,4.868,1.683,9.549,3.571,14.084.981,2.356,2.068,4.651,3.375,6.845,1.422,2.386,3.073,5.521,5.963,6.24,3.865.962,6.39-2.132,7.362-5.436.306-1.041.63-2.074.997-3.095.184-.511.384-1.015.578-1.522.199-.485.204-.503.016-.052.108-.249.218-.497.331-.743.898-1.966,1.95-3.863,3.175-5.644.092-.134,1.066-1.461.49-.715.328-.425.675-.838,1.028-1.243.709-.813,1.465-1.579,2.255-2.314,1.729-1.606,1.746-4.761,0-6.364-1.851-1.699-4.52-1.713-6.364,0-2.933,2.725-5.396,6.023-7.277,9.553-.947,1.777-1.751,3.634-2.483,5.509-.345.885-.662,1.78-.953,2.684-.145.451-.283.904-.416,1.36-.057.195-.113.39-.167.585-.154.463-.12.413.103-.15-1.117,1.763.635,1.781,5.256.055l-.249-.352c-.28-.494-.655-.953-.965-1.431-.508-.785-.992-1.585-1.452-2.399s-.896-1.641-1.307-2.481c-.253-.517-.492-1.04-.73-1.564-.581-1.28.297.793-.219-.515-.74-1.874-1.383-3.783-1.889-5.734-.253-.974-.476-1.957-.666-2.945-.082-.424-.157-.849-.227-1.274-.046-.284-.09-.568-.132-.853.063.484.061.455-.007-.087-.223-1.843-.954-3.347-2.766-4.112-1.651-.697-3.627-.356-4.916.93-6.141,6.128-10.56,13.941-12.569,22.386l6.61-2.689c-.216-.121-.427-.252-.631-.393.366.3.426.346.181.137-.304-.306-.618-.6-.917-.911-.627-.653.301.58-.188-.279-.185-.325-.374-.649-.559-.974-.502-.881.138.585-.144-.303-.132-.418-.275-.829-.381-1.255-.036-.142-.293-1.587-.2-.858-.06-.47-.082-.949-.097-1.422-.029-.954.01-1.91.09-2.861.027-.318.059-.635.095-.952.063-.516.077-.633.04-.35-.038.281-.02.167.053-.343.048-.312.098-.623.151-.934.329-1.943.757-3.869,1.278-5.769s1.135-3.776,1.848-5.613c.156-.402.398-.926.082-.229.172-.381.343-.761.527-1.136.343-.699.716-1.385,1.127-2.047.189-.304.392-.596.588-.895.559-.856-.466.484.15-.213.539-.611,1.086-1.166,1.691-1.712-.539.488-.239.17.172-.091.284-.18.578-.327.87-.492.826-.466-.699.135.165-.045.448-.093.878-.226,1.332-.299,2.331-.373,3.834-3.4,3.143-5.536-.819-2.53-3.037-3.543-5.536-3.143h0Z"/><path d="m80.748,47.363c.17,1.753.164,3.494-.023,5.246-.036.324-.035.303.005-.062l-.078.452c-.096.45-.177.9-.285,1.347-.216.898-.492,1.777-.801,2.648-.694,1.959.493,4.013,2.068,5.082,1.939,1.316,4.435,1.375,6.699,1.415,2.005.035,4.008-.09,5.998-.329,4.242-.511,8.387-1.428,12.452-2.74,7.609-2.456,15.175-5.638,21.326-10.847,1.803-1.527,1.69-4.813,0-6.364-1.919-1.761-4.441-1.629-6.364,0-.319.27-.639.541-.969.798.684-.533-.398.276-.435.302-.691.49-1.4.953-2.122,1.394-1.403.858-2.859,1.629-4.342,2.339-.783.375-1.576.723-2.369,1.075-.435.193.412-.16-.329.136-.404.161-.807.326-1.212.485-1.696.666-3.408,1.291-5.139,1.86-3.375,1.11-6.812,1.975-10.321,2.534-1.034.165.316-.014-.637.082-.46.046-.919.097-1.38.135-.922.076-1.846.123-2.77.14s-1.855.002-2.78-.048c-.117-.006-1.255-.144-.655-.032.332.05.273.029-.176-.064.476.239.498.225.066-.042l2.068,5.082c1.355-3.821,1.895-7.986,1.504-12.023-.226-2.336-1.908-4.616-4.5-4.5-2.244.1-4.743,1.991-4.5,4.5h0Z"/><path d="m60.219,22.604c-.846-.247-1.687-.506-2.52-.792-.386-.132-.77-.27-1.152-.413-.236-.088-1.366-.548-.626-.23-1.607-.691-3.166-1.513-4.61-2.504-.216-.148-.949-.726-.377-.253-.361-.299-.718-.6-1.061-.92-.295-.275-.58-.559-.856-.853-.201-.215-.9-1.083-.394-.397-.488-.662-.927-1.358-1.305-2.089-.087-.169-.17-.34-.254-.51-.035-.072-.258-.651-.075-.158.186.5-.026-.101-.047-.168-.076-.24-.161-.477-.232-.718-.123-.42-.184-.86-.309-1.276-.147-.489.008.205.016.276-.021-.184-.038-.369-.052-.554-.027-.369-.038-.738-.03-1.107.008-.409.205-1.317-.007-.448.102-.417.172-.837.297-1.249.054-.176.125-.348.174-.525-.072.258-.359.403-.091.22.033-.023.222-.386.229-.438l-2.114.608c-2.121.067-2.761.306-1.92.717.376.312.942.517,1.376.742,3.706,1.918,7.659,3.446,11.713,4.442,4.499,1.106,9.179,1.634,13.811,1.543,2.352-.046,4.61-2.037,4.5-4.5-.107-2.399-1.978-4.549-4.5-4.5-2.236.044-4.463-.062-6.686-.31-.919-.103-.33-.042-.132-.013-.295-.043-.589-.088-.883-.137-.514-.084-1.027-.178-1.538-.279-1.168-.231-2.328-.505-3.476-.821-1.076-.296-2.143-.629-3.196-.999-.492-.173-.98-.354-1.466-.542-.208-.081-.416-.163-.623-.246-1.321-.529.382.178-.364-.156-1.02-.456-2.026-.938-3.013-1.461C47.016.837,45.623-.055,43.956.003c-6.198.216-7.04,8.547-6.329,13.159.664,4.307,3.195,8.416,6.48,11.229,3.966,3.397,8.745,5.438,13.719,6.891,2.259.66,5.002-.799,5.536-3.143.549-2.409-.724-4.829-3.143-5.536h0Z"/><path d="m70.933,15.165c.859-.117,2.338-.319,2.807-.381.561-.075,2.126-.28,3.054-.398,2.111-.268,4.224-.519,6.341-.738,4.307-.444,8.632-.754,12.963-.794,1.324-.012,2.664-.048,3.984.078.17.016.343.049.514.058-.2-.01-1.318-.211-.589-.072.37.071.741.133,1.109.214.739.163,1.469.366,2.189.599.384.124.765.258,1.143.399.209.078.417.161.625.242.824.319-.393-.177-.263-.113,1.667.821,3.297,1.625,4.842,2.671.397.268.783.55,1.169.833.682.499-.418-.344-.202-.156.227.198.469.38.699.575.763.647,1.493,1.334,2.185,2.058.353.37.697.749,1.029,1.138.155.182.306.367.458.55.722.872-.335-.49.034.042.634.915,1.26,1.821,1.804,2.795.247.442.481.891.702,1.347.131.27.252.544.378.816.305.662-.353-.929-.005.008.424,1.139.799,2.287,1.08,3.471.163.687.289,1.38.408,2.076.178,1.035-.056-.68.013.1.035.395.079.789.107,1.185.107,1.515.097,3.037-.011,4.552-.032.443-.072.886-.12,1.327-.006.051-.089.481-.059.506-.079-.065.142-.917.02-.171-.145.884-.299,1.765-.491,2.64-.433,1.972-1.011,3.907-1.681,5.811-.782,2.224.886,5.022,3.143,5.536,2.516.573,4.698-.762,5.536-3.143,2.349-6.68,3.328-13.715,2.222-20.735-.861-5.461-3.37-10.472-6.867-14.711-5.205-6.309-13.561-11.086-21.827-11.497-10.267-.51-20.7,1.223-30.837,2.606-2.341.319-3.822,3.437-3.143,5.536.833,2.573,3.026,3.485,5.536,3.143h0Z"/><path d="m55.391,43.743c-.797-.571-1.586-1.152-2.367-1.743-.701-.531-.24-.185-.091-.069-.222-.174-.443-.348-.664-.523-.442-.352-.881-.707-1.317-1.066-1.648-1.358-3.252-2.768-4.811-4.227-3.124-2.924-6.065-6.042-8.816-9.319-.663-.79-1.315-1.588-1.956-2.396-.114-.143-.953-1.224-.524-.665-.361-.472-.718-.947-1.072-1.424-1.436-1.938-2.832-3.906-4.356-5.777-2.918-3.584-6.739-6.747-11.457-7.381-5.282-.71-9.527,1.956-12.364,6.268-1.141,1.734-1.997,3.654-2.808,5.559-.99,2.324-1.908,4.672-2.337,7.173-.857,5.002-.405,9.992.588,14.943.88,4.384,2.34,8.656,4.334,12.661,2.117,4.254,5.066,8.301,8.768,11.311,4.015,3.263,8.399,5.285,13.535,5.966,2.343.311,4.599-2.291,4.5-4.5-.121-2.703-1.989-4.167-4.5-4.5.813.108.146.004-.25-.078-.42-.088-.837-.192-1.25-.31-.356-.101-.708-.214-1.058-.336-.234-.082-.464-.177-.697-.259-.618-.219.625.322.042.013-.727-.387-1.469-.729-2.176-1.158-.329-.2-.653-.408-.972-.624-.214-.145-.424-.296-.636-.446-.326-.231-.355-.283-.023-.008-1.397-1.157-2.694-2.401-3.862-3.791-.132-.157-.259-.318-.391-.475.053.062.376.511.072.096-.282-.384-.563-.767-.831-1.16-.541-.793-1.049-1.609-1.522-2.444-.447-.787-.864-1.59-1.255-2.407-.182-.381-.348-.769-.528-1.15-.221-.467.004.018.038.099-.135-.329-.266-.659-.393-.991-.695-1.815-1.272-3.674-1.742-5.56-.211-.848-.4-1.701-.569-2.558-.099-.502-.189-1.005-.274-1.509-.035-.21-.227-1.496-.139-.832-.276-2.073-.387-4.184-.259-6.272.012-.197.156-1.619.053-.874.063-.457.151-.913.249-1.363.226-1.045.53-2.072.885-3.079.176-.5.368-.993.564-1.485.193-.483.021-.058-.018.033.088-.207.18-.413.272-.618.394-.885.803-1.764,1.253-2.623.402-.768.848-1.505,1.325-2.228.463-.702-.325.3.236-.302.34-.365.685-.705,1.056-1.037-.58.519-.008.056.314-.131.749-.436.173-.052-.007-.006.169-.043.391-.083.549-.152.43-.187-.144-.004-.266.005.189-.013.376-.026.565-.029.253-.005.506.022.758.024.593.004-.621-.204-.058.01.341.13.771.24,1.128.32.638.144-.55-.322.029.003.175.098.362.177.539.273.359.195.696.419,1.042.635.128.08.663.515.074.032.213.174.422.353.628.536.678.605,1.31,1.26,1.913,1.939.283.32.56.645.831.975.137.166.271.334.406.501.489.603-.051-.089.224.288,2.431,3.334,4.894,6.651,7.555,9.807,5.795,6.874,12.437,12.951,19.745,18.185,1.92,1.375,5.093.399,6.157-1.614,1.228-2.323.435-4.689-1.614-6.157h0Z"/><path d="m119.811,54.532c.556.098,1.106.219,1.648.375.254.073.506.153.756.238.192.066,1.292.492.59.207-.685-.279.175.09.334.167.25.121.497.248.742.38.587.315,1.157.66,1.713,1.027.286.189.568.383.846.584.12.086.236.185.36.265.424.273-.33-.252-.313-.246.56.215,1.214,1.004,1.65,1.4,1.045.949,2.029,1.962,2.964,3.019.489.553.964,1.119,1.426,1.695.108.135.214.272.324.407-.025-.031-.473-.628-.17-.219.281.379.566.755.841,1.138.922,1.28,1.79,2.598,2.612,3.945,1.753,2.87,3.297,5.867,4.662,8.941.105.236.208.473.311.71.026.06.28.655.077.176s.048.118.073.179c.073.18.147.359.22.54.339.84.665,1.686.978,2.536.577,1.57,1.109,3.156,1.593,4.758.962,3.18,1.717,6.412,2.273,9.688.672,3.957,1.314,7.919,1.887,11.892.128.889.254,1.778.373,2.669-.106-.789.076.6.103.81.067.521.132,1.041.195,1.563.245,2.011.465,4.025.655,6.041.741,7.874,1.022,15.813.43,23.707-.072.961-.157,1.921-.256,2.88-.046.442-.094.884-.146,1.325-.026.221-.052.441-.08.662-.01.079-.123.942-.063.503.065-.471-.038.253-.042.282-.044.293-.086.586-.132.879-.068.439-.139.877-.213,1.315-.173,1.022-.364,2.041-.574,3.057-.797,3.866-1.864,7.678-3.225,11.384-.33.899-.681,1.791-1.036,2.68-.12.3-.454,1.059-.13.337-.204.455-.404.911-.617,1.362-.666,1.405-1.409,2.773-2.231,4.093-.394.633-.807,1.254-1.237,1.863-.195.276-.401.545-.597.821-.292.412.176-.222.194-.245-.173.216-.345.434-.521.649-.897,1.093-1.856,2.134-2.871,3.117-.498.482-1.009.951-1.533,1.405-.24.208-.483.413-.728.615-.122.101-.246.199-.369.3-.465.38-.306.339.039-.023-.886.93-2.286,1.634-3.374,2.302-1.202.738-2.44,1.417-3.705,2.042-.563.278-1.131.546-1.703.804-.329.148-.665.326-1.008.442.853-.289.192-.084-.235.086-5.222,2.079-10.709,3.417-16.22,4.473-2.738.525-5.489.98-8.242,1.415-.357.056-.717.104-1.074.164-.518.087.446-.064.432-.056-.102.055-.344.044-.46.057-.727.082-1.455.158-2.185.215-1.553.121-3.111.175-4.669.192-1.861.02-3.723-.013-5.583-.061-2.355-.061-4.607,2.113-4.5,4.5.112,2.49,1.977,4.435,4.5,4.5,3.522.091,7.056.138,10.57-.156,3.149-.264,6.275-.805,9.389-1.333,5.798-.983,11.589-2.157,17.171-4.036,6.047-2.035,11.695-4.833,16.725-8.771,5.104-3.995,9.23-9.292,11.953-15.168,7.101-15.324,8.659-32.518,7.583-49.198-.546-8.469-1.712-16.894-3.057-25.27-1.166-7.259-2.598-14.312-5.251-21.195-2.571-6.671-5.778-13.179-10.096-18.903-3.971-5.264-8.641-9.975-14.824-12.53-1.143-.472-2.313-.83-3.532-1.044-2.31-.406-4.961.62-5.536,3.143-.499,2.19.664,5.1,3.143,5.536h0Z"/><path d="m153.139,149.036c-13.145-14.279-31.052-23.329-50.184-26.22-5.38-.813-10.792-1.257-16.234-1.266-2.354-.004-4.609,2.073-4.5,4.5.109,2.442,1.977,4.495,4.5,4.5,2.195.004,4.389.067,6.58.206,1.094.069,2.187.156,3.278.261.513.049,1.026.103,1.539.16.32.036.64.073.96.112.12.015,1.186.153.552.068-.596-.08.219.032.359.053.255.037.51.075.764.114.509.078,1.018.16,1.526.246,1.143.194,2.281.409,3.416.647,2.206.461,4.395,1.004,6.559,1.632,2.106.611,4.189,1.303,6.242,2.076.484.182.966.369,1.447.561.258.103,1.569.65.72.287,1.074.46,2.139.94,3.193,1.445,4.033,1.932,7.903,4.207,11.545,6.803.545.388,1.081.788,1.619,1.186.12.089.677.516.05.031.32.247.637.499.953.753.954.766,1.89,1.555,2.807,2.365,2.084,1.842,4.061,3.799,5.944,5.845,1.598,1.736,4.766,1.74,6.364,0,1.705-1.858,1.705-4.512,0-6.364h0Z"/><path d="m113.359,150.34c.206-.004.4.004.605.025l-1.196-.161c.335.055.644.145.958.273l-1.075-.454c.31.146.592.316.868.518l-.911-.704c.327.261.614.547.881.87l-.704-.911c.298.39.539.795.739,1.243l-.454-1.075c.252.631.413,1.272.515,1.943l-.161-1.196c.165,1.317.157,2.684.015,4.003l.161-1.196c-.038.235-.086.447-.159.674l.454-1.075c-.091.209-.184.376-.315.562l.704-.911c-.182.217-.377.404-.595.585l.911-.704c-.771.592-1.612,1.068-2.505,1.451l1.075-.454c-.84.34-1.7.581-2.597.71l1.196-.161c-.74.089-1.471.097-2.211.011l1.196.161c-.654-.094-1.282-.256-1.895-.504l1.075.454c-.472-.209-.909-.463-1.326-.767l.911.704c-.513-.397-.96-.846-1.357-1.359l.704.911c-.341-.467-.622-.958-.847-1.49l.454,1.075c-.183-.471-.312-.947-.385-1.448l.161,1.196c-.049-.438-.051-.862-.004-1.3l-.161,1.196c.067-.455.185-.878.358-1.304l-.454,1.075c.2-.443.442-.844.733-1.232l-.704.911c.393-.49.838-.915,1.334-1.3l-.911.704c.591-.434,1.219-.785,1.889-1.082l-1.075.454c1.509-.629,3.103-.953,4.702-1.261,1.058-.204,2.162-1.167,2.689-2.068.564-.965.804-2.386.454-3.468-.799-2.47-3.054-3.621-5.536-3.143-2.174.418-4.241.947-6.243,1.928-1.875.919-3.454,2.392-4.612,4.116-1.394,2.075-1.683,4.559-1.3,6.971.314,1.977,1.359,3.718,2.629,5.225,2.862,3.394,7.652,4.263,11.809,3.317,1.882-.428,3.751-1.298,5.296-2.456,1.356-1.017,2.459-2.174,2.978-3.837.354-1.137.387-2.399.411-3.587.049-2.5-.295-5.285-1.729-7.408-1.69-2.502-4.327-4.315-7.444-4.25-2.352.049-4.61,2.035-4.5,4.5.107,2.396,1.979,4.552,4.5,4.5h0Z"/><path d="m99.142,171.945c-.271.117-.553.28-.838.361,1.136-.324.241-.102-.047.017-.562.232-1.126.461-1.691.684-1.131.447-2.27.876-3.415,1.287-2.235.802-4.495,1.592-6.857,1.916l1.196-.161c-.684.081-1.363.12-2.052.111-2.355-.033-4.608,2.093-4.5,4.5.11,2.466,1.977,4.465,4.5,4.5,3.187.044,6.267-.841,9.246-1.883,3.047-1.066,6.039-2.276,9-3.561.963-.418,1.803-1.726,2.068-2.689.297-1.077.163-2.512-.454-3.468-.619-.961-1.542-1.807-2.689-2.068-1.257-.286-2.295-.055-3.468.454h0Z"/><path d="m124.095,53.576c6.49-4.685,11.249-10.949,15.75-17.486,2.171-3.152,4.305-6.328,6.575-9.411.56-.76,1.113-1.525,1.674-2.285.173-.234.347-.466.52-.699.01-.014.442-.583.175-.235s.169-.213.18-.227c.18-.223.359-.447.543-.667.631-.758,1.291-1.495,2-2.182.298-.289.608-.564.919-.839.031-.028.562-.447.186-.162-.42.318.46-.303.546-.357.344-.216.7-.408,1.058-.598.056-.03.66-.28.193-.099-.509.198.271-.076.391-.113.169-.052,1.238-.322.724-.216-.529.109.057-.005.161-.007.315-.007.631.014.945.008.513-.01-.188-.009-.262-.035.15.053.394.128.551.142.593.051-.523-.346,0-.028.166.101.349.196.521.287.703.375-.334-.391.244.172.36.35.692.71,1.025,1.085-.549-.618.155.252.317.505.215.336.419.679.615,1.026.464.825.879,1.676,1.276,2.535.217.469.431.94.634,1.416-.251-.59.167.432.232.599.381.993.719,2.005.986,3.036.135.521.251,1.047.348,1.576.041.227.083.454.114.683-.029-.212-.065-.734.002.181.079,1.083.12,2.163.089,3.249-.028,1.01-.105,2.019-.216,3.023-.026.231-.051.463-.082.694.013-.102.093-.572,0-.046-.102.58-.184,1.163-.291,1.742-.354,1.928-.813,3.838-1.386,5.714-.272.892-.571,1.775-.896,2.649-.174.467-.355.93-.544,1.391.284-.692-.214.462-.311.67-.903,1.94-1.958,3.814-3.188,5.566-.117.166-.235.331-.355.496-.048.065-.552.714-.27.364.295-.366-.137.158-.162.187-.221.259-.439.52-.665.775-.669.753-1.377,1.471-2.123,2.147-.392.354-.798.69-1.205,1.026.627-.519-.277.191-.499.344-.84.579-1.717,1.104-2.629,1.564-.281.142-1.281.566-.463.246-.462.18-.925.355-1.397.505-.41.13-.825.246-1.243.347-.248.06-1.924.351-.788.2-2.324.308-4.619,1.849-4.5,4.5.097,2.173,2,4.831,4.5,4.5,4.325-.573,8.325-2.043,11.852-4.658,3.677-2.727,6.702-6.134,9.055-10.064,2.299-3.84,3.979-8.123,5.096-12.451,1.18-4.569,1.987-9.49,1.655-14.217-.353-5.021-2.085-9.694-4.378-14.141s-5.742-7.924-10.886-8.466c-4.827-.509-9.417,2.357-12.598,5.731-3.093,3.281-5.683,7.155-8.263,10.847-2.683,3.839-5.246,7.76-8.068,11.501-.087.115-.53.667-.047.062-.17.213-.337.427-.507.64-.381.476-.769.946-1.163,1.411-.739.871-1.501,1.723-2.294,2.546-.741.769-1.508,1.514-2.304,2.226-.447.4-.904.79-1.37,1.169-.155.126-.311.252-.469.376.737-.575-.315.216-.376.26-1.904,1.374-3.019,3.978-1.614,6.157,1.217,1.887,4.116,3.088,6.157,1.614h0Z"/><path d="m51.279,92.673c.964.606-.581-.578-.041-.074.208.194.417.38.609.59.333.365.321.69-.171-.254.128.247.319.471.457.716.211.373.436,1.247.011-.111.064.205.156.403.223.608.181.555.303,1.124.389,1.701l-.161-1.196c.122.955.123,1.904.006,2.86l.161-1.196c-.097.676-.247,1.338-.465,1.985-.038.113-.358.912-.045.177s-.037.053-.09.158c-.173.34-.366.669-.58.984-.086.127-.458.627-.026.053.467-.62-.059.026-.147.116-.118.121-.245.233-.367.35-.552.53.666-.417.205-.159-.148.083-.287.184-.435.267-.699.393.127.096.27-.071-.196.23-.94.28-1.221.33l1.196-.161c-.509.066-1,.072-1.51.011l1.196.161c-.45-.078-.863-.211-1.298-.346-.761-.236.697.329.203.089-.187-.091-.378-.174-.565-.266-.708-.347-1.354-.762-2.019-1.181-.425-.268.867.759.238.179-.119-.109-.242-.213-.358-.326-.145-.14-.273-.295-.415-.436-.369-.366.563.892.189.246-.101-.175-.215-.34-.31-.519-.24-.45,0-.544.104.281-.049-.393-.222-.79-.283-1.19l.161,1.196c-.075-.661-.062-1.307.023-1.966l-.161,1.196c.08-.5.19-.991.346-1.473.079-.244.182-.479.263-.721-.4,1.203-.182.45-.022.141.236-.455.501-.896.793-1.317.247-.357.71-.652-.099.109.178-.168.327-.381.502-.554l.18-.171c.355-.304.245-.221-.329.249l.209-.128c.449-.227.284-.164-.495.188.309-.104.609-.242.916-.353.76-.276,1.534-.484,2.335-.605l-1.196.161c.828-.105,1.645-.105,2.474-.008l-1.196-.161c.482.071.952.169,1.423.295,2.272.605,4.993-.76,5.536-3.143.538-2.362-.709-4.887-3.143-5.536-2.48-.66-5.059-.701-7.542-.029-2.088.565-4.205,1.457-5.707,3.055-3.708,3.942-5.377,9.78-2.973,14.806,1.035,2.164,3.09,3.873,5.141,5.028,2.226,1.254,4.789,2.329,7.391,2.038,3.307-.37,5.938-2.037,7.921-4.673,1.264-1.68,2.128-3.776,2.447-5.857.821-5.359-.829-10.912-5.603-13.915-1.996-1.255-5.047-.486-6.157,1.614-1.171,2.216-.516,4.817,1.614,6.157h0Z"/><path d="m125.854,92.673c.964.606-.581-.578-.041-.074.208.194.417.38.609.59.333.365.321.69-.171-.254.128.247.319.471.457.716.211.373.436,1.247.011-.111.064.205.156.403.223.608.181.555.303,1.124.389,1.701l-.161-1.196c.122.955.123,1.904.006,2.86l.161-1.196c-.097.676-.247,1.338-.465,1.985-.038.113-.358.912-.045.177s-.037.053-.09.158c-.173.34-.366.669-.58.984-.086.127-.458.627-.026.053.467-.62-.059.026-.147.116-.118.121-.245.233-.367.35-.552.53.666-.417.205-.159-.148.083-.287.184-.435.267-.699.393.127.096.27-.071-.196.23-.94.28-1.221.33l1.196-.161c-.509.066-1,.072-1.51.011l1.196.161c-.45-.078-.863-.211-1.298-.346-.761-.236.697.329.203.089-.187-.091-.378-.174-.565-.266-.708-.347-1.354-.762-2.019-1.181-.425-.268.867.759.238.179-.119-.109-.242-.213-.358-.326-.145-.14-.273-.295-.415-.436-.369-.366.563.892.189.246-.101-.175-.215-.34-.31-.519-.24-.45,0-.544.104.281-.049-.393-.222-.79-.283-1.19l.161,1.196c-.075-.661-.062-1.307.023-1.966l-.161,1.196c.08-.5.19-.991.346-1.473.079-.244.182-.479.263-.721-.4,1.203-.182.45-.022.141.236-.455.501-.896.793-1.317.247-.357.71-.652-.099.109.178-.168.327-.381.502-.554l.18-.171c.355-.304.245-.221-.329.249l.209-.128c.449-.227.284-.164-.495.188.309-.104.609-.242.916-.353.76-.276,1.534-.484,2.335-.605l-1.196.161c.828-.105,1.645-.105,2.474-.008l-1.196-.161c.482.071.952.169,1.423.295,2.272.605,4.993-.76,5.536-3.143.538-2.362-.709-4.887-3.143-5.536-2.48-.66-5.059-.701-7.542-.029-2.088.565-4.205,1.457-5.707,3.055-3.708,3.942-5.377,9.78-2.973,14.806,1.035,2.164,3.09,3.873,5.141,5.028,2.226,1.254,4.789,2.329,7.391,2.038,3.307-.37,5.938-2.037,7.921-4.673,1.264-1.68,2.128-3.776,2.447-5.857.821-5.359-.829-10.912-5.603-13.915-1.996-1.255-5.047-.486-6.157,1.614-1.171,2.216-.516,4.817,1.614,6.157h0Z"/></g></g></svg>