<?xml version="1.0" encoding="UTF-8"?><svg id="_레이어_1" xmlns="http://www.w3.org/2000/svg" viewBox="0 0 200 200"><path d="m186.02,146.605c9.742-11.292,9.019-29.346-3.172-38.576-6.431-4.869-14.761-6.056-22.612-5.372-4.07.354-8.103,1.068-12.109,1.852-1.79.351-3.578.714-5.37,1.055-.875.166-1.752.328-2.63.478-.432.074-.864.145-1.297.214-.245.039-.49.076-.735.113-.107.016-.915.135-.314.049.618-.088-.157.019-.307.037-.388.047-.776.092-1.164.135-.656.073-1.312.142-1.969.207-1.314.13-2.629.245-3.944.348-2.632.207-5.268.367-7.905.514-5.438.303-10.879.552-16.307,1.008-2.34.197-4.615,1.929-4.5,4.5.102,2.269,1.988,4.711,4.5,4.5,8.964-.753,17.966-.929,26.925-1.753,7.602-.699,14.959-2.414,22.472-3.656.39-.064.781-.127,1.172-.187.195-.03.391-.059.586-.088.137-.02.965-.136.378-.057-.543.074.109-.013.182-.022.195-.023.39-.047.585-.07.518-.06,1.037-.114,1.557-.161,1.73-.156,3.468-.237,5.205-.199.823.018,1.645.063,2.464.138.256.024,1.537.218.488.04.432.074.865.139,1.296.223.798.156,1.59.348,2.37.578.422.124.84.261,1.254.408.286.102,1.296.536.513.176.822.378,1.628.775,2.408,1.235.341.201.677.412,1.007.63.253.167,1.476,1.114.614.4.554.459,1.096.924,1.605,1.434.231.231.456.468.675.711.109.121.217.243.322.366.03.035.676.852.258.3-.373-.492.22.322.312.456.211.309.413.624.606.945.385.641.715,1.307,1.042,1.978.374.769-.246-.704.042.101.125.351.258.698.373,1.053.231.709.425,1.43.582,2.159.09.416.131.848.234,1.259.13.52-.06-.421-.05-.403.077.152.052.467.068.638.079.854.11,1.712.094,2.569-.007.376-.023.751-.048,1.126-.017.256-.086,1.496-.061.846s-.077.462-.116.678c-.078.424-.167.845-.268,1.264-.19.786-.42,1.562-.69,2.324-.072.203-.149.405-.225.607-.045.121-.353.777-.08.211.265-.547.015-.044-.034.055-.12.242-.231.488-.354.729-.367.724-.773,1.427-1.218,2.106-.208.317-.447.616-.65.935-.33.519.536-.576.106-.136-.187.191-.352.424-.527.626-1.536,1.781-1.881,4.637,0,6.364,1.688,1.549,4.722,1.903,6.364,0h0Z"/><path d="m104.988,108.828c-.604.122-1.21.232-1.819.329-.186.03-1.284.17-.469.076.807-.093-.45.053-.623.073-1.355.154-2.715.262-4.077.34-2.824.162-5.654.201-8.482.221-5.833.041-11.685-.023-17.495.569-6.097.621-12.144,1.836-17.588,4.771-5.638,3.039-10.147,8.03-12.634,13.924-3.734,8.848-1.668,18.87,4.797,25.871,1.601,1.734,4.765,1.742,6.364,0,1.703-1.855,1.708-4.514,0-6.364-.307-.332-.59-.685-.895-1.018-.341-.373.068.096.111.155-.112-.155-.225-.308-.335-.465-.507-.723-.967-1.479-1.374-2.263-.202-.388-.389-.783-.566-1.183.319.722.021.009-.092-.314-.286-.818-.517-1.654-.692-2.503-.05-.242-.092-.485-.136-.728-.017-.096-.079-.707-.024-.135.054.565-.032-.52-.043-.692-.051-.865-.044-1.732.022-2.596.011-.147.072-.943.016-.329-.051.568.007-.048.024-.142.067-.37.134-.739.217-1.106.197-.867.466-1.709.768-2.545.291-.802.063-.153-.011.006.083-.176.163-.353.248-.528.169-.348.347-.693.531-1.033.347-.64.72-1.266,1.12-1.875.166-.254.337-.504.513-.751.086-.121.183-.239.264-.364.326-.504-.551.657-.163.205.442-.515.864-1.04,1.332-1.534.423-.446.864-.876,1.321-1.288.209-.188.421-.372.636-.552.107-.089.221-.173.324-.266.411-.368-.794.572-.14.107,1.019-.724,2.055-1.402,3.16-1.989.531-.282,1.071-.547,1.618-.795.127-.057.256-.11.382-.169.438-.206-.442.182-.432.182.292.008.757-.299,1.045-.405,1.201-.441,2.427-.812,3.666-1.125,1.271-.321,2.556-.583,3.848-.798.34-.057.682-.108,1.023-.16.085-.013.378-.01.441-.064,0,0-.961.114-.458.062.697-.072,1.391-.167,2.089-.235,5.56-.544,11.157-.5,16.737-.536,6.124-.039,12.294-.151,18.32-1.363,2.312-.465,3.855-3.336,3.143-5.536-.794-2.454-3.059-3.641-5.536-3.143h0Z"/><path d="m182.695,138.72c-8.986-3.4-18.957-2.601-28.305-1.572-10.169,1.119-20.33,1.753-30.547,2.274-6.12.312-12.24.659-18.343,1.222-2.337.216-4.616,1.915-4.5,4.5.101,2.253,1.99,4.732,4.5,4.5,10.724-.991,21.492-1.294,32.236-1.969,4.787-.301,9.553-.727,14.319-1.266,4.649-.526,9.309-1.05,13.991-1.127,1.286-.021,2.572-.008,3.857.051.636.029,1.271.069,1.904.122.28.023.56.05.84.078.108.011,1.228.141.652.068-.555-.071.311.049.436.068.342.054.684.113,1.025.177.61.114,1.217.245,1.82.392,1.266.309,2.504.699,3.723,1.16,2.206.835,5.03-.925,5.536-3.143.584-2.563-.781-4.642-3.143-5.536h0Z"/><path d="m105.499,140.644c-11.018.894-22.035,1.914-33.064,2.659-9.707.655-20.435,1.11-28.465,7.314-7.631,5.895-9.965,15.528-8.349,24.731.693,3.948,2.555,7.814,5.448,10.621,2.813,2.73,6.495,4.491,10.3,5.329,5.219,1.15,10.789,1.338,16.117,1.42,5.407.083,10.813-.16,16.204-.554,10.98-.803,21.911-2.24,32.91-2.783,10.932-.539,21.882-.187,32.819-.514,5.419-.162,10.838-.49,16.218-1.176,4.641-.592,9.352-1.254,13.835-2.644,3.76-1.166,7.319-2.88,10.26-5.533,3.022-2.727,5.043-6.523,6.016-10.446,2.056-8.285,1.843-17.907-4.087-24.59-1.506-1.697-3.416-3.098-5.406-4.175-2.069-1.121-4.997-.582-6.157,1.614-1.109,2.098-.596,4.96,1.614,6.157.446.241.885.491,1.312.765.265.17,1.302,1.023.549.353.685.609,1.319,1.227,1.941,1.901.175.19.42.663-.094-.136.117.182.253.353.372.533.208.314.403.636.587.965.209.375.376.768.576,1.147.243.463-.152-.343-.143-.335.131.12.269.742.323.909.251.777.423,1.565.589,2.363.218,1.05-.027-.553.054.274.049.501.093,1.001.117,1.503.04.853.038,1.707.001,2.56-.02.462-.051.924-.09,1.385-.02.232-.042.464-.067.696-.014.137-.131,1.136-.046.449.079-.633-.098.617-.128.8-.078.467-.162.933-.256,1.397-.188.927-.422,1.844-.725,2.74-.071.211-.152.418-.225.628-.278.803.072-.081.084-.174-.047.338-.39.829-.55,1.128-.18.336-.914,1.957-1.288,2.018.077-.013.609-.713.159-.231-.131.14-.252.29-.381.431-.258.28-.526.551-.804.811-.242.226-.51.427-.749.656-.42.404.733-.486.238-.178-.2.124-.387.281-.582.413-.598.405-1.221.773-1.86,1.109-.348.183-.702.349-1.057.519-.059.028-.348.202-.407.183.57-.237.698-.291.383-.163-.14.057-.281.113-.422.167-3.395,1.308-7.01,2.008-10.588,2.594-.561.092-1.122.18-1.684.263-.321.048-.642.094-.963.139.627-.087-.174.023-.249.032-1.285.161-2.572.307-3.861.433-2.577.251-5.16.432-7.746.561-10.284.516-20.585.238-30.876.468-20.445.458-40.774,4.592-61.258,3.357-1.221-.074-2.44-.167-3.657-.28-.652-.061-1.304-.128-1.955-.201-.326-.037-.652-.078-.979-.115-.883-.098,1.056.189-.068-.014-.813-.147-1.621-.297-2.421-.508-.628-.166-2.063-.36-2.512-.834-.023-.024.835.406.386.154-.172-.096-.359-.169-.535-.257-.305-.154-.607-.316-.902-.489-.332-.194-.657-.401-.973-.621.031.022-.449-.343-.463-.335.118-.062.825.711.139.076-.526-.487-1.012-.986-1.488-1.522-.559-.63.202.214.174.233-.006.004-.358-.514-.332-.474-.245-.367-.472-.746-.682-1.134-.105-.195-.522-.752-.469-.945-.052.193.307.824.096.219-.07-.199-.147-.395-.216-.594-.287-.838-.509-1.699-.676-2.569-.061-.319-.208-1.581-.109-.583-.048-.488-.1-.975-.131-1.465-.059-.962-.067-1.928-.016-2.89.011-.206-.044-1.291.118-1.417-.021.016-.186,1.106-.016.149.031-.173.059-.345.091-.517.181-.966.428-1.919.746-2.849.074-.217.156-.431.234-.647.035-.096.27-.626.033-.097-.253.565.059-.108.125-.244.099-.206.202-.409.309-.611.187-.353.386-.701.597-1.041.121-.195.245-.387.374-.577.011-.016.646-.907.257-.383-.358.482.097-.11.192-.222.151-.178.306-.352.464-.524.28-.303.57-.597.871-.88.351-.329.717-.639,1.09-.943-.696.567-.189.146-.027.042.263-.168.516-.352.781-.519.863-.545,1.767-1.028,2.692-1.459.249-.116.501-.232.755-.339-.177.074-.745.284.075-.013.584-.211,1.166-.423,1.759-.611,2.056-.649,4.171-1.101,6.3-1.434.277-.043.555-.082.832-.124-.826.124-.103.013.057-.005.559-.065,1.117-.131,1.677-.188,1.119-.115,2.239-.208,3.36-.293,9.911-.745,19.818-1.525,29.725-2.329l7.922-.643c2.34-.19,4.615-1.934,4.5-4.5-.102-2.275-1.987-4.704-4.5-4.5h0Z"/><path d="m38.05,165.394c-1.594.185-3.173.19-4.77.033-.913-.089-.279-.043-.089-.011-.428-.072-.854-.148-1.278-.238-.855-.18-1.701-.4-2.538-.649-1.417-.421-2.807-.929-4.177-1.482-.016-.006-1.368-.577-.579-.237-.344-.148-.687-.299-1.029-.45-.822-.364-1.639-.738-2.456-1.115-3.688-1.699-7.664-4.239-11.754-2.305-3.137,1.483-4.87,5.138-5.672,8.35-1.541,6.166-.153,13.018,3.679,18.087s9.536,8.551,15.775,9.708c7.922,1.468,15.859-.323,22.904-4.07,2.081-1.107,2.895-4.171,1.614-6.157-1.364-2.116-3.931-2.798-6.157-1.614-.655.348-1.315.684-1.988.996-.269.125-.54.248-.813.365.634-.27-.06.018-.161.055-1.398.509-2.795.985-4.243,1.334-.721.174-1.446.305-2.174.44-.136.025-.881.109-.12.025-.293.032-.587.064-.881.09-1.47.126-2.952.135-4.422.013-.276-.023-.552-.052-.827-.083.971.108.098.006-.147-.038-.574-.102-1.145-.224-1.71-.367s-1.125-.31-1.678-.495c-.307-.103-.609-.221-.915-.328-.906-.317.586.309-.356-.151-1.047-.511-2.066-1.054-3.034-1.706-.214-.144-.421-.295-.632-.443.721.506.025.02-.152-.127-.542-.453-1.06-.933-1.55-1.442-.357-.371-.693-.759-1.023-1.154.564.676.02.017-.111-.17-.185-.265-.362-.535-.531-.81-.271-.441-.521-.895-.751-1.358.007.014-.498-1.143-.252-.525.201.507-.209-.611-.25-.736-.182-.554-.338-1.116-.465-1.685-.07-.316-.116-.637-.184-.953-.156-.723.041,1.067-.01-.149-.022-.515-.066-1.028-.064-1.544.001-.321.013-.642.033-.963.011-.192.026-.384.045-.576-.078.496-.09.577-.037.243.108-.567.211-1.13.367-1.687.069-.246.144-.492.225-.734-.003.008.459-1.149.188-.539-.273.615.274-.523.267-.51.111-.208.233-.406.352-.61.439-.754.056.007-.068.063.903-.405-.678.244.162-.137l-1.188.333c-.388-.1-.42-.109-.097-.025.16.053,1.07.363.415.101.616.246,1.216.549,1.819.826,1.29.593,2.577,1.195,3.872,1.777,6.146,2.763,12.744,5.336,19.618,4.537,2.33-.271,4.618-1.876,4.5-4.5-.099-2.205-1.996-4.791-4.5-4.5h0Z"/><path d="m114.977,91.743c13.146-3.079,26.688-9.613,34.185-21.309,2.137-3.334,3.675-7.128,4.471-11.005.472-2.299-.666-4.971-3.143-5.536-2.247-.512-5.029.677-5.536,3.143-.316,1.54-.737,3.052-1.293,4.523-.096.255-.606,1.343-.126.343-.146.305-.278.616-.425.921-.341.705-.711,1.397-1.108,2.072-.366.624-.756,1.234-1.166,1.83-.221.32-.45.634-.679.949-.061.084-.417.524-.053.074.381-.471-.096.11-.167.197-.954,1.165-1.988,2.263-3.082,3.296-.531.501-1.077.985-1.635,1.455-.302.254-.609.501-.916.749-.077.062-.537.406-.08.065.477-.356-.134.095-.222.16-1.237.913-2.522,1.761-3.841,2.551-1.329.795-2.695,1.529-4.088,2.209-.672.328-1.35.643-2.033.946-.21.093-.422.182-.632.276.029-.013.757-.31.281-.119-.373.15-.743.304-1.117.451-3.248,1.275-6.593,2.287-9.989,3.083-2.294.537-3.871,3.285-3.143,5.536.775,2.394,3.078,3.719,5.536,3.143h0Z"/><path d="m152.931,111.635c3.81-1.732,6.669-5.477,9.004-8.804,2.24-3.191,4.146-6.627,5.822-10.144.713-1.496,1.388-3.018,1.989-4.563.129-.332.263-.667.361-1.01.029-.1.051-.2.075-.302l.161-1.196c.041-.322.024-.051-.051.813.085-.045.271-.842.301-.939,1.439-4.601,2.353-9.316,2.939-14.096,2.249-18.319-2.305-38.364-15.38-51.913-7.319-7.584-17.085-12.502-27.356-14.637-11.851-2.464-24.121-1.429-35.723,1.803-5.938,1.654-11.706,3.894-17.305,6.465-2.653,1.218-5.264,2.527-7.832,3.916-2.619,1.416-5.62,2.748-7.568,5.041-7.022,8.266-10.345,18.905-10.261,29.685.082,10.526,3.205,20.961,8.632,29.954,5.709,9.462,17.103,12.727,27.555,12.745,2.497.004,4.988-.183,7.463-.508,2.325-.305,4.619-1.851,4.5-4.5-.097-2.175-2-4.828-4.5-4.5-2.475.325-4.966.514-7.463.508-1.107-.002-2.214-.04-3.319-.12-.606-.044-1.209-.108-1.813-.169-.855-.087-.031,0,.122.022-.413-.062-.826-.125-1.237-.197-2.225-.392-4.397-.999-6.491-1.847,1.104.447-.486-.253-.747-.387-.392-.201-.779-.413-1.159-.636-.471-.277-.932-.571-1.38-.883-.045-.031-.914-.665-.332-.228.542.407-.326-.279-.428-.367-.785-.681-1.487-1.428-2.165-2.214-.523-.606.015.016.095.13-.19-.274-.388-.541-.571-.82-.313-.478-.596-.974-.884-1.468-.58-.993-1.135-1.998-1.654-3.025-.247-.488-.486-.98-.717-1.475-.129-.276-.255-.552-.379-.83-.09-.201-.602-1.447-.195-.437-.869-2.156-1.63-4.348-2.236-6.593-.303-1.121-.57-2.252-.801-3.391-.109-.539-.211-1.079-.303-1.62-.062-.361-.114-.723-.174-1.084-.162-.976.082.819-.037-.252-.255-2.293-.409-4.585-.376-6.893.017-1.202.079-2.403.187-3.601.048-.537.112-1.071.174-1.606.084-.731-.19,1.106.013-.045.062-.352.113-.706.177-1.058.41-2.274.999-4.516,1.783-6.69.18-.5.378-.993.571-1.488-.412,1.058.3-.651.403-.869.508-1.068,1.067-2.113,1.676-3.127.583-.97,1.212-1.913,1.885-2.823.145-.197.67-.831.064-.089.153-.187.302-.375.457-.561.193-.233.39-.463.59-.69.12-.137.241-.274.363-.409-.367.25-.408.287-.123.111,2.465-1.181,4.787-2.757,7.22-4.02,2.532-1.315,5.105-2.551,7.718-3.695.262-.115.524-.228.787-.341,1.26-.546-.454.176.308-.13.597-.24,1.19-.488,1.788-.724,1.327-.525,2.665-1.025,4.011-1.498,5.204-1.827,10.557-3.254,16.007-4.117.415-.066.83-.127,1.246-.187-.186.027-.849.104.051-.006.693-.085,1.386-.164,2.08-.231,1.384-.134,2.773-.229,4.163-.281,2.7-.101,5.406-.043,8.098.195.621.055,1.24.126,1.86.193,1.324.142-.55-.098.247.03.343.055.687.102,1.029.158,1.375.224,2.742.498,4.097.821,2.755.657,5.446,1.536,8.073,2.593.118.047.783.349.119.05.264.119.53.233.793.353.516.236,1.028.482,1.535.737.997.502,1.977,1.04,2.934,1.613.893.535,1.768,1.101,2.622,1.697.4.279.791.571,1.186.857.902.651-.746-.616.114.086.249.204.502.403.75.609,1.553,1.289,3.018,2.684,4.384,4.17.714.777,1.384,1.586,2.056,2.399.147.178.555.638-.12-.166.134.159.256.336.38.503.377.505.744,1.018,1.101,1.538,1.161,1.692,2.213,3.457,3.158,5.278.462.891.898,1.795,1.309,2.711.087.193.17.388.257.581.431.965-.251-.688-.021-.049.198.549.436,1.085.64,1.632,1.47,3.926,2.503,8.012,3.14,12.154.041.268.073.539.119.806.118.691-.133-1.146-.011-.064.055.487.115.974.165,1.462.116,1.142.204,2.287.263,3.433.107,2.085.122,4.174.046,6.26-.08,2.206-.274,4.401-.539,6.592-.032.263-.014.839.029-.212-.011.27-.08.551-.12.819-.075.491-.154.981-.239,1.47-.188,1.086-.401,2.168-.638,3.245-.472,2.147-1.041,4.272-1.707,6.367-.239.751-.355,1.339-.468,2.166.004-.029.379-1.49.102-.929-.164.331-.248.738-.383,1.084-.084.216-.195.433-.264.654.488-1.567.188-.446.014-.051-.301.681-.614,1.357-.936,2.028-.766,1.595-1.585,3.166-2.454,4.707-.959,1.7-1.98,3.368-3.092,4.973-.283.409-.572.813-.868,1.212-.046.062-.256.417-.354.47.586-.32.446-.553.076-.112-.623.745-1.246,1.483-1.932,2.171-.274.275-.555.543-.845.801-.155.138-.318.267-.472.406-.367.332-.24-.1.343-.257-.602.162-1.3.859-1.896,1.13-2.15.977-2.838,4.258-1.614,6.157,1.431,2.22,3.857,2.66,6.157,1.614h0Z"/><path d="m88.898,89.083c-2.719,2.658-3.344,6.884-4.349,10.398s-2.016,7.049-3.024,10.574c-.647,2.262.79,5,3.143,5.536,2.398.546,4.843-.72,5.536-3.143.939-3.282,1.877-6.563,2.816-9.845.452-1.58.904-3.16,1.356-4.74.043-.149.506-2.148.66-2.161-.254.563-.309.692-.166.386.061-.135.128-.267.201-.396.095-.171.199-.337.313-.496-.413.517-.453.601-.12.252,1.686-1.648,1.777-4.733,0-6.364-1.813-1.665-4.565-1.759-6.364,0h0Z"/><path d="m86.83,82.066c2.623,2.8,5.663,5.284,8.952,7.263,3.833,2.307,8.023,3.101,12.407,2.089,3.153-.728,6.031-2.371,8.578-4.323,3.047-2.334,5.695-4.976,7.799-8.209,1.287-1.977.464-5.059-1.614-6.157-2.243-1.185-4.784-.495-6.157,1.614-.222.341-.452.674-.685,1.008-.466.667.165-.146-.166.215-.501.546-.964,1.121-1.481,1.653-.458.471-.933.926-1.421,1.364-.284.255-.573.505-.866.749-.091.076-.897.727-.406.339.484-.382-.297.217-.394.287-.272.196-.547.388-.825.574-.423.283-.853.556-1.292.813-.492.288-1.004.527-1.508.793-.411.216.442-.125-.311.117-.41.132-.811.271-1.228.38-.345.091-.697.145-1.043.229-.479.118.555.008-.278.018-.425.005-.841.01-1.266.002-.819-.015.181.122-.267-.032-.329-.113-.691-.175-1.028-.272-1.18-.338.591.362-.504-.197-.638-.325-1.258-.674-1.866-1.052-.676-.42-1.338-.863-1.985-1.325-.294-.21-.588-.422-.874-.643.641.494-.43-.364-.447-.378-1.223-1.021-2.37-2.124-3.459-3.286-1.613-1.722-4.757-1.751-6.364,0-1.693,1.845-1.721,4.527,0,6.364h0Z"/><path d="m98.061,88.334c-.112,5.651-.203,11.303-.269,16.955-.01.881.956,1.364,1.693.971,4.667-2.486,5.208-8.502,8.022-12.488l-2.056-.269c1.34,4.112,3.413,7.922,6.261,11.185.642.736,1.95.147,1.92-.795-.163-5.214-.853-10.392-1.78-15.521-.257-1.423-2.426-.82-2.17.598.892,4.935,1.542,9.907,1.699,14.923l1.92-.795c-2.585-2.961-4.467-6.463-5.683-10.192-.314-.965-1.498-1.06-2.056-.269-1.392,1.972-2.196,4.272-3.184,6.456-.917,2.026-1.992,4.139-4.03,5.225l1.693.971c.067-5.652.157-11.304.269-16.955.029-1.448-2.221-1.448-2.25,0h0Z"/><path d="m82.098,45.533c.165.104.683.492.045-.01-.615-.483-.192-.157-.066-.038.241.228.454.48.691.711.328.32-.559-.843-.343-.438.077.144.186.276.271.417.172.286.32.585.457.889l-.454-1.075c.319.757.53,1.536.651,2.348l-.161-1.196c.114.894.115,1.784.005,2.678l.161-1.196c-.126.874-.358,1.711-.688,2.53l.454-1.075c-.158.365-.327.724-.527,1.069-.12.207-.251.402-.383.601-.415.625.569-.633.191-.259-.141.139-.266.291-.41.428-.13.124-.702.587-.091.108s.02-.042-.137.051c-.206.121-.421.226-.638.326l1.075-.454c-.445.184-.89.316-1.364.4l1.196-.161c-.477.062-.936.067-1.414.01l1.196.161c-.589-.102-1.134-.284-1.685-.512l1.075.454c-1.017-.445-1.891-1.064-2.86-1.575,1.056.557.517.414.204.128-.151-.137-.579-.446-.628-.648l.425.557c-.089-.121-.172-.246-.251-.374-.162-.264-.294-.539-.415-.823l.454,1.075c-.163-.436-.276-.871-.346-1.331l.161,1.196c-.071-.619-.058-1.224.022-1.841l-.161,1.196c.127-.79.354-1.54.664-2.277l-.454,1.075c.348-.777.781-1.476,1.261-2.176.277-.403-.783.858-.194.271.138-.137.262-.287.403-.421.603-.572-.251.079-.282.198.031-.12.522-.279.611-.318l-1.075.454c1.037-.407,2.065-.78,3.172-.948l-1.196.161c.776-.098,1.54-.098,2.317-.007l-1.196-.161c.452.066.892.159,1.332.276,2.272.605,4.993-.76,5.536-3.143.538-2.362-.709-4.887-3.143-5.536-2.372-.632-4.84-.67-7.215-.027-2.003.542-4.03,1.402-5.471,2.934-1.644,1.748-2.947,4.006-3.559,6.329-.711,2.7-.473,5.369.73,7.883.989,2.067,2.958,3.708,4.918,4.812,2.126,1.198,4.581,2.224,7.066,1.948,3.207-.357,5.743-1.961,7.665-4.517,1.197-1.592,2.018-3.582,2.32-5.553.364-2.377.378-4.863-.49-7.148-.985-2.594-2.515-4.713-4.889-6.206-1.996-1.255-5.047-.486-6.157,1.614-1.171,2.216-.516,4.817,1.614,6.157h0Z"/><path d="m129.384,45.533c.165.104.683.492.045-.01-.615-.483-.192-.157-.066-.038.241.228.454.48.691.711.328.32-.559-.843-.343-.438.077.144.186.276.271.417.172.286.32.585.457.889l-.454-1.075c.319.757.53,1.536.651,2.348l-.161-1.196c.114.894.115,1.784.005,2.678l.161-1.196c-.126.874-.358,1.711-.688,2.53l.454-1.075c-.158.365-.327.724-.527,1.069-.12.207-.251.402-.383.601-.415.625.569-.633.191-.259-.141.139-.266.291-.41.428-.13.124-.702.587-.091.108s.02-.042-.137.051c-.206.121-.421.226-.638.326l1.075-.454c-.445.184-.89.316-1.364.4l1.196-.161c-.477.062-.936.067-1.414.01l1.196.161c-.589-.102-1.134-.284-1.685-.512l1.075.454c-1.017-.445-1.891-1.064-2.86-1.575,1.056.557.517.414.204.128-.151-.137-.579-.446-.628-.648l.425.557c-.089-.121-.172-.246-.251-.374-.162-.264-.294-.539-.415-.823l.454,1.075c-.163-.436-.276-.871-.346-1.331l.161,1.196c-.071-.619-.058-1.224.022-1.841l-.161,1.196c.127-.79.354-1.54.664-2.277l-.454,1.075c.348-.777.781-1.476,1.261-2.176.277-.403-.783.858-.194.271.138-.137.262-.287.403-.421.603-.572-.251.079-.282.198.031-.12.522-.279.611-.318l-1.075.454c1.037-.407,2.065-.78,3.172-.948l-1.196.161c.776-.098,1.54-.098,2.317-.007l-1.196-.161c.452.066.892.159,1.332.276,2.272.605,4.993-.76,5.536-3.143.538-2.362-.709-4.887-3.143-5.536-2.372-.632-4.84-.67-7.215-.027-2.003.542-4.03,1.402-5.471,2.934-1.644,1.748-2.947,4.006-3.559,6.329-.711,2.7-.473,5.369.73,7.883.989,2.067,2.958,3.708,4.918,4.812,2.126,1.198,4.581,2.224,7.066,1.948,3.207-.357,5.743-1.961,7.665-4.517,1.197-1.592,2.018-3.582,2.32-5.553.364-2.377.378-4.863-.49-7.148-.985-2.594-2.515-4.713-4.889-6.206-1.996-1.255-5.047-.486-6.157,1.614-1.171,2.216-.516,4.817,1.614,6.157h0Z"/></svg>