<?xml version="1.0" encoding="UTF-8"?><svg id="_레이어_2" xmlns="http://www.w3.org/2000/svg" viewBox="0 0 203.715 201.914"><g id="_레이어_1-2"><g><path d="m192.3,150.37c10.167-11.775,9.408-30.645-3.307-40.271-6.753-5.113-15.495-6.335-23.736-5.611-4.271.375-8.503,1.127-12.707,1.951-1.982.389-3.962.792-5.947,1.166-.875.165-1.751.324-2.629.473-.493.084-.987.164-1.481.24-.368.057-1.626.221-.631.1-11.121,1.361-22.34,1.46-33.495,2.398-2.34.197-4.615,1.929-4.5,4.5.102,2.269,1.988,4.711,4.5,4.5,9.368-.788,18.776-.976,28.139-1.826,8.019-.728,15.776-2.52,23.699-3.841.911-.152,1.823-.292,2.738-.42-.888.124.254-.027.561-.062.519-.06,1.039-.114,1.559-.161,1.86-.169,3.729-.256,5.597-.212.887.021,1.773.071,2.655.156.375.036,1.114.142.303.018.496.076.991.154,1.484.25.861.168,1.714.375,2.555.625.422.125.841.262,1.256.409.238.084.471.185.71.264.634.208-.626-.302-.02-.015.819.387,1.628.777,2.411,1.236.399.234.792.478,1.176.735.292.195,1.436,1.069.615.401.6.488,1.182.994,1.729,1.541.269.269.53.547.783.831.108.121.215.243.32.367.091.108.654.849.255.301-.376-.517.325.475.401.588.179.266.351.536.517.81.443.73.822,1.489,1.188,2.259s-.247-.706.037.102c.123.351.257.698.372,1.052.248.759.456,1.53.623,2.31.09.417.157.838.234,1.257.093.509.238.215-.029-.245.08.137.052.478.066.638.077.853.11,1.71.098,2.566-.01.682.15,1.965-.169,2.569.283-.536.115-.714.029-.238-.038.212-.07.424-.109.636-.088.476-.19.95-.305,1.42-.205.837-.454,1.662-.746,2.473-.055.152-.116.302-.168.455-.275.801.265-.529.023-.028-.187.389-.357.785-.552,1.171-.39.772-.822,1.521-1.296,2.245-.237.362-.515.701-.744,1.067-.262.418.186-.241.207-.265-.215.246-.416.504-.63.752-1.537,1.78-1.88,4.638,0,6.364,1.688,1.55,4.721,1.903,6.364,0h0Z"/><path d="m107.17,110.976c-.65.131-1.302.249-1.957.353-.31.049-.63.072-.936.139.071-.016,1.155-.142.383-.054-.183.021-.365.044-.547.065-1.406.162-2.817.275-4.229.358-2.982.176-5.969.218-8.956.24-6.164.045-12.348-.027-18.49.594-6.361.642-12.669,1.906-18.359,4.942-5.719,3.051-10.456,8.081-13.069,14.022-4.134,9.399-2.195,20.06,4.755,27.58,1.602,1.733,4.764,1.743,6.364,0,1.703-1.855,1.709-4.515,0-6.364-.308-.333-.591-.693-.902-1.023-.345-.366.058.092.104.153-.154-.204-.305-.412-.451-.622-.544-.78-1.035-1.597-1.468-2.444-.172-.336-.326-.679-.488-1.02-.287-.606.22.673.024.034-.055-.178-.132-.352-.194-.527-.309-.88-.557-1.783-.743-2.697-.071-.351-.208-1.387-.107-.457-.047-.432-.088-.864-.112-1.298-.051-.932-.038-1.868.041-2.798.033-.393.189-1.081.022-.294.092-.431.155-.867.253-1.297.214-.935.504-1.841.835-2.74.024-.064.28-.649.069-.179-.231.514.12-.234.177-.351.17-.35.348-.696.533-1.038.348-.644.721-1.276,1.119-1.89.193-.299.393-.593.598-.883.116-.163.242-.321.353-.487.283-.424-.256.343-.252.319.081-.466,1.107-1.315,1.429-1.656.424-.45.865-.884,1.322-1.3.243-.221.491-.438.743-.649.143-.12.293-.233.434-.356.436-.382-.723.519-.248.19,1.11-.768,2.207-1.518,3.401-2.155.573-.306,1.158-.592,1.75-.859.127-.057.258-.109.384-.17.432-.21-.432.181-.43.181.266.013.787-.311,1.048-.408,1.293-.479,2.615-.879,3.951-1.217,1.323-.334,2.661-.607,4.006-.832.342-.057.684-.111,1.026-.162.104-.015.548-.039.59-.085.001-.001-.959.118-.455.062.749-.084,1.497-.179,2.247-.252,5.839-.567,11.715-.523,17.575-.56,6.433-.04,12.918-.154,19.248-1.428,2.312-.465,3.855-3.335,3.143-5.536-.794-2.454-3.059-3.642-5.536-3.143h0Z"/><path d="m188.903,142.465c-9.49-3.595-20.026-2.721-29.897-1.632-10.721,1.183-21.435,1.838-32.205,2.389-6.392.326-12.782.69-19.156,1.279-2.337.216-4.616,1.915-4.5,4.5.101,2.252,1.99,4.732,4.5,4.5,11.278-1.043,22.603-1.362,33.904-2.071,5.059-.317,10.095-.766,15.131-1.336,4.848-.549,9.707-1.097,14.59-1.186,2.688-.049,5.379.045,8.049.368-.887-.107.027.008.248.043.341.054.682.112,1.022.175.676.125,1.349.269,2.016.431,1.327.324,2.628.734,3.905,1.218,2.206.836,5.03-.925,5.536-3.143.584-2.564-.781-4.641-3.143-5.536h0Z"/><path d="m107.645,144.501c-11.617.942-23.233,2.02-34.862,2.803-10.006.674-21.259,1.098-29.567,7.465-8.159,6.252-10.755,16.454-8.896,26.292.767,4.06,2.73,8.046,5.753,10.902,3.006,2.84,6.879,4.652,10.907,5.491,5.6,1.166,11.525,1.369,17.229,1.432,5.671.063,11.341-.209,16.995-.632,11.581-.866,23.113-2.38,34.719-2.92,11.522-.536,23.062-.162,34.588-.532,5.714-.183,11.424-.556,17.094-1.3,4.753-.623,9.574-1.321,14.157-2.777,3.873-1.231,7.541-3.02,10.556-5.785,3.109-2.852,5.188-6.789,6.184-10.86,2.123-8.676,1.928-18.803-4.381-25.746-1.555-1.711-3.495-3.129-5.524-4.226-2.07-1.119-4.996-.583-6.157,1.614-1.108,2.097-.597,4.961,1.614,6.157.441.239.877.484,1.301.754.252.16,1.32.954.547.332.797.642,1.485,1.357,2.18,2.103.2.215.572.426-.097-.148.132.113.285.395.373.525.239.352.463.715.671,1.086s.387.751.576,1.131c.225.453.274.138-.082-.199.148.141.209.561.272.747.275.81.489,1.639.653,2.479.041.208.19.6.14.799.019-.076-.115-1.095-.031-.223.047.495.094.988.12,1.484.099,1.877-.017,3.748-.224,5.613-.107.958.041-.139.023-.16.034.039-.089.585-.106.691-.075.462-.156.922-.244,1.381-.201,1.043-.449,2.075-.782,3.084-.127.385-.234.9-.456,1.242.057-.087.438-.922.07-.197-.094.186-.18.375-.275.561-.392.765-.883,1.447-1.334,2.173-.312.502.572-.65.171-.22-.13.14-.246.295-.372.439-.251.286-.513.562-.784.829-.27.266-.548.521-.835.767-.143.123-.294.237-.436.361-.412.36.792-.548.118-.105-.641.421-1.271.845-1.944,1.215-.384.211-.774.409-1.17.597-.177.084-.362.158-.536.248-.495.255.89-.343.113-.045-3.539,1.358-7.226,2.16-10.956,2.792-.637.108-1.275.21-1.914.308-.319.049-.638.096-.958.142-.087.013-1.069.148-.6.086-.774.104-2.551.309-3.722.428-2.723.276-5.453.476-8.186.621-10.795.573-21.609.288-32.411.508-21.716.442-43.31,4.841-65.063,3.561-1.307-.077-2.613-.175-3.917-.296-.655-.061-1.309-.127-1.963-.199-.328-.036-.655-.076-.982-.113l-.492-.06c.57.079.685.093.345.042-1.76-.32-3.444-.717-5.127-1.331-.824-.301.234.107.239.105-.036.019-.459-.212-.54-.251-.352-.171-.698-.354-1.038-.549-.334-.192-.661-.395-.98-.611.038.026-.465-.332-.468-.329.056-.049.793.661.019-.002-.579-.496-1.083-1.048-1.599-1.607-.465-.502.254.169.169.24-.002.002-.364-.508-.336-.468-.249-.362-.48-.735-.696-1.117-.222-.394-.415-.798-.613-1.204-.251-.514-.178.014.093.223-.073-.056-.204-.549-.218-.59-.31-.885-.549-1.793-.73-2.712-.045-.228-.086-.457-.125-.686-.024-.147-.118-.9-.05-.299.069.612-.013-.18-.027-.327-.024-.246-.045-.492-.063-.738-.074-1.032-.093-2.068-.047-3.102.021-.479.066-.955.104-1.433.067-.848-.004-.017-.029.137.038-.233.072-.466.114-.698.186-1.033.442-2.054.775-3.05.095-.285.615-1.541.167-.541.189-.421.382-.838.596-1.246s.443-.809.686-1.2c.122-.196.248-.39.377-.582.07-.104.634-.911.26-.391-.348.484.099-.117.194-.229.151-.18.306-.357.465-.53.32-.352.654-.69,1-1.016.176-.165.354-.326.536-.484.102-.089.688-.597.251-.229s.172-.126.285-.206c.256-.182.516-.359.78-.529.967-.621,1.985-1.164,3.027-1.648.107-.05.894-.396.403-.188s.304-.116.414-.159c.576-.221,1.157-.426,1.744-.614,2.237-.718,4.54-1.211,6.859-1.572.275-.043.551-.082.826-.123-.186.027-.852.104.048-.005.555-.067,1.109-.131,1.665-.19,1.18-.123,2.363-.224,3.546-.314,10.545-.801,21.086-1.623,31.627-2.478l8.203-.665c2.34-.19,4.615-1.934,4.5-4.5-.102-2.275-1.987-4.704-4.5-4.5h0Z"/><path d="m36.59,170.574c-1.597.187-3.167.175-4.767.061-1.382-.099.849.188-.516-.062-.426-.078-.852-.151-1.277-.24-.853-.18-1.699-.399-2.535-.645-1.558-.459-3.085-1.017-4.59-1.626-.017-.007-1.367-.578-.577-.238-.412-.178-.823-.358-1.233-.541-.82-.365-1.637-.739-2.453-1.115-3.826-1.762-7.88-4.383-12.132-2.425-3.243,1.493-5.025,5.338-5.857,8.625-1.623,6.413-.17,13.58,3.813,18.857s9.934,8.917,16.436,10.141c8.295,1.561,16.635-.324,24.011-4.25,2.081-1.107,2.895-4.17,1.614-6.157-1.364-2.115-3.931-2.799-6.157-1.614-1.392.741-2.499,1.257-3.392,1.598-1.392.531-2.817.978-4.266,1.325-.724.174-1.452.308-2.184.445-1.383.259.485-.021-.346.057-.369.035-.737.079-1.106.108-1.478.113-2.965.116-4.443-.008-.13-.011-1.537-.198-.391-.023-.253-.039-.506-.079-.759-.125-.631-.113-1.259-.252-1.879-.415s-1.236-.349-1.842-.559c-.242-.084-.481-.18-.723-.264-.48-.192-.478-.187.007.016-.176-.077-.351-.156-.525-.239-1.1-.514-2.16-1.112-3.166-1.793-.264-.179-.519-.369-.779-.554-.601-.427.766.683-.137-.125-.522-.467-1.043-.928-1.53-1.433-.398-.413-.774-.844-1.138-1.287.645.785-.133-.203-.211-.319-.144-.211-.283-.427-.418-.644-.34-.547-.627-1.114-.924-1.685-.388-.748-.085-.15-.015.02-.172-.415-.323-.839-.462-1.266-.179-.549-.333-1.106-.46-1.669-.085-.376-.15-.753-.219-1.132.031.17.081.925.012.055-.05-.638-.092-1.271-.086-1.911.003-.254.01-.509.023-.763.007-.141.179-1.515.072-.918-.127.707.115-.517.116-.526.054-.247.113-.494.178-.739.163-.613.363-1.216.6-1.804-.346.859-.006.069.102-.141.143-.278.302-.543.458-.813.489-.845.062.014-.034.017.369-.351.339-.353-.09-.006.376-.212.413-.234.111-.068-.106.031-.904.429-.968.187.003.011.695.226.796.262-.901-.323.436.206.504.237.27.122.539.245.808.369,1.493.684,2.979,1.382,4.478,2.055,6.407,2.875,13.286,5.54,20.448,4.704,2.33-.272,4.618-1.875,4.5-4.5-.099-2.204-1.996-4.793-4.5-4.5h0Z"/><path d="m117.566,92.513c13.807-3.232,28.071-10.098,35.916-22.411,2.216-3.477,3.811-7.425,4.639-11.463.471-2.3-.665-4.971-3.143-5.536-2.246-.512-5.03.677-5.536,3.143-.338,1.65-.792,3.269-1.392,4.843-.097.255-.609,1.341-.126.339-.146.304-.277.615-.423.919-.363.755-.758,1.494-1.182,2.216-.393.671-.811,1.326-1.252,1.966-.22.32-.45.632-.677.947-.06.083-.409.532-.051.074.41-.525-.184.223-.269.326-.988,1.204-2.058,2.34-3.189,3.41-.57.538-1.156,1.06-1.755,1.565-.301.254-.612.495-.914.748-.386.324.22-.164.245-.183-.225.171-.45.341-.677.509-1.326.978-2.704,1.886-4.12,2.728-1.378.82-2.791,1.579-4.232,2.281-.722.352-1.45.69-2.185,1.014-.21.093-.421.181-.631.275.029-.013.758-.311.283-.12-.425.171-.847.346-1.274.513-3.398,1.329-6.896,2.387-10.448,3.218-2.294.537-3.871,3.285-3.143,5.536.775,2.394,3.078,3.718,5.536,3.143h0Z"/><path d="m157.49,113.493c3.945-1.79,6.906-5.653,9.332-9.093,2.351-3.333,4.35-6.924,6.113-10.599.765-1.595,1.485-3.217,2.132-4.864.145-.369.299-.743.405-1.125.031-.11.059-.218.082-.33.062-.301.064-.949.166-1.235-.133.949-.118,1.129.046.541.067-.208.134-.417.199-.626,1.509-4.807,2.472-9.732,3.094-14.727,2.39-19.206-2.32-40.215-15.961-54.484-7.645-7.996-17.868-13.188-28.638-15.471-12.453-2.64-25.37-1.572-37.575,1.807-6.146,1.701-12.114,4.003-17.916,6.641-2.852,1.297-5.658,2.695-8.416,4.18-2.786,1.5-6.048,2.914-8.121,5.346-7.335,8.605-10.832,19.684-10.793,30.922.039,11.113,3.315,22.152,9.044,31.646,5.979,9.909,17.887,13.316,28.834,13.336,2.632.005,5.257-.193,7.865-.536,2.325-.306,4.619-1.85,4.5-4.5-.097-2.175-2-4.829-4.5-4.5-2.608.343-5.234.54-7.865.536-1.234-.002-2.469-.047-3.699-.142-.607-.047-1.212-.111-1.818-.176-.856-.092-.034-.004.119.02-.473-.073-.946-.145-1.418-.23-2.282-.413-4.528-1.033-6.673-1.919,1.096.453-.464-.24-.756-.388-.493-.25-.978-.517-1.452-.801-.47-.281-.931-.579-1.379-.894-.181-.128-1.034-.824-.136-.081-.252-.208-.505-.413-.751-.629-.829-.73-1.528-1.548-2.269-2.36.771.844-.291-.426-.472-.705-.378-.581-.719-1.186-1.068-1.785-.577-.992-1.123-2.002-1.638-3.027-.272-.542-.535-1.088-.79-1.639-.127-.276-.253-.552-.376-.83-.158-.356-.416-.993-.121-.267-.965-2.375-1.797-4.797-2.455-7.276-.313-1.179-.589-2.369-.826-3.565-.118-.598-.228-1.197-.327-1.798-.04-.24-.078-.481-.114-.721-.037-.241-.071-.481-.105-.722.079.594.087.631.021.111-.246-2.412-.413-4.815-.369-7.241.021-1.199.085-2.398.192-3.593.053-.595.123-1.188.193-1.781-.141,1.185.01-.017.042-.219.056-.352.116-.704.18-1.055.436-2.385,1.06-4.735,1.887-7.014.1-.277.204-.553.31-.828.01-.025.435-1.106.171-.445s.182-.41.194-.436c.121-.269.245-.536.372-.802.534-1.119,1.121-2.213,1.76-3.275.614-1.021,1.286-1.999,1.983-2.964.704-.975-.597.699.175-.228.154-.185.303-.374.458-.559.194-.232.391-.461.59-.688.12-.137.24-.273.363-.407-.424.292-.405.293.057.004,2.534-1.406,5.02-2.884,7.595-4.218,2.596-1.344,5.233-2.61,7.91-3.785.392-.172.786-.342,1.18-.511-.176.075-.715.295.11-.045.66-.272,1.322-.541,1.986-.804,1.46-.576,2.931-1.123,4.414-1.639,5.474-1.903,11.101-3.386,16.831-4.276.415-.064.83-.126,1.246-.184-.186.026-.849.103.051-.003.693-.082,1.385-.162,2.08-.229,1.522-.148,3.049-.25,4.577-.302,2.838-.098,5.682-.029,8.51.229.69.063,1.377.148,2.066.223.803.087-1.07-.175.246.035.343.055.686.105,1.028.162,1.443.239,2.877.53,4.299.873,2.894.698,5.711,1.633,8.472,2.741-.68-.273.002,0,.118.052.369.164.738.326,1.103.497.513.239,1.022.488,1.526.745,1.042.531,2.065,1.1,3.066,1.706.89.538,1.761,1.106,2.613,1.702.444.31.878.634,1.314.954.897.657-.746-.616.111.087.249.204.501.403.749.609,1.714,1.424,3.326,2.97,4.823,4.621.708.78,1.376,1.591,2.043,2.406.152.186.564.605-.122-.165.206.232.383.506.567.756.342.465.675.937,1.001,1.414,1.215,1.78,2.318,3.637,3.306,5.552.484.938.941,1.89,1.372,2.854.108.241.207.487.318.727.286.617-.411-1.034-.024-.049.233.593.471,1.184.692,1.782,1.529,4.132,2.601,8.428,3.258,12.783.011.075.186,1.138.058.369s.037.295.046.372c.066.541.126,1.082.18,1.624.119,1.196.208,2.395.267,3.595.109,2.193.119,4.391.036,6.585-.086,2.259-.103,4.699-.577,6.916.277-1.295-.076.499-.118.769-.084.545-.174,1.089-.27,1.631-.211,1.193-.45,2.381-.716,3.563-.483,2.142-1.058,4.263-1.725,6.356-.242.761-.347,1.33-.468,2.164.339-2.353.229-1.22.085-.866-.154.38-.266.781-.417,1.164-.096.245-.217.489-.3.738.526-1.58.176-.42.008-.042-.333.752-.68,1.498-1.038,2.238-.788,1.632-1.628,3.239-2.519,4.817-1.027,1.82-2.123,3.604-3.317,5.319-.282.405-.57.806-.864,1.202-.106.143-.704.674-.178.241.534-.439-.081.095-.184.222-.635.782-1.301,1.539-2.013,2.251-.302.302-.613.596-.933.878-.123.108-.258.209-.375.322-.623.599.734-.497.252-.186-.656.423-1.263.852-1.979,1.177-2.151.976-2.838,4.259-1.614,6.157,1.432,2.221,3.856,2.658,6.157,1.614h0Z"/><path d="m90.326,90.113c-2.83,2.766-3.474,7.191-4.519,10.848-1.062,3.713-2.124,7.426-3.186,11.139-.647,2.262.79,5,3.143,5.536,2.398.546,4.843-.72,5.536-3.143.989-3.457,1.978-6.914,2.966-10.371.476-1.664.952-3.329,1.428-4.993.098-.341.375-2.076.695-2.277-.242.536-.293.653-.151.349.064-.142.135-.281.211-.417.1-.18.21-.355.33-.523-.396.499-.425.571-.089.217,1.686-1.648,1.777-4.733,0-6.364-1.813-1.665-4.565-1.759-6.364,0h0Z"/><path d="m88.148,82.381c2.749,2.936,5.933,5.538,9.382,7.614,4.03,2.426,8.46,3.256,13.057,2.136,3.266-.796,6.225-2.505,8.868-4.536,3.15-2.42,5.894-5.169,8.07-8.515,1.286-1.978.464-5.059-1.614-6.157-2.243-1.185-4.785-.496-6.157,1.614-.222.342-.451.675-.684,1.01-.747,1.071.553-.618-.291.378-.479.566-.967,1.12-1.483,1.653-.503.519-1.026,1.02-1.564,1.503-.284.255-.573.505-.866.75-.09.075-.892.734-.408.342.477-.386-.299.222-.397.293-.273.199-.55.394-.83.584-.508.345-1.025.675-1.556.983-.431.25-.873.473-1.315.702-.892.461.361-.074-.515.218-.411.137-.816.278-1.235.393-.344.094-.711.136-1.048.244-.326.057-.281.059.137.005-.212.025-.425.044-.638.055-.354.022-.709.032-1.064.021-.177-.005-1.337-.229-.493-.018-.425-.106-.841-.208-1.263-.324l-.425-.148c.311.142.325.146.04.013-.75-.351-1.467-.768-2.17-1.204-.744-.462-1.473-.951-2.184-1.462-.078-.056-.962-.715-.597-.435s-.499-.405-.574-.466c-1.353-1.117-2.621-2.327-3.82-3.608-1.613-1.722-4.757-1.751-6.364,0-1.694,1.845-1.72,4.527,0,6.364h0Z"/><path d="m99.869,89.154c-.118,5.953-.213,11.907-.284,17.861-.01.881.956,1.364,1.693.971,4.903-2.612,5.472-8.946,8.429-13.134l-2.056-.269c1.408,4.322,3.587,8.327,6.581,11.756.642.736,1.95.147,1.92-.795-.172-5.488-.897-10.936-1.873-16.335-.257-1.423-2.426-.82-2.17.598.94,5.204,1.627,10.447,1.792,15.736l1.92-.795c-2.73-3.128-4.718-6.825-6.002-10.763-.314-.965-1.498-1.06-2.056-.269-1.467,2.078-2.313,4.501-3.354,6.801-.97,2.144-2.11,4.376-4.267,5.526l1.693.971c.07-5.954.165-11.908.284-17.861.029-1.448-2.221-1.448-2.25,0h0Z"/><path d="m83.114,43.857c.958.603-.591-.585-.053-.083.205.191.412.375.601.582.33.361.327.693-.178-.263.128.243.314.465.451.706.211.373.436,1.241.005-.124.064.202.154.398.22.6.179.548.299,1.109.384,1.678l-.161-1.196c.12.942.121,1.879.006,2.821l.161-1.196c-.096.667-.243,1.32-.459,1.959-.039.116-.356.906-.041.168s-.032.041-.086.149c-.17.335-.361.66-.572.971-.087.128-.456.623-.02.046.469-.622-.05.016-.14.109-.117.12-.241.23-.362.346-.549.527.675-.425.215-.166-.146.082-.283.182-.429.264-.718.403.172.073.28-.076-.162.222-.95.28-1.205.325l1.196-.161c-.503.065-.986.071-1.49.01l1.196.161c-.444-.077-.852-.208-1.281-.341-.757-.235.708.334.215.094-.185-.09-.373-.172-.558-.262-.699-.342-1.336-.751-1.992-1.165-.422-.266.871.761.247.186-.117-.108-.239-.211-.353-.321-.143-.138-.269-.29-.409-.43-.368-.367.568.898.196.255-.1-.172-.212-.335-.306-.512-.237-.445-.005-.551.108.291-.052-.389-.218-.778-.279-1.174l.161,1.196c-.074-.652-.061-1.289.023-1.94l-.161,1.196c.079-.493.188-.978.342-1.454.078-.241.179-.472.26-.712-.406,1.212-.189.464-.028.153.233-.449.495-.884.782-1.3.245-.354.709-.657-.107.12.176-.167.322-.375.495-.547l.177-.169c.354-.303.241-.218-.337.255l.206-.126c.447-.226.28-.162-.503.192.305-.103.601-.238.903-.348.75-.273,1.514-.478,2.303-.597l-1.196.161c.817-.103,1.623-.103,2.441-.008l-1.196-.161c.476.07.939.167,1.404.291,2.272.605,4.993-.76,5.536-3.143.538-2.362-.709-4.887-3.143-5.536-2.457-.654-5.013-.694-7.473-.029-2.07.56-4.168,1.445-5.657,3.029-3.678,3.911-5.327,9.696-2.942,14.68,1.026,2.143,3.062,3.838,5.094,4.982,2.205,1.242,4.745,2.307,7.322,2.019,3.286-.367,5.897-2.021,7.867-4.64,1.25-1.662,2.105-3.735,2.42-5.792.814-5.314-.821-10.818-5.556-13.797-1.996-1.255-5.047-.486-6.157,1.614-1.171,2.216-.516,4.817,1.614,6.157h0Z"/><path d="m132.928,43.857c.958.603-.591-.585-.053-.083.205.191.412.375.601.582.33.361.327.693-.178-.263.128.243.314.465.451.706.211.373.436,1.241.005-.124.064.202.154.398.22.6.179.548.299,1.109.384,1.678l-.161-1.196c.12.942.121,1.879.006,2.821l.161-1.196c-.096.667-.243,1.32-.459,1.959-.039.116-.356.906-.041.168s-.032.041-.086.149c-.17.335-.361.66-.572.971-.087.128-.456.623-.02.046.469-.622-.05.016-.14.109-.117.12-.241.23-.362.346-.549.527.675-.425.215-.166-.146.082-.283.182-.429.264-.718.403.172.073.28-.076-.162.222-.95.28-1.205.325l1.196-.161c-.503.065-.986.071-1.49.01l1.196.161c-.444-.077-.852-.208-1.281-.341-.757-.235.708.334.215.094-.185-.09-.373-.172-.558-.262-.699-.342-1.336-.751-1.992-1.165-.422-.266.871.761.247.186-.117-.108-.239-.211-.353-.321-.143-.138-.269-.29-.409-.43-.368-.367.568.898.196.255-.1-.172-.212-.335-.306-.512-.237-.445-.005-.551.108.291-.052-.389-.218-.778-.279-1.174l.161,1.196c-.074-.652-.061-1.289.023-1.94l-.161,1.196c.079-.493.188-.978.342-1.454.078-.241.179-.472.26-.712-.406,1.212-.189.464-.028.153.233-.449.495-.884.782-1.3.245-.354.709-.657-.107.12.176-.167.322-.375.495-.547l.177-.169c.354-.303.241-.218-.337.255l.206-.126c.447-.226.28-.162-.503.192.305-.103.601-.238.903-.348.75-.273,1.514-.478,2.303-.597l-1.196.161c.817-.103,1.623-.103,2.441-.008l-1.196-.161c.476.07.939.167,1.404.291,2.272.605,4.993-.76,5.536-3.143.538-2.362-.709-4.887-3.143-5.536-2.457-.654-5.013-.694-7.473-.029-2.07.56-4.168,1.445-5.657,3.029-3.678,3.911-5.327,9.696-2.942,14.68,1.026,2.143,3.062,3.838,5.094,4.982,2.205,1.242,4.745,2.307,7.322,2.019,3.286-.367,5.897-2.021,7.867-4.64,1.25-1.662,2.105-3.735,2.42-5.792.814-5.314-.821-10.818-5.556-13.797-1.996-1.255-5.047-.486-6.157,1.614-1.171,2.216-.516,4.817,1.614,6.157h0Z"/></g></g></svg>