<?xml version="1.0" encoding="UTF-8"?><svg id="_레이어_1" xmlns="http://www.w3.org/2000/svg" viewBox="0 0 200 200"><g><path d="m34.1,91.543c-2.489,11.568-4.193,23.32-5.065,35.122-.426,5.764-.648,11.542-.664,17.321-.016,5.711.121,11.451,2.727,16.667,4.291,8.587,14.004,13.695,22.898,16.099,6.976,1.886,14.52,2.08,21.702,2.355,8.072.31,16.155.34,24.231.244,2.353-.028,4.61-2.05,4.5-4.5-.108-2.414-1.978-4.53-4.5-4.5-6.748.08-13.499.065-20.246-.115-3.855-.103-7.71-.258-11.557-.53-1.74-.123-3.478-.269-5.212-.458-.423-.046-.846-.095-1.268-.147-.179-.022-.366-.059-.545-.069.063.004,1.154.164.4.053-.702-.104-1.403-.209-2.101-.335-1.668-.301-3.306-.726-4.921-1.238-1.009-.319-2.006-.673-2.99-1.062-.244-.097-.489-.195-.731-.297.164.069.774.349-.007-.015-.589-.274-1.178-.547-1.758-.841-.911-.464-1.804-.964-2.673-1.502-.427-.264-.848-.538-1.262-.822-.205-.14-.409-.283-.61-.428-.117-.085-1.056-.856-.265-.187-.736-.622-1.471-1.235-2.155-1.916-.333-.332-.657-.673-.969-1.024-.155-.174-.302-.354-.455-.528-.759-.863.508.756-.146-.178-.521-.744-1.014-1.498-1.435-2.304-.17-.325-.609-1.391-.25-.448-.268-.703-.511-1.409-.703-2.137-.152-.575-.266-1.157-.377-1.742-.171-.896-.06-.328-.034-.124-.038-.294-.067-.59-.094-.885-.123-1.331-.163-2.667-.181-4.003-.073-5.503.076-11.013.395-16.506.179-3.09.416-6.177.713-9.258.156-1.623.328-3.245.516-4.864.085-.729.173-1.458.264-2.187.041-.324.082-.648.124-.971.025-.19.145-1.095.065-.503.857-6.323,1.977-12.609,3.319-18.847.494-2.295-.681-4.975-3.143-5.536-2.266-.516-5.006.682-5.536,3.143h0Z"/><path d="m60.339,73.357c-3.776,2.375-5.834,6.774-5.614,11.2.116,2.332.72,4.644,1.898,6.673,1.395,2.403,3.49,4.109,6.088,5.056,2.751,1.003,5.497.281,8.04-.892,2.174-1.002,4.049-2.439,5.473-4.368,2.931-3.972,1.997-9.722-.795-13.504-.94-1.274-1.937-2.502-3.344-3.292-.89-.5-1.969-.879-2.954-1.198-2.499-.807-5.19-.802-7.717-.129-2.274.606-3.887,3.236-3.143,5.536.756,2.337,3.098,3.792,5.536,3.143.439-.117.877-.209,1.326-.275l-1.196.161c.773-.091,1.534-.091,2.307.007l-1.196-.161c1.102.166,2.125.538,3.158.943l-1.075-.454c.023.01.627.291.608.316-.031.04-.841-.749-.369-.28.166.165.325.328.485.499.511.545-.505-.717-.196-.274.483.692.91,1.395,1.255,2.166l-.454-1.075c.308.734.535,1.481.661,2.267l-.161-1.196c.08.615.092,1.217.022,1.833l.161-1.196c-.07.458-.182.891-.345,1.325l.454-1.075c-.12.283-.251.557-.413.819-.058.096-.12.19-.186.281-.2.283-.079.127.362-.467-.198.149-.36.396-.543.568-.082.078-.166.154-.252.227-.354.292-.228.198.376-.281-.965.512-1.834,1.125-2.847,1.568l1.075-.454c-.549.227-1.091.408-1.678.51l1.196-.161c-.476.057-.933.052-1.408-.01l1.196.161c-.472-.084-.915-.215-1.358-.398l1.075.454c-.362-.167-.682-.411-1.036-.582.859.413.561.466.178.102-.142-.135-.265-.293-.408-.426-.343-.32.632.956.193.262-.105-.167-.219-.327-.32-.497-.224-.375-.412-.765-.585-1.166l.454,1.075c-.328-.816-.559-1.648-.684-2.519l.161,1.196c-.109-.891-.108-1.776.005-2.666l-.161,1.196c.121-.808.33-1.584.648-2.338l-.454,1.075c.123-.273.255-.541.405-.799.083-.143.177-.278.263-.419.36-.593-.643.729-.288.359.206-.214.392-.441.613-.642.097-.089.208-.166.302-.258-.857.84-.63.481-.253.244,1.991-1.253,2.961-4.068,1.614-6.157-1.286-1.994-4.025-2.955-6.157-1.614h0Z"/><path d="m72.191,125.203c-3.776,2.375-5.834,6.774-5.614,11.2.116,2.332.72,4.644,1.898,6.673,1.395,2.403,3.49,4.109,6.088,5.056,2.751,1.003,5.497.281,8.04-.892,2.174-1.002,4.049-2.439,5.473-4.368,2.931-3.972,1.997-9.722-.795-13.504-.94-1.274-1.937-2.502-3.344-3.292-.89-.5-1.969-.879-2.954-1.198-2.499-.807-5.19-.802-7.717-.129-2.274.606-3.887,3.236-3.143,5.536.756,2.337,3.098,3.792,5.536,3.143.439-.117.877-.209,1.326-.275l-1.196.161c.773-.091,1.534-.091,2.307.007l-1.196-.161c1.102.166,2.125.538,3.158.943l-1.075-.454c.023.01.627.291.608.316-.031.04-.841-.749-.369-.28.166.165.325.328.485.499.511.545-.505-.717-.196-.274.483.692.91,1.395,1.255,2.166l-.454-1.075c.308.734.535,1.481.661,2.267l-.161-1.196c.08.615.092,1.217.022,1.833l.161-1.196c-.07.458-.182.891-.345,1.325l.454-1.075c-.12.283-.251.557-.413.819-.058.096-.12.19-.186.281-.2.283-.079.127.362-.467-.198.149-.36.396-.543.568-.082.078-.166.154-.252.227-.354.292-.228.198.376-.281-.965.512-1.834,1.125-2.847,1.568l1.075-.454c-.549.227-1.091.408-1.678.51l1.196-.161c-.476.057-.933.052-1.408-.01l1.196.161c-.472-.084-.915-.215-1.358-.398l1.075.454c-.362-.167-.682-.411-1.036-.582.859.413.561.466.178.102-.142-.135-.265-.293-.408-.426-.343-.32.632.956.193.262-.105-.167-.219-.327-.32-.497-.224-.375-.412-.765-.585-1.166l.454,1.075c-.328-.816-.559-1.648-.684-2.519l.161,1.196c-.109-.891-.108-1.776.005-2.666l-.161,1.196c.121-.808.33-1.584.648-2.338l-.454,1.075c.123-.273.255-.541.405-.799.083-.143.177-.278.263-.419.36-.593-.643.729-.288.359.206-.214.392-.441.613-.642.097-.089.208-.166.302-.258-.857.84-.63.481-.253.244,1.991-1.253,2.961-4.068,1.614-6.157-1.286-1.994-4.025-2.955-6.157-1.614h0Z"/><path d="m38.44,88.239c-1.09.064-2.18.086-3.272.046-.543-.02-1.086-.054-1.627-.102-.27-.024-.54-.053-.81-.082-.43-.046-.452-.079-.013,0-2.207-.396-4.356-.896-6.46-1.688-.238-.09-1.343-.583-.611-.236-.488-.231-.981-.45-1.463-.695-1.025-.52-2.021-1.095-2.982-1.725-.454-.297-.884-.629-1.337-.926-.584-.384.481.405-.061-.038-.211-.172-.424-.342-.632-.517-.89-.748-1.72-1.546-2.506-2.402-.028-.03-.462-.55-.167-.18.323.405-.184-.273-.249-.37-.149-.226-.289-.456-.421-.692-.062-.111-.418-.871-.207-.364.228.546-.307-1.423-.222-.77.069.537.015-.124.011-.197-.061-1.053-.271.698.004-.315.066-.244.144-.488.208-.732-.045.171-.419.77-.003.021.125-.225.254-.444.383-.667.031-.053.397-.583.096-.172-.323.441.177-.188.267-.283.178-.19.364-.371.557-.546.089-.081.756-.592.331-.29-.439.312.461-.284.548-.337.466-.285.948-.526,1.433-.775.137-.07.79-.344.048-.039.252-.103.508-.199.763-.293.463-.169.93-.33,1.407-.457.126-.034.991-.17.448-.122-.5.045.719.086-.12-.046,1.891.299,3.688,1.309,5.566,1.75,4.348,1.02,9.013,1.595,13.485,1.429,2.35-.087,4.612-2.007,4.5-4.5-.106-2.363-1.98-4.594-4.5-4.5-2.111.078-4.229-.061-6.327-.288-.354-.038-1.655-.212-.67-.071-.554-.079-1.106-.164-1.658-.259-1.089-.188-2.174-.407-3.242-.689-2.556-.675-4.893-2.039-7.634-1.76-2.911.296-5.942,1.461-8.385,3.065-2.736,1.797-4.944,4.287-5.971,7.436-1,3.067-.474,6.33,1.016,9.138,1.289,2.428,3.347,4.461,5.479,6.158,2.164,1.723,4.424,3.264,6.928,4.453,5.634,2.674,11.829,3.997,18.071,3.628,2.346-.138,4.613-1.971,4.5-4.5-.104-2.319-1.983-4.649-4.5-4.5h0Z"/><path d="m45.12,72.073c.498-2.301.996-4.602,1.493-6.903.255-1.181.169-2.404-.454-3.468-.546-.933-1.617-1.824-2.689-2.068-1.152-.262-2.445-.206-3.468.454-.955.615-1.82,1.544-2.068,2.689-.498,2.301-.996,4.602-1.493,6.903-.255,1.181-.169,2.404.454,3.468.546.933,1.617,1.824,2.689,2.068,1.152.262,2.445.206,3.468-.454.955-.615,1.82-1.544,2.068-2.689h0Z"/><path d="m43.636,59.746c-.707-.278-1.412-.559-2.115-.845-.352-.143-.703-.288-1.053-.434-.108-.045-1.012-.429-.395-.165-1.327-.568-2.647-1.15-3.959-1.75-2.693-1.233-5.353-2.537-7.977-3.91-5.249-2.748-10.343-5.78-15.275-9.063-1.964-1.308-5.067-.449-6.157,1.614-1.195,2.262-.482,4.761,1.614,6.157,10.33,6.877,21.378,12.535,32.923,17.075,2.196.863,5.035-.946,5.536-3.143.59-2.588-.792-4.611-3.143-5.536h0Z"/><path d="m7.391,50.242c5.572,3.01,12.048,3.243,18.211,3.957,6.26.725,12.519,1.45,18.779,2.175,2.347.272,4.6-2.264,4.5-4.5-.12-2.67-1.986-4.209-4.5-4.5-5.93-.687-11.86-1.374-17.791-2.061-1.4-.162-2.8-.324-4.201-.487-.722-.084-1.444-.166-2.166-.251-.365-.043-.73-.093-1.095-.132-.749-.079.627.1-.119-.014-1.308-.198-2.61-.416-3.891-.751-.635-.166-1.257-.366-1.877-.58-.268-.093-.572-.236-.136-.038-.4-.181-.786-.382-1.172-.59-2.07-1.119-4.996-.583-6.157,1.614-1.108,2.097-.597,4.962,1.614,6.157h0Z"/><path d="m48.407,53.662c.984-1.662,2.03-3.285,3.154-4.856.263-.368.53-.732.801-1.094.116-.155.233-.31.35-.464-.105.138-.525.659.011-.007.607-.755,1.223-1.502,1.862-2.23,1.231-1.403,2.531-2.746,3.899-4.016.658-.61,1.331-1.203,2.021-1.777.393-.327.79-.649,1.194-.963-.717.557.431-.306.622-.442,1.499-1.073,3.064-2.055,4.688-2.928.783-.421,1.58-.816,2.389-1.183.121-.055.86-.383.336-.155-.485.21.1-.04.167-.066.475-.186.95-.37,1.43-.541,2.099-.745,4.264-1.288,6.454-1.687.547-.1,1.095-.191,1.644-.275.236-.036.471-.071.707-.105-.656.093.134-.017.222-.027,1.186-.141,2.373-.267,3.562-.377,5.265-.486,10.545-.853,15.834-.865,2.354-.005,4.609-2.066,4.5-4.5s-1.977-4.506-4.5-4.5c-4.892.011-9.773.335-14.645.758-5.066.441-10.22.972-15.083,2.531-8.056,2.582-15.194,7.553-20.901,13.747-3.225,3.5-6.065,7.386-8.489,11.479-1.201,2.027-.526,5.026,1.614,6.157,2.168,1.145,4.875.55,6.157-1.614h0Z"/><path d="m157.221,93.935c1.171,5.44,2.169,10.916,2.976,16.422.107.727.21,1.455.31,2.183.111.806-.071-.547.035.26.042.324.084.647.126.971.185,1.456.358,2.914.517,4.374.301,2.754.555,5.514.762,8.277.414,5.52.64,11.053.677,16.588.018,2.611.054,5.239-.169,7.843-.025.296-.061.59-.088.886-.076.822.225-1.02-.059.345-.121.583-.226,1.165-.377,1.742-.152.581-.345,1.146-.539,1.713-.08.234-.437.903.027-.035-.124.251-.237.507-.365.757-.44.86-.957,1.664-1.512,2.454-.132.188-.541.601.074-.09-.154.172-.295.359-.445.534-.383.444-.784.873-1.2,1.287-.683.68-1.412,1.303-2.155,1.916.745-.614-.352.251-.568.402-.513.36-1.037.704-1.569,1.034-.869.539-1.763,1.038-2.673,1.502-.462.236-.93.462-1.401.679-.237.109-.478.211-.715.321.894-.419-.279.112-.379.152-1.97.78-4.002,1.434-6.064,1.92-1.303.307-2.625.519-3.949.714-.757.112,1.093-.136-.146.016-.374.046-.749.09-1.124.131-.89.099-1.782.185-2.674.263-3.756.329-7.524.518-11.291.65-7.727.271-15.463.298-23.193.206-2.355-.028-4.608,2.09-4.5,4.5.11,2.462,1.977,4.47,4.5,4.5,7.037.084,14.078.065,21.112-.14,7.514-.219,15.212-.447,22.603-1.933,8.98-1.806,18.077-6.512,23.528-14.023,3.185-4.389,4.141-9.756,4.282-15.072.151-5.705-.028-11.435-.346-17.131-.742-13.278-2.553-26.51-5.35-39.51-.496-2.304-3.314-3.862-5.536-3.143-2.428.786-3.674,3.067-3.143,5.536h0Z"/><path d="m135.119,81.128c.166.104.682.49.042-.012-.616-.484-.194-.159-.068-.04.24.227.452.478.688.707.327.319-.56-.844-.344-.44.077.143.185.274.269.415.171.285.319.582.455.885l-.454-1.075c.318.753.527,1.529.648,2.338l-.161-1.196c.114.89.115,1.775.005,2.666l.161-1.196c-.125.87-.356,1.703-.684,2.519l.454-1.075c-.157.364-.326.721-.525,1.064-.119.206-.25.401-.381.598-.414.624.571-.636.193-.262-.14.138-.265.29-.408.426-.13.125-.7.585-.088.106s.023-.044-.134.049c-.206.121-.419.225-.635.324l1.075-.454c-.443.183-.886.314-1.358.398l1.196-.161c-.475.062-.932.067-1.408.01l1.196.161c-.586-.102-1.129-.282-1.678-.51l1.075.454c-1.013-.443-1.883-1.056-2.847-1.568,1.059.562.519.416.207.131-.148-.135-.579-.446-.625-.645l.426.559c-.088-.121-.172-.245-.25-.373-.161-.262-.292-.536-.413-.819l.454,1.075c-.163-.434-.274-.867-.345-1.325l.161,1.196c-.07-.616-.058-1.218.022-1.833l-.161,1.196c.126-.786.353-1.533.661-2.267l-.454,1.075c.346-.773.777-1.47,1.255-2.166.276-.403-.784.86-.196.274.137-.136.26-.285.401-.419.603-.572-.256.085-.285.2.029-.118.521-.278.608-.316l-1.075.454c1.033-.406,2.055-.777,3.158-.943l-1.196.161c.772-.098,1.534-.098,2.307-.007l-1.196-.161c.45.066.888.158,1.326.275,2.272.605,4.993-.76,5.536-3.143.538-2.362-.709-4.887-3.143-5.536-2.365-.63-4.826-.668-7.193-.027-1.997.54-4.019,1.398-5.455,2.926-1.639,1.743-2.938,3.994-3.548,6.31-.709,2.693-.471,5.356.729,7.863.986,2.061,2.949,3.697,4.903,4.797,2.12,1.194,4.567,2.217,7.044,1.942,3.201-.356,5.73-1.956,7.648-4.507,1.193-1.586,2.011-3.569,2.312-5.533.363-2.37.378-4.848-.488-7.126-.983-2.587-2.508-4.701-4.876-6.191-1.996-1.255-5.047-.486-6.157,1.614-1.171,2.216-.516,4.817,1.614,6.157h0Z"/><path d="m123.267,132.975c.166.104.682.49.042-.012-.616-.484-.194-.159-.068-.04.24.227.452.478.688.707.327.319-.56-.844-.344-.44.077.143.185.274.269.415.171.285.319.582.455.885l-.454-1.075c.318.753.527,1.529.648,2.338l-.161-1.196c.114.89.115,1.775.005,2.666l.161-1.196c-.125.87-.356,1.703-.684,2.519l.454-1.075c-.157.364-.326.721-.525,1.064-.119.206-.25.401-.381.598-.414.624.571-.636.193-.262-.14.138-.265.29-.408.426-.13.125-.7.585-.088.106s.023-.044-.134.049c-.206.121-.419.225-.635.324l1.075-.454c-.443.183-.886.314-1.358.398l1.196-.161c-.475.062-.932.067-1.408.01l1.196.161c-.586-.102-1.129-.282-1.678-.51l1.075.454c-1.013-.443-1.883-1.056-2.847-1.568,1.059.562.519.416.207.131-.148-.135-.579-.446-.625-.645l.426.559c-.088-.121-.172-.245-.25-.373-.161-.262-.292-.536-.413-.819l.454,1.075c-.163-.434-.274-.867-.345-1.325l.161,1.196c-.07-.616-.058-1.218.022-1.833l-.161,1.196c.126-.786.353-1.533.661-2.267l-.454,1.075c.346-.773.777-1.47,1.255-2.166.276-.403-.784.86-.196.274.137-.136.26-.285.401-.419.603-.572-.256.085-.285.2.029-.118.521-.278.608-.316l-1.075.454c1.033-.406,2.055-.777,3.158-.943l-1.196.161c.772-.098,1.534-.098,2.307-.007l-1.196-.161c.45.066.888.158,1.326.275,2.272.605,4.993-.76,5.536-3.143.538-2.362-.709-4.887-3.143-5.536-2.365-.63-4.826-.668-7.193-.027-1.997.54-4.019,1.398-5.455,2.926-1.639,1.743-2.938,3.994-3.548,6.31-.709,2.693-.471,5.356.729,7.863.986,2.061,2.949,3.697,4.903,4.797,2.12,1.194,4.567,2.217,7.044,1.942,3.201-.356,5.73-1.956,7.648-4.507,1.193-1.586,2.011-3.569,2.312-5.533.363-2.37.378-4.848-.488-7.126-.983-2.587-2.508-4.701-4.876-6.191-1.996-1.255-5.047-.486-6.157,1.614-1.171,2.216-.516,4.817,1.614,6.157h0Z"/><path d="m161.56,97.239c10.776.636,22.72-3.771,29.364-12.542,2.049-2.705,2.994-5.989,2.465-9.354-.432-2.745-2.008-5.415-4.1-7.237-2.297-2-5.034-3.362-7.938-4.25-1.759-.538-3.512-.641-5.319-.318-1.227.219-2.335.746-3.507,1.146-1.07.366-2.174.63-3.28.857-.593.122-1.189.23-1.786.329-.307.051-.614.095-.921.144-.983.156.787-.078-.296.039-2.351.253-4.706.461-7.073.373-2.355-.087-4.606,2.132-4.5,4.5.113,2.513,1.977,4.406,4.5,4.5,4.032.15,8.171-.36,12.12-1.136,1.771-.348,3.444-.86,5.13-1.495.529-.199,1.061-.334,1.598-.503.674-.211-.667.062.047.026.666-.034-.566-.219.069-.005.471.159.965.258,1.438.422.257.089.511.185.767.28,1.219.452-.732-.395.429.189.426.214.848.427,1.258.671.231.137.449.313.686.435.589.304-.427-.421.061.029.388.358.745.732,1.122,1.099.352.343-.063-.076-.109-.151.203.332.406.649.597.988.154.274.134.664-.003-.021.047.238.145.501.208.732.1.366-.078.618-.004-.067-.018.168-.018.416,0,.583.065.625.222-.596.003-.014-.089.236-.163.515-.215.762-.129.62.337-.509-.011.027-.182.28-.317.594-.497.878-.145.228-.299.455-.46.673.12-.161.507-.574-.067.047-.37.4-.738.797-1.132,1.174-.345.331-.701.65-1.063.962-.206.178-.415.353-.626.526-.243.199-.729.548-.214.174-1.833,1.33-3.754,2.353-5.762,3.382-.457.234.072-.02.146-.052-.373.157-.752.302-1.131.442-.57.211-1.146.404-1.727.581-1.163.356-2.346.645-3.543.866-.266.049-.536.083-.8.138-.722.15,1.062-.103-.213.032-.608.064-1.216.12-1.826.154-1.295.073-2.589.059-3.883-.017-2.354-.139-4.604,2.169-4.5,4.5.115,2.557,1.978,4.351,4.5,4.5h0Z"/><path d="m163.558,69.681c-.498-2.301-.996-4.602-1.493-6.903-.231-1.068-1.145-2.149-2.068-2.689-.965-.564-2.386-.804-3.468-.454-1.089.352-2.139,1.027-2.689,2.068-.584,1.105-.72,2.238-.454,3.468.498,2.301.996,4.602,1.493,6.903.231,1.068,1.145,2.149,2.068,2.689.965.564,2.386.804,3.468.454,1.089-.352,2.139-1.027,2.689-2.068.584-1.105.72-2.238.454-3.468h0Z"/><path d="m158.757,68.424c11.545-4.54,22.593-10.198,32.923-17.075,1.956-1.302,2.984-4.032,1.614-6.157-1.258-1.951-4.061-3.01-6.157-1.614-4.931,3.283-10.026,6.315-15.275,9.063-2.556,1.339-5.147,2.611-7.77,3.816-1.38.634-2.769,1.248-4.166,1.845.443-.19.016-.006-.184.078-.351.146-.701.291-1.053.435-.773.316-1.549.626-2.326.931-2.183.858-3.946,3.053-3.143,5.536.686,2.119,3.19,4.065,5.536,3.143h0Z"/><path d="m188.066,42.471c-.321.173-.654.324-.974.498-.607.329.528-.152-.13.054-.625.196-1.235.429-1.869.602-1.276.347-2.578.579-3.884.776-.317.048-.606.077-.118.017-.365.044-.73.09-1.095.133-.713.084-1.425.166-2.138.248-1.483.172-2.965.343-4.448.515-5.93.687-11.86,1.374-17.791,2.061-2.33.27-4.618,1.876-4.5,4.5.099,2.206,1.996,4.79,4.5,4.5,6.26-.725,12.519-1.45,18.779-2.175,6.162-.714,12.639-.947,18.211-3.957,2.074-1.12,2.901-4.162,1.614-6.157-1.357-2.105-3.939-2.813-6.157-1.614h0Z"/><path d="m159.364,49.12c-4.34-7.327-9.937-13.83-16.832-18.854-3.407-2.483-7.154-4.423-11.11-5.875-4.686-1.72-9.685-2.376-14.629-2.855-5.499-.533-11.022-.92-16.548-.932-2.354-.005-4.609,2.073-4.5,4.5.109,2.443,1.977,4.494,4.5,4.5,4.654.01,9.296.304,13.931.697,1.111.094,2.221.192,3.33.305.554.057,1.108.116,1.662.182.316.037.632.075.947.117-.492-.066.017.005.221.036,2.324.359,4.63.82,6.879,1.515.854.264,1.698.559,2.53.884.178.069.354.144.532.212.636.245-.635-.301-.022-.006.458.22.925.42,1.382.644,1.655.81,3.252,1.734,4.786,2.755.743.495,1.46,1.024,2.182,1.548-.778-.565.444.357.595.481.396.325.787.655,1.173.992,1.404,1.226,2.739,2.53,4.007,3.896.746.804,1.468,1.63,2.167,2.476.329.398.65.803.972,1.208-.042-.053-.416-.555-.112-.143.191.26.388.516.579.776,1.296,1.765,2.492,3.6,3.608,5.484,1.2,2.025,4.106,2.937,6.157,1.614,2.039-1.314,2.898-3.989,1.614-6.157h0Z"/></g><path d="m156.745,129.642c-.999-4.653-2.631-9.309-5.988-12.809-3.074-3.205-7.395-5.014-11.697-5.82-4.458-.835-8.999-.932-13.512-1.231-4.757-.316-9.509-.706-14.269-.973-9.858-.553-19.654-.25-29.495.454-4.577.327-9.156.596-13.734.903-4.608.309-9.14.937-13.377,2.854-9.198,4.162-11.725,14.805-12.529,23.971-.454,5.176.175,10.423,2.322,15.18,1.12,2.481,2.883,4.575,5.162,6.069,2.004,1.314,4.426,2.017,6.724,2.622,9.258,2.436,18.928,3.209,28.467,3.511,10.026.317,20.103.316,30.129.007,9.548-.294,19.223-1.055,28.496-3.465,2.366-.615,4.864-1.323,6.926-2.675,2.208-1.448,3.974-3.478,5.076-5.881,2.143-4.672,2.838-9.817,2.445-14.925-.201-2.616-.614-5.224-1.148-7.792-.48-2.308-3.325-3.858-5.536-3.143-2.442.79-3.657,3.062-3.143,5.536.211,1.016.396,2.034.567,3.057.151.908.056.327.029.127.03.221.055.442.081.664.076.663.138,1.329.182,1.995.068,1.031.094,2.066.068,3.099-.013.514-.039,1.027-.079,1.539-.017.219-.039.437-.058.656-.071.835.062-.165-.041.325-.211,1.005-.389,2-.689,2.985-.15.492-.318.977-.501,1.457.294-.771-.286.575-.411.802-.134.242-.281.472-.422.709-.021.035-.412.588-.127.212.312-.412-.229.242-.311.326-.143.148-.3.281-.443.429.465-.477.1-.057-.082.051-.239.143-.468.291-.713.424-.182.099-.377.179-.558.281-.609.342.902-.296-.28.107-3.87,1.319-7.942,2.116-11.977,2.733-.572.088-1.146.173-1.72.249.746-.099-.305.034-.539.062-1.17.142-2.342.266-3.516.375-2.169.203-4.343.354-6.518.47-9.21.49-18.459.439-27.679.349-4.569-.044-9.138-.151-13.699-.427-2.237-.135-4.471-.312-6.7-.546-.512-.054-1.023-.11-1.534-.17-.218-.026-.436-.052-.654-.079-.115-.014-1.02-.127-.487-.059.482.062-.23-.032-.266-.037-.287-.041-.573-.082-.86-.124-.57-.085-1.139-.174-1.707-.269-2.029-.337-4.048-.738-6.048-1.218-1.019-.244-2.036-.505-3.043-.797-.405-.118-.809-.24-1.209-.376-.265-.09-.531-.183-.792-.286.595.235.011-.004-.26-.145-.425-.221-.864-.456-1.24-.755.584.465-.304-.4-.461-.547-.355-.333.01.016.069.105-.152-.229-.305-.456-.447-.692-.282-.473-.533-.967-.754-1.472.339.773-.157-.5-.231-.727-.159-.487-.301-.978-.426-1.475s-.23-.995-.321-1.498c-.021-.113-.162-1.013-.088-.484.07.501-.07-.74-.068-.71-.183-2.133-.117-4.282.105-6.41.023-.217.212-1.59.091-.794.078-.514.161-1.027.252-1.538.187-1.051.4-2.097.643-3.136.215-.918.456-1.83.742-2.729.142-.448.296-.892.462-1.332.044-.117.377-.888.151-.391-.23.506.285-.567.276-.549.209-.413.435-.818.677-1.212.115-.187.849-1.232.317-.549.282-.363.596-.705.92-1.032.131-.133.265-.264.402-.391-.001,0,.865-.749.392-.362-.409.334.064-.043.132-.089.203-.136.403-.274.61-.404.362-.226.734-.436,1.113-.631.292-.15,1.263-.555.43-.231.462-.18.927-.348,1.399-.498.838-.266,1.693-.48,2.554-.658.499-.103,1.001-.186,1.503-.273.08-.014.717-.118.162-.031-.634.1.545-.065.547-.065,4.026-.456,8.099-.548,12.14-.835,9.066-.642,18.118-1.305,27.215-1.078,8.775.219,17.519,1.075,26.281,1.564.954.053,1.908.114,2.861.196.384.033.767.069,1.151.11.256.027.51.058.766.087.886.099-.413-.083.137.022,1.814.348,3.548.733,5.301,1.324.198.067.76.36-.051-.033.165.08.334.153.499.234.384.187.761.388,1.129.605s.712.469,1.071.7c.543.35-.499-.486-.042-.024.216.218.467.41.687.625.279.274.541.564.799.858.569.649.127.177.026.029.149.218.299.434.441.658.212.335.411.679.597,1.028.125.234.234.476.359.71.394.736-.072-.269.105.208.683,1.836,1.2,3.697,1.611,5.612.495,2.305,3.315,3.862,5.536,3.143,2.429-.786,3.673-3.066,3.143-5.536Z"/></svg>