<?xml version="1.0" encoding="UTF-8"?><svg id="_레이어_1" xmlns="http://www.w3.org/2000/svg" viewBox="0 0 200 200"><path d="m100.007,119.879c-2.375.115-4.8.103-7.16.394-1.652.204-3.26.518-4.672,1.471-1.288.869-2.474,2.016-3.194,3.412-1.539,2.984-1.526,6.546.164,9.474,1.321,2.289,3.594,4.035,5.868,5.304,2.725,1.52,5.564,2.298,8.631,2.698,1.057.138,2.466-.602,3.182-1.318.78-.78,1.368-2.061,1.318-3.182-.052-1.164-.434-2.371-1.318-3.182l-.911-.704c-.702-.407-1.459-.612-2.271-.614l-.23-.03,1.196.161c-1.539-.222-3.028-.636-4.462-1.236l1.075.454c-1.35-.586-2.615-1.321-3.787-2.213l.911.704c-.633-.496-1.214-1.032-1.714-1.664l.704.911c-.262-.356-.485-.722-.673-1.123l.454,1.075c-.204-.488-.339-.974-.416-1.497l.161,1.196c-.047-.448-.047-.883.002-1.331l-.161,1.196c.066-.431.173-.839.333-1.245l-.454,1.075c.165-.373.361-.716.598-1.048l-.704.911c.293-.377.614-.702.989-.997l-.911.704c.33-.238.671-.433,1.046-.595l-1.075.454c.457-.172.916-.284,1.398-.363l-1.196.161c2.395-.321,4.868-.293,7.281-.41,2.348-.114,4.613-1.988,4.5-4.5-.105-2.34-1.982-4.622-4.5-4.5h0Z"/><path d="m95.551,137.361c-.083.396-.182.785-.315,1.167-.049.142-.283.75-.018.083.26-.658.015-.075-.058.065-.187.357-.405.69-.623,1.027-.328.504.075-.152.218-.268-.131.107-.238.282-.352.409-.273.302-.563.587-.866.857-.136.121-.278.233-.415.353-.422.371.74-.5.258-.209-.711.429-1.388.849-2.135,1.217-.51.251.863-.304.319-.143-.184.054-.364.131-.547.19-.49.159-.988.293-1.491.402-.223.048-.448.087-.672.131-.763.149.16-.069.179-.015-.013-.039-1.396.107-1.542.113-.979.035-1.96.001-2.936-.081-.231-.019-.46-.045-.691-.067-.695-.064.025.113.163.032-.243.142-1.421-.227-1.707-.278-2.308-.417-4.963.627-5.536,3.143-.501,2.2.666,5.088,3.143,5.536,5.404.976,10.76,1.098,15.86-1.191,4.055-1.82,7.521-5.683,8.443-10.08.482-2.298-.673-4.973-3.143-5.536-2.255-.514-5.019.679-5.536,3.143h0Z"/><path d="m47.959,83.562c-.545.985-1.129,1.946-1.763,2.877-.314.462-.642.913-.97,1.365-.515.707-.173.235-.057.086-.257.329-.519.654-.785.977-1.506,1.834-3.124,3.572-4.747,5.302-1.583,1.688-3.2,3.356-4.692,5.126-1.655,1.963-2.574,4.512-2.495,7.096.167,5.418,4.235,9.747,9.482,10.823,4.696.963,9.007-.671,12.488-3.834,3.162-2.873,5.442-6.778,7.134-10.663.937-2.152.707-4.931-1.614-6.157-1.945-1.028-5.153-.69-6.157,1.614-.601,1.379-1.263,2.73-2.015,4.033-.381.659-.783,1.306-1.211,1.936-.198.291-.392.709-.661.932.082-.068.635-.773.107-.142-.138.165-.272.332-.412.494-.48.558-.99,1.093-1.535,1.588-.178.162-1.016.749-.486.431.544-.326-.45.285-.655.408-.024.014-.899.494-.903.484-.019-.05,1.085-.371.275-.121-.137.042-.272.093-.41.135-.166.05-.926.132-.978.235.045-.091,1.158-.055.333-.059-.196-.001-.392.017-.589.014-.075-.001-.599-.018-.599-.032.002-.101.926.258.433.053-.334-.139-.744-.165-1.094-.277-.216-.069-.427-.15-.639-.23.071.027.679.358.263.088-.147-.096-.334-.184-.494-.259-.948-.444.208.315-.193-.052-.176-.162-.335-.356-.518-.506-.364-.299.112.155.159.236-.117-.201-.628-1.175-.402-.62.282.692-.229-.629-.152-.673.054-.031.036,1.192.045.275.002-.2.007-.411-.005-.611-.043-.718.197.296-.065.299.007,0,.083-.404.093-.435.045-.134.086-.287.118-.425.189-.819-.032.284-.136.269.005,0,.284-.539.266-.498-.033.078-.533.599-.14.196s.745-.845,1.121-1.261c1.364-1.508,2.769-2.978,4.155-4.465,3.3-3.542,6.513-7.255,8.868-11.509,1.14-2.059.568-5.004-1.614-6.157-2.115-1.117-4.939-.585-6.157,1.614h0Z"/><path d="m53.462,101.224c-4.164,13.164-4.553,27.664-.901,40.999.925,3.378,2.278,6.525,4.452,9.284,1.834,2.328,4.319,4.195,6.949,5.541,5.296,2.71,11.116,3.801,16.961,4.546,6.265.799,12.656,1.147,18.968.834,2.347-.116,4.613-1.987,4.5-4.5-.105-2.338-1.982-4.625-4.5-4.5-5.268.261-10.575.029-15.821-.482-.662-.064-1.323-.134-1.983-.211-.26-.03-.519-.061-.778-.093-.003,0-1.263-.17-.548-.069.706.1-.511-.077-.523-.079-.243-.036-.486-.074-.729-.112-.697-.111-1.393-.231-2.086-.365-2.448-.472-4.882-1.089-7.216-1.973-.138-.052-1.302-.552-.336-.121-.231-.103-.461-.206-.689-.314-.567-.268-1.124-.557-1.667-.87-.539-.311-1.053-.654-1.57-1.001-.69-.463-.109-.073.024.036-.334-.273-.66-.553-.974-.849-.406-.382-.771-.796-1.149-1.204-.795-.857.402.735-.206-.275-.147-.245-.317-.477-.465-.721-.371-.61-.695-1.249-.986-1.901.32.718-.041-.138-.108-.32-.173-.472-.332-.95-.481-1.431-.892-2.888-1.487-5.871-1.947-8.856-.142-.923-.056-.377-.029-.174-.06-.457-.113-.916-.162-1.374-.082-.764-.152-1.53-.209-2.297-.113-1.533-.175-3.071-.186-4.608-.053-7.266.834-13.068,3.074-20.148.71-2.245-.835-5.01-3.143-5.536-2.453-.559-4.775.739-5.536,3.143h0Z"/><path d="m52.983,79.571c-2.142-2.161-4.371-4.237-6.458-6.453-1.001-1.063-1.972-2.158-2.872-3.309.667.854-.064-.108-.161-.242-.208-.291-.412-.586-.609-.884-.456-.691-.882-1.402-1.266-2.136-.164-.313-.31-.633-.468-.949-.521-1.045.277.883-.091-.225-.224-.675-.46-1.337-.63-2.03-.086-.349-.146-.702-.223-1.053-.255-1.161.022.952-.032-.251-.039-.87-.128-1.74-.15-2.611-.009-.366.021-.728.026-1.093.017-1.147-.261.874.035-.226.155-.576.295-1.144.483-1.712.36-1.091-.463.767.106-.233.177-.31.329-.633.512-.941s.392-.6.585-.903c.297-.406.28-.39-.051.049.152-.187.309-.371.469-.551.483-.542,1.003-1.052,1.553-1.527.135-.117,1.098-.806.229-.201.299-.208.593-.419.9-.615.607-.388,1.237-.745,1.889-1.052.908-.427-.753.035.384-.075.262-.064.527-.118.794-.16-.546.076-.558.094-.035.053.373.028.751.011,1.126.039-1.115-.084.028.041.251.099.356.093.698.213,1.045.335-1.006-.354.089.065.263.158.661.352,1.291.763,1.891,1.212-.824-.616.168.168.272.259.385.338.737.715,1.12,1.053,2.147,1.894,6.269,1.798,8.547.206,1.419-.992,2.84-1.98,4.282-2.937,2.928-1.943,5.955-3.787,9.19-5.178-.886.381.371-.137.454-.169.512-.195,1.029-.378,1.551-.546.911-.295,1.837-.548,2.773-.751.403-.087.809-.154,1.213-.234.533-.082.544-.087.033-.017.276-.033.552-.061.829-.085.409-.035.856-.007,1.259-.076.555.02.565-.013.028-.101.254.05.508.1.762.15,1.899.374,3.798.752,5.666,1.261.983.268,1.957.569,2.914.92.028.01,1.367.554.569.208.548.238,1.081.506,1.61.782,2.086,1.087,4.984.605,6.157-1.614,1.093-2.07.615-4.996-1.614-6.157-3.578-1.864-7.405-2.965-11.34-3.765-2.016-.41-3.943-.784-6.011-.607-1.973.169-3.952.48-5.865.999-7.298,1.98-13.602,6.365-19.715,10.644l2.271-.614h-2.383l3.182,1.318c-3.885-3.829-8.722-6.411-14.298-5.576-4.821.722-9.064,4.331-11.831,8.175-2.784,3.869-3.403,8.509-2.851,13.136.593,4.963,2.771,9.215,5.813,13.119,2.851,3.658,6.296,6.764,9.552,10.048,1.66,1.674,4.725,1.786,6.364,0,1.655-1.803,1.771-4.577,0-6.364h0Z"/><path d="m124.277,80.872c-2.559-1.394-5.276-2.545-8.226-2.661-2.267-.089-4.498.58-6.497,1.592-1.393.706-2.472,1.768-3.383,3.014-.066.09-.433.733-.511.745-.014.002.805-.831.107-.145-.263.258-.524.509-.795.759.548-.504.028-.015-.278.179-.277.176-.56.33-.853.475.18-.089.686-.236-.158.049-.695.235-1.395.44-2.112.593-.07.015-1.489.25-.536.123-.29.039-.586.063-.877.087-.885.072-1.775.092-2.663.082-1.496-.017-2.99-.13-4.479-.264-.328-.03-.659-.073-.988-.094-.559-.036,1.304.229.401.046-.592-.12-1.184-.226-1.773-.367-.533-.127-1.063-.267-1.587-.427-.248-.076-.492-.167-.74-.242-.801-.239.037-.257.173.097-.057-.149-1.183-.697-1.275-.752-.941-.561-1.938-.999-2.953-1.41-5.546-2.247-11.942-.879-17.73-.466-1.326.095-2.654.164-3.983.171-.724.004-1.448-.009-2.171-.047-.358-.019-.717-.043-1.074-.075-.264-.023-1.356-.177-.216-.003-1.395-.213-2.687-.603-4.028-1.023.886.278.366.171.135.05-.404-.211-.81-.407-1.2-.644-.195-.118-.382-.248-.575-.37-.403-.29-.376-.262.082.084-.181-.147-.357-.3-.528-.458-1.756-1.567-4.656-1.861-6.364,0-1.572,1.712-1.876,4.69,0,6.364,4.477,3.994,10.262,5.179,16.122,5.12,5.552-.056,11.101-1.214,16.658-.835-.806-.055-.134-.021.05.03.411.113.825.199,1.232.33.27.087.541.182.804.287-.852-.342.404.221.469.255,1.306.688,2.431,1.408,3.84,1.922,2.313.844,4.78,1.234,7.222,1.454,6.484.586,13.94.443,18.868-4.462.657-.654,1.233-1.413,1.72-2.202.536-.868-.685.682-.008.025.586-.568-.885.431-.052.02.241-.119.469-.266.713-.384.168-.082.338-.159.51-.231-.551.223-.664.274-.339.152.399-.028.876-.152,1.258-.259.582-.163-.633.089-.653.084.217.055.572-.04.802-.038.143.001.298.024.441.018.692-.029-1.181-.247.049.026.622.138,1.22.347,1.817.568-.173-.064-.815-.388-.011.004.541.264,1.075.534,1.604.822,2.067,1.126,4.998.578,6.157-1.614,1.111-2.103.593-4.954-1.614-6.157h0Z"/><path d="m99.422,128.879c2.412.117,4.886.089,7.281.41l-1.196-.161c.482.078.941.19,1.398.363l-1.075-.454c.374.162.715.357,1.046.595l-.911-.704c.375.295.697.62.989.997l-.704-.911c.237.332.433.674.598,1.048l-.454-1.075c.16.406.266.813.333,1.245l-.161-1.196c.049.448.049.883.002,1.331l.161-1.196c-.077.523-.212,1.009-.416,1.497l.454-1.075c-.188.4-.411.767-.673,1.123l.704-.911c-.499.632-1.081,1.168-1.714,1.664l.911-.704c-1.171.891-2.437,1.627-3.787,2.213l1.075-.454c-1.434.6-2.923,1.014-4.462,1.236l1.196-.161-.23.03c-1.241.162-2.259.395-3.182,1.318-.78.78-1.368,2.061-1.318,3.182.052,1.164.434,2.371,1.318,3.182.813.746,2.032,1.468,3.182,1.318,2.821-.367,5.35-1.042,7.912-2.319,2.404-1.198,4.571-2.888,6.166-5.052,1.721-2.335,2.276-5.841,1.246-8.57-1.132-3-3.513-5.461-6.735-6.155-1.54-.331-3.129-.373-4.696-.449l-4.256-.207c-2.355-.114-4.605,2.152-4.5,4.5.114,2.536,1.977,4.377,4.5,4.5h0Z"/><path d="m95.199,139.754c.922,4.397,4.389,8.26,8.443,10.08,5.099,2.289,10.456,2.167,15.86,1.191,2.322-.419,3.845-3.368,3.143-5.536-.806-2.492-3.048-3.592-5.536-3.143-.511.092-1.023.173-1.536.254-.65.102.82-.079.164-.027-.23.018-.46.05-.69.071-.976.088-1.957.129-2.936.103-.517-.014-1.028-.07-1.543-.101-.643-.038.807.156.177.025-.223-.046-.45-.078-.674-.124-.504-.104-1.004-.23-1.495-.383-.196-.061-.388-.133-.584-.196-.761-.245.69.337.192.095-.706-.343-1.357-.725-2.024-1.138-.502-.311.106.071.252.216-.127-.126-.284-.23-.419-.348-.307-.267-.599-.55-.876-.849-.122-.132-.233-.275-.357-.404-.384-.399.502.741.21.274-.214-.341-.447-.663-.639-1.018-.078-.143-.138-.352-.241-.476.11.131.34.922.146.336-.142-.429-.266-.851-.359-1.294-.484-2.307-3.323-3.859-5.536-3.143-2.438.789-3.661,3.063-3.143,5.536h0Z"/><path d="m143.878,88.542c1.982,3.595,4.398,6.958,7.134,10.018,1.261,1.411,2.604,2.75,4.017,4.008.625.556,1.215,1.156,1.833,1.71.35.315-.175-.202-.205-.26.075.144.189.269.269.411.107.189.217.377.326.565.061.105.386.776.118.194s.154.512.196.668c.035.131.044.341.108.46.269.501-.166-.483-.037-.429.099.042.037.995.038,1.065,0,.032-.036.448-.03.449-.131-.039.264-1.019.005-.321-.026.069-.146.569-.174.562.004.001.354-.855.152-.405-.013.029-.208.389-.223.383-.068-.026.648-.645.25-.312-.144.12-.324.289-.432.441-.253.351.207-.161.281-.206.032-.02.776-.253.267-.079-.289.099-.579.191-.875.268-.112.03-.987.3-1.046.223-.024-.031.889-.06.33-.054-.229.002-.459.032-.688.037-.341.008-.681,0-1.022-.023-.073-.005-.453-.084-.506-.045.583.083.704.094.364.033-.11-.019-.22-.042-.329-.068-.328-.072-.653-.159-.974-.259-.433-.135-1.118-.479-.341-.084-.712-.362-1.41-.715-2.073-1.166-.142-.097-.278-.201-.42-.299-.514-.355.771.695-.034-.051-.299-.277-.602-.545-.888-.836-.329-.335-.623-.699-.941-1.043-.338-.367.129.173.158.215-.134-.195-.277-.383-.41-.579-.54-.798-.956-1.639-1.394-2.493.403.785-.024-.087-.14-.43-.175-.514-.318-1.034-.446-1.561-.557-2.288-3.271-3.876-5.536-3.143-2.377.769-3.74,3.083-3.143,5.536,2.058,8.456,10.071,16.302,19.279,15.204,2.671-.318,5.323-1.006,7.22-3.06,1.727-1.869,2.596-4.162,2.75-6.683.137-2.246-.559-4.528-1.568-6.508-1.078-2.115-2.788-3.524-4.485-5.101-1.854-1.722-3.531-3.589-5.13-5.547-.454-.555.351.496-.066-.088-.203-.285-.418-.563-.622-.848-.368-.514-.726-1.035-1.074-1.563-.739-1.121-1.425-2.273-2.073-3.449-1.138-2.063-4.149-2.909-6.157-1.614-2.091,1.348-2.831,3.95-1.614,6.157h0Z"/><path d="m137.288,103.616c.974,3.08,1.746,6.219,2.281,9.405.051.303.1.607.147.911.003.022.21,1.522.096.631.097.763.181,1.527.253,2.292.143,1.531.235,3.067.275,4.604.085,3.227-.055,6.462-.423,9.669-.035.305-.071.611-.111.916.117-.891-.095.608-.099.63-.119.759-.25,1.517-.394,2.272-.3,1.57-.653,3.132-1.068,4.676-.168.625-.346,1.248-.545,1.863-.133.411-.279.815-.425,1.221-.299.832-.114.3-.034.118-.287.653-.617,1.29-.986,1.901-.213.353-.445.692-.682,1.028.445-.63-.003-.01-.234.247-.411.458-.851.892-1.314,1.298-.185.163-.375.319-.565.475.816-.666-.149.086-.281.176-1.098.743-2.262,1.314-3.448,1.896-.668.328.989-.368-.152.061-.238.09-.475.183-.714.27-.6.219-1.206.42-1.816.606-1.337.408-2.695.746-4.062,1.036-1.091.231-2.189.427-3.29.601-.599.094-1.199.182-1.8.264.97-.132.282-.038.078-.015-.445.051-.889.108-1.334.158-5.788.651-11.669.987-17.491.7-2.355-.116-4.605,2.153-4.5,4.5.114,2.538,1.978,4.375,4.5,4.5,5.501.272,11.05-.025,16.523-.595,5.621-.586,11.376-1.365,16.653-3.488,3.063-1.232,5.894-2.776,8.339-5.028,2.584-2.38,4.269-5.444,5.437-8.722,2.271-6.373,3.138-13.503,3.252-20.238.133-7.838-1.023-15.76-3.387-23.233-.709-2.241-3.162-3.911-5.536-3.143-2.249.728-3.903,3.132-3.143,5.536h0Z"/><path d="m145.941,90.038c5.252-1.904,10.18-4.671,14.062-8.747,3.221-3.382,5.543-7.38,7.146-11.747s2.544-9.186,1.296-13.768c-1.545-5.674-5.846-10.127-11.28-12.218-3.285-1.264-6.851-1.53-10.275-.704-1.708.412-3.33,1.134-4.937,1.828-.697.301-1.388.614-2.086.911.158-.067.816-.321.016-.014-.479.184-.958.365-1.444.532l4.378,1.157c-9.179-9.791-23.843-16.106-37.276-12.975-4.061.947-7.652,2.905-10.9,5.469-1.857,1.465-1.648,4.851,0,6.364,1.97,1.808,4.383,1.563,6.364,0-.879.694.348-.236.518-.352.385-.262.779-.511,1.18-.747.79-.465,1.608-.878,2.449-1.243-1.113.484.29-.084.508-.159.427-.147.857-.281,1.292-.402.871-.243,1.752-.411,2.64-.577.509-.076.446-.07-.19.02.225-.027.45-.051.675-.071.452-.042.905-.072,1.358-.091.913-.038,1.829-.029,2.741.022.46.026.92.062,1.378.109.23.023.46.049.69.078-.621-.086-.675-.091-.162-.015.864.156,1.725.308,2.58.512,1.793.427,3.523,1.018,5.243,1.674.47.193.442.179-.083-.04.219.095.438.192.655.291.436.198.868.403,1.296.616.857.426,1.699.882,2.525,1.366s1.63.994,2.418,1.532c.392.268.78.542,1.163.823.191.14.38.282.569.425-.443-.344-.468-.36-.075-.05,1.431,1.194,2.803,2.425,4.079,3.786,1.037,1.106,2.922,1.657,4.378,1.157,1.336-.458,2.633-1.015,3.928-1.577.522-.226,1.045-.45,1.563-.684.618-.28-.666.258-.036.014.348-.135.694-.278,1.045-.407.988-.361,2.004-.664,3.046-.821-1,.151-.14.045.121.035.324-.012.647.011.971.006.193-.003.846.125.01-.028.424.078.838.181,1.256.285.462.115.922.231,1.374.383.035.012,1.096.443.447.153-.556-.249.123.071.255.138.463.234.913.493,1.346.778.191.126.373.266.564.392-.887-.583-.017.008.151.159.38.341.74.704,1.079,1.086.175.197.649.826.048.008.134.182.266.365.392.553.252.374.486.761.699,1.159.134.249.247.507.376.757.138.303.097.204-.123-.296.062.158.119.317.173.478.165.482.304.973.412,1.471.018.085.119.669.127.67-.122-.019-.074-.906-.036-.176.027.52.053,1.034.032,1.556-.012.292-.039.582-.063.874.066-.78.027-.276-.071.208-.303,1.5-.689,2.983-1.18,4.432-.115.339-.235.676-.361,1.01-.079.211-.176.42-.247.633-.198.598.477-1.055.081-.187-.352.77-.711,1.533-1.117,2.277-.42.769-.876,1.518-1.367,2.243-.252.373-.534.727-.785,1.1-.335.497.562-.62.141-.188-.214.219-.395.48-.596.713-.735.848-1.523,1.65-2.358,2.4-.416.374-.849.726-1.281,1.081.833-.687-.485.338-.768.531-1.015.691-2.074,1.319-3.164,1.884-.64.332-1.294.625-1.946.93-.633.296.619-.224-.05.019-.459.167-.912.352-1.371.519-2.207.8-3.932,3.096-3.143,5.536.702,2.17,3.166,4.002,5.536,3.143h0Z"/><path d="m119.735,88.643c4.033,2.376,8.525,3.783,13.217,3.917,4.435.126,8.877-.93,12.99-2.522,2.188-.847,3.944-3.061,3.143-5.536-.689-2.129-3.185-4.053-5.536-3.143-1.889.731-3.817,1.36-5.8,1.78-.378.08-.757.153-1.137.219-.251.043-.502.083-.754.119.57-.077.593-.085.07-.025-.871.054-1.731.126-2.606.115-.432-.005-.862-.023-1.293-.054-.234-.017-1.608-.093-.458-.019-.847-.054-1.742-.317-2.558-.544-.491-.136-.976-.29-1.456-.46-.276-.098-1.102-.429-.378-.12-1.003-.428-1.963-.946-2.901-1.498-2.03-1.196-5.024-.529-6.157,1.614-1.143,2.163-.553,4.88,1.614,6.157h0Z"/><path d="m101.331,16.065c-3.901-4.152-9.327-6.872-14.948-7.704-6.342-.94-12.474.153-18.287,2.805-2.779,1.268-5.295,2.945-7.691,4.827-1.124.883-2.173,1.844-3.249,2.784-.22.192-.441.381-.664.569-1.049.886.371-.227-.3.222-.302.202-.603.402-.921.58-.103.058-1.264.537-.433.246-.654.229-1.301.379-1.969.555-1.22.321.524-.003-.229.052-.346.025-.69.064-1.036.082-1.418.074-2.838.01-4.253-.084-2.817-.186-5.628-.494-8.451-.245-11.15.982-21.814,7.609-26.792,17.801-2.551,5.224-3.802,11.118-3.372,16.933.22,2.968.747,5.942,1.76,8.746.513,1.419,1.109,2.824,1.795,4.169.305.599.628,1.191.945,1.783.405.755.104.215.038.028.093.247.172.5.234.756-.04-.552-.047-.559-.024-.022-.017-.097.177-1.011,0-.097-.193,1.002.308-.341-.036.119-.182.244-.327.548-.493.806-.448.699-.112.157.005.013-1.009,1.242-2.072,2.421-3.042,3.697-1.37,1.802-2.556,3.73-3.52,5.779-2.193,4.66-3.443,9.556-3.82,14.692-.737,10.037,2.417,20.184,8.764,27.977.681.836,1.407,1.634,2.173,2.394.394.391.807.767,1.168,1.189l-.252-.326c.25.444.255.415.016-.088.017-.282.203-1.148-.056-.212-.691,2.49-1.627,4.833-2.064,7.399-.924,5.426-.796,10.888.426,16.262,2.389,10.502,9.125,19.91,18.568,25.172,9.38,5.226,20.987,6.666,31.289,3.494,1.382-.426,2.704-.973,4.039-1.526,1.095-.454-.552.144.178-.065.315-.09.633-.206.946-.306.849-.271-.008.006-.309-.016-.494-.026-.926-.24-1.295-.641-.326-.468-.36-.485-.103-.049-.1-.068-.326-.935-.053-.057.089.287.189.571.294.853.274.734.575,1.463.924,2.166.656,1.322,1.589,2.543,2.576,3.632,3.48,3.838,8.596,5.934,13.424,7.468,12.025,3.822,25.202,7.032,37.884,5.505,10.41-1.253,20.808-5.861,27.385-14.277,1.824-2.334,3.24-4.749,4.377-7.484.475-1.143.847-2.309,1.192-3.497.184-.634.379-1.26.602-1.882-.282.784-.087.18.02.013.119-.226.25-.445.393-.656-.282.35-.314.407-.095.171.526-.49-.639.735.073-.086.355-.409.233-.149-.14-.005.331-.127.67-.194,1.007-.297.244-.075.821-.056-.133-.005,1.39-.074,2.757-.039,4.148.028,2.804.135,5.634-.084,8.329-.916,5.469-1.688,10.22-5.2,14.136-9.302,3.951-4.139,7.415-8.956,10.019-14.053,2.835-5.549,4.72-11.541,5.049-17.789.29-5.511-.892-11.021-3.203-16.012-1.138-2.458-2.675-4.707-4.45-6.75-.798-.919-1.673-1.774-2.615-2.547-.628-.515-1.272-1.013-1.93-1.489-.242-.175-.486-.349-.737-.513-.772-.505.323.524-.174-.155.529.723.471.993.538,1.96-.005-.079.291-.834.036-.176.349-.902.779-1.781,1.147-2.676.551-1.34,1.052-2.7,1.497-4.08.909-2.822,1.588-5.716,2.054-8.643,1.917-12.056.747-24.524-3.017-36.127-3.166-9.76-8.688-19.483-17.505-25.151-2.119-1.362-4.492-2.439-6.909-3.148-1.196-.351-2.409-.571-3.643-.737-.75-.101-1.499-.19-2.253-.255-.437-.037-.874-.067-1.311-.106-.19-.017-1.424-.205-.535-.044-.705-.127-1.429-.265-2.091-.549.775.332.118.029-.008-.058-.324-.223-.681-.425-1.014-.636-.134-.085-.662-.52-.051-.023-.261-.213-.518-.43-.773-.65-.564-.487-1.114-.99-1.676-1.479-2.289-1.993-4.715-3.859-7.263-5.508-4.896-3.169-10.462-5.635-16.223-6.663-6.108-1.09-11.825.194-17.378,2.816-4.817,2.274-9.271,5.548-13.025,9.316-1.664,1.67-1.793,4.718,0,6.364s4.589,1.782,6.364,0c.827-.83,1.684-1.628,2.575-2.389.442-.378.893-.745,1.349-1.107-.679.538.015-.007.189-.136.375-.278.754-.55,1.138-.816,2.113-1.466,4.346-2.733,6.686-3.797,1.164-.529-.509.161.218-.089.312-.108.618-.24.929-.351.554-.199,1.114-.382,1.679-.546.555-.162,1.116-.306,1.681-.43.309-.068.62-.128.931-.183.185-.034.371-.064.557-.091-.518.067-.609.082-.272.045,1.165-.055,2.279-.091,3.445-.022-.18-.011-1.031-.172-.077-.011.343.058.686.116,1.027.181.75.143,1.495.31,2.234.501,1.208.313,2.4.687,3.571,1.117.326.119.65.244.972.372.191.076,1.024.443.271.107.635.283,1.267.574,1.89.883,2.503,1.243,4.888,2.719,7.146,4.365.226.165.45.333.675.5,1.076.799-.364-.317.252.195.483.402.979.789,1.459,1.196,1.039.879,2.028,1.816,3.085,2.675,1.302,1.058,2.589,1.996,4.138,2.649,1.728.729,3.406,1.031,5.273,1.232.653.071,1.309.113,1.963.169.363.031.725.074,1.088.104.827.068-1.064-.204.062.018s2.238.483,3.327.861c.214.074.424.16.639.233,1.08.371-.849-.431.176.07.406.198.815.386,1.215.598,1.051.556,2.058,1.193,3.018,1.895.21.153.813.667.041.024.176.147.356.289.531.436.441.371.87.756,1.289,1.152.848.803,1.65,1.654,2.409,2.542.153.179.305.361.455.543.011.013.74.924.312.38s.284.386.294.399c.141.193.281.387.419.582.695.983,1.346,1.997,1.958,3.033.586.992,1.135,2.005,1.65,3.036.244.488.481.981.711,1.476.127.275.252.551.375.828.475,1.073-.147-.412.186.427.886,2.237,1.662,4.499,2.316,6.815.776,2.743,1.409,5.527,1.89,8.338.111.649.211,1.3.309,1.952.208,1.389-.045-.509.044.327.039.364.088.726.128,1.09.159,1.453.277,2.91.349,4.37.137,2.763.116,5.534-.082,8.294-.052.724-.115,1.446-.192,2.168-.031.288-.066.576-.097.864-.149,1.381.092-.51-.039.312-.24,1.502-.489,2.996-.821,4.481-.599,2.683-1.389,5.322-2.376,7.888-.13.339-.269.673-.402,1.011-.302.769.432-.939-.144.329-.374.824-.783,1.648-1.053,2.512-.689,2.206-.267,4.494,1.131,6.304.934,1.209,2.226,2.012,3.458,2.889-.134-.095-.678-.566-.041-.027.233.197.467.393.694.597.499.447.977.916,1.433,1.407.373.402.718.824,1.072,1.243.465.551-.592-.861.069.107.137.201.281.398.417.601.682,1.016,1.287,2.083,1.816,3.187.07.147.566,1.279.147.273.095.227.185.457.273.687.221.577.422,1.162.604,1.752.366,1.185.654,2.394.866,3.616.043.245.078.491.118.736-.164-1.006-.025-.162.002.098.058.556.1,1.113.127,1.671.06,1.236.04,2.475-.055,3.708-.027.349-.078.697-.099,1.046-.048.8.186-1.052-.03.259-.102.62-.208,1.237-.336,1.852-.285,1.365-.649,2.712-1.082,4.037-.195.597-.404,1.19-.627,1.778-.124.327-.258.65-.384.976-.288.749.437-.94-.123.279-.587,1.279-1.202,2.54-1.885,3.771-1.337,2.415-2.889,4.671-4.514,6.897-.475.65.644-.792-.2.257-.169.21-.336.422-.507.632-.412.507-.834,1.006-1.264,1.497-.87.991-1.779,1.949-2.733,2.861-.857.82-1.749,1.602-2.68,2.336.681-.537-.009-.005-.185.123-.264.19-.53.377-.8.558-.536.36-1.084.703-1.644,1.025-.555.318-1.121.617-1.7.89-.229.108-.461.216-.695.315.857-.363.058-.044-.162.036-.535.193-1.077.364-1.627.51-.305.081-.612.153-.921.219-.23.049-1.594.228-.492.115-2.409.249-4.801-.139-7.21-.028-3.356.155-6.526,1.234-8.639,3.969-1.822,2.358-2.276,5.216-3.294,7.938-.084.224-.172.446-.26.668.37-.924.06-.161-.048.069-.226.483-.468.958-.725,1.425-.571,1.038-1.226,2.016-1.918,2.977.568-.79.098-.127-.061.068-.187.229-.378.456-.573.679-.351.403-.714.795-1.087,1.178-.878.902-1.818,1.724-2.786,2.528-.154.128-.683.487.056-.04-.196.14-.387.287-.583.428-.491.353-.992.692-1.501,1.018-1.024.656-2.082,1.259-3.166,1.81-.545.277-1.101.527-1.653.79-.175.083-.794.337.064-.018-.283.117-.567.231-.852.341-1.141.442-2.301.831-3.478,1.165-1.113.316-2.239.585-3.376.802-.535.102-1.072.193-1.611.273l-.179.027c.41-.055.337-.048-.219.02-.472.047-.943.1-1.416.139-2.987.248-5.992.228-8.979.002-.788-.059-1.575-.133-2.361-.22-.315-.035-.629-.073-.944-.11-1.539-.181.844.144-.69-.094-1.573-.244-3.141-.509-4.702-.822-5.645-1.131-11.307-2.588-16.771-4.409-.507-.169-1.013-.345-1.514-.53-.222-.082-1.947-.793-.914-.338-1.073-.473-2.129-.981-3.139-1.579-.494-.292-.961-.619-1.441-.933-.192-.126-.627-.534.1.092-.17-.146-.346-.283-.515-.431-.417-.364-.815-.751-1.187-1.161-.148-.164-.287-.333-.431-.5.75.865-.019-.063-.165-.295-.27-.428-.486-.872-.717-1.319.47.906.106.23.01-.045-.101-.288-.191-.58-.296-.867-.68-1.86-1.693-3.702-3.543-4.636-1.801-.91-3.705-1.004-5.648-.538-.886.213-1.743.631-2.575.98-.18.075-.826.302.032-.014-.348.129-.691.272-1.039.4-1.102.402-2.227.744-3.366,1.026-.539.134-1.082.254-1.627.361-.303.059-.607.114-.911.165-.236.04-1.597.197-.454.077-2.343.247-4.683.322-7.035.139-.617-.048-1.233-.111-1.847-.191.996.13-.28-.058-.639-.123-1.279-.231-2.546-.53-3.793-.896-1.13-.331-2.232-.729-3.329-1.153-.186-.072-.769-.364.05.023-.279-.132-.564-.252-.843-.384-.615-.289-1.221-.595-1.818-.92-.976-.531-1.927-1.109-2.846-1.732-.511-.346-1.015-.705-1.503-1.082.707.545.176.133.038.014-.28-.243-.57-.475-.849-.72-.878-.771-1.713-1.591-2.502-2.453-.372-.407-.734-.822-1.085-1.247-.002-.002-.748-.945-.334-.406.351.456-.449-.622-.521-.725-1.343-1.906-2.465-3.944-3.421-6.068-.487-1.082.202.58-.043-.112-.103-.288-.224-.571-.33-.858-.191-.518-.37-1.04-.538-1.565-.373-1.169-.687-2.356-.941-3.556-.114-.54-.217-1.082-.307-1.627-.004-.025-.178-1.22-.081-.494s-.049-.472-.052-.497c-.126-1.219-.192-2.444-.192-3.669,0-1.102.049-2.203.151-3.3.028-.305.068-.608.098-.912.073-.741-.188,1.098.016-.076.105-.603.208-1.205.337-1.804.603-2.801,2.137-5.574,2.126-8.467-.013-3.53-2.425-5.541-4.592-7.917-.382-.419-.74-.857-1.109-1.287-.139-.162-.513-.675.074.111-.169-.226-.339-.452-.503-.681-.659-.916-1.268-1.867-1.826-2.848-.532-.934-.999-1.895-1.454-2.867-.347-.742-.002.009.052.141-.106-.262-.212-.524-.314-.787-.223-.581-.432-1.167-.624-1.759-.315-.97-.589-1.953-.821-2.946-.129-.553-.245-1.108-.348-1.666-.041-.223-.081-.447-.118-.671-.037-.224-.072-.449-.105-.673.074.577.089.695.047.352-.242-2.21-.35-4.415-.229-6.637.028-.51.067-1.02.115-1.529.032-.334.052-1.868.065-.662-.012-1.064.402-2.309.654-3.334.257-1.043.561-2.074.913-3.089.167-.48.353-.952.531-1.428.389-1.038-.293.616.005-.018.168-.358.324-.72.496-1.075.442-.914.928-1.808,1.455-2.675.294-.483.6-.958.92-1.424.191-.279,1.205-1.585.505-.732,1.866-2.276,4.013-4.37,4.912-7.253,1.091-3.501-.501-6.528-2.046-9.559-.12-.236-.238-.474-.351-.713.014.029-.509-1.159-.256-.551s-.224-.599-.213-.569c-.091-.248-.18-.498-.264-.748-.422-1.254-.754-2.538-.996-3.838-.072-.39-.138-.782-.193-1.175.025.179.091.893.016.014-.051-.594-.101-1.187-.125-1.783-.056-1.399.029-2.774.129-4.168.013-.185.117-.885-.015.013.038-.262.079-.524.124-.785.112-.652.247-1.301.404-1.944.314-1.289.731-2.54,1.207-3.777-.316.822.001.003.095-.201.138-.3.281-.599.431-.894.269-.532.556-1.054.861-1.566.29-.489.596-.968.918-1.438.177-.259.369-.507.546-.766.192-.257.148-.203-.132.164.117-.148.235-.294.356-.438.76-.917,1.579-1.786,2.45-2.599.413-.385.837-.758,1.272-1.118.178-.147.853-.663.123-.114.301-.226.606-.448.915-.663.929-.645,1.894-1.237,2.89-1.771.555-.297,1.12-.565,1.688-.836.766-.365.12-.06-.038.005.349-.142.7-.279,1.053-.408,1.178-.43,2.385-.784,3.61-1.056.49-.109.985-.189,1.477-.286,1.225-.241-.95.064.294-.044.375-.032.749-.074,1.124-.099,5.617-.375,11.246,1.238,16.795-.321,3.261-.916,5.762-2.907,8.244-5.123.53-.473,1.072-.929,1.613-1.388.101-.086.669-.524.077-.072.222-.169.447-.335.673-.498,1.189-.858,2.43-1.643,3.718-2.343,1.324-.72,2.167-1.096,2.907-1.374,1.298-.489,2.63-.888,3.985-1.185.271-.059.543-.114.815-.166-.041.008,1.301-.219.634-.118s.683-.069.643-.066c.266-.024.534-.044.801-.06,1.294-.076,2.569-.008,3.86.086,1.23.089-.594-.133.146.015.316.063.636.106.952.17.568.114,1.133.249,1.691.404s1.11.329,1.654.524c-.014-.005,1.164.446.538.194s.527.247.516.242c1.036.498,2.035,1.076,2.978,1.735-.01-.007.967.755.465.336-.507-.424.444.396.429.383.479.426.932.878,1.371,1.345,1.616,1.719,4.755,1.753,6.364,0,1.691-1.842,1.724-4.53,0-6.364h0Z"/><path d="m78.737,105.561c.165.104.683.492.045-.01-.615-.483-.192-.157-.066-.038.241.228.454.48.691.711.328.32-.559-.843-.343-.438.077.144.186.276.271.417.172.286.32.585.457.889l-.454-1.075c.319.757.53,1.536.651,2.348l-.161-1.196c.114.894.115,1.784.005,2.678l.161-1.196c-.126.874-.358,1.711-.688,2.53l.454-1.075c-.158.365-.327.724-.527,1.069-.12.207-.251.402-.383.601-.415.625.569-.633.191-.259-.141.139-.266.291-.41.428-.13.124-.702.587-.091.108s.02-.042-.137.051c-.206.121-.421.226-.638.326l1.075-.454c-.445.184-.89.316-1.364.4l1.196-.161c-.477.062-.936.067-1.414.01l1.196.161c-.589-.102-1.134-.284-1.685-.512l1.075.454c-1.017-.445-1.891-1.064-2.86-1.575,1.056.557.517.414.204.128-.151-.137-.579-.446-.628-.648l.425.557c-.089-.121-.172-.246-.251-.374-.162-.264-.294-.539-.415-.823l.454,1.075c-.163-.436-.276-.871-.346-1.331l.161,1.196c-.071-.619-.058-1.224.022-1.841l-.161,1.196c.127-.79.354-1.54.664-2.277l-.454,1.075c.348-.777.781-1.476,1.261-2.176.277-.403-.783.858-.194.271.138-.137.262-.287.403-.421.603-.572-.251.079-.282.198.031-.12.522-.279.611-.318l-1.075.454c1.037-.407,2.065-.78,3.172-.948l-1.196.161c.776-.098,1.54-.098,2.317-.007l-1.196-.161c.452.066.892.159,1.332.276,2.272.605,4.993-.76,5.536-3.143.538-2.362-.709-4.887-3.143-5.536-2.372-.632-4.84-.67-7.215-.027-2.003.542-4.03,1.402-5.471,2.934-1.644,1.748-2.947,4.006-3.559,6.329-.711,2.7-.473,5.369.73,7.883.989,2.067,2.958,3.708,4.918,4.812,2.126,1.198,4.581,2.224,7.066,1.948,3.207-.357,5.743-1.961,7.665-4.517,1.197-1.592,2.018-3.582,2.32-5.553.364-2.377.378-4.863-.49-7.148-.985-2.594-2.515-4.713-4.889-6.206-1.996-1.255-5.047-.486-6.157,1.614-1.171,2.216-.516,4.817,1.614,6.157h0Z"/><path d="m123.516,105.561c.165.104.683.492.045-.01-.615-.483-.192-.157-.066-.038.241.228.454.48.691.711.328.32-.559-.843-.343-.438.077.144.186.276.271.417.172.286.32.585.457.889l-.454-1.075c.319.757.53,1.536.651,2.348l-.161-1.196c.114.894.115,1.784.005,2.678l.161-1.196c-.126.874-.358,1.711-.688,2.53l.454-1.075c-.158.365-.327.724-.527,1.069-.12.207-.251.402-.383.601-.415.625.569-.633.191-.259-.141.139-.266.291-.41.428-.13.124-.702.587-.091.108s.02-.042-.137.051c-.206.121-.421.226-.638.326l1.075-.454c-.445.184-.89.316-1.364.4l1.196-.161c-.477.062-.936.067-1.414.01l1.196.161c-.589-.102-1.134-.284-1.685-.512l1.075.454c-1.017-.445-1.891-1.064-2.86-1.575,1.056.557.517.414.204.128-.151-.137-.579-.446-.628-.648l.425.557c-.089-.121-.172-.246-.251-.374-.162-.264-.294-.539-.415-.823l.454,1.075c-.163-.436-.276-.871-.346-1.331l.161,1.196c-.071-.619-.058-1.224.022-1.841l-.161,1.196c.127-.79.354-1.54.664-2.277l-.454,1.075c.348-.777.781-1.476,1.261-2.176.277-.403-.783.858-.194.271.138-.137.262-.287.403-.421.603-.572-.251.079-.282.198.031-.12.522-.279.611-.318l-1.075.454c1.037-.407,2.065-.78,3.172-.948l-1.196.161c.776-.098,1.54-.098,2.317-.007l-1.196-.161c.452.066.892.159,1.332.276,2.272.605,4.993-.76,5.536-3.143.538-2.362-.709-4.887-3.143-5.536-2.372-.632-4.84-.67-7.215-.027-2.003.542-4.03,1.402-5.471,2.934-1.644,1.748-2.947,4.006-3.559,6.329-.711,2.7-.473,5.369.73,7.883.989,2.067,2.958,3.708,4.918,4.812,2.126,1.198,4.581,2.224,7.066,1.948,3.207-.357,5.743-1.961,7.665-4.517,1.197-1.592,2.018-3.582,2.32-5.553.364-2.377.378-4.863-.49-7.148-.985-2.594-2.515-4.713-4.889-6.206-1.996-1.255-5.047-.486-6.157,1.614-1.171,2.216-.516,4.817,1.614,6.157h0Z"/></svg>