<?xml version="1.0" encoding="UTF-8"?><svg id="_레이어_2" xmlns="http://www.w3.org/2000/svg" viewBox="0 0 204.014 154.382"><g id="_레이어_1-2"><g><path d="m102.002,0c-6.706.009-13.431.637-20.076,1.489-8.293,1.064-16.607,2.442-24.613,4.905-3.578,1.101-7.149,2.427-10.454,4.199-3.443,1.845-6.411,4.488-9.156,7.239-7.431,7.448-13.029,16.481-17.057,26.159-4.517,10.854-6.381,22.427-7.702,34.045-1.391,12.238-2.37,24.555-.51,36.799,1.557,10.248,5.497,21.068,13.24,28.285s18.063,9.605,28.359,10.42c7.036.557,14.12.603,21.174.704,7.657.11,15.318.177,22.975.08,1.273-.016,2.546-.038,3.819-.077,2.351-.071,4.611-2.019,4.5-4.5-.106-2.377-1.979-4.576-4.5-4.5-13.904.421-27.908.181-41.806-.357-1.427-.055-2.852-.125-4.277-.217-1.071-.069-2.141-.149-3.21-.248-.569-.052-1.137-.109-1.704-.173-.253-.028-.505-.059-.757-.088-1.271-.146.95.147-.316-.039-2.263-.333-4.511-.765-6.714-1.386-1.099-.31-2.185-.664-3.252-1.07-.237-.09-.473-.186-.709-.278.158.062.802.361.022.006-.581-.264-1.158-.536-1.725-.83-1.031-.536-2.032-1.129-2.994-1.781-.217-.147-.429-.3-.644-.45-.698-.485-.183-.121-.039-.01-.53-.41-1.041-.846-1.538-1.296-.87-.789-1.69-1.631-2.459-2.519-.199-.23-1.043-1.279-.492-.563-.39-.507-.762-1.03-1.121-1.56-1.336-1.974-2.422-4.074-3.424-6.233-.545-1.173.183.499-.103-.232-.124-.317-.255-.631-.377-.949-.197-.512-.386-1.026-.567-1.544-.434-1.243-.822-2.503-1.168-3.774-.664-2.441-1.174-4.923-1.546-7.425-.018-.122-.138-.999-.066-.448.093.709-.102-.879-.092-.791-.074-.647-.14-1.295-.198-1.943-.138-1.541-.233-3.086-.291-4.632-.224-5.967.102-11.94.635-17.882,1.021-11.391,2.114-21.923,5.658-33.08.76-2.393,1.618-4.759,2.596-7.072-.306.723-.024.063.035-.069.141-.314.278-.631.419-.945.254-.564.514-1.124.781-1.682.53-1.108,1.084-2.203,1.664-3.286,1.142-2.133,2.38-4.214,3.715-6.232.657-.993,1.337-1.97,2.04-2.93.31-.423.624-.844.944-1.26-.53.689.006,0,.141-.169.203-.254.407-.507.613-.759,1.465-1.786,3.018-3.499,4.659-5.124.806-.798,1.633-1.575,2.481-2.328.374-.332.751-.659,1.133-.982.216-.183.44-.359.654-.544.7-.605-.64.446-.24.184,1.179-.773,2.328-1.537,3.587-2.182.652-.334,1.314-.647,1.983-.944,1.135-.504-.697.264.296-.128.433-.171.865-.345,1.3-.51,7.186-2.718,14.829-4.251,22.4-5.429.923-.144,1.847-.28,2.772-.41.269-.038.539-.086.81-.112-.121.012-1.049.137-.229.031.533-.069,1.066-.138,1.6-.204,1.856-.229,3.714-.433,5.576-.612,3.236-.31,6.481-.55,9.73-.676,1.27-.049,2.542-.08,3.813-.081,2.354-.003,4.609-2.068,4.5-4.5S104.525-.003,102.002,0h0Z"/><path d="m72.842,145.491c-6.743-3.22-13.317-6.849-19.341-11.289-.399-.294-.796-.592-1.19-.893.552.422-.265-.212-.428-.342-.774-.618-1.536-1.25-2.286-1.898-1.391-1.202-2.738-2.456-4.03-3.764-1.265-1.281-2.477-2.613-3.624-4.001-.306-.37-.604-.747-.904-1.123-.32-.401.026.03.074.095-.123-.166-.248-.329-.37-.495-.572-.773-1.124-1.56-1.656-2.361-.985-1.484-1.899-3.016-2.731-4.591-.415-.785-.809-1.58-1.182-2.386-.172-.371-.336-.745-.501-1.119.322.734-.152-.391-.242-.624-.661-1.706-1.222-3.452-1.67-5.226-.198-.787-.374-1.579-.527-2.376-.076-.398-.146-.798-.211-1.198-.043-.267-.085-.534-.12-.802.059.445.052.418.011-.012-.167-1.743-.265-3.485-.207-5.237.028-.862.13-1.717.183-2.576.033-.53-.028.14-.038.209.027-.197.058-.394.089-.59.073-.458.156-.915.25-1.369.173-.842.383-1.677.629-2.501.113-.379.234-.756.364-1.13.086-.249.176-.496.269-.743.031-.082.341-.846.142-.377-.17.402.262-.556.341-.718.173-.353.353-.702.543-1.047.445-.809.981-1.544,1.465-2.326.263-.425-.062.06-.112.124.161-.208.33-.41.5-.61.337-.395.687-.78,1.053-1.148.305-.307.621-.602.947-.886.14-.122.283-.241.425-.361.64-.544-.321.183.124-.088.746-.455,1.446-.962,2.223-1.372.165-.087.331-.173.499-.256,0,0,1.05-.478.483-.236-.496.212.08-.028.154-.054.234-.084.466-.171.702-.25.887-.297,1.791-.46,2.695-.683.506-.125-.228.019-.284.025.244-.027.488-.054.733-.073.488-.038.978-.055,1.467-.05.427.005.853.058,1.279.066.519.01-.235-.041-.289-.051.24.043.481.079.72.128.965.196,1.895.499,2.803.876,1.629.677,3.756-.352,4.73-1.613,1.164-1.506,1.154-3.323.352-4.998-1.407-2.938-3.047-5.759-4.601-8.62-.848-1.562-1.68-3.134-2.461-4.732-.376-.769-.741-1.544-1.088-2.326-.098-.221-.193-.444-.291-.665.018.041.291.722.105.244-.193-.497-.396-.99-.58-1.491-.563-1.53-1.039-3.098-1.34-4.701-.03-.157-.054-.316-.084-.473-.168-.894.02.253.03.261-.137-.104-.077-.87-.087-1.072-.017-.35-.023-.7-.014-1.05.006-.245.194-.956.081-1.168.051.096-.223,1.106-.028.344.035-.138.058-.279.092-.417.077-.322.169-.639.276-.952.003-.01.208-.464.19-.515.003.008-.397.857-.183.427.194-.391.368-.79.574-1.176.336-.632.708-1.245,1.103-1.841.207-.312.424-.615.64-.921.094-.133.194-.262.29-.394-.329.454-.329.416.012-.004,1.061-1.307,2.22-2.533,3.442-3.69.613-.58,1.243-1.141,1.887-1.686.325-.275.654-.544.986-.81.107-.086.724-.559.264-.211-.492.372.419-.307.42-.308,1.406-1.031,2.867-1.988,4.381-2.853.705-.403,1.422-.787,2.15-1.147.354-.175.711-.345,1.071-.508.198-.09.405-.2.609-.269-.281.096-.69.274-.168.08,1.424-.53,2.855-1.011,4.355-1.281.188-.034,1.3-.191.471-.082s.298-.032.458-.05c.678-.075,1.357-.133,2.037-.174,1.37-.083,2.744-.094,4.115-.025.687.035,1.373.089,2.057.165-.038-.004.585.087.595.071-.011.017-.944-.153-.449-.056.45.088.906.147,1.356.235,1.668.326,3.311.784,4.906,1.371.207.076.412.161.62.236.803.291-.501-.236.013-.003.417.189.834.374,1.246.574.851.414,1.684.865,2.496,1.35.909.542,1.794,1.127,2.651,1.748.156.114.309.232.467.345.408.292-.464-.396.176.142.413.347.832.687,1.238,1.043,1.88,1.647,3.591,3.469,5.186,5.391,1.509,1.819,4.824,1.678,6.364,0,1.775-1.933,1.61-4.424,0-6.364-5.431-6.544-12.544-11.802-20.839-14.018-6.243-1.668-13.6-1.903-19.835-.021-7.423,2.241-14.416,7.093-19.638,12.763-2.635,2.861-4.882,6.033-6.254,9.689-1.327,3.535-.996,7.543-.091,11.134,2.091,8.296,7.199,15.383,10.848,23.004l5.082-6.61c-7.627-3.171-16.672-.503-22.629,4.815-6.208,5.542-8.964,14.205-9.133,22.326-.346,16.646,9.356,31.983,21.833,42.282,7.237,5.974,15.32,10.699,23.77,14.734,2.121,1.012,4.957.656,6.157-1.614,1.06-2.007.653-5.074-1.614-6.157h0Z"/><path d="m35.414,20.943c-5.097-3.313-11.225-4.722-17.227-3.635-4.528.82-8.772,3.645-11.675,7.159C-.104,32.475-1.719,43.74,1.851,53.465c2.128,5.797,5.775,10.717,10.926,14.17,1.96,1.314,5.069.444,6.157-1.614,1.198-2.268.477-4.755-1.614-6.157-.224-.15-.445-.303-.666-.457-.037-.025-.568-.431-.194-.138.412.324-.251-.217-.338-.293-.156-.134-.311-.27-.463-.408-.826-.751-1.584-1.567-2.296-2.426.49.591-.325-.447-.446-.623-.271-.392-.53-.792-.777-1.2-.548-.908-1.035-1.854-1.46-2.825.341.779-.13-.371-.217-.613-.16-.447-.309-.897-.445-1.352-.314-1.047-.566-2.113-.755-3.19-.047-.27-.091-.542-.13-.814.012.08.063.703.032.173-.028-.48-.092-.959-.118-1.44-.061-1.099-.056-2.203.017-3.301.018-.274.045-.547.068-.821.005-.059.079-.739.016-.219-.068.564.049-.29.071-.418.035-.202.071-.404.111-.606.205-1.033.476-2.052.817-3.048.083-.242.174-.48.26-.721.024-.067.258-.662.059-.17-.182.448.312-.663.401-.843.444-.891.947-1.755,1.506-2.579.138-.203.281-.403.424-.603.048-.067.432-.539.092-.127-.329.4.455-.519.58-.658.639-.708,1.335-1.343,2.055-1.966.181-.156.675-.421-.082.063.145-.093.283-.201.426-.299.332-.226.671-.441,1.018-.642.394-.228.798-.43,1.206-.631.102-.05.626-.239.082-.042-.634.23.278-.087.406-.13.507-.169,1.024-.309,1.546-.421.298-.064.61-.129.914-.167-.634.077.176.015.417.004.617-.029,1.235-.023,1.852.015.1.006,1.052.089.556.033-.407-.046.754.136.75.135,1.151.231,2.271.575,3.367.996-.644-.247.044.022.149.074.334.166.67.327.999.503.598.321,1.175.674,1.743,1.043,1.978,1.285,5.058.465,6.157-1.614,1.185-2.242.496-4.785-1.614-6.157h0Z"/><path d="m102.002,9c6.439.008,12.894.595,19.278,1.388.48.06.96.122,1.44.184.247.032.875.075-.229-.031.215.021.433.059.648.089,1.034.145,2.066.297,3.098.459,2.025.317,4.045.667,6.058,1.056,3.794.734,7.568,1.602,11.273,2.705,1.698.505,3.382,1.061,5.037,1.692.348.133.695.268,1.04.408,1.209.488-.632-.296.301.127.746.338,1.489.679,2.217,1.055.608.315,1.208.647,1.793,1.003.437.266,1.281,1.118,1.77,1.186-.411-.058-.814-.657-.407-.314.196.165.396.325.592.489.43.361.856.728,1.276,1.102.848.753,1.675,1.53,2.481,2.328,1.641,1.626,3.194,3.339,4.659,5.124.165.201.329.403.491.606-.02-.026.774.979.374.467s.384.508.363.481c.158.21.314.421.469.633.704.96,1.384,1.938,2.04,2.93,1.335,2.018,2.573,4.099,3.715,6.232.579,1.082,1.134,2.178,1.664,3.286.237.496.469.994.696,1.494.142.314.283.628.421.944.084.189.166.379.248.57-.156-.375-.173-.415-.05-.119,1.998,4.876,3.553,9.894,4.691,15.04,1.307,5.914,2.005,11.067,2.637,16.661.66,5.839,1.242,11.696,1.463,17.57.111,2.937.127,5.879.01,8.816-.055,1.383-.141,2.765-.261,4.145-.063.73-.136,1.459-.219,2.187-.037.324-.078.646-.117.97.116-.967-.061.402-.073.478-.38,2.5-.897,4.98-1.57,7.418-.332,1.202-.701,2.394-1.113,3.572-.181.518-.369,1.032-.567,1.544-.098.254-.201.507-.3.76-.388.991.222-.458-.18.421-.99,2.162-2.09,4.261-3.424,6.233-.324.478-.664.942-1.006,1.407-.441.599.678-.777-.12.137-.166.19-.323.388-.487.579-.767.889-1.589,1.731-2.459,2.519-.449.406-.913.79-1.382,1.172-.589.481.845-.563-.195.134-.217.146-.427.303-.644.45-.962.652-1.963,1.246-2.994,1.781-.567.295-1.145.561-1.725.83-.17.079-.798.304.022-.006-.238.09-.472.188-.709.278-1.126.428-2.275.799-3.436,1.121-2.208.612-4.455,1.026-6.719,1.362-.757.112,1.1-.12-.127.013-.253.027-.505.06-.757.088-.504.056-1.009.108-1.515.155-1.194.112-2.39.201-3.587.277-6.685.422-13.398.481-20.094.572-7.366.099-14.735.16-22.101.065-1.233-.016-2.467-.038-3.699-.075-2.355-.071-4.607,2.121-4.5,4.5.112,2.499,1.977,4.424,4.5,4.5,6.924.21,13.861.131,20.786.067,7.33-.068,14.667-.149,21.99-.463,9.304-.4,18.98-1.376,27.228-6.063,9.517-5.407,15.15-15.24,17.992-25.535,3.179-11.517,3.003-23.67,1.956-35.472-1.062-11.975-2.347-24.213-6.002-35.717-3.244-10.212-8.266-19.75-15.017-28.073-2.846-3.508-6.033-6.807-9.586-9.606-2.908-2.29-6.141-3.849-9.569-5.214-7.335-2.92-15.214-4.509-22.988-5.733-7.563-1.19-15.207-2.047-22.86-2.35C104.623.034,103.313.002,102.002,0c-2.354-.003-4.609,2.072-4.5,4.5.109,2.441,1.977,4.497,4.5,4.5h0Z"/><path d="m135.705,153.262c14.836-7.084,29.201-16.593,37.983-30.859,8.456-13.737,11.574-33.385.348-46.572-5.715-6.714-16.121-10.206-24.489-6.727l5.082,6.61c3.28-6.85,7.555-13.178,10.06-20.398,1.294-3.728,1.92-7.643,1.279-11.561-.601-3.668-2.812-6.943-5.069-9.797-4.884-6.175-11.747-11.059-19.026-13.988-6.158-2.478-13.319-2.573-19.779-1.375-9.28,1.721-17.327,7.403-23.273,14.568-1.501,1.809-1.904,4.616,0,6.364,1.659,1.523,4.759,1.934,6.364,0,1.419-1.709,2.928-3.34,4.569-4.839.701-.64,1.428-1.246,2.166-1.843-.634.513.278-.199.488-.35.41-.294.825-.579,1.247-.856,1.442-.945,2.954-1.784,4.524-2.498.207-.094.415-.184.622-.275-.028.012-.776.29-.298.133.366-.12.722-.28,1.085-.41.81-.289,1.633-.545,2.464-.767.705-.188,1.416-.352,2.132-.492.351-.069.703-.126,1.056-.188,1.08-.188-.808.069.298-.045,1.404-.146,2.807-.234,4.219-.226,1.383.007,2.765.092,4.139.244.264.029.53.079.795.095-1.443-.089-.219-.027.135.037.72.13,1.43.306,2.131.512s1.385.461,2.073.71c.136.049.331.099.452.179-.733-.487-.445-.197-.165-.067.408.188.818.372,1.223.569,1.585.774,3.116,1.659,4.592,2.625.71.465,1.408.949,2.092,1.451.147.108.291.221.44.327.54.385-.557-.452-.042-.035.378.306.76.608,1.133.92,1.326,1.112,2.593,2.296,3.777,3.558.548.584,1.078,1.185,1.586,1.804.141.173.279.348.419.522-.018-.022-.477-.67-.204-.256.265.402.566.781.832,1.183.395.596.766,1.21,1.103,1.841.16.301.307.608.456.915.453.938-.226-.768.08.22.097.314.208.623.289.942.072.283.103,1.195.137.524.036-.719.02.323.031.56.019.397.018.796.003,1.193-.013.354-.084.717-.078,1.069.01.613.186-.867.039-.263-.037.153-.051.317-.079.471-.155.865-.365,1.721-.61,2.565-.258.887-.557,1.762-.883,2.625-.168.445-.347.885-.525,1.326.366-.905-.134.293-.267.588-.834,1.846-1.755,3.651-2.708,5.438-1.761,3.302-3.677,6.529-5.294,9.906-.801,1.673-.826,3.474.352,4.998.991,1.282,3.094,2.293,4.73,1.613.739-.307,1.49-.567,2.268-.756.356-.087.717-.143,1.075-.219.514-.109-.243.036-.291.038.243-.011.486-.044.729-.058.793-.046,1.59-.029,2.382.041.184.016.366.037.549.057-.056-.006-.79-.15-.284-.025.479.119.969.19,1.448.314.725.188,1.416.448,2.123.687.484.164-.159-.069-.214-.095.225.108.453.207.676.317.391.193.775.399,1.153.617.323.187.641.383.953.588.252.166,1.14.82.45.277.631.497,1.229,1.038,1.79,1.613.319.328.628.667.924,1.015.184.216.693.946.273.327.516.762,1.035,1.509,1.485,2.313.385.688.724,1.395,1.052,2.111-.35-.762.112.314.205.573.157.434.304.871.439,1.313.252.822.466,1.655.644,2.496.083.389.158.779.226,1.171.052.303.17,1.456.095.576.152,1.798.265,3.57.193,5.376-.032.813-.091,1.624-.174,2.433-.021.202-.045.403-.067.605.019-.18.136-.876-.002.01-.073.468-.149.934-.236,1.399-.322,1.729-.755,3.437-1.287,5.114-.267.841-.558,1.674-.873,2.497-.146.381-.298.759-.452,1.137.03-.073.272-.606.054-.135-.143.309-.276.623-.419.932-.746,1.613-1.579,3.186-2.488,4.713s-1.901,3.021-2.958,4.459c-.138.188-.735.978-.291.403-.294.38-.596.754-.901,1.126-.566.689-1.147,1.366-1.743,2.028-2.498,2.777-5.25,5.323-8.162,7.661-.171.137-1.163.91-.594.475-.45.344-.904.684-1.361,1.019-.858.629-1.729,1.242-2.609,1.841-1.706,1.16-3.45,2.264-5.224,3.319-3.677,2.188-7.477,4.16-11.338,6.003-2.13,1.017-2.855,4.232-1.614,6.157,1.411,2.188,3.879,2.702,6.157,1.614h0Z"/><path d="m173.133,28.714c2.16-1.404,3.08-1.848,5.404-2.425.5-.124,1.005-.216,1.511-.311.74-.139-.566-.006.186-.015.23-.003.464-.038.694-.049.62-.03,1.233-.011,1.852.01.007,0,.768.053.324.01-.459-.044.67.119.776.142.468.1.931.224,1.387.37.42.135,1.137.462.339.083.826.392,1.626.808,2.389,1.316.191.127.375.274.568.396-.035-.022-.605-.501-.218-.173.314.266.632.526.935.805.707.652,1.344,1.362,1.964,2.097-.57-.675.102.146.284.41.246.356.482.719.706,1.089.521.858.982,1.752,1.386,2.671-.357-.812.076.241.175.523.149.423.286.851.41,1.283.298,1.036.526,2.094.68,3.161-.127-.88.021.37.042.645.036.48.059.961.069,1.442.022,1.106-.057,2.198-.133,3.3-.012.169-.113.886.01.032-.029.204-.062.407-.096.611-.079.473-.17.945-.274,1.413-.235,1.063-.532,2.113-.892,3.141-.089.255-.186.507-.279.761-.134.363-.189.454-.006.043-.245.548-.501,1.088-.781,1.619-.538,1.021-1.152,1.995-1.827,2.931-.017.023-.45.569-.165.22.314-.384-.392.449-.456.522-.368.418-.751.824-1.149,1.214-.443.435-.925.82-1.379,1.24-.371.343.038-.02.109-.073-.326.241-.658.47-.994.696-1.952,1.309-2.987,4.027-1.614,6.157,1.254,1.945,4.066,3.016,6.157,1.614,8.832-5.921,13.619-16.745,12.666-27.294-.881-9.748-6.596-19.611-16.393-22.625-6.333-1.948-13.457-.319-18.91,3.226-1.971,1.281-2.975,4.047-1.614,6.157,1.269,1.969,4.046,2.987,6.157,1.614h0Z"/><path d="m99.901,78.97c-7.118.217-15.216,2.102-18.706,9.068-1.987,3.965-1.997,8.84,1.069,12.274,2.39,2.677,6.287,4.119,9.694,4.924,3.483.823,7.12,1.064,10.689.901s7.269-.543,10.746-1.368c3.636-.863,6.958-2.731,9.084-5.866,2.295-3.385,2.256-7.842.134-11.3-2.362-3.848-6.59-5.887-10.798-7.065-4.077-1.142-8.431-1.494-12.631-.968-2.327.291-4.618,1.861-4.5,4.5.098,2.187,1.998,4.813,4.5,4.5,1.376-.172,2.757-.265,4.144-.245.615.009,1.231.037,1.844.086-.114-.009,1.39.136.779.066-.335-.039.818.133.998.167,1.286.239,2.556.564,3.797.979.28.094.555.201.835.294,1.244.415-.392-.239.298.113.617.314,1.228.727,1.852,1.015.598.276-.587-.617.262.186.199.188.392.376.587.568.584.578.158.188.045.015.146.222.272.454.417.675.577.881.013-.369.085.192.032.255.148,1.091.1.144.013.265.003.519,0,.784.006-.746.007-.268-.136.221.056-.193.431-.762.007-.086-.13.206-.259.411-.389.617.447-.706.179-.213.002-.058-.229.201-.453.425-.675.635-.456.429.838-.403-.136.06-.232.11-.481.271-.7.394-.119.067-.783.326-.114.073-.406.154-.82.289-1.237.408-1.265.361-2.561.559-3.858.764-.14.022-.882.126-.099.019-.289.039-.579.074-.868.109-.726.087-1.454.164-2.182.227-2.684.232-5.391.288-8.074.008-.119-.012-1.011-.134-.474-.052.648.098-.742-.135-.678-.123-.563-.105-1.123-.226-1.679-.367-.624-.159-1.242-.342-1.851-.55-.339-.116-.676-.238-1.01-.37.591.234-.066-.034-.311-.152-.542-.26-1.063-.547-1.571-.867-.741-.467-.14-.134-.022-.011-.177-.184-.384-.352-.541-.557.676.88-.049-.518.126.055.185.607-.053-1.033.024.097-.019-.284-.006-.565.001-.849-.019.714.026-.061.113-.369.067-.238.152-.467.234-.701-.332.951.086-.073.191-.25.126-.213.275-.41.402-.621-.479.795.082-.073.241-.241.171-.181.35-.358.534-.527.143-.132,1.053-.748.258-.246.533-.337,1.055-.67,1.609-.973.66-.361.242-.135.07-.061.402-.172.825-.308,1.243-.437.701-.216,1.416-.385,2.136-.521-.079.015,1.345-.205.712-.124-.418.054.785-.072.944-.085.81-.066,1.621-.101,2.434-.125,2.351-.072,4.611-2.018,4.5-4.5-.106-2.377-1.98-4.577-4.5-4.5h0Z"/><path d="m89.198,127.019c3.172,3.297,8.256,4.738,12.727,4.736,4.206-.002,8.584-1.279,11.971-3.808.974-.727,1.733-1.471,2.068-2.689.297-1.077.163-2.512-.454-3.468-1.199-1.86-4.139-3.12-6.157-1.614-.626.468-1.278.895-1.966,1.267-.327.176-.752.299-1.049.516.176-.129.836-.323.264-.119-.184.066-.366.136-.55.198-.739.251-1.497.449-2.264.593-.187.035-.397.043-.578.098.207-.063.947-.099.324-.052-.439.033-.875.067-1.316.076-.391.007-.781,0-1.171-.02-.195-.01-.39-.024-.584-.041-.148-.013-.841-.099-.129-.002s.022-.005-.124-.031c-.192-.035-.383-.073-.573-.115-.381-.083-.758-.181-1.132-.293s-.736-.257-1.107-.378c-.558-.181.789.381.265.114-.178-.091-.363-.17-.542-.26-.383-.194-.737-.453-1.118-.642-.504-.25.54.518.139.126-.192-.188-.392-.361-.579-.555-1.635-1.7-4.742-1.767-6.364,0-1.675,1.825-1.745,4.551,0,6.364h0Z"/><path d="m72.598,51.342c.958.602-.592-.586-.054-.084.205.191.411.374.6.581.329.36.327.694-.179-.263.128.243.314.464.45.705.211.373.436,1.24.004-.126.064.202.153.397.219.599.179.547.298,1.107.383,1.676l-.161-1.196c.12.941.121,1.876.006,2.817l.161-1.196c-.096.666-.243,1.318-.458,1.956-.039.116-.356.906-.041.167s-.031.04-.086.148c-.17.335-.361.659-.571.97-.087.129-.456.623-.02.045.469-.623-.049.015-.139.108-.117.119-.241.23-.361.345-.549.527.676-.426.216-.167-.146.082-.282.181-.428.263-.72.405.176.07.281-.077-.159.221-.952.28-1.203.325l1.196-.161c-.502.065-.985.071-1.488.01l1.196.161c-.443-.077-.851-.208-1.279-.341-.756-.235.709.334.216.094-.184-.09-.373-.172-.557-.262-.698-.342-1.334-.75-1.989-1.163-.422-.266.871.762.248.186-.117-.108-.238-.21-.353-.321-.143-.138-.269-.29-.409-.429-.368-.367.569.898.197.256-.1-.172-.212-.335-.306-.511-.237-.444-.005-.552.109.292-.053-.389-.218-.777-.279-1.172l.161,1.196c-.074-.651-.061-1.287.023-1.937l-.161,1.196c.079-.493.188-.976.341-1.452.078-.241.179-.472.259-.711-.407,1.213-.189.465-.029.154.232-.449.494-.882.781-1.298.244-.353.709-.658-.108.121.175-.167.322-.375.495-.546l.177-.169c.354-.303.241-.218-.338.256l.206-.126c.447-.226.279-.162-.503.192.304-.103.6-.238.902-.348.749-.272,1.511-.477,2.3-.596l-1.196.161c.816-.103,1.621-.103,2.438-.008l-1.196-.161c.475.07.938.167,1.402.29,2.272.605,4.993-.76,5.536-3.143.538-2.362-.709-4.887-3.143-5.536-2.455-.654-5.008-.693-7.465-.029-2.068.56-4.164,1.444-5.652,3.026-3.675,3.908-5.322,9.687-2.939,14.667,1.024,2.141,3.059,3.834,5.089,4.978,2.203,1.241,4.74,2.305,7.315,2.017,3.284-.367,5.893-2.02,7.861-4.636,1.249-1.66,2.102-3.731,2.417-5.786.813-5.31-.82-10.808-5.551-13.784-1.996-1.255-5.047-.486-6.157,1.614-1.171,2.216-.516,4.817,1.614,6.157h0Z"/><path d="m135.207,51.342c.958.602-.592-.586-.054-.084.205.191.411.374.6.581.329.36.327.694-.179-.263.128.243.314.464.45.705.211.373.436,1.24.004-.126.064.202.153.397.219.599.179.547.298,1.107.383,1.676l-.161-1.196c.12.941.121,1.876.006,2.817l.161-1.196c-.096.666-.243,1.318-.458,1.956-.039.116-.356.906-.041.167s-.031.04-.086.148c-.17.335-.361.659-.571.97-.087.129-.456.623-.02.045.469-.623-.049.015-.139.108-.117.119-.241.23-.361.345-.549.527.676-.426.216-.167-.146.082-.282.181-.428.263-.72.405.176.07.281-.077-.159.221-.952.28-1.203.325l1.196-.161c-.502.065-.985.071-1.488.01l1.196.161c-.443-.077-.851-.208-1.279-.341-.756-.235.709.334.216.094-.184-.09-.373-.172-.557-.262-.698-.342-1.334-.75-1.989-1.163-.422-.266.871.762.248.186-.117-.108-.238-.21-.353-.321-.143-.138-.269-.29-.409-.429-.368-.367.569.898.197.256-.1-.172-.212-.335-.306-.511-.237-.444-.005-.552.109.292-.053-.389-.218-.777-.279-1.172l.161,1.196c-.074-.651-.061-1.287.023-1.937l-.161,1.196c.079-.493.188-.976.341-1.452.078-.241.179-.472.259-.711-.407,1.213-.189.465-.029.154.232-.449.494-.882.781-1.298.244-.353.709-.658-.108.121.175-.167.322-.375.495-.546l.177-.169c.354-.303.241-.218-.338.256l.206-.126c.447-.226.279-.162-.503.192.304-.103.6-.238.902-.348.749-.272,1.511-.477,2.3-.596l-1.196.161c.816-.103,1.621-.103,2.438-.008l-1.196-.161c.475.07.938.167,1.402.29,2.272.605,4.993-.76,5.536-3.143.538-2.362-.709-4.887-3.143-5.536-2.455-.654-5.008-.693-7.465-.029-2.068.56-4.164,1.444-5.652,3.026-3.675,3.908-5.322,9.687-2.939,14.667,1.024,2.141,3.059,3.834,5.089,4.978,2.203,1.241,4.74,2.305,7.315,2.017,3.284-.367,5.893-2.02,7.861-4.636,1.249-1.66,2.102-3.731,2.417-5.786.813-5.31-.82-10.808-5.551-13.784-1.996-1.255-5.047-.486-6.157,1.614-1.171,2.216-.516,4.817,1.614,6.157h0Z"/></g></g></svg>