<?xml version="1.0" encoding="UTF-8"?><svg id="_레이어_1" xmlns="http://www.w3.org/2000/svg" viewBox="0 0 200 200"><path d="m100,26.41c-6.338.009-12.694.599-18.975,1.402-7.963,1.017-15.951,2.334-23.636,4.706-3.397,1.049-6.788,2.311-9.925,3.995-3.309,1.775-6.162,4.32-8.797,6.967-7.057,7.09-12.368,15.674-16.202,24.874-4.268,10.243-6.048,21.159-7.306,32.124-1.338,11.658-2.276,23.375-.564,35.045,1.437,9.791,5.142,20.097,12.437,27.074,7.395,7.073,17.304,9.4,27.206,10.198,6.668.537,13.382.582,20.067.679,7.359.107,14.722.172,22.081.079,1.205-.015,2.409-.036,3.614-.073,2.351-.071,4.611-2.019,4.5-4.5-.106-2.377-1.979-4.576-4.5-4.5-13.239.401-26.574.175-39.806-.341-1.358-.053-2.715-.12-4.072-.208-1.007-.065-2.013-.141-3.017-.234-.505-.047-1.009-.097-1.513-.153-.315-.035-.63-.078-.945-.111-.563-.059.759.116-.125-.016-2.134-.319-4.254-.723-6.333-1.309-1.037-.292-2.061-.626-3.068-1.008-.237-.09-.472-.187-.708-.278-.697-.267.946.463-.151-.072-.516-.252-1.037-.49-1.546-.757-.971-.51-1.913-1.075-2.818-1.695-.216-.148-.427-.302-.641-.453-.133-.094-.657-.527-.034-.017-.52-.426-1.034-.857-1.527-1.315-.763-.707-1.484-1.46-2.162-2.25-.149-.174-1.047-1.326-.492-.578-.384-.518-.759-1.042-1.115-1.58-1.253-1.888-2.274-3.894-3.208-5.955.331.731.037.09-.021-.055-.101-.255-.203-.509-.301-.764-.222-.579-.433-1.163-.634-1.75-.383-1.122-.728-2.256-1.036-3.401-.645-2.393-1.099-4.816-1.482-7.262-.116-.738.074.721-.012-.098-.034-.323-.077-.645-.113-.968-.08-.726-.15-1.454-.209-2.182-.12-1.457-.199-2.918-.244-4.38-.173-5.545.143-11.093.644-16.614.248-2.737.537-5.471.85-8.201.154-1.345.318-2.69.492-4.033.102-.792-.079.567.029-.224.054-.394.109-.788.166-1.181.102-.708.208-1.415.319-2.121.824-5.251,1.917-10.469,3.535-15.537.339-1.062.7-2.116,1.082-3.163.19-.52.386-1.039.587-1.555.1-.257.202-.514.305-.771.082-.204.484-1.179.177-.453.9-2.133,1.906-4.225,2.999-6.266,1.103-2.062,2.3-4.073,3.593-6.022.618-.931,1.257-1.848,1.918-2.749.154-.211.312-.419.467-.629.097-.132.518-.679.008-.02.357-.461.722-.915,1.091-1.365,1.416-1.725,2.919-3.379,4.507-4.947.713-.704,1.444-1.39,2.193-2.057.371-.33.746-.657,1.125-.977.187-.158.388-.311.57-.476.591-.535-.873.613-.245.184,1.094-.749,2.189-1.455,3.369-2.064.649-.335,1.31-.648,1.978-.945.163-.072.328-.141.491-.214.532-.238-.875.338-.322.138.436-.158.864-.346,1.298-.51,6.784-2.564,13.996-4.018,21.143-5.136.922-.144,1.846-.281,2.77-.411.216-.03.432-.059.648-.09.638-.092-.867.108-.229.031.533-.065,1.066-.138,1.599-.204,1.752-.216,3.507-.409,5.264-.578,3.099-.298,6.207-.527,9.318-.647,1.198-.046,2.397-.075,3.596-.076,2.354-.003,4.609-2.067,4.5-4.5s-1.977-4.503-4.5-4.5h0Z"/><path d="m72.392,164.743c-6.41-3.061-12.659-6.511-18.386-10.731-.342-.252-.681-.506-1.019-.763.72.547-.385-.305-.427-.339-.663-.528-1.316-1.067-1.96-1.618-1.394-1.193-2.743-2.44-4.034-3.744-1.176-1.188-2.304-2.422-3.374-3.707-.266-.319-.525-.644-.786-.967-.857-1.058.489.696-.311-.406-.57-.785-1.139-1.568-1.677-2.376-.919-1.381-1.773-2.805-2.552-4.269-.388-.729-.759-1.469-1.109-2.217-.175-.374-.343-.75-.51-1.127.379.86-.268-.676-.326-.829-.587-1.532-1.089-3.097-1.495-4.686-.203-.793-.381-1.592-.535-2.395-.077-.402-.139-.806-.211-1.209-.078-.533-.082-.539-.012-.019-.034-.271-.065-.542-.093-.813-.167-1.617-.231-3.247-.173-4.872.029-.802.101-1.598.175-2.396.121-1.31-.191.899.058-.393.101-.525.187-1.051.302-1.574.172-.78.377-1.554.616-2.317.119-.38.247-.758.383-1.132.041-.112.541-1.327.137-.401.685-1.569,1.539-3.081,2.576-4.446-.594.782.228-.242.299-.323.336-.382.687-.752,1.054-1.106.264-.254.546-.486.813-.735.392-.319.375-.313-.052.018.196-.147.395-.29.596-.429.707-.487,1.448-.925,2.215-1.31.151-.076,1.276-.563.265-.154.454-.184.914-.35,1.382-.497.817-.257,1.645-.435,2.486-.59-1.138.209.031.009.246-.006.481-.034.963-.047,1.445-.037.361.008.719.041,1.079.062.519.057.478.05-.125-.02.237.04.473.086.707.139.829.185,1.628.454,2.411.779,1.63.677,3.756-.352,4.73-1.613,1.163-1.506,1.154-3.323.352-4.998-1.338-2.793-2.898-5.475-4.375-8.195-.82-1.511-1.625-3.032-2.379-4.578-.349-.715-.687-1.436-1.01-2.164-.074-.166-.146-.333-.219-.5.063.142.345.855.035.076-.154-.386-.307-.772-.452-1.161-.551-1.481-1.02-2.998-1.316-4.551-.03-.158-.055-.316-.085-.474-.172-.897.022.253.029.259-.102-.075-.07-.784-.078-.921-.019-.35-.025-.701-.017-1.052.005-.252.129-1.441.022-.715-.113.77.091-.376.129-.529.069-.275.15-.547.242-.816.031-.091.208-.464.191-.515.005.014-.399.852-.18.427.178-.345.33-.702.512-1.045.311-.586.653-1.155,1.018-1.709.205-.312.422-.615.637-.92.094-.133.196-.26.29-.394-.184.261-.437.544-.093.126,1.033-1.255,2.132-2.445,3.313-3.564.612-.58,1.242-1.141,1.888-1.684.279-.235.563-.463.845-.694.147-.12.676-.515-.047.029.195-.146.388-.294.584-.438,1.355-.999,2.765-1.926,4.225-2.762.655-.375,1.32-.732,1.996-1.068.354-.176.711-.347,1.071-.51.151-.069.306-.132.457-.203.57-.27-1.016.383-.016.015,1.286-.474,2.574-.909,3.923-1.166.309-.059.643-.076.948-.154.046-.012-1.042.125-.538.074.178-.018.355-.043.533-.063.634-.071,1.27-.126,1.908-.166,1.328-.083,2.66-.096,3.989-.028.641.032,1.28.082,1.918.152.075.008.598.067.597.071-.002.026-.948-.156-.445-.055.401.081.809.132,1.21.21,1.624.315,3.223.76,4.774,1.336.268.099,1.508.647.485.175.365.168.733.328,1.095.503.856.413,1.692.865,2.507,1.354.804.482,1.588.998,2.349,1.545.21.151.416.307.625.46-.357-.261-.278-.223.025.025.419.344.836.689,1.244,1.047,1.776,1.56,3.393,3.283,4.903,5.1s4.824,1.678,6.364,0c1.775-1.933,1.611-4.424,0-6.364-5.205-6.269-12.035-11.304-19.99-13.405-5.993-1.583-13.064-1.799-19.034.046-7.035,2.174-13.654,6.755-18.617,12.141-2.527,2.742-4.689,5.787-6,9.294-1.271,3.403-.966,7.239-.099,10.698,1.983,7.914,6.858,14.677,10.339,21.944l5.082-6.61c-7.227-3.001-15.664-.526-21.413,4.361-6.11,5.194-8.824,13.587-9.054,21.386-.469,15.964,8.857,30.749,20.812,40.618,6.895,5.692,14.59,10.196,22.641,14.041,2.12,1.013,4.957.656,6.157-1.614,1.06-2.007.653-5.074-1.614-6.157h0Z"/><path d="m36.814,46.349c-4.854-3.151-10.74-4.54-16.46-3.494-4.385.802-8.491,3.481-11.303,6.9-6.315,7.678-7.888,18.429-4.472,27.749,2.043,5.576,5.54,10.291,10.491,13.614,1.959,1.315,5.07.443,6.157-1.614,1.199-2.269.477-4.753-1.614-6.157-.223-.15-.443-.301-.663-.455-.039-.027-.561-.437-.19-.138.374.302-.146-.131-.178-.16-.205-.182-.413-.358-.614-.544-.715-.66-1.374-1.371-2-2.116-.565-.673-.186-.244-.076-.091-.125-.173-.249-.346-.37-.521-.269-.389-.526-.785-.77-1.19-.235-.391-.457-.789-.669-1.194-.091-.174-.181-.35-.267-.526.008.017-.502-1.055-.267-.543.21.459-.058-.14-.079-.197-.096-.249-.191-.497-.281-.748-.158-.442-.303-.888-.436-1.337-.269-.906-.489-1.826-.659-2.756-.053-.287-.178-1.474-.108-.616-.038-.474-.094-.947-.121-1.422-.06-1.018-.062-2.04,0-3.057.013-.217.12-1.472.073-1.022-.054.524.02-.14.032-.207.034-.2.068-.4.105-.599.182-.973.425-1.933.733-2.874.14-.427.306-.844.46-1.265.177-.485-.054.137-.082.194.112-.227.212-.461.324-.688.387-.787.821-1.551,1.302-2.284.081-.124.802-1.154.505-.75s.446-.53.574-.675c.6-.677,1.277-1.244,1.921-1.872.357-.347-.18.123-.224.155.187-.139.374-.277.566-.409.332-.229.673-.445,1.021-.648.296-.172.597-.335.904-.486.138-.068.812-.364.236-.123-.563.235.141-.042.25-.08.489-.171.986-.313,1.491-.427.094-.021,1.046-.205.561-.128-.36.057.486-.04.57-.045.626-.04,1.252-.041,1.878-.007.096.005,1.06.079.573.029-.36-.037.464.079.549.095,1.153.219,2.291.545,3.382.98.484.193.035.022-.05-.018.339.159.674.323,1.005.498.601.319,1.181.671,1.751,1.042,1.978,1.284,5.058.465,6.157-1.614,1.184-2.241.497-4.786-1.614-6.157h0Z"/><path d="m100,35.41c6.124.008,12.264.566,18.337,1.321.427.053.853.109,1.279.163.82.105-.109-.02-.23-.032.215.021.433.059.647.089.979.137,1.956.281,2.933.434,1.915.299,3.824.63,5.727.998,3.634.703,7.248,1.533,10.796,2.591,1.602.478,3.19,1.003,4.753,1.598.348.132.692.273,1.039.408.709.276-.246-.102-.319-.14.156.081.331.142.493.213.71.312,1.411.643,2.1.999,1.178.609,2.283,1.306,3.369,2.064.662.462-.733-.633-.326-.249.159.15.34.281.508.422.38.319.756.644,1.128.973.844.747,1.666,1.519,2.467,2.314,1.585,1.573,3.084,3.233,4.496,4.963.328.401.651.806.969,1.216-.566-.729.351.48.475.649.7.954,1.376,1.927,2.027,2.915,2.524,3.826,4.703,7.898,6.482,12.122-.336-.799.334.845.406,1.031.202.516.399,1.033.59,1.553.433,1.176.839,2.363,1.218,3.558.796,2.515,1.465,5.069,2.035,7.645.581,2.625,1.06,5.271,1.473,7.927.441,2.834.624,4.315.969,7.323.638,5.567,1.203,11.152,1.434,16.753.118,2.848.147,5.701.043,8.55-.047,1.299-.122,2.597-.228,3.892-.053.647-.113,1.294-.183,1.94-.035.323-.073.645-.11.968-.18,1.571.141-.851-.072.55-.36,2.375-.826,4.731-1.452,7.052-.291,1.077-.612,2.147-.969,3.204-.198.588-.408,1.173-.628,1.754-.097.256-.197.512-.298.767-.122.306-.36.839-.097.246-.943,2.125-2.019,4.184-3.316,6.116-.288.429-.598.84-.892,1.264-.387.557.44-.514,0,0-.206.241-.401.492-.607.733-.722.841-1.494,1.639-2.312,2.387-.446.408-.907.797-1.377,1.177.697-.563-.508.355-.676.47-.957.657-1.958,1.25-2.988,1.784-.453.235-.915.45-1.376.668-.772.364-.134.066.026,0-.235.096-.47.191-.707.282-1.064.41-2.148.766-3.246,1.075-2.079.585-4.198.991-6.333,1.309-.867.129-.101.012.064-.008-.315.038-.63.077-.945.113-.504.057-1.008.109-1.513.157-1.13.107-2.262.192-3.394.264-6.317.401-12.662.459-18.989.545-7.068.096-14.139.156-21.207.064-1.165-.015-2.33-.036-3.494-.071-2.355-.071-4.607,2.121-4.5,4.5.112,2.499,1.977,4.424,4.5,4.5,6.556.198,13.126.125,19.684.065,7.029-.065,14.065-.14,21.088-.446,8.912-.388,18.194-1.344,26.066-5.892,9.094-5.255,14.448-14.734,17.115-24.632,2.971-11.023,2.758-22.62,1.738-33.895s-2.246-22.838-5.712-33.689c-3.08-9.642-7.819-18.633-14.174-26.514-2.817-3.493-5.988-6.773-9.544-9.521-2.692-2.08-5.695-3.501-8.845-4.758-6.933-2.767-14.381-4.276-21.73-5.439-7.268-1.151-14.617-1.978-21.972-2.268-1.237-.049-2.475-.079-3.714-.081-2.354-.003-4.609,2.072-4.5,4.5.109,2.441,1.977,4.497,4.5,4.5h0Z"/><path d="m132.15,172.515c14.154-6.759,27.84-15.838,36.209-29.453,8.107-13.188,11.074-32.232.057-44.751-5.514-6.266-15.358-9.491-23.279-6.202l5.082,6.61c3.136-6.546,7.219-12.593,9.604-19.497,1.236-3.578,1.823-7.347,1.19-11.102-.593-3.52-2.725-6.657-4.895-9.396-4.643-5.861-11.147-10.459-18.042-13.273-5.905-2.41-12.769-2.502-18.976-1.365-8.879,1.626-16.593,7.066-22.281,13.916-1.502,1.808-1.904,4.616,0,6.364,1.66,1.524,4.758,1.934,6.364,0,1.332-1.604,2.746-3.135,4.283-4.544.654-.6,1.338-1.16,2.019-1.727.533-.444-.535.373.025-.017.159-.11.312-.231.469-.344.411-.295.828-.582,1.252-.859,1.402-.915,2.869-1.702,4.387-2.405.794-.368-.634.232.174-.074.363-.137.724-.278,1.089-.407.713-.251,1.435-.476,2.165-.673.708-.191,1.422-.356,2.142-.495.302-.059.606-.108.909-.162,1.108-.196-.777.064.304-.047,1.36-.139,2.719-.223,4.088-.211,1.295.011,2.588.093,3.875.236.183.02,1.117.142.33.034-.826-.113.287.049.474.083.671.122,1.335.286,1.989.479.703.207,1.386.461,2.073.714.805.296-.659-.308.136.052.41.186.818.373,1.222.571,1.478.725,2.907,1.553,4.285,2.454.659.431,1.307.88,1.943,1.345.263.192,1.072.837.399.29.377.307.759.608,1.131.921,1.276,1.074,2.495,2.219,3.631,3.44.505.543.994,1.102,1.463,1.677.106.13.209.261.314.391-.085-.106-.565-.777-.106-.125.216.306.436.608.645.92.398.595.77,1.208,1.106,1.84.137.259.263.522.393.784.473.959-.217-.748.084.22.094.302.244,1.597.459,1.785-.264-.231-.076-.958-.057-.333.004.147.02.293.027.44.018.399.017.798,0,1.197-.007.162.025.991-.084,1.073-.025.019.17-.943.054-.416-.034.155-.051.316-.08.473-.148.813-.347,1.617-.578,2.41-.243.833-.524,1.654-.83,2.466-.168.446-.348.887-.527,1.329.359-.884-.128.274-.272.591-.79,1.735-1.659,3.433-2.557,5.114-1.659,3.107-3.46,6.144-4.982,9.323-.801,1.673-.825,3.474.352,4.998.991,1.283,3.093,2.292,4.73,1.613.672-.279,1.354-.519,2.06-.696.351-.088.705-.148,1.058-.222-1.125.235-.002.007.234-.009.721-.05,1.445-.047,2.165.004.215.015,1.383.215.246.006.479.088.956.174,1.429.292.715.178,1.403.417,2.097.66,1.13.396-.781-.438.277.127.325.173.659.327.982.505.647.357,1.253.765,1.864,1.179.986.667-.625-.611.244.2.357.333.728.645,1.073.991.274.275.538.559.794.85.071.081.893,1.105.299.323.479.63.914,1.295,1.316,1.977s.75,1.393,1.097,2.107c.562,1.155-.262-.825.16.39.174.502.363.997.522,1.505.239.763.443,1.536.616,2.317.086.391.164.784.235,1.179.024.137.212,1.455.078.39.216,1.728.282,3.473.219,5.212-.029.82-.087,1.638-.171,2.454-.013.125-.201,1.467-.043.428-.062.404-.126.808-.198,1.211-.314,1.746-.749,3.47-1.288,5.159-.25.782-.522,1.557-.816,2.324-.147.384-.298.767-.457,1.146.376-.895-.168.354-.205.436-.746,1.63-1.585,3.217-2.505,4.755-.853,1.426-1.775,2.809-2.759,4.148-.042.057-.872,1.147-.301.413-.255.328-.516.651-.779.973-.614.749-1.247,1.481-1.899,2.197-2.373,2.606-4.979,4.996-7.733,7.192-.043.034-1.147.886-.427.339-.45.343-.904.681-1.361,1.014-.801.584-1.613,1.154-2.434,1.71-1.647,1.115-3.33,2.175-5.041,3.188-3.43,2.03-6.972,3.865-10.568,5.582-2.13,1.017-2.855,4.232-1.614,6.157,1.411,2.188,3.879,2.702,6.157,1.614h0Z"/><path d="m167.729,54.12c.886-.575,1.797-1.095,2.756-1.54-.601.279.594-.223.782-.287.487-.166.98-.314,1.479-.439.502-.127,1.008-.225,1.518-.315.743-.13-.548-.018.205-.012.232.002.471-.035.704-.045.548-.022,1.096-.015,1.643.02.233.015.47.027.702.059-.69-.096.308.086.428.114.45.102.895.224,1.332.372.159.054.316.121.476.172.604.189-.699-.359-.139-.059.71.38,1.418.732,2.088,1.184.334.225.965.817.351.237.3.284.63.538.93.823.658.623,1.263,1.294,1.83,2-.542-.677.096.166.273.432.207.31.406.626.597.947.224.378.437.762.638,1.153.146.284.678,1.485.341.654.691,1.701,1.184,3.498,1.43,5.318-.127-.943.014.393.03.624.032.475.052.95.057,1.425.013,1.027-.094,2.032-.144,3.055-.026.529.024-.108.035-.185-.038.268-.081.537-.129.804-.082.467-.177.931-.284,1.392-.212.917-.473,1.822-.783,2.711-.088.252-.18.502-.275.751-.032.083-.36.839-.151.383.229-.5-.127.251-.182.365-.114.237-.231.471-.353.704-.5.957-1.112,1.821-1.684,2.732-.379.603.389-.44-.067.1-.181.214-.356.432-.541.643-.365.418-.746.822-1.143,1.21-.392.383-.824.723-1.219,1.102-.361.347.042-.017.114-.072-.321.244-.655.47-.989.695-1.951,1.31-2.988,4.026-1.614,6.157,1.254,1.944,4.066,3.017,6.157,1.614,8.364-5.613,12.95-15.78,12.18-25.789-.727-9.459-6.178-18.97-15.599-22.013-6.103-1.971-13.054-.39-18.325,3.032-1.972,1.28-2.974,4.048-1.614,6.157,1.27,1.97,4.045,2.985,6.157,1.614h0Z"/><path d="m98.002,101.478c-6.851.21-14.728,2.053-18.014,8.819-1.875,3.86-1.891,8.518,1.092,11.848,2.254,2.516,5.898,3.903,9.103,4.687,6.564,1.606,13.911,1.136,20.462-.338,3.64-.819,7.067-2.695,9.12-5.894,2.156-3.359,2.03-7.706-.128-11.033-2.327-3.587-6.309-5.501-10.312-6.609-3.877-1.072-8.014-1.41-12.005-.912-2.327.291-4.618,1.861-4.5,4.5.098,2.188,1.998,4.812,4.5,4.5,1.28-.16,2.563-.247,3.853-.233.682.008,1.363.04,2.043.099.302.026.604.056.904.093-.645-.081.118.03.377.076,1.267.228,2.519.546,3.741.953.174.058,1.696.662.855.285.616.276,1.193.602,1.777.939.696.401.237.13.065-.006.207.163.411.346.6.531s.383.383.549.59c-.524-.652-.031.105.096.255.39.456-.102-.557.035.025.031.131.273.941.147.369-.124-.563-.025.253-.008.393-.017.358-.001.267.049-.273-.037.178-.086.353-.146.524-.111.58.389-.54.019-.078-.084.105-.457.792-.15.31.346-.541-.338.357-.368.387-.176.175-.362.34-.552.5.725-.613-.471.222-.7.344-.784.418-.325.143-.134.073-.414.152-.834.284-1.259.401-1.142.314-2.312.496-3.481.674-.903.138-.279.043-.087.017-.358.048-.717.091-1.076.132-.648.075-1.298.141-1.948.195-2.592.216-5.192.239-7.78-.037.191.02.824.138-.075-.012-.281-.047-.561-.094-.84-.147-.557-.107-1.111-.232-1.66-.377s-1.092-.309-1.628-.495c-.269-.093-.535-.192-.8-.295.793.307-.336-.158-.494-.236-.451-.223-.875-.48-1.307-.735-.899-.531.215.372-.109-.104-.081-.118-.509-.727-.245-.246.335.61-.153-.663.03-.031.184.637-.084-.727.015-.023.094.669.028-.608.028-.607-.015.596-.049.28.061-.142.062-.236.149-.464.218-.697.114-.308.082-.229-.094.238.081-.164.168-.324.262-.48.123-.211.27-.407.394-.617.251-.423-.483.482.101-.095.176-.174.34-.358.519-.529.255-.242.868-.686.235-.247.513-.357,1.039-.67,1.587-.969.657-.359.234-.128.063-.056.401-.167.824-.303,1.24-.429.702-.212,1.415-.355,2.132-.502.134-.027.881-.139.111-.034.364-.05.732-.081,1.098-.112.807-.068,1.615-.103,2.424-.128,2.351-.072,4.611-2.018,4.5-4.5-.106-2.376-1.98-4.577-4.5-4.5h0Z"/><path d="m87.671,147.533c3.055,3.176,7.948,4.569,12.255,4.567,4.033-.002,8.243-1.225,11.491-3.65.974-.727,1.733-1.471,2.068-2.689.297-1.077.163-2.512-.454-3.468-1.199-1.86-4.139-3.12-6.157-1.614-.595.444-1.215.851-1.869,1.204-.319.172-.696.293-.997.49.164-.108.877-.34.304-.135-.175.062-.348.129-.523.189-.702.239-1.423.427-2.152.564-.179.034-.374.045-.549.093.183-.05.994-.105.367-.058-.417.031-.832.064-1.251.072-.371.007-.742,0-1.113-.019-.185-.01-.37-.023-.555-.039-.155-.014-.824-.097-.093.002s.064.002-.089-.026c-.182-.033-.364-.069-.545-.109-.362-.079-.721-.172-1.076-.278s-.699-.245-1.052-.359c-.547-.178.818.393.305.131-.169-.086-.345-.161-.515-.247-.364-.184-.7-.431-1.063-.611-.491-.243.566.539.177.155-.182-.179-.373-.343-.551-.528-1.635-1.7-4.742-1.767-6.364,0-1.675,1.825-1.745,4.551,0,6.364h0Z"/><path d="m71.936,75.63c.165.104.683.492.045-.01-.615-.483-.192-.157-.066-.038.241.228.454.48.691.711.328.32-.559-.843-.343-.438.077.144.186.276.271.417.172.286.32.585.457.889l-.454-1.075c.319.757.53,1.536.651,2.348l-.161-1.196c.114.894.115,1.784.005,2.678l.161-1.196c-.126.874-.358,1.711-.688,2.53l.454-1.075c-.158.365-.327.724-.527,1.069-.12.207-.251.402-.383.601-.415.625.569-.633.191-.259-.141.139-.266.291-.41.428-.13.124-.702.587-.091.108s.02-.042-.137.051c-.206.121-.421.226-.638.326l1.075-.454c-.445.184-.89.316-1.364.4l1.196-.161c-.477.062-.936.067-1.414.01l1.196.161c-.589-.102-1.134-.284-1.685-.512l1.075.454c-1.017-.445-1.891-1.064-2.86-1.575,1.056.557.517.414.204.128-.151-.137-.579-.446-.628-.648l.425.557c-.089-.121-.172-.246-.251-.374-.162-.264-.294-.539-.415-.823l.454,1.075c-.163-.436-.276-.871-.346-1.331l.161,1.196c-.071-.619-.058-1.224.022-1.841l-.161,1.196c.127-.79.354-1.54.664-2.277l-.454,1.075c.348-.777.781-1.476,1.261-2.176.277-.403-.783.858-.194.271.138-.137.262-.287.403-.421.603-.572-.251.079-.282.198.031-.12.522-.279.611-.318l-1.075.454c1.037-.407,2.065-.78,3.172-.948l-1.196.161c.776-.098,1.54-.098,2.317-.007l-1.196-.161c.452.066.892.159,1.332.276,2.272.605,4.993-.76,5.536-3.143.538-2.362-.709-4.887-3.143-5.536-2.372-.632-4.84-.67-7.215-.027-2.003.542-4.03,1.402-5.471,2.934-1.644,1.748-2.947,4.006-3.559,6.329-.711,2.7-.473,5.369.73,7.883.989,2.067,2.958,3.708,4.918,4.812,2.126,1.198,4.581,2.224,7.066,1.948,3.207-.357,5.743-1.961,7.665-4.517,1.197-1.592,2.018-3.582,2.32-5.553.364-2.377.378-4.863-.49-7.148-.985-2.594-2.515-4.713-4.889-6.206-1.996-1.255-5.047-.486-6.157,1.614-1.171,2.216-.516,4.817,1.614,6.157h0Z"/><path d="m131.452,75.63c.165.104.683.492.045-.01-.615-.483-.192-.157-.066-.038.241.228.454.48.691.711.328.32-.559-.843-.343-.438.077.144.186.276.271.417.172.286.32.585.457.889l-.454-1.075c.319.757.53,1.536.651,2.348l-.161-1.196c.114.894.115,1.784.005,2.678l.161-1.196c-.126.874-.358,1.711-.688,2.53l.454-1.075c-.158.365-.327.724-.527,1.069-.12.207-.251.402-.383.601-.415.625.569-.633.191-.259-.141.139-.266.291-.41.428-.13.124-.702.587-.091.108s.02-.042-.137.051c-.206.121-.421.226-.638.326l1.075-.454c-.445.184-.89.316-1.364.4l1.196-.161c-.477.062-.936.067-1.414.01l1.196.161c-.589-.102-1.134-.284-1.685-.512l1.075.454c-1.017-.445-1.891-1.064-2.86-1.575,1.056.557.517.414.204.128-.151-.137-.579-.446-.628-.648l.425.557c-.089-.121-.172-.246-.251-.374-.162-.264-.294-.539-.415-.823l.454,1.075c-.163-.436-.276-.871-.346-1.331l.161,1.196c-.071-.619-.058-1.224.022-1.841l-.161,1.196c.127-.79.354-1.54.664-2.277l-.454,1.075c.348-.777.781-1.476,1.261-2.176.277-.403-.783.858-.194.271.138-.137.262-.287.403-.421.603-.572-.251.079-.282.198.031-.12.522-.279.611-.318l-1.075.454c1.037-.407,2.065-.78,3.172-.948l-1.196.161c.776-.098,1.54-.098,2.317-.007l-1.196-.161c.452.066.892.159,1.332.276,2.272.605,4.993-.76,5.536-3.143.538-2.362-.709-4.887-3.143-5.536-2.372-.632-4.84-.67-7.215-.027-2.003.542-4.03,1.402-5.471,2.934-1.644,1.748-2.947,4.006-3.559,6.329-.711,2.7-.473,5.369.73,7.883.989,2.067,2.958,3.708,4.918,4.812,2.126,1.198,4.581,2.224,7.066,1.948,3.207-.357,5.743-1.961,7.665-4.517,1.197-1.592,2.018-3.582,2.32-5.553.364-2.377.378-4.863-.49-7.148-.985-2.594-2.515-4.713-4.889-6.206-1.996-1.255-5.047-.486-6.157,1.614-1.171,2.216-.516,4.817,1.614,6.157h0Z"/></svg>