<?xml version="1.0" encoding="UTF-8"?><svg id="_레이어_2" xmlns="http://www.w3.org/2000/svg" viewBox="0 0 204.016 169.99"><g id="_레이어_1-2"><g><path d="m101.36,169.98c5.972-.434,11.95-1.497,17.515-3.763,5.155-2.099,9.608-4.979,13.502-9.006,4.834-4.998,7.68-11.213,10.085-17.658,2.368-6.348,4.069-12.936,5.555-19.54,3.084-13.704,4.984-27.706,5.698-41.734.657-12.916,1.569-28.418-7.806-38.692-5.511-6.04-13.689-7.002-21.347-7.965s-15.451-1.321-23.202-1.329c-2.354-.002-4.609,2.071-4.5,4.5s1.977,4.498,4.5,4.5c6.622.006,13.245.262,19.834.943,3.44.356,5.457.616,8.901,1.233,1.341.24,2.67.538,3.966.958.343.111.681.232,1.019.356.84.31.297.127.122.046.792.368,1.56.783,2.288,1.266-.026-.018,1.103.844.565.393-.512-.429.423.39.413.381.47.431.914.888,1.334,1.368.17.194.333.393.496.592-.555-.68-.016,0,.112.183.414.595.797,1.212,1.152,1.845.328.585.618,1.187.909,1.791.557,1.156-.16-.497.105.232.116.32.247.634.361.954.474,1.325.852,2.681,1.151,4.056.167.767.3,1.539.43,2.312.253,1.502-.069-.844.093.673.033.313.069.626.1.94.162,1.652.245,3.311.283,4.971.076,3.282-.003,6.57-.12,9.85-.232,6.474-.724,12.939-1.474,19.373-.094.803-.191,1.606-.293,2.408-.041.321-.082.642-.124.962-.205,1.575.125-.846-.099.726-.228,1.6-.461,3.198-.716,4.794-.522,3.266-1.111,6.52-1.768,9.761-1.278,6.304-2.759,12.59-4.66,18.738-.919,2.973-1.94,5.924-3.149,8.793.245-.581-.059.131-.093.206-.189.423-.375.847-.568,1.268-.318.693-.646,1.381-.988,2.062-.667,1.33-1.386,2.635-2.207,3.877-.835,1.263-1.46,1.954-2.885,3.411-.602.616-1.222,1.215-1.861,1.793-.287.26-.578.514-.874.764-.123.105-1.256.986-.686.566-1.646,1.212-3.428,2.226-5.278,3.091-.283.132-.568.257-.853.386-.841.381.836-.324-.12.047-.636.247-1.271.491-1.916.715-1.281.444-2.581.831-3.895,1.165-1.449.368-2.913.672-4.388.92-.426.071-.854.137-1.282.199.801-.117-.395.047-.569.067-.921.105-1.844.185-2.768.252-2.343.17-4.614,1.948-4.5,4.5.103,2.292,1.986,4.683,4.5,4.5h0Z"/><path d="m101.36,160.98c-.773-.056-1.546-.121-2.317-.203-.374-.04-.747-.087-1.12-.13-.841-.097,1.042.178-.331-.05-1.436-.239-2.865-.491-4.283-.823-1.174-.275-2.339-.59-3.491-.95s-2.533-.674-3.58-1.286c.1.059.921.408.185.077-.238-.107-.476-.212-.713-.321-.41-.19-.816-.386-1.219-.59-.897-.455-1.774-.949-2.624-1.487-.347-.22-.689-.447-1.026-.683-.185-.13-.367-.262-.55-.396.568.416-.205-.165-.334-.271-1.263-1.041-2.45-2.172-3.576-3.359-.526-.555-1.037-1.123-1.534-1.703-.573-.668-.224-.276-.106-.119-.264-.352-.513-.715-.756-1.082-.822-1.241-1.539-2.548-2.207-3.877-.342-.681-.67-1.37-.988-2.062-.161-.351-.319-.703-.475-1.056-.064-.145-.45-1.046-.186-.418-.602-1.431-1.153-2.885-1.674-4.347-2.172-6.093-3.774-12.386-5.181-18.695-1.404-6.3-2.533-12.654-3.439-19.044-.219-1.547.053.422-.067-.486-.053-.401-.105-.802-.156-1.203-.102-.802-.2-1.605-.293-2.408-.188-1.607-.359-3.217-.514-4.827-.318-3.305-.569-6.617-.751-9.932-.354-6.441-.673-13.002-.046-19.435.031-.314.066-.626.1-.94.164-1.516-.164.828.093-.673.119-.696.236-1.391.382-2.082.306-1.453.697-2.888,1.199-4.286.092-.256.192-.509.286-.765.453-1.238-.399.756.18-.421.296-.602.581-1.206.909-1.791.29-.519.601-1.026.931-1.52.182-.272.374-.535.563-.802-.554.782.189-.209.267-.298.506-.581,1.068-1.083,1.617-1.621.124-.122.664-.543-.029-.01.408-.313.841-.595,1.28-.861.311-.188.627-.367.951-.534.031-.016,1.28-.606.5-.269.788-.341,1.628-.596,2.453-.824,1.593-.44,3.225-.709,4.855-.971.96-.154,1.921-.298,2.884-.432-.207.029-.697.089.246-.033.481-.062.962-.122,1.443-.179,7.38-.88,14.811-1.204,22.24-1.211,2.354-.002,4.609-2.068,4.5-4.5s-1.977-4.502-4.5-4.5c-6.944.007-13.891.289-20.796,1.046-3.593.394-7.198.86-10.752,1.528-3.312.623-6.717,1.747-9.489,3.707-11.585,8.191-11.904,23.803-11.524,36.604.418,14.053,2.052,28.096,4.844,41.875,1.339,6.61,2.899,13.203,4.941,19.634,1.084,3.413,2.351,6.754,3.776,10.04,1.281,2.955,2.702,5.895,4.611,8.502,3.755,5.128,8.807,9.426,14.621,12.03,6.28,2.812,12.916,4.223,19.768,4.721,2.353.171,4.603-2.192,4.5-4.5-.116-2.584-1.979-4.317-4.5-4.5h0Z"/><path d="m82.451,32.521c-3.099-5.81-6.609-11.374-10.763-16.492-3.996-4.924-8.916-9.625-14.768-12.243C43.679-2.137,27.787-1.248,16.335,8.076c-5.095,4.148-8.844,9.869-11.4,15.869C1.943,30.968.221,38.542.017,46.185c-.38,14.206,5.661,29.008,18.416,36.279,6.361,3.626,13.412,4.391,20.55,3.15,6.418-1.116,13.322-4.201,17.399-9.456,1.439-1.855,1.944-4.579,0-6.364-1.611-1.479-4.823-1.986-6.364,0-.695.896-1.468,1.719-2.323,2.464-.23.2-.473.447-.733.608.999-.618.068-.071-.124.062-.539.375-1.096.725-1.665,1.052-.581.334-1.176.645-1.781.933-.307.146-.617.284-.928.421.134-.059.897-.347.126-.064-1.302.478-2.609.915-3.959,1.241-.675.163-1.356.305-2.04.424-.285.049-.57.09-.855.136-.71.115,1.125-.098-.002-.009-1.357.107-2.702.201-4.065.157-.659-.021-1.313-.079-1.97-.138-.868-.078.164.053.236.036-.228.054-.71-.117-.94-.162-1.303-.254-2.541-.657-3.781-1.123-1.141-.429.806.423-.279-.128-.273-.139-.553-.264-.827-.402-.601-.305-1.19-.633-1.766-.982s-1.139-.721-1.688-1.111c-.25-.178-.498-.358-.741-.544.863.658-.375-.331-.52-.457-1.026-.887-1.992-1.843-2.893-2.857-.411-.463-.806-.939-1.193-1.422.658.823-.105-.154-.193-.276-.29-.403-.571-.812-.843-1.227-.748-1.142-1.427-2.33-2.033-3.554-.275-.556-.535-1.119-.779-1.688.427.997-.045-.153-.102-.302-.195-.515-.376-1.035-.547-1.558-1.162-3.569-1.598-6.29-1.754-9.494-.082-1.669-.075-3.342.016-5.011.041-.76.099-1.52.173-2.278.044-.455.095-.91.151-1.364-.098.806.139-.911.165-1.067.514-3.125,1.275-6.216,2.288-9.217.229-.68.472-1.355.729-2.025.14-.366.29-.727.433-1.091-.311.794-.067.153.004-.006.641-1.424,1.319-2.827,2.088-4.187.699-1.237,1.462-2.438,2.289-3.593.073-.102.843-1.129.221-.324.236-.304.479-.603.726-.898.493-.59,1.006-1.164,1.538-1.718.977-1.018,2.021-1.97,3.124-2.849-.793.632.222-.152.325-.225.321-.228.646-.449.975-.664.661-.43,1.341-.833,2.035-1.207s1.404-.705,2.119-1.033c-.769.352-.152.062.013.001.368-.136.733-.28,1.104-.41,1.485-.519,3.01-.925,4.554-1.222.388-.075.777-.135,1.166-.203,1.285-.224-.93.065.37-.047.658-.056,1.313-.125,1.973-.159,1.587-.084,3.18-.061,4.765.062.397.031.793.077,1.19.112,1.271.111-.582-.11.187.018.722.12,1.442.234,2.159.383,1.56.324,3.1.746,4.606,1.264.376.129.75.264,1.121.406.089.034,1.298.534.396.142.752.326,1.488.686,2.206,1.081.625.344,1.237.712,1.835,1.101.303.197.602.399.898.606.101.071,1.185.856.721.512-.547-.405.411.33.413.331.385.313.763.634,1.136.961.566.497,1.118,1.01,1.658,1.535,1.193,1.16,2.324,2.385,3.405,3.651.59.691,1.162,1.397,1.724,2.111-.108-.137-.504-.668.011.018.313.417.625.834.931,1.256.989,1.363,1.936,2.757,2.845,4.174,1.732,2.698,3.329,5.48,4.838,8.309,1.109,2.08,4.169,2.896,6.157,1.614,2.114-1.363,2.801-3.932,1.614-6.157h0Z"/><path d="m129.326,37.064c1.328-2.49,2.724-4.943,4.221-7.335.752-1.202,1.53-2.388,2.335-3.555.443-.642.896-1.279,1.358-1.908.231-.315.467-.627.701-.94.573-.768-.408.49.253-.324,1.859-2.291,3.801-4.502,5.987-6.491.552-.502,1.116-.99,1.694-1.461.191-.155.383-.309.577-.46-.842.655.133-.082.26-.174,1.163-.833,2.381-1.594,3.653-2.25.312-.161.627-.316.945-.464-.006.003,1.043-.447.466-.211-.611.249.599-.228.568-.216.372-.141.745-.277,1.121-.406,1.507-.518,3.046-.94,4.606-1.264.651-.135,1.306-.243,1.962-.354,1.298-.218-.927.067.384-.047.397-.035.792-.081,1.19-.112,1.585-.123,3.178-.146,4.765-.062.66.035,1.316.098,1.973.159,1.303.122-.917-.178.37.047.389.068.778.128,1.166.203,1.545.297,3.069.703,4.554,1.222.309.108.616.221.921.339.211.081,1.013.433.196.069.719.32,1.427.66,2.119,1.033.578.312,1.147.643,1.702.993.335.211.665.429.991.654.147.101,1.433,1.082.643.448,1.101.884,2.147,1.83,3.124,2.849.443.463.873.938,1.29,1.425.25.293.492.592.735.89q.317.402.004.004c.154.206.306.414.456.623,1.698,2.371,3.118,4.935,4.298,7.601.092.207.42,1.019.083.184.146.363.293.726.433,1.091.233.609.455,1.222.666,1.84.504,1.476.944,2.974,1.326,4.486.41,1.624.752,3.264,1.025,4.917.074.451.146.903.206,1.357-.12-.902.06.589.063.619.096.909.17,1.82.219,2.733.09,1.669.099,3.342.016,5.011-.045.909-.132,1.811-.217,2.717-.134,1.435.095-.464-.044.378-.086.522-.165,1.045-.263,1.565-.308,1.635-.716,3.252-1.231,4.834-.248.761-.543,1.499-.817,2.25.309-.845.103-.231.02-.048-.206.451-.411.903-.631,1.348-.606,1.224-1.285,2.412-2.033,3.554-.408.623-.839,1.23-1.285,1.826.1-.133.554-.678.017-.032-.317.381-.631.762-.96,1.132-.901,1.014-1.867,1.97-2.893,2.857-.279.241-.565.473-.85.707.722-.594.081-.063-.113.079-.643.47-1.306.913-1.987,1.326-.628.381-1.272.737-1.93,1.065-.329.165-.664.315-.998.472,1.005-.472-.438.167-.634.238-1.274.462-2.572.66-3.873.998-.654.17,1.143-.102.078-.011-.436.037-.87.083-1.307.108-.667.038-1.336.051-2.005.041-.795-.012-1.59-.058-2.381-.133-.054-.005-1.183-.108-.429-.037.708.066-.641-.103-.771-.125-1.482-.258-2.946-.619-4.377-1.085-.656-.214-1.298-.459-1.941-.706,1.079.415.013,0-.177-.087-.408-.188-.812-.386-1.211-.595-.588-.308-1.165-.638-1.726-.993-.276-.174-.548-.354-.817-.541-.177-.123-.352-.248-.526-.377.484.381.534.42.153.115-1.026-.881-1.976-1.801-2.807-2.873-1.45-1.869-4.861-1.638-6.364,0-1.819,1.982-1.547,4.37,0,6.364,3.669,4.729,9.647,7.65,15.358,9.032,5.901,1.428,12.486,1.591,18.203-.678,6.459-2.564,11.706-6.952,15.694-12.62,4.271-6.07,6.399-13.361,6.984-20.703.589-7.404-.547-15.088-2.841-22.134-2.163-6.641-5.461-12.969-10.262-18.092C180.913.457,165.291-2.375,151.827,1.939c-14.377,4.607-23.478,17.844-30.273,30.582-1.107,2.076-.591,4.992,1.614,6.157,2.087,1.103,4.974.603,6.157-1.614h0Z"/><path d="m81.366,83.671c.962.605-.584-.58-.044-.077.207.193.416.378.607.588.332.363.322.691-.173-.256.128.246.317.469.455.713.211.373.436,1.245.009-.115.064.204.155.402.222.606.181.553.302,1.12.388,1.695l-.161-1.196c.121.951.122,1.897.006,2.849l.161-1.196c-.097.673-.246,1.333-.463,1.978-.038.114-.358.91-.044.175s-.036.05-.089.155c-.172.338-.365.666-.578.981-.087.128-.458.626-.024.051.467-.62-.056.023-.145.114-.118.121-.244.232-.365.349-.551.529.669-.419.208-.161-.147.083-.285.183-.433.266-.704.395.139.09.273-.073-.187.228-.942.28-1.217.329l1.196-.161c-.508.066-.996.071-1.505.011l1.196.161c-.448-.078-.86-.21-1.293-.345-.759-.236.7.331.206.09-.186-.091-.377-.174-.563-.265-.705-.346-1.349-.759-2.011-1.177-.424-.267.868.76.24.181-.118-.109-.241-.213-.357-.325-.144-.139-.272-.293-.414-.434-.369-.366.565.894.191.249-.101-.174-.214-.339-.309-.517-.239-.449,0-.546.105.284-.05-.392-.221-.787-.282-1.185l.161,1.196c-.075-.658-.062-1.302.023-1.959l-.161,1.196c.08-.498.19-.987.345-1.468.079-.243.181-.477.262-.719-.402,1.206-.184.454-.024.144.235-.454.5-.892.79-1.312.246-.356.71-.654-.102.112.178-.168.326-.379.5-.552l.179-.17c.354-.304.244-.22-.332.251l.208-.127c.448-.227.283-.164-.497.189.308-.103.607-.241.912-.352.757-.275,1.528-.482,2.326-.603l-1.196.161c.825-.104,1.639-.105,2.465-.008l-1.196-.161c.48.07.948.169,1.417.294,2.272.605,4.993-.76,5.536-3.143.538-2.362-.709-4.887-3.143-5.536-2.473-.659-5.046-.699-7.522-.029-2.083.564-4.194,1.453-5.693,3.047-3.699,3.934-5.363,9.756-2.964,14.771,1.033,2.158,3.082,3.863,5.128,5.015,2.22,1.251,4.777,2.323,7.371,2.033,3.301-.369,5.927-2.033,7.906-4.663,1.26-1.675,2.122-3.765,2.439-5.839.819-5.346-.827-10.886-5.59-13.882-1.996-1.255-5.047-.486-6.157,1.614-1.171,2.216-.516,4.817,1.614,6.157h0Z"/><path d="m124.61,83.671c.962.605-.584-.58-.044-.077.207.193.416.378.607.588.332.363.322.691-.173-.256.128.246.317.469.455.713.211.373.436,1.245.009-.115.064.204.155.402.222.606.181.553.302,1.12.388,1.695l-.161-1.196c.121.951.122,1.897.006,2.849l.161-1.196c-.097.673-.246,1.333-.463,1.978-.038.114-.358.91-.044.175s-.036.05-.089.155c-.172.338-.365.666-.578.981-.087.128-.458.626-.024.051.467-.62-.056.023-.145.114-.118.121-.244.232-.365.349-.551.529.669-.419.208-.161-.147.083-.285.183-.433.266-.704.395.139.09.273-.073-.187.228-.942.28-1.217.329l1.196-.161c-.508.066-.996.071-1.505.011l1.196.161c-.448-.078-.86-.21-1.293-.345-.759-.236.7.331.206.09-.186-.091-.377-.174-.563-.265-.705-.346-1.349-.759-2.011-1.177-.424-.267.868.76.24.181-.118-.109-.241-.213-.357-.325-.144-.139-.272-.293-.414-.434-.369-.366.565.894.191.249-.101-.174-.214-.339-.309-.517-.239-.449,0-.546.105.284-.05-.392-.221-.787-.282-1.185l.161,1.196c-.075-.658-.062-1.302.023-1.959l-.161,1.196c.08-.498.19-.987.345-1.468.079-.243.181-.477.262-.719-.402,1.206-.184.454-.024.144.235-.454.5-.892.79-1.312.246-.356.71-.654-.102.112.178-.168.326-.379.5-.552l.179-.17c.354-.304.244-.22-.332.251l.208-.127c.448-.227.283-.164-.497.189.308-.103.607-.241.912-.352.757-.275,1.528-.482,2.326-.603l-1.196.161c.825-.104,1.639-.105,2.465-.008l-1.196-.161c.48.07.948.169,1.417.294,2.272.605,4.993-.76,5.536-3.143.538-2.362-.709-4.887-3.143-5.536-2.473-.659-5.046-.699-7.522-.029-2.083.564-4.194,1.453-5.693,3.047-3.699,3.934-5.363,9.756-2.964,14.771,1.033,2.158,3.082,3.863,5.128,5.015,2.22,1.251,4.777,2.323,7.371,2.033,3.301-.369,5.927-2.033,7.906-4.663,1.26-1.675,2.122-3.765,2.439-5.839.819-5.346-.827-10.886-5.59-13.882-1.996-1.255-5.047-.486-6.157,1.614-1.171,2.216-.516,4.817,1.614,6.157h0Z"/><path d="m107.746,136.778c.822.302.166.052.003-.024.222.103.444.207.661.321.073.038,1.212.663,1.185.717-.015.031-.811-.728-.141-.107.153.142.308.275.456.422.143.142.271.296.411.44.549.566-.281-.551-.093-.103.034.081.38.807.477.845-.346-.138-.298-.905-.154-.326.039.159.09.35.144.508.233.669-.057-.288-.026-.425-.027.122.031.377.035.518.004.174-.011.345-.008.518.014.838.197-.723.041-.293-.058.16-.089.344-.127.511-.056.243-.342.617.004.092.428-.651-.299.522-.39.668-.077.124-.48.724-.133.237.351-.492-.104.105-.207.217-.123.133-.249.263-.379.389-.124.12-1.019.764-.263.269-.464.303-.919.604-1.413.858-.221.114-.448.223-.676.322.185-.08.79-.273-.018-.029-.457.138-.908.284-1.373.395-.271.065-.554.098-.821.174-.472.133.555-.015-.284.043-.577.039-1.151.072-1.73.057-.291-.007-.577-.029-.867-.047-.14-.008-.864-.152-.156-.014-1.221-.238-2.422-.529-3.617-.876-1.006-.292-1.997-.623-2.973-1.005.763.299.133.055-.017-.021-.228-.115-.458-.222-.683-.343-.216-.116-.431-.237-.64-.366-.115-.071-.915-.658-.403-.246.57.46-.726-.915-.369-.364.407.629-.361-.638.052.104l.095.236c-.099-.403-.12-.408-.063-.017.286.241-.084.321.019-.18.1-.485-.106.38-.067.412-.049-.04.159-.533.177-.628-.158.847-.096.225.139-.168.125-.209.264-.409.404-.608-.118.168-.557.607.021.024.33-.333.651-.671,1.003-.983.097-.086.769-.629.322-.286-.426.328.195-.129.298-.198.208-.139.418-.272.635-.398.308-.178.747-.389.164-.15.841-.345,1.767-.506,2.652-.7.828-.181,1.781-.492,2.63-.486-1.005-.007-.472.06-.19.034.358-.033.714-.07,1.073-.095.578-.04,1.156-.06,1.735-.062.629-.003,1.258.016,1.885.057.296.019.592.049.888.072.936.072-.387-.081.671.083,2.316.359,4.953-.587,5.536-3.143.49-2.15-.655-5.15-3.143-5.536-3.123-.483-6.182-.688-9.324-.294-2.384.299-4.94.638-7.18,1.548-5.968,2.426-12.324,9.882-7.869,16.36,1.959,2.848,5.141,4.345,8.312,5.449,3.073,1.07,6.442,1.941,9.715,1.828,6.51-.226,13.391-3.585,15.456-10.168.886-2.825.434-6.013-1.029-8.561-1.774-3.091-4.823-4.965-8.083-6.161-2.214-.812-5.027.908-5.536,3.143-.579,2.543.773,4.666,3.143,5.536h0Z"/></g></g></svg>