<?xml version="1.0" encoding="UTF-8"?><svg id="_레이어_2" xmlns="http://www.w3.org/2000/svg" viewBox="0 0 203.566 198.733"><g id="_레이어_1-2"><g><path d="m31.882,76.598c-3.791-2.954-7.225-6.339-10.229-10.092.018.023-.765-.983-.368-.464.332.435-.162-.219-.237-.32-.349-.468-.692-.941-1.028-1.419-.747-1.062-1.462-2.146-2.142-3.251-1.226-1.99-2.344-4.047-3.345-6.158-.25-.528-.494-1.059-.73-1.594-.092-.207-.432-1.014-.084-.178-.1-.24-.198-.48-.295-.721-.46-1.144-.887-2.302-1.28-3.471-.765-2.275-1.402-4.594-1.903-6.942-.243-1.142-.455-2.29-.633-3.444-.04-.256-.075-.513-.114-.77.14.92.03.231.008.039-.079-.709-.16-1.418-.221-2.129-.217-2.526-.283-5.07-.16-7.604.033-.671.08-1.342.143-2.011.035-.371.073-.742.119-1.113-.024.199-.126.779.024-.132.23-1.393.519-2.772.918-4.128.189-.641.407-1.268.631-1.897.297-.834.125-.352.045-.163.114-.273.241-.544.369-.812.539-1.129,1.171-2.214,1.891-3.237.144-.205.291-.409.443-.607-.557.728-.028.063.122-.112.366-.427.749-.839,1.15-1.234.355-.35.736-.67,1.103-1.007.865-.795-.479.296.113-.101.308-.207.606-.428.919-.628.469-.299.951-.576,1.447-.827.221-.112.446-.211.669-.319-.803.39-.243.097-.044.034.602-.19,1.186-.394,1.803-.536.247-.057.496-.103.744-.152,1.189-.236-.905.022.302-.031.502-.022,1.001-.055,1.504-.048.314.005.627.019.94.041.255.018,1.113.125.116-.019,1.128.163,2.241.44,3.321.803.303.102.598.227.901.327.699.232-.925-.47.165.072.462.23.927.448,1.38.697.567.311,1.12.646,1.659,1.002.216.143.425.295.64.439.788.529-.47-.431.325.236.89.746,1.741,1.523,2.528,2.378.379.412.74.838,1.097,1.268.559.673.181.229.068.077.25.334.493.674.73,1.017.71,1.032,1.36,2.106,1.957,3.208.299.553.585,1.113.859,1.679.153.315.302.632.447.951.074.162.558,1.276.219.47,2.38,5.645,3.867,11.725,5.112,17.707.344,1.652.658,3.31.943,4.973.149.871.29,1.744.423,2.617.048.318.095.636.142.954.02.136.2,1.445.103.714.444,3.345.75,6.708.953,10.076.141,2.345,1.969,4.613,4.5,4.5,2.317-.104,4.651-1.983,4.5-4.5-.756-12.592-2.806-25.604-7.224-37.469-2.102-5.647-4.929-11.162-9.264-15.438C36.82,3.612,31.349.837,25.411.153,13.011-1.274,3.55,9.175,1.096,20.461c-2.369,10.895-.718,22.907,3.223,33.246,4.346,11.403,11.538,21.727,21.199,29.256,1.852,1.444,4.582,1.941,6.364,0,1.482-1.614,1.983-4.819,0-6.364h0Z"/><path d="m24.726,77.388c-7.971,12.454-15.392,25.486-19.73,39.702-4.365,14.302-5.573,30.277-.738,44.629,2.23,6.62,5.701,12.942,10.76,17.826,4.52,4.364,9.965,7.387,15.75,9.724,5.381,2.174,11.031,3.604,16.687,4.86,5.485,1.217,11.005,2.572,16.58,3.303,6.103.801,12.289.988,18.436,1.132,6.622.155,13.247.162,19.871.162,2.354,0,4.609-2.07,4.5-4.5s-1.977-4.5-4.5-4.5c-11.288,0-22.637.117-33.895-.826-1.105-.093-2.21-.199-3.312-.329-.275-.033-.554-.083-.831-.103,1.374.098.458.061.142.014-.488-.072-.974-.151-1.459-.24-2.556-.47-5.092-1.079-7.635-1.612-5.725-1.2-11.464-2.414-17.043-4.193-1.277-.407-2.545-.843-3.799-1.318-.565-.214-1.124-.439-1.684-.664-1.126-.453.85.395-.25-.11-.434-.2-.872-.391-1.304-.595-2.452-1.159-4.818-2.51-7.014-4.105-.145-.105-1.081-.834-.213-.145-.23-.183-.459-.366-.685-.553-.499-.413-.987-.838-1.463-1.278-1.05-.972-2.038-2.011-2.954-3.11-.102-.123-.851-1.082-.204-.23-.247-.325-.488-.655-.724-.988-.412-.583-.807-1.178-1.186-1.784-.909-1.453-1.722-2.966-2.444-4.52-.548-1.18-.863-1.97-1.45-3.71-.549-1.628-1.012-3.285-1.401-4.959-.208-.896-.393-1.798-.558-2.703-.082-.452-.159-.905-.23-1.359.017.109-.199-1.379-.117-.765s-.101-.878-.089-.768c-.051-.456-.096-.912-.137-1.369-.088-.99-.152-1.982-.193-2.976-.314-7.495.462-13.469,2.225-20.495.968-3.861,2.199-7.652,3.631-11.365.327-.849.668-1.691,1.012-2.533.563-1.378-.342.764.254-.6.243-.556.484-1.112.732-1.665.807-1.799,1.655-3.579,2.538-5.342,3.542-7.069,7.633-13.843,11.893-20.498,1.271-1.986.475-5.053-1.614-6.157-2.23-1.178-4.8-.505-6.157,1.614h0Z"/><path d="m104.612,145.945c-2.951-1.268-6.038-2.163-8.997-3.408l1.075.454c-1.242-.531-2.44-1.129-3.564-1.881-.292-.195-.667-.594.437.353-.103-.088-.211-.17-.313-.259-.215-.187-.415-.387-.609-.595-.139-.149-.462-.573.073.114s.204.281.108.104c-.229-.423-.448-.84-.639-1.283l.454,1.075c-.424-1.047-.718-2.131-.975-3.23-.538-2.294-3.284-3.871-5.536-3.143-2.393.774-3.719,3.078-3.143,5.536.609,2.597,1.492,5.172,3.294,7.192,1.215,1.363,2.896,2.389,4.529,3.182,3.302,1.604,6.839,2.542,10.21,3.96l-1.075-.454.129.056c1.157.497,2.198.803,3.468.454,1.044-.287,2.175-1.095,2.689-2.068.552-1.044.828-2.31.454-3.468-.335-1.035-1.021-2.239-2.068-2.689h0Z"/><path d="m98.001,148.753l-2.385,7.04c-.149.44-.293.882-.448,1.32-.087.255-.18.507-.278.758.19-.458.17-.453-.06.014-.277.431-.283.452-.018.065l-.296.288c.376-.268.346-.255-.089.038-.238.147-.482.285-.731.413-.249.128-.501.25-.756.366-.402.177-.446.199-.135.065.556-.231-.708.261-.827.303-.804.284-1.623.527-2.452.729s-1.669.357-2.513.486c1.195-.182-.399.022-.623.039-.426.033-.853.055-1.281.068-.917.028-1.835.011-2.75-.05-.366-.025-.731-.066-1.097-.095-.521-.062-.487-.054.103.024-.242-.035-.484-.073-.725-.114-1.687-.289-3.348-.725-4.956-1.31-.119-.043-1.377-.55-.823-.311s-.681-.322-.793-.377c-.765-.373-1.511-.783-2.237-1.227s-1.428-.922-2.103-1.436c.876.667-.349-.317-.497-.448-.365-.321-.716-.656-1.063-.996-1.683-1.649-4.708-1.803-6.364,0-1.635,1.781-1.797,4.604,0,6.364,5.107,5.004,11.692,7.849,18.73,8.744,3.384.43,6.789.236,10.135-.41,3.543-.684,7.531-2.006,10.212-4.501,1.848-1.72,2.628-4.094,3.414-6.415l2.385-7.04c.756-2.232-.868-5.017-3.143-5.536-2.493-.568-4.726.754-5.536,3.143h0Z"/><path d="m19.842,125.271c8.785,4.378,17.929,8.051,27.315,10.923,2.251.689,5.006-.819,5.536-3.143.554-2.434-.733-4.798-3.143-5.536-4.433-1.357-8.812-2.884-13.121-4.596-.511-.203-1.021-.409-1.53-.617-.291-.119-.581-.239-.872-.359-.504-.211-.58-.242-.229-.094-1.013-.429-2.02-.871-3.024-1.321-2.151-.965-4.279-1.977-6.389-3.029s-4.97-.632-6.157,1.614c-1.076,2.037-.635,5.036,1.614,6.157h0Z"/><path d="m22.674,151.659c9.237,0,18.473,0,27.71,0,2.354,0,4.609-2.07,4.5-4.5s-1.977-4.5-4.5-4.5c-9.237,0-18.473,0-27.71,0-2.354,0-4.609,2.07-4.5,4.5s1.977,4.5,4.5,4.5h0Z"/><path d="m89.611,142.351c1.147-.857,2.43-1.499,3.744-2.058l-1.075.454c3.58-1.491,7.424-2.432,11.257-2.987,1.036-.15,2.187-1.209,2.689-2.068.564-.965.804-2.386.454-3.468-.352-1.089-1.027-2.139-2.068-2.689-1.143-.604-2.2-.637-3.468-.454-2.681.388-5.341.986-7.929,1.789-2.807.87-5.772,1.935-8.147,3.71-.974.728-1.732,1.471-2.068,2.689-.297,1.077-.163,2.512.454,3.468.619.961,1.542,1.807,2.689,2.068,1.103.251,2.519.256,3.468-.454h0Z"/><path d="m55.788,65.71c1.681-1.277,3.459-2.411,5.331-3.386.872-.455,1.762-.877,2.666-1.267-.818.352.737-.281.884-.337.528-.199,1.06-.388,1.596-.567,1.878-.628,3.794-1.14,5.732-1.551,1.107-.235,2.22-.436,3.339-.607.154-.023,1.565-.195.359-.057.495-.056.988-.119,1.483-.171,8.341-.874,16.792-.661,25.163-.497,2.355.046,4.607-2.103,4.5-4.5-.111-2.478-1.977-4.45-4.5-4.5-17.133-.337-36.681-1.278-51.095,9.668-1.868,1.419-3.041,3.944-1.614,6.157,1.191,1.847,4.152,3.137,6.157,1.614h0Z"/><path d="m48.474,158.493c-1.088,1.063-2.206,2.095-3.359,3.088-.56.483-1.126.956-1.701,1.421-.304.246-.613.486-.918.731-.446.357.749-.569.292-.225-.174.131-.346.264-.519.394-2.433,1.828-4.983,3.495-7.626,5.003-2.046,1.167-2.922,4.129-1.614,6.157,1.332,2.066,3.968,2.863,6.157,1.614,5.684-3.243,10.972-7.248,15.652-11.82,1.687-1.648,1.777-4.733,0-6.364-1.814-1.665-4.564-1.758-6.364,0h0Z"/><path d="m178.071,82.962c8.362-6.517,15.096-15.264,19.408-24.941,4.5-10.102,7-21.538,5.78-32.619-.705-6.405-2.637-12.433-6.768-17.465-3.696-4.502-8.951-7.324-14.743-7.852-11.994-1.092-21.96,8.409-26.595,18.571-2.882,6.319-4.704,13.076-6.139,19.855-1.547,7.306-2.536,14.745-2.984,22.199-.141,2.354,2.171,4.604,4.5,4.5,2.559-.115,4.349-1.978,4.5-4.5.183-3.048.455-6.09.831-9.12.04-.319.08-.638.122-.956-.085.641.023-.156.034-.237.103-.716.208-1.431.32-2.146.237-1.508.498-3.012.784-4.512,1.062-5.572,2.395-11.144,4.241-16.512.412-1.198.85-2.391,1.343-3.558-.297.705-.012.038.046-.086.148-.318.289-.639.439-.955.299-.632.612-1.257.942-1.874.591-1.105,1.235-2.182,1.938-3.22.195-.288.401-.568.599-.854.077-.111.516-.674.054-.087.432-.548.886-1.081,1.359-1.594.786-.854,1.634-1.64,2.528-2.378.66-.545.151-.108.01-.008.212-.149.42-.303.633-.45.587-.402,1.191-.778,1.812-1.125.507-.284,1.025-.54,1.549-.791.773-.371.149-.066-.014-.003.298-.116.596-.229.899-.334,1.139-.395,2.31-.684,3.502-.866-1.075.163.582-.01.868-.018.567-.015,1.127.017,1.692.043.213.01.866.129-.072-.031.249.043.498.082.746.133.678.139,1.346.325,1.999.555.234.083.996.427.131.028.224.104.448.208.669.319.441.223.871.466,1.291.727.263.163.52.335.773.512.197.138.836.669.129.079.478.399.946.808,1.389,1.245.4.395.783.807,1.15,1.234.086.1.601.707.242.272-.423-.513.326.451.324.448.684.972,1.288,2,1.809,3.069.125.256.246.515.36.776.332.757-.312-.961.136.366.189.562.396,1.116.568,1.684.431,1.424.733,2.875.98,4.341.022.13.111.881.024.132.034.296.068.593.098.89.074.743.127,1.488.163,2.234.064,1.302.074,2.607.043,3.91-.028,1.168-.09,2.335-.186,3.499-.054.646-.118,1.292-.192,1.937-.03.258-.062.515-.094.773.101-.813-.002-.011-.057.345-.733,4.745-2.025,9.402-3.817,13.857-.097.241-.196.481-.295.721.386-.932-.12.26-.163.356-.264.593-.537,1.182-.819,1.767-.592,1.228-1.223,2.438-1.892,3.626-1.305,2.319-2.754,4.558-4.339,6.695-.155.209-.311.416-.467.623.571-.756-.128.159-.254.317-.446.557-.901,1.106-1.366,1.648-.887,1.034-1.808,2.038-2.761,3.011-1.909,1.948-3.951,3.756-6.101,5.433-1.866,1.454-1.64,4.858,0,6.364,1.979,1.817,4.373,1.551,6.364,0h0Z"/><path d="m171.091,81.93c3.851,6.016,7.565,12.128,10.859,18.47,3.352,6.454,5.675,11.708,7.828,18.641,1.051,3.384,1.913,6.828,2.551,10.313.587,3.207.922,6.011,1.06,9.793.061,1.683.061,3.369-.003,5.052-.035.917-.09,1.833-.164,2.748-.037.457-.079.914-.127,1.37-.032.304-.065.608-.101.912-.064.503-.076.607-.036.312.082-.614-.134.874-.117.765-.071.454-.148.907-.23,1.359-.164.905-.35,1.807-.558,2.703-.388,1.674-.851,3.331-1.401,4.959-.587,1.74-.902,2.53-1.45,3.71-.722,1.554-1.535,3.067-2.444,4.52-.379.605-.774,1.2-1.186,1.784-.235.334-.477.663-.724.988.647-.852-.101.107-.204.23-.916,1.1-1.904,2.138-2.954,3.11-.475.44-.963.866-1.463,1.278-.226.187-.455.37-.685.553.868-.689-.067.039-.213.145-1.141.828-2.328,1.592-3.55,2.296-1.129.651-2.287,1.252-3.465,1.808-.324.153-.649.303-.976.449-.16.072-1.274.549-.245.118-.667.28-1.34.546-2.017.802-5.386,2.038-11.003,3.393-16.621,4.614-2.862.622-5.732,1.206-8.595,1.819-1.086.232-2.167.49-3.26.69-.401.074-.803.14-1.205.202-.257.039-.518.065-.773.113,1.466-.274.157-.025-.17.014-12.298,1.452-24.845,1.155-37.207,1.155-2.354,0-4.609,2.07-4.5,4.5s1.977,4.5,4.5,4.5c11.597,0,23.277.153,34.837-.908,5.308-.488,10.439-1.644,15.645-2.74,5.835-1.229,11.682-2.505,17.338-4.42,5.955-2.016,11.595-4.696,16.562-8.577,5.116-3.997,9.084-9.353,11.698-15.283,6.153-13.964,6.241-29.686,2.723-44.358-3.9-16.265-12.244-31.078-21.188-45.051-1.268-1.981-4.057-2.968-6.157-1.614-1.981,1.277-2.972,4.036-1.614,6.157h0Z"/><path d="m103.519,153.716l.129-.056-1.075.454c3.371-1.418,6.908-2.356,10.21-3.96,1.633-.793,3.313-1.819,4.529-3.182,1.803-2.022,2.684-4.593,3.294-7.192.537-2.287-.711-4.982-3.143-5.536-2.302-.524-4.96.692-5.536,3.143-.258,1.099-.551,2.183-.975,3.23l.454-1.075c-.179.417-.369.833-.603,1.223-.06.1-.137.194-.192.296.557-1.042.664-.806.338-.454-.175.189-.356.372-.549.543-.115.102-.269.199-.373.311.074-.079,1.028-.733.437-.353-1.141.732-2.316,1.347-3.564,1.881l1.075-.454c-2.959,1.245-6.047,2.14-8.997,3.408-.963.414-1.804,1.73-2.068,2.689-.297,1.077-.163,2.512.454,3.468.619.961,1.542,1.807,2.689,2.068,1.26.287,2.292.051,3.468-.454h0Z"/><path d="m96.909,151.146l2.067,6.102c.644,1.901,1.178,4.024,2.342,5.682,2.346,3.341,6.504,4.962,10.352,5.901,6.571,1.603,13.738,1.114,19.989-1.488,3.777-1.573,7.191-3.697,10.126-6.574,1.684-1.65,1.778-4.731,0-6.364-1.812-1.663-4.567-1.761-6.364,0-.347.34-.699.674-1.063.996-.093.082-1.12.947-.666.576.451-.369-.61.44-.715.513-.399.277-.806.542-1.22.795-.725.445-1.472.854-2.237,1.227-.328.16-.661.311-.994.461,1.026-.463-.428.156-.622.227-1.608.585-3.27,1.022-4.956,1.31-.241.041-.483.079-.725.114.59-.078.625-.086.103-.024-.366.032-.73.07-1.097.095-.915.062-1.833.078-2.75.05-.427-.013-.854-.035-1.281-.068-.223-.017-1.82-.216-.623-.039-.845-.125-1.684-.283-2.513-.486s-1.648-.445-2.452-.729c-.345-.122-.686-.254-1.027-.388,1.051.412-.504-.248-.691-.346-.249-.128-.493-.266-.731-.413-.39-.264-.463-.309-.219-.134.236.182.181.118-.166-.193.265.388.259.366-.018-.065-.231-.467-.251-.471-.06-.014-.098-.251-.191-.503-.278-.758-.154-.438-.299-.88-.448-1.32l-2.385-7.04c-.754-2.225-3.13-3.922-5.536-3.143-2.21.715-3.952,3.148-3.143,5.536h0Z"/><path d="m179.204,117.499c-2.11,1.051-4.238,2.064-6.389,3.029-1.004.45-2.011.892-3.024,1.321.351-.148.275-.117-.229.094-.29.121-.581.24-.872.359-.509.208-1.019.414-1.53.617-4.309,1.712-8.688,3.24-13.121,4.596-2.248.688-3.906,3.177-3.143,5.536.733,2.267,3.125,3.881,5.536,3.143,9.386-2.872,18.53-6.545,27.315-10.923,2.112-1.052,2.871-4.208,1.614-6.157-1.393-2.16-3.898-2.74-6.157-1.614h0Z"/><path d="m180.915,142.659c-9.237,0-18.473,0-27.71,0-2.354,0-4.609,2.07-4.5,4.5s1.977,4.5,4.5,4.5c9.237,0,18.473,0,27.71,0,2.354,0,4.609-2.07,4.5-4.5s-1.977-4.5-4.5-4.5h0Z"/><path d="m118.52,134.58c-2.374-1.775-5.34-2.84-8.147-3.71-2.588-.802-5.248-1.4-7.929-1.789-1.248-.181-2.334-.21-3.468.454-.933.546-1.824,1.617-2.068,2.689-.262,1.152-.206,2.445.454,3.468.589.914,1.562,1.905,2.689,2.068,3.833.555,7.677,1.496,11.257,2.987l-1.075-.454c1.314.559,2.597,1.201,3.744,2.058.874.654,2.466.729,3.468.454,1.044-.287,2.175-1.095,2.689-2.068.552-1.044.828-2.31.454-3.468-.383-1.184-1.078-1.949-2.068-2.689h0Z"/><path d="m152.343,57.939c-14.414-10.946-33.962-10.005-51.095-9.668-2.352.046-4.61,2.037-4.5,4.5.107,2.399,1.978,4.55,4.5,4.5,8.371-.164,16.822-.377,25.163.497.495.052.989.111,1.483.171-.893-.108-.053-.006.359.057,1.118.171,2.232.372,3.339.607,1.937.411,3.854.922,5.732,1.551.535.179,1.067.368,1.596.567.147.055,1.703.688.884.337.904.388,1.793.812,2.666,1.267,1.872.976,3.65,2.11,5.331,3.386,1.882,1.429,5.115.358,6.157-1.614,1.254-2.374.395-4.631-1.614-6.157h0Z"/><path d="m148.751,164.857c4.681,4.572,9.969,8.577,15.652,11.82,2.045,1.167,5.014.549,6.157-1.614,1.13-2.138.57-4.911-1.614-6.157-2.643-1.508-5.193-3.175-7.626-5.003-.139-.104-.277-.21-.416-.315-.479-.363.155.127.291.226-.316-.229-.616-.484-.919-.729-.575-.464-1.143-.937-1.703-1.418-1.187-1.02-2.338-2.08-3.457-3.174-1.686-1.647-4.707-1.805-6.364,0-1.633,1.779-1.799,4.606,0,6.364h0Z"/><path d="m72.464,106.718c.956.602-.595-.587-.056-.085.204.19.41.373.599.579.329.359.328.694-.18-.265.128.242.313.463.449.703.211.373.436,1.239.003-.128.064.202.153.396.219.598.178.546.298,1.104.382,1.671l-.161-1.196c.12.938.121,1.871.006,2.81l.161-1.196c-.095.664-.242,1.315-.457,1.951-.039.117-.355.904-.04.165s-.03.038-.085.146c-.17.334-.36.657-.57.967-.087.129-.455.622-.019.044.47-.623-.047.013-.138.106-.116.119-.24.229-.36.344-.548.527.678-.427.218-.169-.145.082-.281.181-.427.263-.724.407.186.064.284-.078-.151.219-.955.281-1.2.324l1.196-.161c-.501.065-.982.07-1.484.01l1.196.161c-.442-.077-.848-.207-1.275-.34-.756-.235.711.335.218.095-.184-.089-.372-.171-.555-.261-.696-.341-1.331-.748-1.983-1.16-.421-.266.872.762.249.188-.117-.108-.238-.21-.352-.32-.142-.138-.268-.289-.408-.428-.368-.367.57.899.198.258-.099-.171-.211-.334-.305-.51-.236-.443-.006-.553.11.295-.053-.388-.217-.774-.278-1.169l.161,1.196c-.074-.649-.061-1.284.023-1.932l-.161,1.196c.079-.491.187-.974.34-1.448.078-.24.178-.47.258-.709-.408,1.214-.191.468-.03.157.232-.447.493-.88.779-1.294.244-.353.709-.659-.11.123.175-.167.321-.373.493-.545l.177-.168c.354-.303.24-.217-.34.257l.205-.125c.447-.226.279-.162-.505.193.304-.103.598-.237.9-.347.747-.271,1.507-.476,2.294-.594l-1.196.161c.814-.103,1.616-.103,2.431-.008l-1.196-.161c.474.069.935.166,1.398.29,2.272.605,4.993-.76,5.536-3.143.538-2.362-.709-4.887-3.143-5.536-2.45-.652-4.998-.692-7.452-.029-2.065.559-4.157,1.442-5.642,3.021-3.669,3.901-5.312,9.67-2.933,14.642,1.023,2.137,3.054,3.827,5.08,4.968,2.199,1.238,4.731,2.3,7.301,2.013,3.28-.366,5.884-2.016,7.85-4.63,1.246-1.656,2.098-3.723,2.412-5.773.812-5.301-.818-10.789-5.541-13.76-1.996-1.255-5.047-.486-6.157,1.614-1.171,2.216-.516,4.817,1.614,6.157h0Z"/><path d="m134.902,106.718c.956.602-.595-.587-.056-.085.204.19.41.373.599.579.329.359.328.694-.18-.265.128.242.313.463.449.703.211.373.436,1.239.003-.128.064.202.153.396.219.598.178.546.298,1.104.382,1.671l-.161-1.196c.12.938.121,1.871.006,2.81l.161-1.196c-.095.664-.242,1.315-.457,1.951-.039.117-.355.904-.04.165s-.03.038-.085.146c-.17.334-.36.657-.57.967-.087.129-.455.622-.019.044.47-.623-.047.013-.138.106-.116.119-.24.229-.36.344-.548.527.678-.427.218-.169-.145.082-.281.181-.427.263-.724.407.186.064.284-.078-.151.219-.955.281-1.2.324l1.196-.161c-.501.065-.982.07-1.484.01l1.196.161c-.442-.077-.848-.207-1.275-.34-.756-.235.711.335.218.095-.184-.089-.372-.171-.555-.261-.696-.341-1.331-.748-1.983-1.16-.421-.266.872.762.249.188-.117-.108-.238-.21-.352-.32-.142-.138-.268-.289-.408-.428-.368-.367.57.899.198.258-.099-.171-.211-.334-.305-.51-.236-.443-.006-.553.11.295-.053-.388-.217-.774-.278-1.169l.161,1.196c-.074-.649-.061-1.284.023-1.932l-.161,1.196c.079-.491.187-.974.34-1.448.078-.24.178-.47.258-.709-.408,1.214-.191.468-.03.157.232-.447.493-.88.779-1.294.244-.353.709-.659-.11.123.175-.167.321-.373.493-.545l.177-.168c.354-.303.24-.217-.34.257l.205-.125c.447-.226.279-.162-.505.193.304-.103.598-.237.9-.347.747-.271,1.507-.476,2.294-.594l-1.196.161c.814-.103,1.616-.103,2.431-.008l-1.196-.161c.474.069.935.166,1.398.29,2.272.605,4.993-.76,5.536-3.143.538-2.362-.709-4.887-3.143-5.536-2.45-.652-4.998-.692-7.452-.029-2.065.559-4.157,1.442-5.642,3.021-3.669,3.901-5.312,9.67-2.933,14.642,1.023,2.137,3.054,3.827,5.08,4.968,2.199,1.238,4.731,2.3,7.301,2.013,3.28-.366,5.884-2.016,7.85-4.63,1.246-1.656,2.098-3.723,2.412-5.773.812-5.301-.818-10.789-5.541-13.76-1.996-1.255-5.047-.486-6.157,1.614-1.171,2.216-.516,4.817,1.614,6.157h0Z"/></g></g></svg>