<?xml version="1.0" encoding="UTF-8"?><svg id="_레이어_2" xmlns="http://www.w3.org/2000/svg" viewBox="0 0 203.245 184.594"><g id="_레이어_1-2"><g><g><path d="m101.622,78.759c-2.424.032-4.674.946-6.863,1.886-2.422,1.04-4.746,2.29-7.016,3.626-5.717,3.362-11.161,7.253-16.247,11.505-3.786,3.166-8.187,6.91-10.244,11.513-.846,1.893-1.035,3.706-1.26,5.786-.306,2.83-.228,5.639.35,8.434,1.013,4.896,3.854,9.635,7.695,12.834,9.118,7.596,22.113,9.328,33.585,9.352,2.354.005,4.609-2.073,4.5-4.5-.109-2.442-1.977-4.495-4.5-4.5-2.43-.005-4.859-.08-7.281-.282-.521-.043-1.041-.093-1.561-.149-.296-.032-.591-.073-.888-.101-.756-.07.62.097-.13-.013-1.174-.173-2.343-.368-3.505-.608-2.343-.484-4.653-1.124-6.904-1.934-.502-.181-.999-.374-1.497-.566-.911-.353-.274-.109-.083-.026-.244-.106-.487-.214-.728-.324-.978-.449-1.936-.945-2.856-1.503-.469-.285-.919-.593-1.375-.898-.113-.076-.675-.509-.088-.046-.165-.13-.327-.266-.487-.402-.89-.756-1.681-1.593-2.441-2.476.565.657-.156-.225-.321-.469-.293-.433-.567-.877-.824-1.333-.229-.406-.436-.823-.644-1.24-.383-.77-.101-.215-.032-.039-.126-.318-.244-.638-.353-.962-.337-.995-.57-2.006-.756-3.038.143.796.011.093.002-.074-.016-.312-.047-.621-.06-.933-.029-.701-.019-1.403.014-2.103.026-.546.067-1.091.12-1.635.03-.311.068-.621.101-.931.011-.103.117-.882.021-.194.063-.448.169-.849.27-1.284.187-.803-.438.866-.201.442.084-.149.149-.312.228-.464.215-.411.459-.806.717-1.191.117-.174.24-.344.36-.515.575-.821-.214.252-.129.152.359-.416.695-.85,1.06-1.262,1.706-1.927,3.603-3.685,5.553-5.361,1.123-.966,2.271-1.903,3.437-2.817.112-.088.226-.174.337-.263.463-.369-.707.535-.232.18.307-.23.61-.465.917-.695.617-.463,1.238-.919,1.863-1.37,2.416-1.742,4.893-3.403,7.433-4.961,2.429-1.49,4.918-2.907,7.51-4.099.279-.128.561-.247.84-.375.482-.221-1.026.403-.536.226.147-.053.29-.119.436-.176.481-.189.966-.366,1.459-.52.42-.131.843-.229,1.269-.333.779-.189-.262.106-.582.062.162.022.379-.031.545-.033,2.353-.031,4.61-2.048,4.5-4.5-.108-2.412-1.978-4.533-4.5-4.5h0Z"/><path d="m83.165,111.228v2.037c-.023.62.106,1.197.388,1.734.181.558.492,1.041.93,1.448.408.439.89.749,1.448.93.536.282,1.114.411,1.734.388l1.196-.161c.762-.214,1.424-.6,1.986-1.157l.704-.911c.407-.702.612-1.459.614-2.271v-2.037c.023-.62-.106-1.197-.388-1.734-.181-.558-.492-1.041-.93-1.448-.408-.439-.89-.749-1.448-.93-.536-.282-1.114-.411-1.734-.388l-1.196.161c-.762.214-1.424.6-1.986,1.157l-.704.911c-.407.702-.612,1.459-.614,2.271h0Z"/><path d="m101.622,87.759c.143.002.287.02.43.021.596.005-1.423-.274-.595-.075.367.088.735.161,1.098.267.395.115.784.247,1.17.387.197.072.393.146.588.223.116.046.231.095.348.139.722.275-.889-.392-.447-.189,2.23,1.024,4.398,2.138,6.518,3.377,2.521,1.473,4.977,3.059,7.376,4.722,1.267.879,2.519,1.781,3.752,2.706.268.201.535.405.803.608.627.474-.191-.115-.23-.18.063.104.374.291.449.35.591.463,1.176.932,1.757,1.407,2.094,1.715,4.132,3.511,6.016,5.458.777.803,1.495,1.647,2.217,2.498.382.451-.698-.97-.122-.15.138.197.28.39.414.59.244.364.476.737.682,1.124.093.175.171.357.264.531.298.56-.404-1.21-.222-.504.118.459.226.87.292,1.346-.014-.102-.064-.572-.008-.038.033.31.074.62.106.93.064.621.115,1.244.144,1.868.026.545.038,1.091.027,1.636-.006.311-.018.623-.038.934-.007.105-.134,1.27-.056.716.077-.543-.066.327-.09.448-.04.206-.083.412-.131.617-.125.54-.274,1.075-.447,1.602-.085.261-.184.516-.272.776-.053.157-.351.779-.011.054-.227.484-.457.965-.715,1.434-.253.459-.524.908-.813,1.345-.142.215-.292.424-.439.636-.114.164-.548.614.009-.006-.734.816-1.448,1.618-2.28,2.34-.212.184-.428.365-.648.539.494-.39-.021-.001-.258.163-.505.35-1.025.679-1.555.989-.988.577-2.016,1.057-3.051,1.539-.642.299.682-.253-.052.02-.358.133-.71.282-1.068.417-.638.24-1.281.466-1.928.678-1.207.397-2.43.747-3.664,1.051-1.296.319-2.605.588-3.921.81-.292.049-.585.097-.878.142-.101.015-1.239.17-.725.106.521-.065-.399.044-.509.056-.37.042-.741.081-1.112.117-2.717.263-5.446.357-8.175.362-2.354.005-4.609,2.066-4.5,4.5s1.977,4.505,4.5,4.5c10.237-.022,21.466-1.39,30.322-6.95,4.556-2.86,7.92-6.906,9.924-11.88,1.939-4.815,2.019-10.557.87-15.589-.546-2.39-2.122-4.456-3.628-6.318-1.677-2.073-3.625-3.928-5.621-5.689-5.006-4.416-10.471-8.388-16.151-11.892-2.591-1.598-5.249-3.118-8.026-4.371-2.417-1.09-4.987-2.213-7.691-2.248-2.355-.031-4.608,2.092-4.5,4.5.11,2.464,1.977,4.467,4.5,4.5h0Z"/><path d="m111.079,111.228v2.037c-.023.62.106,1.197.388,1.734.181.558.492,1.041.93,1.448.408.439.89.749,1.448.93.536.282,1.114.411,1.734.388l1.196-.161c.762-.214,1.424-.6,1.986-1.157l.704-.911c.407-.702.612-1.459.614-2.271v-2.037c.023-.62-.106-1.197-.388-1.734-.181-.558-.492-1.041-.93-1.448-.408-.439-.89-.749-1.448-.93-.536-.282-1.114-.411-1.734-.388l-1.196.161c-.762.214-1.424.6-1.986,1.157l-.704.911c-.407.702-.612,1.459-.614,2.271h0Z"/></g><g><path d="m15.655,60.34c-3.28,15.22-5.598,30.658-6.921,46.172-.635,7.45-1.035,14.921-1.195,22.397-.162,7.525-.591,15.414,1.101,22.804,2.855,12.466,13.638,21.01,24.895,25.81,5.22,2.226,10.604,3.856,16.212,4.738,5.392.849,10.835,1.341,16.282,1.67,11.846.716,23.73.735,35.594.593,2.353-.028,4.61-2.05,4.5-4.5-.108-2.414-1.978-4.53-4.5-4.5-10.151.121-20.31.109-30.454-.329-5.302-.229-10.606-.565-15.878-1.183-.585-.069-1.17-.148-1.755-.218-.687-.082,1.149.167.11.013-.303-.045-.607-.087-.911-.133-1.149-.173-2.296-.367-3.436-.59-2.39-.468-4.744-1.098-7.061-1.845-1.394-.45-2.773-.946-4.133-1.489-.109-.043-1.325-.555-.392-.154-.363-.156-.725-.315-1.085-.478-.716-.324-1.425-.662-2.127-1.014-2.562-1.286-5.031-2.767-7.335-4.474-.189-.14-.85-.668-.121-.085-.287-.23-.575-.46-.857-.695-.466-.389-.923-.788-1.37-1.198-1.049-.963-2.044-1.987-2.964-3.074-.226-.267-.445-.539-.664-.811.699.872-.02-.044-.13-.197-.333-.466-.652-.941-.956-1.427-.301-.481-.587-.972-.856-1.472-.161-.299-.315-.6-.463-.905-.105-.216-.666-1.606-.232-.469-.606-1.59-1.094-3.203-1.425-4.875-.059-.3-.114-.601-.165-.902-.005-.03-.208-1.517-.1-.619-.11-.911-.187-1.826-.244-2.742-.226-3.612-.179-7.247-.146-10.864.066-7.313.36-14.624.881-21.919,1.194-16.71,3.421-32.123,6.981-48.643.495-2.295-.682-4.975-3.143-5.536-2.266-.516-5.005.682-5.536,3.143h0Z"/><path d="m50.999,66.535c-10.656,6.704-8.997,25.089,2.947,29.443,3.452,1.259,6.864.39,10.066-1.086,2.809-1.295,5.328-3.091,7.182-5.588,3.858-5.197,2.489-12.548-1.147-17.474-1.147-1.554-2.395-3.072-4.11-4.035-1.144-.643-2.526-1.12-3.787-1.527-3.276-1.058-6.76-1.069-10.076-.186-2.274.606-3.887,3.236-3.143,5.536.756,2.337,3.098,3.792,5.536,3.143.325-.086.648-.169.977-.237.148-.03.961-.149.335-.074-.711.085.436-.019.473-.02.226-.01.453-.014.679-.012.217.002.435.01.652.024l.316.024c.409.044.413.042.012-.007l-.298-.039c.145.023.289.049.432.079.276.055.55.118.823.189.688.179,1.36.411,2.024.664.17.065.338.134.509.198.717.271-.295-.141-.299-.136.032-.04.558.35.574.324l-.38-.31c.171.142.335.291.493.448.16.157.304.327.458.49.552.584.023-.02-.072-.129.33.378.606.846.868,1.272.274.444.51.902.753,1.362.41.776.031-.053-.029-.127.159.199.276.73.354.971.158.489.242.991.381,1.484.181.645-.03-1.104,0-.033.006.222.029.441.032.664.003.221-.011.44-.014.661-.014.925.055-.201.049-.216.066.152-.136.635-.183.802-.043.16-.092.318-.148.474.232-.505.276-.606.133-.303-.195.35-.422,1.018-.753,1.259.067-.049.682-.756.09-.16-.153.154-.296.315-.452.465s-.325.288-.482.438c-.759.727.561-.349.005.003-.515.326-1.007.673-1.54.973-.385.217-.778.421-1.176.615-.197.097-.398.185-.595.283-1.039.514.584-.174-.094.047-.09.029-1.483.588-1.559.469-.028-.043,1.145-.031.161-.036-.056,0-1.003-.05-1.017-.034.174-.214.848.191.193-.017-.211-.067-.439-.135-.655-.193-1.01-.269.491.333-.027-.016-.228-.153-.503-.298-.745-.426-.478-.252-.256.052.079.098-.1-.014-.412-.359-.511-.454-.163-.156-.31-.335-.476-.488-.713-.656.339.599-.146-.153-.311-.482-.615-.953-.876-1.465-.057-.112-.313-.537-.295-.619-.005.02.367,1.018.069.12-.154-.465-.311-.926-.432-1.402-.048-.19-.092-.381-.132-.573-.032-.152-.248-1.197-.091-.422s-.004-.162-.013-.287c-.021-.296-.033-.594-.035-.891-.004-.497.035-.987.064-1.483.023-.379.244-.565-.048.316.087-.263.106-.596.168-.868.108-.475.243-.945.405-1.404-.014.039.214-.534.206-.543-.27.629-.302.725-.097.286l.131-.256c.078-.147.762-1.203.752-1.214.109.119-.72.778-.081.133.201-.202.387-.417.595-.613.139-.13.293-.246.429-.378.259-.213.146-.124-.339.267.159-.111.322-.217.488-.318,1.991-1.253,2.961-4.068,1.614-6.157-1.286-1.994-4.025-2.955-6.157-1.614h0Z"/><path d="m23.176,58.355c-.559-.456-1.093-.938-1.593-1.459-.255-.265-.501-.539-.74-.818-.121-.141-.234-.289-.356-.429-.43-.493.382.569.017.018-.893-1.349-1.764-2.676-2.501-4.121-.357-.699-.686-1.411-1.008-2.126-.356-.792.164.439-.154-.365-.167-.42-.333-.84-.492-1.262-.558-1.484-1.053-2.99-1.516-4.506-1.181-3.867-2.254-7.769-3.157-11.71-.443-1.931-.845-3.871-1.198-5.82-.169-.934-.328-1.871-.474-2.809-.073-.469-.142-.938-.21-1.408,0,.003-.104-.767-.048-.341.046.353-.06-.498-.07-.577-.543-4.471-.774-8.972-.64-13.475.07-2.355-2.12-4.607-4.5-4.5C2.039,2.756.112,4.621.037,7.144c-.254,8.539.83,17.097,2.65,25.43,1.662,7.61,3.682,15.393,7.027,22.457,1.702,3.595,3.992,7.151,7.099,9.687,1.82,1.486,4.607,1.914,6.364,0,1.512-1.648,1.947-4.774,0-6.364h0Z"/><path d="m5.72,10.656c1.285-.203,2.57-.406,3.857-.598.643-.096,1.287-.19,1.932-.278-.208.028-.69.086.255-.031.323-.04.645-.08.968-.118,2.494-.292,4.999-.485,7.509-.573,4.901-.172,9.799.066,14.667.644.02.002.758.095.299.035-.512-.066.416.059.522.074.597.087,1.193.179,1.788.277,1.264.208,2.524.442,3.779.702,2.362.489,4.705,1.069,7.022,1.739s4.608,1.429,6.865,2.277c.564.212,1.127.429,1.687.653.28.112.559.226.839.339.092.037.792.331.177.07,1.194.506,2.375,1.046,3.546,1.605,5.181,2.475,10.132,5.392,15.074,8.304,2.03,1.196,5.024.529,6.157-1.614,1.143-2.163.553-4.88-1.614-6.157-9.154-5.393-18.408-10.475-28.605-13.636C42.586,1.315,32.141-.172,21.823.016c-6.221.113-12.36.992-18.495,1.961C.996,2.345-.505,5.38.185,7.513c.82,2.533,3.036,3.538,5.536,3.143h0Z"/><path d="m101.622,20.355c-2.287-.006-4.569-.182-6.84-.438-.578-.065-1.155-.14-1.732-.21s.87.124-.01-.002c-.285-.041-.569-.081-.854-.122-1.157-.169-2.312-.353-3.465-.546-3.288-.55-6.615-1.404-9.946-1.646-2.353-.171-4.603,2.192-4.5,4.5.116,2.584,1.979,4.317,4.5,4.5.017.001.215.034.23.02.054.006.108.012.162.018l-.95-.128c.207-.044.542.082.753.116.718.118,1.434.248,2.15.378,1.947.352,3.894.706,5.847,1.026,4.834.794,9.744,1.521,14.653,1.533,2.354.006,4.609-2.074,4.5-4.5-.109-2.443-1.977-4.494-4.5-4.5h0Z"/><path d="m147.703,74.306l.247.155c.315.222.321.217.016-.016l-.225-.179c.112.089.222.181.328.277.312.297.606.599.901.912.572.605-.215-.198-.176-.24-.006.006.357.531.395.594.1.162.196.327.288.495.07.125.137.253.2.381.162.35.167.346.014-.013l-.111-.273c.073.179.142.36.206.543.065.183.125.368.181.554.113.374.208.754.287,1.137.04.194.021.993.066.275.048-.763.006.137.017.285.037.494.048.99.033,1.485-.005.173-.173,1.121-.083,1.185-.144-.103.176-1.074.007-.172-.036.193-.076.386-.12.577-.106.461-.237.916-.388,1.364-.047.139-.132.508-.234.645.582-.781.041-.11-.105.177-.233.457-.492.9-.78,1.324l-.096.141c-.292.402-.266.368.079-.102-.029.115-.408.451-.459.503-.159.163-.328.314-.493.471-.641.607.063,0,.104-.067-.114.183-.536.348-.728.455-.149.086-.3.166-.455.24.502-.196.597-.236.286-.121-.218.062-.431.147-.651.207-.335.091-.907.44.028.061-.279.113-1.086.143-1.356.011.736.358.462.092.148-.021-.282-.101-.581-.164-.866-.264-.248-.087-1.028-.27-.104-.022-.313-.084-.637-.292-.926-.433-.844-.414-1.668-.87-2.445-1.4-.295-.201-.86-.349-.014.018-.148-.064-.394-.333-.495-.425-.16-.145-.317-.296-.467-.451-.114-.115-.223-.235-.329-.357-.215-.25-.149-.157.197.282.031-.08-.612-.991-.68-1.107-.524-.894.12.595.008-.007-.048-.259-.142-.543-.217-.795-.177-.596.221-.096.011.222.036-.055-.035-.542-.038-.658-.004-.221-.001-.442.009-.662.011-.222.029-.444.054-.665l-.064.531c-.113-.318.313-1.34.413-1.65.07-.219.151-.433.228-.649.215-.605-.117-.067-.052.119-.077-.22.626-1.212.724-1.379.291-.495.618-.959.946-1.431.382-.551-.734.747.029-.008.237-.234.469-.48.7-.72.445-.461-.093-.067-.129.092l.281-.172c.485-.243.386-.211-.294.097.026.037,2.006-.742,2.177-.794.436-.134.877-.251,1.324-.343-.038.008.572-.096.574-.107-.7.085-.795.101-.286.046l.316-.024c.626-.039,1.234.015,1.858.025.652.01-.76-.177-.098-.015.451.11.907.19,1.357.309,2.272.605,4.993-.76,5.536-3.143.538-2.362-.709-4.887-3.143-5.536-3.068-.817-6.248-.87-9.32-.039-2.554.691-5.153,1.754-6.992,3.71-4.474,4.757-6.674,11.937-3.756,18.035,1.287,2.689,3.81,4.771,6.359,6.207,2.769,1.56,5.922,2.9,9.158,2.53,6.695-.766,11.465-6.562,12.449-13.024.989-6.497-1.041-13.328-6.824-16.965-1.996-1.255-5.047-.486-6.157,1.614-1.171,2.216-.516,4.817,1.614,6.157h0Z"/><path d="m178.911,62.733c3.177,14.742,5.281,28.574,6.558,43.293.632,7.288,1.038,14.595,1.215,21.908.09,3.726.124,7.453.093,11.18-.014,1.606-.043,3.212-.137,4.816-.049.841-.131,1.677-.206,2.515-.132,1.474.163-.837-.078.622-.075.453-.15.905-.239,1.355-.33,1.672-.818,3.284-1.425,4.875.415-1.089.006-.031-.086.164-.144.307-.294.61-.451.911-.314.604-.654,1.195-1.015,1.772-.304.485-.623.961-.956,1.427-.109.153-.829,1.069-.13.197-.219.273-.438.544-.664.811-.882,1.041-1.831,2.024-2.832,2.951-.489.453-.99.894-1.503,1.321-.283.236-.572.463-.857.695.687-.561.18-.136.029-.026-1.224.889-2.464,1.744-3.758,2.528-1.214.736-2.458,1.42-3.726,2.057-.585.294-1.174.577-1.768.85-.359.165-.72.323-1.081.485-.478.206-.484.21-.019.012-.245.101-.49.201-.736.299-4.717,1.883-9.614,3.167-14.631,3.924-.303.046-.607.088-.911.133-.803.119.159-.014.267-.033-.629.113-1.277.164-1.912.239-1.334.156-2.671.293-4.009.415-2.603.238-5.212.42-7.822.567-11.485.648-23.002.667-34.501.53-2.355-.028-4.608,2.09-4.5,4.5.11,2.462,1.977,4.47,4.5,4.5,10.52.126,21.051.111,31.562-.379,10.644-.496,21.6-1.195,31.732-4.739,11.214-3.923,22.972-10.968,27.872-22.33,3.11-7.213,3.039-15.089,2.991-22.807-.046-7.476-.332-14.95-.854-22.407-1.213-17.316-3.68-34.555-7.337-51.522-.497-2.304-3.314-3.862-5.536-3.143-2.428.786-3.675,3.067-3.143,5.536h0Z"/><path d="m186.432,64.719c5.52-4.508,8.41-11.8,10.465-18.417,2.538-8.17,4.496-16.487,5.583-24.977.602-4.703.869-9.44.728-14.181-.07-2.351-2.02-4.611-4.5-4.5-2.378.107-4.575,1.979-4.5,4.5.117,3.949-.042,7.898-.453,11.827-.049.471-.102.942-.158,1.413-.021.175-.166,1.316-.081.684-.137,1.019-.296,2.035-.465,3.049-.325,1.953-.701,3.897-1.12,5.832-.856,3.953-1.891,7.866-3.041,11.743-.482,1.624-.975,3.245-1.538,4.843-.255.724-.522,1.444-.805,2.157-.109.276-.455,1.077-.142.367-.185.419-.369.837-.563,1.252-.768,1.641-1.638,3.24-2.664,4.736-.168.245-.847,1.12-.304.457-.274.335-.549.668-.84.989-.608.672-1.265,1.289-1.967,1.862-1.831,1.495-1.668,4.833,0,6.364,1.945,1.786,4.411,1.595,6.364,0h0Z"/><path d="m199.917,1.977c-5.46-.862-10.931-1.68-16.461-1.902-5.045-.202-10.108.009-15.119.627-10.581,1.304-20.765,4.166-30.425,8.697-5.412,2.538-10.568,5.575-15.714,8.607-2.028,1.195-2.935,4.109-1.614,6.157s3.986,2.893,6.157,1.614c4.402-2.593,8.808-5.19,13.38-7.476,1.049-.524,2.105-1.033,3.172-1.52.549-.25,1.1-.494,1.653-.735.833-.363.358-.153.174-.076.348-.145.697-.287,1.047-.427,2.308-.926,4.654-1.758,7.029-2.495,4.607-1.429,9.325-2.501,14.097-3.205.298-.044.597-.088.895-.128-.2.027-.773.095.149-.015.599-.071,1.198-.141,1.797-.204,1.199-.124,2.401-.226,3.605-.303,2.482-.16,4.97-.222,7.457-.183,2.713.042,5.424.204,8.122.486.722.076,1.442.162,2.163.251.072.009.876.115.255.031.403.054.805.113,1.208.171,1.529.222,3.055.463,4.581.704,2.316.366,4.954-.592,5.536-3.143.491-2.156-.657-5.143-3.143-5.536h0Z"/><path d="m101.622,29.355c4.909-.012,9.819-.74,14.653-1.533,1.913-.314,3.821-.66,5.728-1.005.727-.131,1.454-.264,2.182-.385.257-.042.516-.077.772-.121-.043.007-1.392.145-.489.08,2.342-.17,4.614-1.948,4.5-4.5-.103-2.292-1.986-4.683-4.5-4.5-3.331.242-6.658,1.095-9.946,1.646-1.097.184-2.195.359-3.295.521-.284.042-.568.083-.853.123-.681.096-.407.232-.008.003-.38.218-1.302.164-1.732.213-2.329.266-4.668.452-7.013.458s-4.609,2.066-4.5,4.5,1.977,4.506,4.5,4.5h0Z"/></g></g></g></svg>