<?xml version="1.0" encoding="UTF-8"?><svg id="_레이어_2" xmlns="http://www.w3.org/2000/svg" viewBox="0 0 203.363 170.185"><g id="_레이어_1-2"><g><g><path d="m31.077,76.081c-2.648,12.303-4.467,24.799-5.412,37.349-.462,6.136-.709,12.288-.739,18.441-.03,6.229.034,12.52,2.845,18.229,4.547,9.231,15.006,14.695,24.528,17.262,7.454,2.009,15.517,2.213,23.19,2.507,8.692.334,17.396.367,26.092.263,2.353-.028,4.61-2.05,4.5-4.5-.108-2.414-1.978-4.53-4.5-4.5-7.251.086-14.505.07-21.754-.123-4.146-.11-8.292-.277-12.429-.568-1.896-.133-3.791-.293-5.68-.5-.424-.046-.847-.095-1.27-.147-.183-.022-.365-.046-.548-.069-.771-.095.328.04.395.054-.819-.162-1.658-.244-2.481-.393-1.71-.311-3.39-.744-5.049-1.263-1.145-.358-2.278-.756-3.393-1.198-.246-.097-.493-.196-.737-.299.776.324.133.054-.017-.016-.653-.306-1.308-.603-1.952-.929-.977-.495-1.935-1.028-2.868-1.603-.538-.332-1.068-.677-1.588-1.037-.206-.142-.41-.287-.612-.434-.181-.131-1.048-.834-.271-.196-.797-.654-1.574-1.325-2.305-2.054-.377-.376-.744-.763-1.096-1.163-.155-.175-.301-.359-.457-.534-.682-.763.387.575-.152-.187-.594-.84-1.15-1.699-1.622-2.615-.164-.318-.615-1.404-.251-.463-.309-.799-.578-1.603-.79-2.433-.172-.671-.303-1.348-.422-2.03-.02-.116-.1-.878-.027-.171-.032-.305-.065-.61-.091-.916-.133-1.53-.167-3.067-.182-4.602-.056-5.9.105-11.803.455-17.693.197-3.316.458-6.628.78-9.935.158-1.614.33-3.227.517-4.838.094-.806.191-1.611.292-2.417.051-.403.102-.805.155-1.208.031-.242.063-.483.095-.724-.042.311-.041.308.003-.011.923-6.691,2.104-13.343,3.526-19.947.494-2.295-.681-4.975-3.143-5.536-2.266-.516-5.006.682-5.536,3.143h0Z"/><path d="m59.153,56.717c-3.963,2.493-6.102,7.115-5.871,11.756.267,5.369,3.143,10.396,8.342,12.291,2.871,1.047,5.732.3,8.388-.925,2.283-1.053,4.269-2.551,5.766-4.578,3.09-4.183,2.082-10.206-.856-14.185-.976-1.321-2.016-2.6-3.475-3.42-.933-.524-2.065-.921-3.097-1.254-2.633-.851-5.459-.848-8.122-.139-2.274.606-3.887,3.236-3.143,5.536.756,2.337,3.098,3.792,5.536,3.143.472-.126.944-.225,1.427-.296l-1.196.161c.832-.098,1.651-.098,2.482.008l-1.196-.161c.803.121,1.579.33,2.342.607.308.112.608.252.919.354-.74-.336-.941-.418-.602-.244.11.054.217.116.319.185-.541-.443-.681-.553-.421-.329.095.08.186.164.274.253.161.158.409.355.504.556l-.395-.519c.102.135.201.272.298.412.293.423.559.865.796,1.322l.116.231c.2.431.154.308-.137-.368.043.202.157.406.223.602.176.523.301,1.054.388,1.599l-.161-1.196c.086.661.099,1.309.023,1.972l.161-1.196c-.041.269-.081,1.009-.284,1.193.165-.15.476-.98.103-.278-.096.179-.205.347-.311.52-.35.571.27-.323.267-.335.013.057-.35.382-.41.442-.143.143-.298.273-.445.412-.549.522.684-.47.236-.177-.66.431-1.316.837-2.025,1.185-.188.092-.38.174-.567.267-.485.242,1.083-.38.2-.088-.431.143-.853.269-1.302.347l1.196-.161c-.512.061-1.004.056-1.515-.011l1.196.161c-.382-.068-.736-.178-1.105-.287-.508-.15.919.488.259.089-.145-.088-.294-.176-.441-.26-.742-.419.531.508.194.169-.149-.15-.316-.282-.465-.434-.107-.11-.216-.291-.342-.375.237.159.59.827.167.203-.215-.316-.409-.647-.582-.987-.062-.121-.21-.327-.22-.462.021.274.377.963.125.242-.241-.688-.405-1.391-.509-2.112l.161,1.196c-.117-.958-.116-1.911.006-2.869l-.161,1.196c.086-.579.208-1.15.39-1.707.068-.207.151-.406.223-.61-.495,1.394-.181.451.013.108.088-.157.293-.643.458-.718l-.446.573c.089-.11.181-.217.277-.322.193-.211.403-.397.611-.592.54-.504-1.003.68-.038.072,1.991-1.253,2.961-4.068,1.614-6.157-1.286-1.994-4.025-2.955-6.157-1.614h0Z"/><path d="m71.906,112.505c-3.963,2.493-6.102,7.115-5.871,11.756.267,5.369,3.143,10.396,8.342,12.291,2.871,1.047,5.732.3,8.388-.925,2.283-1.053,4.269-2.551,5.766-4.578,3.09-4.183,2.082-10.206-.856-14.185-.976-1.321-2.016-2.6-3.475-3.42-.933-.524-2.065-.921-3.097-1.254-2.633-.851-5.459-.848-8.122-.139-2.274.606-3.887,3.236-3.143,5.536.756,2.337,3.098,3.792,5.536,3.143.472-.126.944-.225,1.427-.296l-1.196.161c.832-.098,1.651-.098,2.482.008l-1.196-.161c.803.121,1.579.33,2.342.607.308.112.608.252.919.354-.74-.336-.941-.418-.602-.244.11.054.217.116.319.185-.541-.443-.681-.553-.421-.329.095.08.186.164.274.253.161.158.409.355.504.556l-.395-.519c.102.135.201.272.298.412.293.423.559.865.796,1.322l.116.231c.2.431.154.308-.137-.368.043.202.157.406.223.602.176.523.301,1.054.388,1.599l-.161-1.196c.086.661.099,1.309.023,1.972l.161-1.196c-.041.269-.081,1.009-.284,1.193.165-.15.476-.98.103-.278-.096.179-.205.347-.311.52-.35.571.27-.323.267-.335.013.057-.35.382-.41.442-.143.143-.298.273-.445.412-.549.522.684-.47.236-.177-.66.431-1.316.837-2.025,1.185-.188.092-.38.174-.567.267-.485.242,1.083-.38.2-.088-.431.143-.853.269-1.302.347l1.196-.161c-.512.061-1.004.056-1.515-.011l1.196.161c-.382-.068-.736-.178-1.105-.287-.508-.15.919.488.259.089-.145-.088-.294-.176-.441-.26-.742-.419.531.508.194.169-.149-.15-.316-.282-.465-.434-.107-.11-.216-.291-.342-.375.237.159.59.827.167.203-.215-.316-.409-.647-.582-.987-.062-.121-.21-.327-.22-.462.021.274.377.963.125.242-.241-.688-.405-1.391-.509-2.112l.161,1.196c-.117-.958-.116-1.911.006-2.869l-.161,1.196c.086-.579.208-1.15.39-1.707.068-.207.151-.406.223-.61-.495,1.394-.181.451.013.108.088-.157.293-.643.458-.718l-.446.573c.089-.11.181-.217.277-.322.193-.211.403-.397.611-.592.54-.504-1.003.68-.038.072,1.991-1.253,2.961-4.068,1.614-6.157-1.286-1.994-4.025-2.955-6.157-1.614h0Z"/><path d="m35.416,72.777c-1.156.069-2.312.092-3.47.051-.61-.022-1.219-.059-1.827-.113-.27-.024-.539-.054-.808-.081-.876-.088.322.074-.211-.028-2.333-.446-4.607-.951-6.838-1.788-.252-.095-.501-.199-.753-.293.758.282.109.05-.041-.018-.552-.251-1.101-.507-1.641-.783-1.082-.552-2.133-1.161-3.149-1.827-.453-.297-.898-.604-1.335-.923-.167-.121-.866-.674-.222-.158-.212-.17-.423-.341-.631-.515-.929-.777-1.829-1.599-2.636-2.504-.178-.199-.353-.403-.52-.611.123.154.436.653-.011-.053-.284-.447-.525-.911-.794-1.366.385.651.074.235.008-.006-.083-.308-.157-.632-.251-.935-.187-.602-.062.667.019.037.04-.315-.008-.65.028-.971-.11.968.033.12.106-.128.038-.13.34-.877.11-.371-.233.512.138-.223.202-.336.129-.227.289-.437.416-.663.321-.572-.677.622.147-.165.188-.18.358-.377.548-.557.199-.188.407-.37.619-.543-.597.485.247-.139.426-.252.466-.293.949-.557,1.441-.802.247-.123.498-.238.749-.351-.174.078-.748.283.074-.018.547-.201,1.093-.407,1.654-.567.283-.08.598-.178.894-.22-.87.123.701.093-.137-.021,1.169.159,2.274.749,3.375,1.138.871.308,1.765.547,2.665.757,4.634,1.082,9.603,1.693,14.368,1.514,2.349-.088,4.612-2.007,4.5-4.5-.106-2.362-1.98-4.595-4.5-4.5-2.187.082-4.381-.057-6.555-.283-.238-.025-2.159-.271-1.015-.108-.548-.078-1.095-.16-1.641-.253-1.196-.202-2.388-.439-3.563-.744-2.691-.698-5.141-2.125-8.013-1.933-3.151.211-6.573,1.594-9.185,3.344-2.875,1.925-5.125,4.529-6.204,7.856-1.062,3.275-.388,6.89,1.313,9.818,1.441,2.48,3.557,4.536,5.788,6.302,2.271,1.798,4.651,3.395,7.274,4.635,5.996,2.835,12.589,4.231,19.226,3.836,2.345-.14,4.613-1.97,4.5-4.5-.104-2.318-1.983-4.65-4.5-4.5h0Z"/><path d="m42.275,54.949l1.607-7.428c.255-1.181.169-2.404-.454-3.468-.546-.933-1.617-1.824-2.689-2.068-1.152-.262-2.445-.206-3.468.454-.955.615-1.82,1.544-2.068,2.689l-1.607,7.428c-.255,1.181-.169,2.404.454,3.468.546.933,1.617,1.824,2.689,2.068,1.152.262,2.445.206,3.468-.454.955-.615,1.82-1.544,2.068-2.689h0Z"/><path d="m40.917,42.106c-.715-.281-1.429-.565-2.141-.854-.427-.174-.853-.35-1.279-.526l-.426-.177c.296.126.3.127.013.005-1.485-.633-2.961-1.285-4.428-1.958-2.864-1.313-5.694-2.701-8.485-4.162-5.652-2.959-11.139-6.223-16.449-9.759-1.964-1.308-5.067-.448-6.157,1.614-1.195,2.262-.482,4.761,1.614,6.157,11.089,7.384,22.95,13.466,35.345,18.339,2.196.863,5.035-.946,5.536-3.143.59-2.588-.792-4.611-3.143-5.536h0Z"/><path d="m2.18,31.254c5.955,3.225,12.917,3.458,19.505,4.221,6.708.777,13.417,1.554,20.125,2.331,2.347.272,4.6-2.264,4.5-4.5-.12-2.67-1.986-4.209-4.5-4.5-6.381-.739-12.762-1.478-19.143-2.218-1.554-.18-3.109-.36-4.663-.54-.791-.092-1.582-.182-2.373-.275-.365-.043-.73-.087-1.094-.132-.319-.039-.603-.087-.118-.014-1.452-.217-2.898-.463-4.318-.842-.632-.169-1.258-.363-1.873-.586-.25-.091-.907-.387-.336-.122-.397-.184-.784-.385-1.169-.593-2.069-1.121-4.997-.582-6.157,1.614-1.109,2.098-.596,4.96,1.614,6.157h0Z"/><path d="m45.846,35.057c1.053-1.778,2.171-3.515,3.372-5.196.301-.422.611-.837.918-1.254.098-.133.517-.678.004-.016.119-.154.24-.306.36-.458.684-.863,1.389-1.708,2.116-2.534,1.365-1.55,2.808-3.032,4.329-4.429.663-.608,1.34-1.201,2.032-1.775.395-.328.794-.65,1.198-.965-.671.523-.133.104.005.005.259-.187.515-.379.775-.565,1.659-1.187,3.393-2.27,5.194-3.228.845-.449,1.709-.85,2.573-1.261.161-.077.793-.345-.022-.002.235-.099.472-.194.71-.288.476-.188.955-.366,1.437-.536,2.226-.782,4.521-1.352,6.842-1.774,2.541-.462,3.876-.594,6.716-.855,5.648-.52,11.313-.914,16.987-.925,2.354-.005,4.609-2.066,4.5-4.5S103.915-.005,101.393,0c-5.284.011-10.555.363-15.817.821-5.385.469-10.855,1.041-16.027,2.689-8.567,2.729-16.172,8.007-22.256,14.573-3.507,3.785-6.591,7.993-9.218,12.431-1.2,2.027-.526,5.026,1.614,6.157,2.167,1.145,4.875.55,6.157-1.614h0Z"/><path d="m163.559,78.474c2.571,11.945,4.157,22.71,5.072,34.714.449,5.893.7,11.802.751,17.712.025,2.901.071,5.822-.162,8.717-.031.383-.066.765-.11,1.146.023-.203.129-.751-.027.171-.103.606-.218,1.209-.364,1.806-.185.757-.434,1.481-.678,2.22-.075.227-.439.934.02-.015-.148.305-.285.614-.44.915-.444.862-.956,1.687-1.521,2.474-.15.209-.665.815-.032.056-.15.179-.295.361-.447.539-.384.448-.785.883-1.2,1.302-.77.777-1.6,1.473-2.431,2.18.732-.622-.34.248-.575.415-.566.401-1.145.784-1.734,1.151-.928.579-1.882,1.116-2.856,1.616-.582.298-1.171.583-1.766.855-.24.109-.481.215-.722.322.726-.323-.134.053-.392.155-2.109.834-4.283,1.534-6.49,2.057-1.422.337-2.861.546-4.302.779-.63.102,1.216-.152.264-.035-.183.022-.365.046-.548.069-.375.046-.751.09-1.126.131-.991.11-1.984.206-2.978.293-4.042.352-8.096.554-12.15.695-8.289.289-16.587.318-24.879.219-2.355-.028-4.608,2.09-4.5,4.5.11,2.462,1.977,4.47,4.5,4.5,7.54.09,15.084.07,22.621-.147,8.053-.232,16.295-.478,24.221-2.05,9.6-1.904,19.347-6.907,25.194-14.919,3.481-4.769,4.463-10.612,4.594-16.392.138-6.111-.047-12.244-.393-18.346-.805-14.182-2.743-28.313-5.732-42.198-.496-2.304-3.314-3.862-5.536-3.143-2.428.786-3.674,3.067-3.143,5.536h0Z"/><path d="m139.619,64.488c.965.607-.578-.577-.038-.072.208.194.418.381.611.592.334.366.319.689-.169-.252.128.248.32.473.458.718.211.373.436,1.248.013-.108.064.206.156.405.223.61.182.557.304,1.128.39,1.707l-.161-1.196c.122.958.123,1.91.006,2.869l.161-1.196c-.097.678-.247,1.342-.467,1.992-.038.112-.359.914-.046.18s-.039.056-.091.16c-.173.341-.367.671-.582.987-.085.126-.449.637-.027.054.449-.619-.054.022-.148.118-.119.122-.245.234-.368.351-.552.531.664-.415.203-.157-.148.083-.287.185-.436.268-.695.39.117.101.267-.07-.203.231-.938.28-1.225.331l1.196-.161c-.511.066-1.003.072-1.515.011l1.196.161c-.451-.078-.866-.212-1.302-.347-.761-.236.694.328.2.088-.188-.091-.379-.175-.567-.267-.71-.348-1.358-.764-2.025-1.185-.426-.268.866.758.236.177-.119-.11-.243-.214-.359-.327-.145-.14-.274-.296-.416-.437-.369-.366.562.891.187.244-.101-.175-.216-.341-.311-.52-.241-.452.002-.542.103.278-.048-.394-.222-.793-.284-1.193l.161,1.196c-.076-.663-.062-1.311.023-1.972l-.161,1.196c.081-.502.191-.994.347-1.478.079-.245.183-.48.264-.724-.399,1.201-.181.447-.021.138.236-.457.503-.899.796-1.322.248-.358.71-.651-.097.107.179-.168.328-.382.504-.556l.18-.172c.355-.304.246-.221-.328.248l.21-.128c.449-.227.285-.165-.493.188.31-.104.611-.243.919-.354.763-.277,1.539-.486,2.342-.607l-1.196.161c.831-.105,1.65-.105,2.482-.008l-1.196-.161c.484.071.955.17,1.427.296,2.272.605,4.993-.76,5.536-3.143.538-2.362-.709-4.887-3.143-5.536-2.485-.662-5.07-.702-7.558-.029-2.093.566-4.213,1.459-5.719,3.061-3.715,3.95-5.389,9.8-2.98,14.836,1.038,2.169,3.097,3.881,5.153,5.039,2.231,1.257,4.799,2.334,7.407,2.043,3.312-.37,5.948-2.041,7.934-4.68,1.268-1.685,2.134-3.786,2.453-5.872.822-5.369-.831-10.934-5.614-13.943-1.996-1.255-5.047-.486-6.157,1.614-1.171,2.216-.516,4.817,1.614,6.157h0Z"/><path d="m126.866,120.277c.965.607-.578-.577-.038-.072.208.194.418.381.611.592.334.366.319.689-.169-.252.128.248.32.473.458.718.211.373.436,1.248.013-.108.064.206.156.405.223.61.182.557.304,1.128.39,1.707l-.161-1.196c.122.958.123,1.91.006,2.869l.161-1.196c-.097.678-.247,1.342-.467,1.992-.038.112-.359.914-.046.18s-.039.056-.091.16c-.173.341-.367.671-.582.987-.085.126-.449.637-.027.054.449-.619-.054.022-.148.118-.119.122-.245.234-.368.351-.552.531.664-.415.203-.157-.148.083-.287.185-.436.268-.695.39.117.101.267-.07-.203.231-.938.28-1.225.331l1.196-.161c-.511.066-1.003.072-1.515.011l1.196.161c-.451-.078-.866-.212-1.302-.347-.761-.236.694.328.2.088-.188-.091-.379-.175-.567-.267-.71-.348-1.358-.764-2.025-1.185-.426-.268.866.758.236.177-.119-.11-.243-.214-.359-.327-.145-.14-.274-.296-.416-.437-.369-.366.562.891.187.244-.101-.175-.216-.341-.311-.52-.241-.452.002-.542.103.278-.048-.394-.222-.793-.284-1.193l.161,1.196c-.076-.663-.062-1.311.023-1.972l-.161,1.196c.081-.502.191-.994.347-1.478.079-.245.183-.48.264-.724-.399,1.201-.181.447-.021.138.236-.457.503-.899.796-1.322.248-.358.71-.651-.097.107.179-.168.328-.382.504-.556l.18-.172c.355-.304.246-.221-.328.248l.21-.128c.449-.227.285-.165-.493.188.31-.104.611-.243.919-.354.763-.277,1.539-.486,2.342-.607l-1.196.161c.831-.105,1.65-.105,2.482-.008l-1.196-.161c.484.071.955.17,1.427.296,2.272.605,4.993-.76,5.536-3.143.538-2.362-.709-4.887-3.143-5.536-2.485-.662-5.07-.702-7.558-.029-2.093.566-4.213,1.459-5.719,3.061-3.715,3.95-5.389,9.8-2.98,14.836,1.038,2.169,3.097,3.881,5.153,5.039,2.231,1.257,4.799,2.334,7.407,2.043,3.312-.37,5.948-2.041,7.934-4.68,1.268-1.685,2.134-3.786,2.453-5.872.822-5.369-.831-10.934-5.614-13.943-1.996-1.255-5.047-.486-6.157,1.614-1.171,2.216-.516,4.817,1.614,6.157h0Z"/><path d="m167.898,81.777c5.636.335,11.451-.565,16.674-2.726s10.453-5.322,14.021-9.816c2.103-2.648,3.68-5.866,3.389-9.343-.285-3.392-1.903-6.608-4.47-8.861-2.421-2.125-5.341-3.563-8.41-4.502-1.888-.577-3.826-.693-5.763-.309-1.311.26-2.511.86-3.774,1.274-1.125.369-2.281.642-3.441.876-.707.143-1.418.269-2.131.382-.243.039-.487.073-.731.111-1.07.167.71-.072-.278.036-2.545.278-5.098.504-7.66.408-2.355-.089-4.606,2.133-4.5,4.5.113,2.514,1.977,4.405,4.5,4.5,4.274.161,8.659-.377,12.846-1.19,1.943-.377,3.774-.933,5.623-1.63.57-.215,1.136-.372,1.72-.541l.219-.048c-.458.069-.408.091.152.067-.15-.056-.816-.213.161.054.579.158,1.148.337,1.712.543.259.094.516.194.773.295-.848-.332.369.185.438.219.493.244.976.51,1.441.802.233.147.455.304.683.457-.615-.411-.066-.054.057.06.196.183.396.359.584.55-.018-.018.815.937.416.433-.335-.424.147.236.215.343.173.277.327.562.476.853-.4-.782-.036-.055.037.19.04.135.268.926.126.344-.157-.642-.018,1.386.034.739.055-.676-.134.514-.142.543-.07.249-.155.495-.247.736.078-.203.379-.705-.038-.01-.204.339-.414.676-.615,1.016-.08.135-.509.676-.011.053-.167.209-.342.412-.52.611-.353.397-.727.776-1.112,1.143-.394.377-.8.741-1.214,1.096-.206.177-.419.347-.625.524-.789.675.394-.259-.375.294-1.922,1.384-3.945,2.594-6.106,3.569-.112.05-.893.375-.39.173.462-.185-.65.244-.778.291-.569.209-1.143.405-1.722.583-1.289.398-2.601.721-3.927.966-.266.049-.532.091-.799.138-1.312.229.914-.078-.412.059-.674.069-1.348.132-2.025.168-1.36.073-2.721.056-4.08-.024-2.354-.14-4.604,2.17-4.5,4.5.115,2.558,1.978,4.35,4.5,4.5h0Z"/><path d="m169.718,52.557c-.536-2.476-1.071-4.952-1.607-7.428-.231-1.068-1.145-2.149-2.068-2.689-.965-.564-2.386-.804-3.468-.454-1.089.352-2.139,1.027-2.689,2.068-.584,1.105-.72,2.238-.454,3.468.536,2.476,1.071,4.952,1.607,7.428.231,1.068,1.145,2.149,2.068,2.689.965.564,2.386.804,3.468.454,1.089-.352,2.139-1.027,2.689-2.068.584-1.105.72-2.238.454-3.468h0Z"/><path d="m164.79,50.784c12.395-4.873,24.256-10.955,35.345-18.339,1.956-1.303,2.985-4.032,1.614-6.157-1.258-1.951-4.061-3.01-6.157-1.614-5.31,3.536-10.797,6.8-16.449,9.759-2.791,1.461-5.621,2.849-8.485,4.162-1.397.641-2.803,1.261-4.216,1.867-1.388.595.771-.314-.624.263-.355.147-.71.294-1.066.439-.783.319-1.568.632-2.355.942-2.183.858-3.946,3.053-3.143,5.536.686,2.119,3.19,4.065,5.536,3.143h0Z"/><path d="m196.592,23.483c-.318.172-.659.32-.972.5-.288.132-.262.126.078-.016l-.406.158c-.687.242-1.374.472-2.078.66-1.351.362-2.722.578-4.099.81-.798.135,1.058-.126-.336.046-.292.036-.584.072-.876.106-.782.093-1.564.182-2.346.273-1.636.19-3.272.379-4.909.569-6.381.739-12.762,1.478-19.143,2.218-2.33.27-4.618,1.876-4.5,4.5.099,2.206,1.996,4.79,4.5,4.5,6.708-.777,13.417-1.554,20.125-2.331,6.588-.763,13.55-.996,19.505-4.221,2.072-1.122,2.902-4.16,1.614-6.157-1.356-2.103-3.94-2.815-6.157-1.614h0Z"/><path d="m165.239,30.514c-4.677-7.899-10.724-14.922-18.183-20.305-3.632-2.621-7.627-4.679-11.836-6.204-4.93-1.787-10.181-2.486-15.376-2.991C113.889.434,107.907.012,101.921,0c-2.354-.005-4.609,2.073-4.5,4.5.109,2.442,1.977,4.495,4.5,4.5,5.049.01,10.086.333,15.115.761,1.171.1,2.341.204,3.51.323.545.056,1.09.115,1.635.178.311.036.622.075.932.114-.781-.097.661.097.663.097,2.378.361,4.742.846,7.045,1.544.919.279,1.829.59,2.725.934.227.087,1.571.666.695.273.523.235,1.045.471,1.561.722,1.775.865,3.49,1.853,5.136,2.944.853.565,1.681,1.163,2.501,1.774-.749-.558.426.343.599.485.397.325.79.656,1.178.993,1.558,1.352,3.038,2.792,4.44,4.305.792.854,1.559,1.731,2.301,2.629.33.399.654.803.976,1.21.532.671.113.15.009.012.233.311.467.621.697.935,1.374,1.876,2.643,3.825,3.828,5.825,1.199,2.026,4.106,2.936,6.157,1.614,2.039-1.315,2.898-3.989,1.614-6.157h0Z"/></g><path d="m162.386,117.077c-1.059-4.941-2.779-9.92-6.356-13.631-3.293-3.417-7.887-5.332-12.488-6.185-4.786-.888-9.661-.987-14.504-1.31-5.13-.342-10.256-.762-15.39-1.048-10.56-.588-21.055-.257-31.597.497-4.936.353-9.875.642-14.813.974-4.846.325-9.619.984-14.082,2.978-9.969,4.454-12.68,16.076-13.45,25.988-.426,5.478.298,11.033,2.634,16.035,1.192,2.553,3.104,4.731,5.496,6.222,2.145,1.337,4.676,2.062,7.103,2.696,9.935,2.595,20.305,3.41,30.537,3.729,10.768.336,21.592.334,32.36,0,10.231-.318,20.602-1.134,30.537-3.729,2.427-.634,4.958-1.359,7.103-2.696,2.39-1.49,4.305-3.671,5.496-6.222,2.335-4.999,3.062-10.559,2.634-16.035-.217-2.775-.654-5.538-1.22-8.262-.48-2.308-3.325-3.858-5.536-3.143-2.441.79-3.658,3.063-3.143,5.536.243,1.166.456,2.335.644,3.51.004.025.11.754.046.288-.072-.517.047.403.059.512.075.666.137,1.334.182,2.004.074,1.11.104,2.223.078,3.335-.014.59-.043,1.179-.089,1.767-.017.22-.039.439-.059.659-.127,1.404.176-.837-.073.549-.194,1.085-.43,2.155-.757,3.209-.153.494-.337.974-.507,1.462.252-.726.043-.085-.031.065-.182.372-.363.741-.57,1.101-.103.179-.211.354-.323.527-.064.099-.576.777-.247.377s-.237.238-.317.319c-.143.146-.306.277-.444.427.461-.503.18-.111-.033.026-.223.143-.444.287-.674.418-.232.132-.471.243-.704.37-.724.394.261-.05-.214.097-4.236,1.306-8.494,2.319-12.88,3.002-.573.089-1.147.173-1.721.254-.91.129-.298.039-.105.014-.291.037-.581.074-.872.109-1.172.143-2.347.27-3.522.382-2.397.23-4.8.401-7.205.532-10.023.543-20.091.484-30.125.384-4.891-.049-9.783-.164-14.665-.462-2.392-.146-4.782-.336-7.166-.586-.586-.062-1.172-.127-1.758-.196-.219-.026-.437-.053-.655-.08-.114-.014-1.021-.128-.49-.06s-.37-.051-.484-.068c-.287-.041-.575-.083-.862-.126-.643-.096-1.284-.198-1.925-.305-2.173-.365-4.335-.799-6.477-1.317-1.009-.244-2.015-.503-3.013-.79-.517-.149-1.032-.304-1.541-.481-.253-.088-.506-.18-.756-.277.599.234.111.044-.204-.115-.415-.21-.812-.445-1.201-.699-.734-.479-.154-.145-.033-.026-.195-.192-.392-.382-.587-.574-.579-.569-.208-.216-.076-.04-.163-.218-.314-.453-.457-.683-.329-.529-.595-1.084-.866-1.643-.227-.467.027.046.054.123-.098-.279-.208-.553-.303-.832-.19-.556-.358-1.12-.506-1.689s-.273-1.141-.379-1.717c-.04-.216-.069-.435-.11-.65-.095-.49.032.502-.038-.332-.201-2.37-.193-4.729.041-7.097.018-.184.226-1.796.11-1.025.077-.516.157-1.032.246-1.546.208-1.204.449-2.404.726-3.594.231-.992.49-1.979.797-2.95.163-.517.339-1.029.531-1.536.072-.189.144-.379.222-.565-.367.882.17-.316.209-.394.209-.418.433-.828.673-1.229.137-.229.279-.454.426-.676.066-.1.55-.782.231-.355-.29.39.112-.131.147-.171.179-.201.354-.403.541-.596.388-.402.809-.76,1.226-1.13.487-.432-.596.366-.036.041.209-.121.402-.275.607-.404.359-.227.727-.44,1.103-.639.25-.132,1.494-.687.584-.317.514-.209,1.036-.396,1.565-.564.894-.286,1.804-.518,2.723-.71.496-.104.995-.195,1.496-.278.251-.042.504-.077.756-.117-.64.101-.317.04.134-.012,4.358-.508,8.769-.602,13.145-.912,9.758-.69,19.501-1.408,29.291-1.168,9.518.233,19.005,1.155,28.508,1.693.951.054,1.902.116,2.851.196.446.038.892.079,1.337.127.255.027.509.057.763.086,1.273.144-.939-.162.322.047,1.92.318,3.819.726,5.645,1.413.133.05.85.363.315.118s.17.09.296.152c.382.187.759.386,1.126.601.42.247.82.52,1.222.794-.137-.094-.672-.579-.043-.029.232.203.464.405.687.619.329.316.635.65.938.991.569.641.145.186.038.033.153.218.306.436.451.659.29.447.557.91.806,1.382.125.237.239.479.358.719.171.343.206.448.033.032.833,2.002,1.359,4.124,1.813,6.239.494,2.305,3.315,3.861,5.536,3.143,2.43-.786,3.672-3.066,3.143-5.536Z"/></g></g></svg>